M48
METRIC,LZ,000.000
;FILE_FORMAT=3:3
;TYPE=PLATED
;Layer: PTH_Through
;EasyEDA v6.5.54, 2026-03-27 08:28:27
;aa70f002849a4553b1fb356c613fbdd1,527f212168e84142b7e3dec4b37e9156,10
;Gerber Generator version 0.2
;Holesize 1 = 0.310 mm
T01C0.310
;Holesize 2 = 0.901 mm
T02C0.901
;Holesize 3 = 1.000 mm
T03C1.000
;Holesize 4 = 1.200 mm
T04C1.200
;Holesize 5 = 3.501 mm
T05C3.501
%
G05
G90
T01
X039000Y049865
X008500Y039500
X008500Y036000
X067250Y031000
X089250Y011000
X081250Y006000
X073250Y011000
X081250Y025000
X026750Y011000
X018750Y006000
X010750Y011000
X032750Y031000
X039000Y035600
X067350Y053000
X043500Y051000
X032750Y053000
X019500Y039500
X019500Y036000
X082500Y039500
X082500Y036000
X071500Y036000
X071500Y039500
T02
X089204Y043325G85X089204Y044225
X084795Y041975G85X084795Y042875
X089204Y047325G85X089204Y048225
X089204Y050325G85X089204Y051225
X078205Y043325G85X078205Y044225
X073795Y041975G85X073795Y042875
X078205Y047325G85X078205Y048225
X078205Y050325G85X078205Y051225
X026205Y043325G85X026205Y044225
X021795Y041975G85X021795Y042875
X026205Y047325G85X026205Y048225
X026205Y050325G85X026205Y051225
X015205Y043325G85X015205Y044225
X010795Y041975G85X010795Y042875
X015205Y047325G85X015205Y048225
X015205Y050325G85X015205Y051225
T03
X048820Y027200
X046280Y027200
X051360Y027200
X053900Y027200
X015000Y036000
X011000Y036000
X011000Y039500
X015000Y039500
X015000Y032500
X015000Y028500
X026000Y036000
X022000Y036000
X022000Y039500
X026000Y039500
X026000Y032500
X026000Y028500
X089000Y036000
X085000Y036000
X085000Y039500
X089000Y039500
X085000Y032500
X085000Y028500
X078000Y028500
X078000Y032500
X078000Y039500
X074000Y039500
X074000Y036000
X078000Y036000
T04
X032750Y044750
X032750Y051250
X037250Y044750
X037250Y051250
X062850Y044750
X062850Y051250
X067350Y044750
X067350Y051250
X026750Y012750
X026750Y019250
X031250Y012750
X031250Y019250
X068750Y012750
X068750Y019250
X073250Y012750
X073250Y019250
X032750Y032750
X032750Y039250
X037250Y032750
X037250Y039250
X062750Y032750
X062750Y039250
X067250Y032750
X067250Y039250
X018750Y016750
X018750Y023250
X023250Y016750
X023250Y023250
X018750Y007750
X018750Y014250
X023250Y007750
X023250Y014250
X010750Y012750
X010750Y019250
X015250Y012750
X015250Y019250
X076750Y007750
X076750Y014250
X081250Y007750
X081250Y014250
X076750Y016750
X076750Y023250
X081250Y016750
X081250Y023250
X084750Y012750
X084750Y019250
X089250Y012750
X089250Y019250
X005750Y024750
X005750Y031250
X010250Y024750
X010250Y031250
X089750Y024750
X089750Y031250
X094250Y024750
X094250Y031250
T05
X004000Y050000
X096000Y050000
X096000Y004000
X004000Y004000
M30
