M48
METRIC,LZ,000.000
;FILE_FORMAT=3:3
;TYPE=PLATED
;Layer: PTH_Through_Via
;EasyEDA v6.5.54, 2026-03-27 08:28:27
;aa70f002849a4553b1fb356c613fbdd1,527f212168e84142b7e3dec4b37e9156,10
;Gerber Generator version 0.2
;Holesize 1 = 0.310 mm
T01C0.310
%
G05
G90
T01
X039000Y049865
X008500Y039500
X008500Y036000
X067250Y031000
X089250Y011000
X081250Y006000
X073250Y011000
X081250Y025000
X026750Y011000
X018750Y006000
X010750Y011000
X032750Y031000
X039000Y035600
X067350Y053000
X043500Y051000
X032750Y053000
X019500Y039500
X019500Y036000
X082500Y039500
X082500Y036000
X071500Y036000
X071500Y039500
M30
