G04 Layer: TopLayer*
G04 EasyEDA v6.5.54, 2026-03-27 08:28:27*
G04 aa70f002849a4553b1fb356c613fbdd1,527f212168e84142b7e3dec4b37e9156,10*
G04 Gerber Generator version 0.2*
G04 Scale: 100 percent, Rotated: No, Reflected: No *
G04 Dimensions in millimeters *
G04 leading zeros omitted , absolute positions ,4 integer and 5 decimal *
%FSLAX45Y45*%
%MOMM*%

%ADD10C,0.2000*%
%ADD11C,0.5000*%
%ADD12C,0.2540*%
%ADD13R,2.0000X0.8000*%
%ADD14R,2.0000X1.2000*%
%ADD15R,1.2000X2.0000*%
%ADD16R,1.0100X0.6100*%
%ADD17C,1.8000*%
%ADD18C,0.0173*%
%ADD19R,1.5000X2.5000*%
%ADD20C,1.6000*%
%ADD21C,3.8000*%
%ADD22C,0.6200*%

%LPD*%
G36*
X6104026Y4680915D02*
G01*
X6100165Y4681728D01*
X6096863Y4683912D01*
X6023203Y4757521D01*
X6016955Y4762601D01*
X6010300Y4766005D01*
X6002934Y4767986D01*
X5997041Y4768443D01*
X5986068Y4768443D01*
X5982157Y4769205D01*
X5978855Y4771390D01*
X5976670Y4774692D01*
X5975908Y4778603D01*
X5975908Y4791913D01*
X5975197Y4798212D01*
X5973267Y4803698D01*
X5970168Y4808575D01*
X5966104Y4812690D01*
X5961176Y4815789D01*
X5955741Y4817668D01*
X5949391Y4818380D01*
X5750560Y4818380D01*
X5744210Y4817668D01*
X5739384Y4815992D01*
X5735574Y4815433D01*
X5731865Y4816348D01*
X5728716Y4818583D01*
X5726633Y4821783D01*
X5725871Y4825593D01*
X5725871Y4893411D01*
X5726633Y4897170D01*
X5728716Y4900422D01*
X5731865Y4902657D01*
X5735574Y4903520D01*
X5739384Y4902962D01*
X5744210Y4901285D01*
X5750560Y4900574D01*
X5949391Y4900574D01*
X5955741Y4901285D01*
X5961176Y4903216D01*
X5966104Y4906264D01*
X5970168Y4910378D01*
X5973267Y4915255D01*
X5975197Y4920742D01*
X5975908Y4927041D01*
X5975908Y4938877D01*
X5976670Y4942738D01*
X5978855Y4946040D01*
X5982157Y4948275D01*
X5986068Y4949037D01*
X5989929Y4948275D01*
X5993231Y4946040D01*
X6111240Y4828082D01*
X6113424Y4824780D01*
X6114186Y4820869D01*
X6114186Y4691075D01*
X6113424Y4687214D01*
X6111240Y4683912D01*
X6107938Y4681728D01*
G37*

%LPD*%
G36*
X6196380Y4554067D02*
G01*
X6192418Y4554778D01*
X6189065Y4556963D01*
X6186779Y4560265D01*
X6186017Y4564227D01*
X6186017Y4839462D01*
X6185154Y4847437D01*
X6182868Y4854549D01*
X6179058Y4861153D01*
X6175197Y4865624D01*
X6029299Y5011521D01*
X6023051Y5016601D01*
X6016396Y5020005D01*
X6009030Y5021986D01*
X6003137Y5022443D01*
X5986068Y5022443D01*
X5982157Y5023205D01*
X5978855Y5025390D01*
X5976670Y5028692D01*
X5975908Y5032603D01*
X5975908Y5045913D01*
X5975197Y5052212D01*
X5973267Y5057698D01*
X5970168Y5062575D01*
X5966104Y5066690D01*
X5961176Y5069789D01*
X5955741Y5071668D01*
X5949391Y5072380D01*
X5750560Y5072380D01*
X5744210Y5071668D01*
X5739384Y5069992D01*
X5735574Y5069433D01*
X5731865Y5070348D01*
X5728716Y5072583D01*
X5726633Y5075783D01*
X5725871Y5079593D01*
X5725871Y5147411D01*
X5726633Y5151170D01*
X5728716Y5154422D01*
X5731865Y5156657D01*
X5735574Y5157520D01*
X5739384Y5156962D01*
X5744210Y5155285D01*
X5750560Y5154574D01*
X5949391Y5154574D01*
X5955741Y5155285D01*
X5961176Y5157216D01*
X5966104Y5160264D01*
X5970168Y5164378D01*
X5973267Y5169255D01*
X5975197Y5174742D01*
X5975908Y5181041D01*
X5975908Y5194401D01*
X5976670Y5198313D01*
X5978855Y5201615D01*
X5982157Y5203799D01*
X5986068Y5204561D01*
X6150406Y5204561D01*
X6154318Y5203799D01*
X6157620Y5201615D01*
X6176772Y5182463D01*
X6178956Y5179212D01*
X6179718Y5175351D01*
X6179007Y5171541D01*
X6174790Y5160822D01*
X6171133Y5146700D01*
X6169304Y5132273D01*
X6169304Y5117693D01*
X6171133Y5103266D01*
X6174790Y5089194D01*
X6180124Y5075631D01*
X6187135Y5062880D01*
X6195669Y5051145D01*
X6205677Y5040528D01*
X6216853Y5031232D01*
X6229146Y5023459D01*
X6243218Y5016855D01*
X6246317Y5014620D01*
X6248400Y5011420D01*
X6249111Y5007660D01*
X6249111Y4592320D01*
X6248400Y4588560D01*
X6246317Y4585360D01*
X6243218Y4583125D01*
X6229146Y4576521D01*
X6216853Y4568748D01*
X6205677Y4559452D01*
X6203594Y4557268D01*
X6200292Y4554931D01*
G37*

%LPD*%
G36*
X6053988Y4481017D02*
G01*
X6050127Y4481830D01*
X6046825Y4484014D01*
X6027267Y4503521D01*
X6021019Y4508601D01*
X6014364Y4512005D01*
X6006998Y4513986D01*
X6001105Y4514443D01*
X5986068Y4514443D01*
X5982157Y4515205D01*
X5978855Y4517390D01*
X5976670Y4520692D01*
X5975908Y4524603D01*
X5975908Y4537913D01*
X5975197Y4544263D01*
X5973267Y4549698D01*
X5970168Y4554575D01*
X5966104Y4558690D01*
X5961176Y4561789D01*
X5955741Y4563668D01*
X5949391Y4564380D01*
X5750560Y4564380D01*
X5744210Y4563668D01*
X5739384Y4561992D01*
X5735574Y4561433D01*
X5731865Y4562348D01*
X5728716Y4564583D01*
X5726633Y4567783D01*
X5725871Y4571593D01*
X5725871Y4639411D01*
X5726633Y4643170D01*
X5728716Y4646422D01*
X5731865Y4648657D01*
X5735574Y4649520D01*
X5739384Y4648962D01*
X5744210Y4647285D01*
X5750560Y4646574D01*
X5949391Y4646574D01*
X5955741Y4647285D01*
X5961176Y4649216D01*
X5966104Y4652264D01*
X5970168Y4656378D01*
X5973267Y4661255D01*
X5975197Y4666742D01*
X5975908Y4673041D01*
X5975908Y4678781D01*
X5976670Y4682642D01*
X5978855Y4685944D01*
X5982157Y4688179D01*
X5986068Y4688941D01*
X5989929Y4688179D01*
X5993231Y4685944D01*
X6061202Y4618024D01*
X6063386Y4614722D01*
X6064148Y4610811D01*
X6064148Y4491177D01*
X6063386Y4487316D01*
X6061202Y4484014D01*
X6057900Y4481830D01*
G37*

%LPD*%
G36*
X6037376Y4249267D02*
G01*
X6033008Y4249420D01*
X6029096Y4251350D01*
X6025083Y4254601D01*
X6018428Y4258005D01*
X6011062Y4259986D01*
X6005169Y4260443D01*
X5986068Y4260443D01*
X5982157Y4261205D01*
X5978855Y4263390D01*
X5976670Y4266692D01*
X5975908Y4270603D01*
X5975908Y4283913D01*
X5975197Y4290263D01*
X5973267Y4295698D01*
X5970168Y4300575D01*
X5966104Y4304690D01*
X5961176Y4307789D01*
X5955741Y4309668D01*
X5949391Y4310380D01*
X5750560Y4310380D01*
X5744210Y4309668D01*
X5739384Y4307992D01*
X5735574Y4307433D01*
X5731865Y4308348D01*
X5728716Y4310583D01*
X5726633Y4313783D01*
X5725871Y4317593D01*
X5725871Y4385411D01*
X5726633Y4389170D01*
X5728716Y4392422D01*
X5731865Y4394657D01*
X5735574Y4395520D01*
X5739384Y4394962D01*
X5744210Y4393285D01*
X5750560Y4392574D01*
X5949391Y4392574D01*
X5955741Y4393285D01*
X5961176Y4395216D01*
X5966104Y4398264D01*
X5970168Y4402378D01*
X5973267Y4407255D01*
X5975197Y4412742D01*
X5975908Y4419041D01*
X5975908Y4428845D01*
X5976670Y4432706D01*
X5978855Y4436008D01*
X5982157Y4438243D01*
X5986068Y4439005D01*
X5989929Y4438243D01*
X5993231Y4436008D01*
X6011164Y4418126D01*
X6013348Y4414824D01*
X6014110Y4410913D01*
X6014110Y4310380D01*
X6014974Y4302404D01*
X6017260Y4295292D01*
X6021070Y4288688D01*
X6024930Y4284218D01*
X6042660Y4266438D01*
X6045047Y4262780D01*
X6045606Y4258411D01*
X6044336Y4254246D01*
X6041390Y4250994D01*
G37*

%LPD*%
G36*
X5986068Y4011066D02*
G01*
X5982157Y4011828D01*
X5978855Y4014063D01*
X5976670Y4017365D01*
X5975908Y4021226D01*
X5975908Y4029913D01*
X5975197Y4036263D01*
X5973267Y4041698D01*
X5970168Y4046575D01*
X5966104Y4050690D01*
X5961176Y4053789D01*
X5955741Y4055668D01*
X5949391Y4056379D01*
X5750560Y4056379D01*
X5744210Y4055668D01*
X5739384Y4053992D01*
X5735574Y4053433D01*
X5731865Y4054348D01*
X5728716Y4056583D01*
X5726633Y4059783D01*
X5725871Y4063593D01*
X5725871Y4131411D01*
X5726633Y4135170D01*
X5728716Y4138422D01*
X5731865Y4140657D01*
X5735574Y4141520D01*
X5739384Y4140962D01*
X5744210Y4139285D01*
X5750560Y4138574D01*
X5949391Y4138574D01*
X5955741Y4139285D01*
X5961176Y4141215D01*
X5966104Y4144264D01*
X5970168Y4148378D01*
X5973267Y4153255D01*
X5975197Y4158742D01*
X5975908Y4165041D01*
X5975908Y4178452D01*
X5976670Y4182364D01*
X5978855Y4185665D01*
X5982157Y4187850D01*
X5986475Y4188612D01*
X5990386Y4187850D01*
X5993688Y4185665D01*
X6054242Y4125112D01*
X6060490Y4120032D01*
X6067145Y4116628D01*
X6072784Y4115155D01*
X6076543Y4113225D01*
X6079185Y4109923D01*
X6080302Y4105859D01*
X6079642Y4101693D01*
X6077305Y4098137D01*
X5993231Y4014063D01*
X5989929Y4011828D01*
G37*

%LPD*%
G36*
X5986068Y3752443D02*
G01*
X5982157Y3753205D01*
X5978855Y3755390D01*
X5976670Y3758692D01*
X5975908Y3762603D01*
X5975908Y3775913D01*
X5975197Y3782263D01*
X5973267Y3787698D01*
X5970168Y3792575D01*
X5966104Y3796690D01*
X5961176Y3799789D01*
X5955741Y3801668D01*
X5949391Y3802379D01*
X5750560Y3802379D01*
X5744210Y3801668D01*
X5739384Y3799992D01*
X5735574Y3799433D01*
X5731865Y3800348D01*
X5728716Y3802583D01*
X5726633Y3805783D01*
X5725871Y3809593D01*
X5725871Y3877411D01*
X5726633Y3881170D01*
X5728716Y3884422D01*
X5731865Y3886657D01*
X5735574Y3887520D01*
X5739384Y3886962D01*
X5744210Y3885285D01*
X5750560Y3884574D01*
X5949391Y3884574D01*
X5955741Y3885285D01*
X5961176Y3887215D01*
X5966104Y3890264D01*
X5970168Y3894378D01*
X5973267Y3899255D01*
X5975197Y3904742D01*
X5975908Y3911041D01*
X5975908Y3924452D01*
X5976670Y3928364D01*
X5978855Y3931665D01*
X5982157Y3933850D01*
X5986068Y3934612D01*
X5999988Y3934612D01*
X6007963Y3935476D01*
X6015075Y3937762D01*
X6021628Y3941572D01*
X6027267Y3946448D01*
X6030569Y3948379D01*
X6034379Y3948937D01*
X6038138Y3948074D01*
X6041288Y3945839D01*
X6043371Y3942587D01*
X6044082Y3938828D01*
X6044082Y3809034D01*
X6043320Y3805123D01*
X6041136Y3801821D01*
X5994704Y3755390D01*
X5991402Y3753205D01*
G37*

%LPD*%
G36*
X5735574Y3291433D02*
G01*
X5731865Y3292348D01*
X5728716Y3294583D01*
X5726633Y3297783D01*
X5725871Y3301593D01*
X5725871Y3369411D01*
X5726633Y3373170D01*
X5728716Y3376422D01*
X5731865Y3378657D01*
X5735574Y3379520D01*
X5739384Y3378962D01*
X5744210Y3377285D01*
X5750560Y3376574D01*
X5949391Y3376574D01*
X5952794Y3376980D01*
X5957011Y3376523D01*
X5960668Y3374440D01*
X5963208Y3371037D01*
X5964072Y3366871D01*
X5964072Y3304133D01*
X5963208Y3299968D01*
X5960668Y3296513D01*
X5957011Y3294430D01*
X5952794Y3294024D01*
X5949391Y3294379D01*
X5750560Y3294379D01*
X5744210Y3293668D01*
X5739384Y3291992D01*
G37*

%LPD*%
G36*
X5893663Y3049625D02*
G01*
X5889447Y3050946D01*
X5886196Y3053943D01*
X5884519Y3058007D01*
X5884722Y3062376D01*
X5885332Y3064611D01*
X5885789Y3070504D01*
X5885789Y3112414D01*
X5886551Y3116326D01*
X5888736Y3119628D01*
X5892038Y3121812D01*
X5895949Y3122574D01*
X5947206Y3122574D01*
X5951067Y3121812D01*
X5954369Y3119628D01*
X5956554Y3116326D01*
X5957366Y3112414D01*
X5956554Y3108553D01*
X5954369Y3105251D01*
X5901740Y3052572D01*
X5898032Y3050235D01*
G37*

%LPD*%
G36*
X4587646Y2985871D02*
G01*
X4583531Y2986735D01*
X4580077Y2989275D01*
X4577994Y2992932D01*
X4577537Y2997149D01*
X4577892Y3000044D01*
X4577892Y3179165D01*
X4578654Y3183026D01*
X4580839Y3186328D01*
X4584141Y3188563D01*
X4588052Y3189325D01*
X4649927Y3189325D01*
X4653788Y3188563D01*
X4657090Y3186328D01*
X4659274Y3183026D01*
X4660087Y3179165D01*
X4660087Y3000044D01*
X4660392Y2997149D01*
X4659985Y2992932D01*
X4657902Y2989275D01*
X4654448Y2986735D01*
X4650282Y2985871D01*
G37*

%LPD*%
G36*
X4771085Y2935833D02*
G01*
X4767224Y2936595D01*
X4763922Y2938780D01*
X4761738Y2942082D01*
X4760925Y2945993D01*
X4761738Y2949854D01*
X4763922Y2953156D01*
X4771085Y2960370D01*
X4774946Y2964891D01*
X4777130Y2968548D01*
X4779416Y2971241D01*
X4782464Y2972968D01*
X4785868Y2973578D01*
X4805426Y2973578D01*
X4811725Y2974289D01*
X4817211Y2976219D01*
X4822088Y2979267D01*
X4826203Y2983382D01*
X4829251Y2988259D01*
X4831181Y2993745D01*
X4831892Y3000044D01*
X4831892Y3179165D01*
X4832654Y3183026D01*
X4834839Y3186328D01*
X4838141Y3188563D01*
X4842052Y3189325D01*
X4903927Y3189325D01*
X4907788Y3188563D01*
X4911090Y3186328D01*
X4913274Y3183026D01*
X4914087Y3179165D01*
X4914087Y3000044D01*
X4914798Y2993745D01*
X4916678Y2988259D01*
X4919776Y2983382D01*
X4923891Y2979267D01*
X4928260Y2976524D01*
X4930902Y2974086D01*
X4932578Y2970834D01*
X4932984Y2967228D01*
X4932070Y2963722D01*
X4930038Y2960725D01*
X4908092Y2938780D01*
X4904790Y2936595D01*
X4900879Y2935833D01*
G37*

%LPD*%
G36*
X4971237Y2875889D02*
G01*
X4967376Y2876651D01*
X4964074Y2878836D01*
X4961890Y2882138D01*
X4961077Y2886049D01*
X4961890Y2889910D01*
X4964074Y2893212D01*
X5024983Y2954172D01*
X5030063Y2960420D01*
X5033924Y2968040D01*
X5036210Y2970987D01*
X5039360Y2972917D01*
X5043017Y2973578D01*
X5059426Y2973578D01*
X5065725Y2974289D01*
X5071211Y2976219D01*
X5076088Y2979267D01*
X5080203Y2983382D01*
X5083251Y2988259D01*
X5085181Y2993745D01*
X5085892Y3000044D01*
X5085892Y3179165D01*
X5086654Y3183026D01*
X5088839Y3186328D01*
X5092141Y3188563D01*
X5096052Y3189325D01*
X5157927Y3189325D01*
X5161788Y3188563D01*
X5165090Y3186328D01*
X5167274Y3183026D01*
X5168087Y3179165D01*
X5168087Y3000044D01*
X5168798Y2993745D01*
X5170678Y2988259D01*
X5173776Y2983382D01*
X5177840Y2979267D01*
X5179771Y2978099D01*
X5182412Y2975660D01*
X5184089Y2972409D01*
X5184495Y2968802D01*
X5183581Y2965297D01*
X5181549Y2962300D01*
X5098084Y2878836D01*
X5094782Y2876651D01*
X5090871Y2875889D01*
G37*

%LPD*%
G36*
X5179060Y2817672D02*
G01*
X5175351Y2818231D01*
X5163667Y2822194D01*
X5160162Y2824226D01*
X5157724Y2827528D01*
X5156809Y2831541D01*
X5157520Y2835554D01*
X5159756Y2838958D01*
X5279085Y2958338D01*
X5282946Y2962808D01*
X5286197Y2968498D01*
X5288483Y2971190D01*
X5291531Y2972968D01*
X5295036Y2973578D01*
X5313426Y2973578D01*
X5319725Y2974289D01*
X5325211Y2976219D01*
X5330088Y2979267D01*
X5334203Y2983382D01*
X5337251Y2988259D01*
X5339181Y2993745D01*
X5339892Y3000044D01*
X5339892Y3179165D01*
X5340654Y3183026D01*
X5342839Y3186328D01*
X5346141Y3188563D01*
X5350052Y3189325D01*
X5411927Y3189325D01*
X5415788Y3188563D01*
X5419090Y3186328D01*
X5421274Y3183026D01*
X5422087Y3179165D01*
X5422087Y3000044D01*
X5422798Y2993745D01*
X5424678Y2988259D01*
X5427726Y2983433D01*
X5433009Y2978302D01*
X5435244Y2975000D01*
X5436057Y2971088D01*
X5435295Y2967177D01*
X5433110Y2963875D01*
X5358130Y2888792D01*
X5354878Y2886557D01*
X5350967Y2885795D01*
X5266436Y2885795D01*
X5258460Y2884932D01*
X5251348Y2882646D01*
X5244744Y2878836D01*
X5240274Y2875026D01*
X5185816Y2820619D01*
X5182717Y2818536D01*
G37*

%LPD*%
G36*
X5491480Y2766415D02*
G01*
X5487720Y2767076D01*
X5484418Y2769057D01*
X5474004Y2784449D01*
X5464860Y2794863D01*
X5454446Y2804007D01*
X5442915Y2811678D01*
X5430520Y2817825D01*
X5417413Y2822295D01*
X5415889Y2822600D01*
X5411876Y2824327D01*
X5408980Y2827578D01*
X5407710Y2831744D01*
X5408320Y2836062D01*
X5410657Y2839720D01*
X5533136Y2962402D01*
X5540654Y2971444D01*
X5543550Y2973019D01*
X5546852Y2973578D01*
X5567426Y2973578D01*
X5573725Y2974289D01*
X5579211Y2976219D01*
X5584088Y2979267D01*
X5588203Y2983382D01*
X5591251Y2988259D01*
X5593181Y2993745D01*
X5593892Y3000044D01*
X5593892Y3179165D01*
X5594654Y3183026D01*
X5596839Y3186328D01*
X5600141Y3188563D01*
X5604052Y3189325D01*
X5699404Y3189325D01*
X5705754Y3190036D01*
X5710580Y3191713D01*
X5714390Y3192272D01*
X5718098Y3191357D01*
X5721248Y3189173D01*
X5723331Y3185922D01*
X5724093Y3182112D01*
X5724093Y3149041D01*
X5724804Y3142742D01*
X5726684Y3137255D01*
X5729782Y3132378D01*
X5733846Y3128264D01*
X5738774Y3125216D01*
X5744210Y3123285D01*
X5750560Y3122574D01*
X5803798Y3122574D01*
X5807710Y3121812D01*
X5811012Y3119628D01*
X5813196Y3116326D01*
X5813958Y3112414D01*
X5813958Y3089198D01*
X5813196Y3085287D01*
X5811012Y3081985D01*
X5498388Y2769412D01*
X5495239Y2767279D01*
G37*

%LPD*%
G36*
X1919020Y2685897D02*
G01*
X1915109Y2686659D01*
X1911807Y2688844D01*
X1725777Y2874873D01*
X1719529Y2879953D01*
X1712874Y2883357D01*
X1705508Y2885338D01*
X1699615Y2885795D01*
X1606448Y2885795D01*
X1602790Y2886456D01*
X1599590Y2888437D01*
X1597355Y2891434D01*
X1591665Y2902966D01*
X1583994Y2914497D01*
X1581556Y2917240D01*
X1579626Y2920593D01*
X1579016Y2924403D01*
X1579930Y2928162D01*
X1582166Y2931312D01*
X1585417Y2933395D01*
X1589176Y2934106D01*
X1599438Y2934106D01*
X1605737Y2934817D01*
X1611223Y2936748D01*
X1616100Y2939796D01*
X1620215Y2943910D01*
X1623314Y2948787D01*
X1625193Y2954274D01*
X1625904Y2960573D01*
X1625904Y3039465D01*
X1625193Y3045764D01*
X1624330Y3050032D01*
X1625193Y3054248D01*
X1625904Y3060598D01*
X1625904Y3139440D01*
X1625193Y3145739D01*
X1623314Y3151225D01*
X1620215Y3156102D01*
X1616100Y3160217D01*
X1611223Y3163316D01*
X1605737Y3165195D01*
X1599438Y3165906D01*
X1589176Y3165906D01*
X1585417Y3166668D01*
X1582166Y3168751D01*
X1579930Y3171901D01*
X1579016Y3175609D01*
X1579626Y3179419D01*
X1581556Y3182772D01*
X1583994Y3185566D01*
X1591665Y3197047D01*
X1597812Y3209493D01*
X1602282Y3222599D01*
X1604975Y3236214D01*
X1605889Y3250031D01*
X1604975Y3263849D01*
X1602282Y3277412D01*
X1597812Y3290519D01*
X1591665Y3302965D01*
X1583994Y3314496D01*
X1574850Y3324910D01*
X1564436Y3334004D01*
X1552905Y3341725D01*
X1541526Y3347313D01*
X1538528Y3349599D01*
X1536547Y3352749D01*
X1535887Y3356457D01*
X1535836Y3493515D01*
X1536496Y3497224D01*
X1538478Y3500374D01*
X1541475Y3502660D01*
X1552956Y3508298D01*
X1564436Y3515969D01*
X1574850Y3525113D01*
X1583994Y3535527D01*
X1591665Y3547059D01*
X1597812Y3559454D01*
X1602282Y3572611D01*
X1604975Y3586175D01*
X1605889Y3599992D01*
X1604975Y3613810D01*
X1602282Y3627374D01*
X1597812Y3640531D01*
X1591665Y3652926D01*
X1583994Y3664458D01*
X1574850Y3674872D01*
X1564436Y3684015D01*
X1552956Y3691686D01*
X1541576Y3697325D01*
X1538579Y3699560D01*
X1536598Y3702710D01*
X1535887Y3706418D01*
X1535887Y3843578D01*
X1536598Y3847236D01*
X1538579Y3850436D01*
X1541576Y3852672D01*
X1552956Y3858310D01*
X1564436Y3865981D01*
X1574850Y3875125D01*
X1583994Y3885539D01*
X1591665Y3897071D01*
X1597812Y3909466D01*
X1602282Y3922572D01*
X1604975Y3936187D01*
X1605889Y3950004D01*
X1604975Y3963822D01*
X1602282Y3977386D01*
X1597812Y3990492D01*
X1591665Y4002938D01*
X1583994Y4014470D01*
X1574850Y4024884D01*
X1564436Y4033977D01*
X1552956Y4041698D01*
X1541424Y4047337D01*
X1538427Y4049623D01*
X1536446Y4052773D01*
X1535785Y4056481D01*
X1535785Y4110786D01*
X1536547Y4114698D01*
X1538782Y4118000D01*
X1545285Y4124451D01*
X1550365Y4130649D01*
X1553819Y4137304D01*
X1555851Y4144670D01*
X1556359Y4150766D01*
X1556359Y4216450D01*
X1557121Y4220311D01*
X1559306Y4223613D01*
X1562608Y4225848D01*
X1566519Y4226610D01*
X1594916Y4226610D01*
X1601216Y4227322D01*
X1606702Y4229252D01*
X1611579Y4232300D01*
X1615694Y4236415D01*
X1618742Y4241292D01*
X1620672Y4246778D01*
X1621383Y4253077D01*
X1621383Y4493920D01*
X1622145Y4497832D01*
X1624330Y4501134D01*
X1627632Y4503318D01*
X1631543Y4504080D01*
X2289556Y4504080D01*
X2297531Y4504944D01*
X2304643Y4507230D01*
X2311247Y4511040D01*
X2316378Y4515510D01*
X2320188Y4517593D01*
X2324455Y4517898D01*
X2328468Y4516424D01*
X2331567Y4513376D01*
X2333091Y4509363D01*
X2333752Y4505198D01*
X2337257Y4494123D01*
X2342388Y4483709D01*
X2349093Y4474210D01*
X2357120Y4465828D01*
X2366365Y4458817D01*
X2376576Y4453280D01*
X2387498Y4449318D01*
X2398928Y4447133D01*
X2410510Y4446676D01*
X2422042Y4447997D01*
X2433269Y4451096D01*
X2443886Y4455820D01*
X2453589Y4462170D01*
X2462276Y4469892D01*
X2469692Y4478832D01*
X2475636Y4488840D01*
X2479954Y4499610D01*
X2482596Y4510887D01*
X2482748Y4512818D01*
X2483764Y4516526D01*
X2486050Y4519574D01*
X2489352Y4521606D01*
X2493162Y4522216D01*
X2496870Y4521403D01*
X2500071Y4519218D01*
X2504338Y4515002D01*
X2510586Y4509922D01*
X2513990Y4508195D01*
X2516936Y4505909D01*
X2518867Y4502759D01*
X2519578Y4499102D01*
X2519578Y4253077D01*
X2520289Y4246778D01*
X2522169Y4241292D01*
X2525268Y4236415D01*
X2529332Y4232300D01*
X2534259Y4229252D01*
X2539695Y4227322D01*
X2546045Y4226610D01*
X2574391Y4226610D01*
X2578303Y4225848D01*
X2581605Y4223613D01*
X2583789Y4220311D01*
X2584551Y4216450D01*
X2584551Y4169562D01*
X2583789Y4165650D01*
X2581605Y4162348D01*
X2574950Y4155744D01*
X2569921Y4149496D01*
X2566517Y4142841D01*
X2564536Y4135475D01*
X2564079Y4129582D01*
X2564079Y4056430D01*
X2563368Y4052722D01*
X2561386Y4049522D01*
X2558389Y4047286D01*
X2547061Y4041698D01*
X2535529Y4033977D01*
X2525115Y4024884D01*
X2515971Y4014470D01*
X2508300Y4002938D01*
X2502154Y3990492D01*
X2497734Y3977386D01*
X2494991Y3963822D01*
X2494076Y3950004D01*
X2494991Y3936187D01*
X2497734Y3922572D01*
X2502154Y3909466D01*
X2508300Y3897071D01*
X2515971Y3885539D01*
X2525115Y3875125D01*
X2535529Y3865981D01*
X2547061Y3858310D01*
X2558389Y3852672D01*
X2561386Y3850436D01*
X2563368Y3847287D01*
X2564079Y3843578D01*
X2564079Y3706418D01*
X2563368Y3702710D01*
X2561386Y3699560D01*
X2558389Y3697274D01*
X2547061Y3691686D01*
X2535529Y3684015D01*
X2525115Y3674872D01*
X2515971Y3664458D01*
X2508300Y3652926D01*
X2502154Y3640531D01*
X2497734Y3627374D01*
X2494991Y3613810D01*
X2494076Y3599992D01*
X2494991Y3586175D01*
X2497734Y3572611D01*
X2502154Y3559454D01*
X2508300Y3547059D01*
X2515971Y3535527D01*
X2525115Y3525113D01*
X2535529Y3515969D01*
X2547061Y3508298D01*
X2558338Y3502710D01*
X2561336Y3500475D01*
X2563317Y3497275D01*
X2563977Y3493617D01*
X2564028Y3356406D01*
X2563368Y3352749D01*
X2561386Y3349548D01*
X2558389Y3347313D01*
X2547061Y3341725D01*
X2535529Y3334004D01*
X2525115Y3324910D01*
X2515971Y3314496D01*
X2508300Y3302965D01*
X2502154Y3290519D01*
X2497683Y3277412D01*
X2494991Y3263849D01*
X2494076Y3250031D01*
X2494991Y3236214D01*
X2497683Y3222599D01*
X2502154Y3209493D01*
X2508300Y3197047D01*
X2515971Y3185566D01*
X2518410Y3182772D01*
X2520340Y3179419D01*
X2520950Y3175609D01*
X2520035Y3171901D01*
X2517800Y3168751D01*
X2514549Y3166668D01*
X2510790Y3165906D01*
X2500579Y3165906D01*
X2494280Y3165195D01*
X2488793Y3163316D01*
X2483916Y3160217D01*
X2479802Y3156102D01*
X2476703Y3151225D01*
X2474823Y3145739D01*
X2474112Y3139440D01*
X2474112Y3060598D01*
X2474823Y3054248D01*
X2475687Y3050032D01*
X2474823Y3045764D01*
X2474112Y3039465D01*
X2474112Y2960573D01*
X2474823Y2954274D01*
X2476703Y2948787D01*
X2479802Y2943910D01*
X2483916Y2939796D01*
X2488793Y2936748D01*
X2494280Y2934817D01*
X2500579Y2934106D01*
X2510790Y2934106D01*
X2514549Y2933395D01*
X2517800Y2931312D01*
X2520035Y2928162D01*
X2520950Y2924403D01*
X2520340Y2920593D01*
X2518410Y2917240D01*
X2515971Y2914497D01*
X2508300Y2902966D01*
X2502154Y2890520D01*
X2497683Y2877413D01*
X2494991Y2863850D01*
X2494076Y2850032D01*
X2494991Y2836214D01*
X2497683Y2822600D01*
X2502154Y2809494D01*
X2508300Y2797048D01*
X2515971Y2785567D01*
X2525115Y2775153D01*
X2535529Y2766009D01*
X2547061Y2758338D01*
X2559456Y2752191D01*
X2572562Y2747721D01*
X2586177Y2745028D01*
X2599994Y2744114D01*
X2613812Y2745028D01*
X2627376Y2747721D01*
X2640482Y2752191D01*
X2652928Y2758338D01*
X2664460Y2766009D01*
X2674874Y2775153D01*
X2683967Y2785567D01*
X2691688Y2797048D01*
X2697226Y2808325D01*
X2699461Y2811322D01*
X2702661Y2813304D01*
X2706319Y2813964D01*
X2918764Y2813964D01*
X2922625Y2813202D01*
X2925927Y2811018D01*
X2928112Y2807716D01*
X2928924Y2803804D01*
X2928112Y2799943D01*
X2925927Y2796641D01*
X2818180Y2688844D01*
X2814878Y2686659D01*
X2810967Y2685897D01*
G37*

%LPC*%
G36*
X2246325Y3505047D02*
G01*
X2252929Y3508298D01*
X2264460Y3515969D01*
X2274874Y3525113D01*
X2283968Y3535527D01*
X2291689Y3547059D01*
X2294940Y3553663D01*
X2246325Y3553663D01*
G37*
G36*
X2153615Y3505047D02*
G01*
X2153615Y3553663D01*
X2105050Y3553663D01*
X2108301Y3547059D01*
X2115972Y3535527D01*
X2125116Y3525113D01*
X2135530Y3515969D01*
X2147062Y3508298D01*
G37*
G36*
X2246325Y3646322D02*
G01*
X2294940Y3646322D01*
X2291689Y3652926D01*
X2283968Y3664458D01*
X2274874Y3674872D01*
X2264460Y3684015D01*
X2252929Y3691686D01*
X2246325Y3694937D01*
G37*
G36*
X2105050Y3646322D02*
G01*
X2153615Y3646322D01*
X2153615Y3694937D01*
X2147062Y3691686D01*
X2135530Y3684015D01*
X2125116Y3674872D01*
X2115972Y3664458D01*
X2108301Y3652926D01*
G37*
G36*
X2246325Y3855059D02*
G01*
X2252929Y3858310D01*
X2264460Y3865981D01*
X2274874Y3875125D01*
X2283968Y3885539D01*
X2291689Y3897071D01*
X2294940Y3903624D01*
X2246325Y3903624D01*
G37*
G36*
X2153615Y3855059D02*
G01*
X2153615Y3903624D01*
X2105050Y3903624D01*
X2108301Y3897071D01*
X2115972Y3885539D01*
X2125116Y3875125D01*
X2135530Y3865981D01*
X2147062Y3858310D01*
G37*
G36*
X2246325Y3996334D02*
G01*
X2294940Y3996334D01*
X2291689Y4002938D01*
X2283968Y4014470D01*
X2274874Y4024884D01*
X2264460Y4033977D01*
X2252929Y4041698D01*
X2246325Y4044950D01*
G37*
G36*
X2105050Y3996334D02*
G01*
X2153615Y3996334D01*
X2153615Y4044950D01*
X2147062Y4041698D01*
X2135530Y4033977D01*
X2125116Y4024884D01*
X2115972Y4014470D01*
X2108301Y4002938D01*
G37*
G36*
X2105101Y4091584D02*
G01*
X2253945Y4091584D01*
X2260295Y4092295D01*
X2265730Y4094226D01*
X2270658Y4097274D01*
X2274722Y4101388D01*
X2277821Y4106265D01*
X2279700Y4111751D01*
X2280412Y4118051D01*
X2280412Y4366920D01*
X2279700Y4373270D01*
X2277821Y4378706D01*
X2274722Y4383633D01*
X2270658Y4387697D01*
X2265730Y4390796D01*
X2260295Y4392676D01*
X2253945Y4393387D01*
X2105101Y4393387D01*
X2098751Y4392676D01*
X2093315Y4390796D01*
X2088388Y4387697D01*
X2084324Y4383633D01*
X2081225Y4378706D01*
X2079345Y4373270D01*
X2078634Y4366920D01*
X2078634Y4118051D01*
X2079345Y4111751D01*
X2081225Y4106265D01*
X2084324Y4101388D01*
X2088388Y4097274D01*
X2093315Y4094226D01*
X2098751Y4092295D01*
G37*

%LPD*%
G36*
X3912158Y2536037D02*
G01*
X3907942Y2536952D01*
X3904487Y2539492D01*
X3902405Y2543251D01*
X3902100Y2547569D01*
X3903573Y2551582D01*
X3906570Y2554681D01*
X3916121Y2560980D01*
X3928262Y2571140D01*
X3939082Y2582621D01*
X3948531Y2595321D01*
X3956405Y2608986D01*
X3962704Y2623515D01*
X3967226Y2638653D01*
X3969969Y2654198D01*
X3970883Y2669946D01*
X3969969Y2685745D01*
X3967226Y2701290D01*
X3962704Y2716428D01*
X3956405Y2730957D01*
X3948531Y2744622D01*
X3939082Y2757322D01*
X3928262Y2768803D01*
X3916121Y2778963D01*
X3902964Y2787650D01*
X3888841Y2794711D01*
X3885387Y2797606D01*
X3883456Y2801670D01*
X3883507Y2806141D01*
X3885488Y2810205D01*
X3889044Y2812999D01*
X3893413Y2813964D01*
X4050995Y2813964D01*
X4054906Y2813202D01*
X4058208Y2811018D01*
X4094124Y2775102D01*
X4100372Y2770022D01*
X4107027Y2766618D01*
X4114393Y2764637D01*
X4120286Y2764180D01*
X4529582Y2764180D01*
X4537557Y2765044D01*
X4540097Y2765856D01*
X4543247Y2766364D01*
X4581652Y2766364D01*
X4581652Y2793898D01*
X4582414Y2797810D01*
X4584598Y2801112D01*
X4587900Y2803296D01*
X4591812Y2804058D01*
X4664202Y2804058D01*
X4668062Y2803296D01*
X4671364Y2801112D01*
X4673549Y2797810D01*
X4674362Y2793898D01*
X4674362Y2766364D01*
X4722926Y2766364D01*
X4719675Y2772918D01*
X4712004Y2784449D01*
X4709566Y2787192D01*
X4707636Y2790545D01*
X4707077Y2794355D01*
X4707940Y2798114D01*
X4710176Y2801264D01*
X4713427Y2803347D01*
X4717237Y2804058D01*
X4792776Y2804058D01*
X4796536Y2803347D01*
X4799787Y2801264D01*
X4802022Y2798114D01*
X4802886Y2794355D01*
X4802327Y2790545D01*
X4800396Y2787192D01*
X4797958Y2784449D01*
X4790287Y2772918D01*
X4784140Y2760522D01*
X4779721Y2747416D01*
X4777028Y2733802D01*
X4776114Y2719984D01*
X4777028Y2706166D01*
X4779721Y2692603D01*
X4784140Y2679496D01*
X4790287Y2667050D01*
X4797958Y2655519D01*
X4807102Y2645105D01*
X4817516Y2636012D01*
X4829048Y2628290D01*
X4841443Y2622194D01*
X4854600Y2617724D01*
X4868164Y2615031D01*
X4881981Y2614117D01*
X4895799Y2615031D01*
X4909413Y2617724D01*
X4922520Y2622194D01*
X4934915Y2628290D01*
X4946446Y2636012D01*
X4956860Y2645105D01*
X4966004Y2655519D01*
X4973675Y2667050D01*
X4979822Y2679496D01*
X4984242Y2692603D01*
X4986985Y2706166D01*
X4987848Y2719984D01*
X4986985Y2733802D01*
X4984242Y2747416D01*
X4979822Y2760522D01*
X4973675Y2772918D01*
X4966004Y2784449D01*
X4963566Y2787192D01*
X4961636Y2790545D01*
X4961077Y2794355D01*
X4961940Y2798114D01*
X4964176Y2801264D01*
X4967427Y2803347D01*
X4971237Y2804058D01*
X5046776Y2804058D01*
X5050536Y2803347D01*
X5053787Y2801264D01*
X5056022Y2798114D01*
X5056936Y2794355D01*
X5056327Y2790545D01*
X5054396Y2787192D01*
X5052009Y2784449D01*
X5044287Y2772918D01*
X5038140Y2760522D01*
X5033721Y2747416D01*
X5031028Y2733802D01*
X5030114Y2719984D01*
X5031028Y2706166D01*
X5033721Y2692603D01*
X5038140Y2679496D01*
X5044287Y2667050D01*
X5052009Y2655519D01*
X5061102Y2645105D01*
X5071516Y2636012D01*
X5083048Y2628290D01*
X5095494Y2622143D01*
X5108600Y2617724D01*
X5122164Y2615031D01*
X5135981Y2614117D01*
X5149799Y2615031D01*
X5163413Y2617724D01*
X5176520Y2622143D01*
X5188915Y2628290D01*
X5200446Y2636012D01*
X5210860Y2645105D01*
X5220004Y2655519D01*
X5227675Y2667050D01*
X5233822Y2679496D01*
X5238292Y2692603D01*
X5240985Y2706166D01*
X5241899Y2719984D01*
X5240985Y2733802D01*
X5238292Y2747416D01*
X5234178Y2759456D01*
X5233670Y2763164D01*
X5234482Y2766822D01*
X5236616Y2769920D01*
X5277815Y2811018D01*
X5281117Y2813202D01*
X5284978Y2813964D01*
X5309920Y2813964D01*
X5313883Y2813151D01*
X5317236Y2810814D01*
X5319420Y2807411D01*
X5320080Y2803347D01*
X5319064Y2799435D01*
X5316626Y2796184D01*
X5315102Y2794863D01*
X5306009Y2784449D01*
X5298287Y2772918D01*
X5292140Y2760522D01*
X5287721Y2747416D01*
X5285028Y2733802D01*
X5284114Y2719984D01*
X5285028Y2706166D01*
X5287721Y2692603D01*
X5292140Y2679496D01*
X5298287Y2667050D01*
X5306009Y2655519D01*
X5315102Y2645105D01*
X5325516Y2636012D01*
X5337048Y2628290D01*
X5349494Y2622143D01*
X5362600Y2617724D01*
X5376164Y2615031D01*
X5389981Y2614117D01*
X5403799Y2615031D01*
X5417413Y2617724D01*
X5430520Y2622143D01*
X5442915Y2628290D01*
X5454446Y2636012D01*
X5464860Y2645105D01*
X5474004Y2655519D01*
X5481675Y2667050D01*
X5487365Y2678531D01*
X5489600Y2681528D01*
X5492750Y2683510D01*
X5496458Y2684170D01*
X5499252Y2684170D01*
X5508802Y2685288D01*
X5512917Y2684932D01*
X5516575Y2682900D01*
X5519115Y2679598D01*
X5520131Y2675585D01*
X5519420Y2671470D01*
X5517134Y2668016D01*
X5388152Y2538984D01*
X5384850Y2536799D01*
X5380939Y2536037D01*
G37*

%LPC*%
G36*
X4674362Y2625039D02*
G01*
X4680915Y2628290D01*
X4692446Y2636012D01*
X4702860Y2645105D01*
X4712004Y2655519D01*
X4719675Y2667050D01*
X4722926Y2673654D01*
X4674362Y2673654D01*
G37*
G36*
X4581652Y2625039D02*
G01*
X4581652Y2673654D01*
X4533036Y2673654D01*
X4536287Y2667050D01*
X4543958Y2655519D01*
X4553102Y2645105D01*
X4563516Y2636012D01*
X4575048Y2628290D01*
G37*

%LPD*%
G36*
X7625029Y1530248D02*
G01*
X7620965Y1530959D01*
X7617510Y1533194D01*
X7538770Y1611833D01*
X7536535Y1615135D01*
X7535773Y1619046D01*
X7535773Y2729026D01*
X7536535Y2732887D01*
X7538720Y2736189D01*
X7542022Y2738374D01*
X7545933Y2739186D01*
X7549794Y2738374D01*
X7553096Y2736189D01*
X7636256Y2653080D01*
X7638440Y2649778D01*
X7639202Y2645867D01*
X7639202Y2442362D01*
X7638491Y2438603D01*
X7636459Y2435402D01*
X7633360Y2433167D01*
X7619136Y2426563D01*
X7606842Y2418740D01*
X7595666Y2409494D01*
X7585709Y2398877D01*
X7577124Y2387092D01*
X7570114Y2374341D01*
X7564780Y2360828D01*
X7561173Y2346706D01*
X7559344Y2332278D01*
X7559344Y2317699D01*
X7561173Y2303272D01*
X7564780Y2289200D01*
X7570114Y2275636D01*
X7577124Y2262886D01*
X7585709Y2251151D01*
X7595666Y2240534D01*
X7606842Y2231237D01*
X7619136Y2223465D01*
X7633208Y2216861D01*
X7636306Y2214626D01*
X7638389Y2211425D01*
X7639100Y2207666D01*
X7639100Y1792325D01*
X7638389Y1788566D01*
X7636306Y1785366D01*
X7633208Y1783130D01*
X7619136Y1776526D01*
X7606842Y1768754D01*
X7595666Y1759457D01*
X7585709Y1748840D01*
X7577124Y1737106D01*
X7570114Y1724355D01*
X7564780Y1710791D01*
X7561173Y1696720D01*
X7559344Y1682292D01*
X7559344Y1667713D01*
X7561173Y1653286D01*
X7564780Y1639163D01*
X7570114Y1625650D01*
X7577124Y1612900D01*
X7585709Y1601114D01*
X7595666Y1590497D01*
X7606842Y1581251D01*
X7619136Y1573428D01*
X7632344Y1567230D01*
X7646162Y1562760D01*
X7660690Y1559966D01*
X7664399Y1558493D01*
X7667193Y1555648D01*
X7668768Y1551990D01*
X7668768Y1548028D01*
X7667193Y1544320D01*
X7664399Y1541526D01*
X7660690Y1540002D01*
X7646162Y1537258D01*
X7632344Y1532737D01*
X7629042Y1531213D01*
G37*

%LPD*%
G36*
X2374950Y1530248D02*
G01*
X2370988Y1531213D01*
X2367635Y1532737D01*
X2353818Y1537258D01*
X2339289Y1540002D01*
X2335580Y1541526D01*
X2332786Y1544320D01*
X2331212Y1548028D01*
X2331212Y1551990D01*
X2332786Y1555648D01*
X2335580Y1558493D01*
X2339289Y1559966D01*
X2353818Y1562760D01*
X2367635Y1567230D01*
X2380843Y1573428D01*
X2393137Y1581251D01*
X2404313Y1590497D01*
X2414270Y1601114D01*
X2422855Y1612900D01*
X2429865Y1625650D01*
X2435199Y1639163D01*
X2438806Y1653286D01*
X2440635Y1667713D01*
X2440635Y1682292D01*
X2438806Y1696720D01*
X2435199Y1710791D01*
X2429865Y1724355D01*
X2422855Y1737106D01*
X2414270Y1748840D01*
X2404313Y1759457D01*
X2393137Y1768754D01*
X2380843Y1776526D01*
X2366772Y1783130D01*
X2363673Y1785366D01*
X2361590Y1788566D01*
X2360879Y1792325D01*
X2360879Y2207666D01*
X2361590Y2211425D01*
X2363673Y2214626D01*
X2366772Y2216861D01*
X2380843Y2223465D01*
X2393137Y2231237D01*
X2404313Y2240534D01*
X2414270Y2251151D01*
X2422855Y2262886D01*
X2429865Y2275636D01*
X2435199Y2289200D01*
X2438806Y2303272D01*
X2440635Y2317699D01*
X2440635Y2332278D01*
X2438806Y2346706D01*
X2435199Y2360828D01*
X2431034Y2371344D01*
X2430322Y2375204D01*
X2431135Y2379014D01*
X2433320Y2382266D01*
X2512263Y2461260D01*
X2515565Y2463444D01*
X2519476Y2464206D01*
X2889046Y2464206D01*
X2892907Y2463444D01*
X2896209Y2461260D01*
X2898394Y2457958D01*
X2899206Y2454046D01*
X2898394Y2450185D01*
X2896209Y2446883D01*
X2474874Y2025497D01*
X2469794Y2019249D01*
X2466390Y2012594D01*
X2464409Y2005228D01*
X2463952Y1999335D01*
X2463952Y1618996D01*
X2463190Y1615135D01*
X2461006Y1611833D01*
X2382469Y1533194D01*
X2379014Y1530959D01*
G37*

%LPD*%
G36*
X1198930Y536041D02*
G01*
X1195019Y536803D01*
X1191717Y538988D01*
X188976Y1541729D01*
X186791Y1545031D01*
X186029Y1548942D01*
X186029Y3760927D01*
X186791Y3764838D01*
X188976Y3768140D01*
X921969Y4501134D01*
X925271Y4503318D01*
X929182Y4504080D01*
X1189482Y4504080D01*
X1197457Y4504944D01*
X1204569Y4507230D01*
X1211173Y4511040D01*
X1216406Y4515561D01*
X1220165Y4517644D01*
X1224432Y4517948D01*
X1228496Y4516475D01*
X1231544Y4513478D01*
X1233068Y4509465D01*
X1233728Y4505198D01*
X1237234Y4494123D01*
X1242415Y4483709D01*
X1249070Y4474210D01*
X1257147Y4465828D01*
X1266393Y4458817D01*
X1276553Y4453280D01*
X1287526Y4449318D01*
X1298905Y4447133D01*
X1310538Y4446676D01*
X1322070Y4447997D01*
X1333246Y4451096D01*
X1343863Y4455820D01*
X1353616Y4462170D01*
X1362303Y4469892D01*
X1369669Y4478832D01*
X1375613Y4488840D01*
X1379982Y4499610D01*
X1382623Y4510887D01*
X1382725Y4512767D01*
X1383741Y4516475D01*
X1386078Y4519523D01*
X1389329Y4521504D01*
X1393139Y4522165D01*
X1396898Y4521301D01*
X1400048Y4519168D01*
X1404264Y4515002D01*
X1410512Y4509922D01*
X1414018Y4508144D01*
X1416964Y4505858D01*
X1418894Y4502708D01*
X1419555Y4499102D01*
X1419555Y4253077D01*
X1420266Y4246778D01*
X1422196Y4241292D01*
X1425244Y4236415D01*
X1429359Y4232300D01*
X1434236Y4229252D01*
X1439722Y4227322D01*
X1446022Y4226610D01*
X1474368Y4226610D01*
X1478280Y4225848D01*
X1481582Y4223613D01*
X1483766Y4220311D01*
X1484528Y4216450D01*
X1484528Y4169613D01*
X1483766Y4165701D01*
X1481531Y4162399D01*
X1475028Y4155948D01*
X1469948Y4149750D01*
X1466494Y4143095D01*
X1464462Y4135729D01*
X1463954Y4129633D01*
X1463954Y4056329D01*
X1463294Y4052671D01*
X1461312Y4049471D01*
X1458315Y4047236D01*
X1447038Y4041698D01*
X1435506Y4033977D01*
X1425092Y4024884D01*
X1415999Y4014470D01*
X1408277Y4002938D01*
X1402181Y3990492D01*
X1397711Y3977386D01*
X1395018Y3963822D01*
X1394104Y3950004D01*
X1395018Y3936187D01*
X1397711Y3922572D01*
X1402181Y3909466D01*
X1408277Y3897071D01*
X1415999Y3885539D01*
X1425092Y3875125D01*
X1435506Y3865981D01*
X1447038Y3858310D01*
X1458417Y3852672D01*
X1461414Y3850436D01*
X1463395Y3847236D01*
X1464056Y3843578D01*
X1464056Y3706418D01*
X1463395Y3702710D01*
X1461414Y3699560D01*
X1458417Y3697274D01*
X1447038Y3691686D01*
X1435506Y3684015D01*
X1425092Y3674872D01*
X1415999Y3664458D01*
X1408277Y3652926D01*
X1402181Y3640531D01*
X1397711Y3627374D01*
X1395018Y3613810D01*
X1394104Y3599992D01*
X1395018Y3586175D01*
X1397711Y3572611D01*
X1402181Y3559454D01*
X1408277Y3547059D01*
X1415999Y3535527D01*
X1425092Y3525113D01*
X1435506Y3515969D01*
X1447038Y3508298D01*
X1458315Y3502710D01*
X1461312Y3500475D01*
X1463294Y3497275D01*
X1464005Y3493617D01*
X1464056Y3356406D01*
X1463344Y3352749D01*
X1461363Y3349548D01*
X1458366Y3347313D01*
X1447038Y3341725D01*
X1435506Y3334004D01*
X1425092Y3324910D01*
X1415999Y3314496D01*
X1408277Y3302965D01*
X1402181Y3290519D01*
X1397711Y3277412D01*
X1395018Y3263849D01*
X1394104Y3250031D01*
X1395018Y3236214D01*
X1397711Y3222599D01*
X1402181Y3209493D01*
X1408277Y3197047D01*
X1415999Y3185566D01*
X1418437Y3182772D01*
X1420368Y3179419D01*
X1420926Y3175609D01*
X1420012Y3171901D01*
X1417828Y3168751D01*
X1414576Y3166668D01*
X1410766Y3165906D01*
X1400556Y3165906D01*
X1394256Y3165195D01*
X1388821Y3163316D01*
X1383893Y3160217D01*
X1379829Y3156102D01*
X1376730Y3151225D01*
X1374800Y3145739D01*
X1374089Y3139440D01*
X1374089Y3060598D01*
X1374800Y3054248D01*
X1375714Y3050032D01*
X1374800Y3045764D01*
X1374089Y3039465D01*
X1374089Y2960573D01*
X1374800Y2954274D01*
X1376730Y2948787D01*
X1379829Y2943910D01*
X1383893Y2939796D01*
X1388821Y2936748D01*
X1394256Y2934817D01*
X1400556Y2934106D01*
X1410766Y2934106D01*
X1414576Y2933395D01*
X1417828Y2931312D01*
X1420012Y2928162D01*
X1420926Y2924403D01*
X1420368Y2920593D01*
X1418437Y2917240D01*
X1415999Y2914497D01*
X1408277Y2902966D01*
X1402181Y2890520D01*
X1397711Y2877413D01*
X1395018Y2863850D01*
X1394104Y2850032D01*
X1395018Y2836214D01*
X1397711Y2822600D01*
X1402181Y2809494D01*
X1408277Y2797048D01*
X1415999Y2785567D01*
X1425092Y2775153D01*
X1435506Y2766009D01*
X1447038Y2758338D01*
X1459484Y2752191D01*
X1472590Y2747721D01*
X1486154Y2745028D01*
X1499971Y2744114D01*
X1513789Y2745028D01*
X1527403Y2747721D01*
X1540510Y2752191D01*
X1552905Y2758338D01*
X1564436Y2766009D01*
X1574850Y2775153D01*
X1583994Y2785567D01*
X1591665Y2797048D01*
X1597202Y2808325D01*
X1599488Y2811322D01*
X1602638Y2813304D01*
X1606346Y2813964D01*
X1680921Y2813964D01*
X1684832Y2813202D01*
X1688134Y2811018D01*
X1857248Y2641854D01*
X1859534Y2638399D01*
X1860245Y2634284D01*
X1859229Y2630271D01*
X1856689Y2626969D01*
X1854454Y2625039D01*
X1568246Y2338832D01*
X1564944Y2336647D01*
X1561033Y2335885D01*
X1218996Y2335885D01*
X1215085Y2336647D01*
X1211783Y2338832D01*
X1133195Y2417470D01*
X1131011Y2420721D01*
X1130198Y2424531D01*
X1130960Y2428392D01*
X1135227Y2439162D01*
X1138834Y2453284D01*
X1140663Y2467711D01*
X1140663Y2482291D01*
X1138834Y2496718D01*
X1135227Y2510790D01*
X1129842Y2524353D01*
X1122832Y2537104D01*
X1114298Y2548839D01*
X1104341Y2559456D01*
X1093114Y2568752D01*
X1080820Y2576525D01*
X1066749Y2583129D01*
X1063650Y2585364D01*
X1061618Y2588564D01*
X1060907Y2592324D01*
X1060907Y3007664D01*
X1061618Y3011424D01*
X1063650Y3014624D01*
X1066749Y3016859D01*
X1080820Y3023463D01*
X1093114Y3031236D01*
X1104341Y3040532D01*
X1114298Y3051149D01*
X1122832Y3062884D01*
X1129842Y3075635D01*
X1135227Y3089198D01*
X1138834Y3103270D01*
X1140663Y3117697D01*
X1140663Y3132277D01*
X1138834Y3146704D01*
X1135227Y3160826D01*
X1129842Y3174339D01*
X1122832Y3187090D01*
X1114298Y3198876D01*
X1104341Y3209493D01*
X1093114Y3218738D01*
X1080820Y3226562D01*
X1067663Y3232759D01*
X1053795Y3237230D01*
X1039520Y3239973D01*
X1024991Y3240887D01*
X1010462Y3239973D01*
X996187Y3237230D01*
X982319Y3232759D01*
X969162Y3226562D01*
X956868Y3218738D01*
X945692Y3209493D01*
X935685Y3198876D01*
X927150Y3187090D01*
X920140Y3174339D01*
X914806Y3160826D01*
X911148Y3146704D01*
X909319Y3132277D01*
X909319Y3117697D01*
X911148Y3103270D01*
X914806Y3089198D01*
X920140Y3075635D01*
X927150Y3062884D01*
X935685Y3051149D01*
X945692Y3040532D01*
X956868Y3031236D01*
X969162Y3023463D01*
X983234Y3016859D01*
X986332Y3014624D01*
X988364Y3011424D01*
X989076Y3007664D01*
X989076Y2592324D01*
X988364Y2588564D01*
X986332Y2585364D01*
X983234Y2583129D01*
X969162Y2576525D01*
X956868Y2568752D01*
X945692Y2559456D01*
X935685Y2548839D01*
X927150Y2537104D01*
X920140Y2524353D01*
X914806Y2510790D01*
X911148Y2496718D01*
X909319Y2482291D01*
X909319Y2467711D01*
X911148Y2453284D01*
X914806Y2439162D01*
X920140Y2425649D01*
X927150Y2412898D01*
X935685Y2401112D01*
X945692Y2390495D01*
X956868Y2381250D01*
X969162Y2373426D01*
X982319Y2367229D01*
X996187Y2362758D01*
X1010462Y2360015D01*
X1024991Y2359101D01*
X1039520Y2360015D01*
X1053795Y2362758D01*
X1067663Y2367229D01*
X1070864Y2368753D01*
X1074826Y2369718D01*
X1078890Y2369007D01*
X1082344Y2366721D01*
X1174140Y2274976D01*
X1180388Y2269896D01*
X1187043Y2266492D01*
X1194409Y2264511D01*
X1200302Y2264054D01*
X1538782Y2264054D01*
X1542643Y2263292D01*
X1545945Y2261108D01*
X1548130Y2257806D01*
X1548942Y2253894D01*
X1548130Y2250033D01*
X1545945Y2246731D01*
X1500022Y2200757D01*
X1494942Y2194509D01*
X1491538Y2187854D01*
X1489557Y2180488D01*
X1489100Y2174595D01*
X1489100Y2042312D01*
X1488389Y2038604D01*
X1486357Y2035352D01*
X1483258Y2033117D01*
X1469136Y2026564D01*
X1456893Y2018741D01*
X1445666Y2009495D01*
X1435709Y1998878D01*
X1427175Y1987092D01*
X1420164Y1974342D01*
X1414780Y1960829D01*
X1411173Y1946706D01*
X1409344Y1932279D01*
X1409344Y1917700D01*
X1411173Y1903272D01*
X1414780Y1889201D01*
X1420164Y1875637D01*
X1427175Y1862886D01*
X1435709Y1851152D01*
X1445666Y1840534D01*
X1456893Y1831238D01*
X1469136Y1823466D01*
X1483207Y1816862D01*
X1486306Y1814626D01*
X1488389Y1811426D01*
X1489100Y1807667D01*
X1489100Y1392326D01*
X1488389Y1388567D01*
X1486306Y1385366D01*
X1483207Y1383131D01*
X1469136Y1376527D01*
X1456893Y1368755D01*
X1445666Y1359458D01*
X1435709Y1348841D01*
X1427175Y1337106D01*
X1420164Y1324356D01*
X1414780Y1310792D01*
X1411173Y1296720D01*
X1409344Y1282293D01*
X1409344Y1267714D01*
X1411173Y1253286D01*
X1414780Y1239164D01*
X1420164Y1225651D01*
X1427175Y1212900D01*
X1435709Y1201115D01*
X1445666Y1190498D01*
X1456893Y1181252D01*
X1469186Y1173429D01*
X1482344Y1167231D01*
X1496161Y1162761D01*
X1510487Y1160018D01*
X1525016Y1159103D01*
X1539544Y1160018D01*
X1553819Y1162761D01*
X1567637Y1167231D01*
X1580845Y1173429D01*
X1593138Y1181252D01*
X1604314Y1190498D01*
X1614271Y1201115D01*
X1622856Y1212900D01*
X1629867Y1225651D01*
X1635201Y1239164D01*
X1638807Y1253286D01*
X1640636Y1267714D01*
X1640636Y1282293D01*
X1638807Y1296720D01*
X1635201Y1310792D01*
X1629867Y1324356D01*
X1622856Y1337106D01*
X1614271Y1348841D01*
X1604314Y1359458D01*
X1593138Y1368755D01*
X1580845Y1376527D01*
X1566773Y1383131D01*
X1563674Y1385366D01*
X1561592Y1388567D01*
X1560880Y1392326D01*
X1560880Y1807667D01*
X1561592Y1811426D01*
X1563674Y1814626D01*
X1566773Y1816862D01*
X1580845Y1823466D01*
X1593138Y1831238D01*
X1604314Y1840534D01*
X1614271Y1851152D01*
X1622856Y1862886D01*
X1629867Y1875637D01*
X1635201Y1889201D01*
X1638807Y1903272D01*
X1640636Y1917700D01*
X1640636Y1932279D01*
X1638807Y1946706D01*
X1635201Y1960829D01*
X1629867Y1974342D01*
X1622856Y1987092D01*
X1614271Y1998878D01*
X1604314Y2009495D01*
X1593138Y2018741D01*
X1580845Y2026564D01*
X1566773Y2033117D01*
X1563674Y2035352D01*
X1561642Y2038553D01*
X1560931Y2042312D01*
X1560931Y2155901D01*
X1561693Y2159812D01*
X1563878Y2163114D01*
X1774189Y2373376D01*
X1777441Y2375560D01*
X1781352Y2376322D01*
X1823669Y2376322D01*
X1823669Y2418638D01*
X1824431Y2422550D01*
X1826615Y2425801D01*
X1911807Y2511044D01*
X1915109Y2513228D01*
X1919020Y2513990D01*
X2438958Y2513990D01*
X2442819Y2513228D01*
X2446121Y2511044D01*
X2448306Y2507742D01*
X2449118Y2503830D01*
X2448306Y2499969D01*
X2446121Y2496667D01*
X2382621Y2433116D01*
X2379167Y2430881D01*
X2375103Y2430170D01*
X2371090Y2431135D01*
X2367635Y2432761D01*
X2353818Y2437231D01*
X2339543Y2439974D01*
X2325014Y2440889D01*
X2310485Y2439974D01*
X2296160Y2437231D01*
X2282342Y2432761D01*
X2269185Y2426563D01*
X2256891Y2418740D01*
X2245664Y2409494D01*
X2235708Y2398877D01*
X2227173Y2387092D01*
X2220163Y2374341D01*
X2214778Y2360828D01*
X2211171Y2346706D01*
X2209342Y2332278D01*
X2209342Y2317699D01*
X2211171Y2303272D01*
X2214778Y2289200D01*
X2220163Y2275636D01*
X2227173Y2262886D01*
X2235708Y2251151D01*
X2245664Y2240534D01*
X2256891Y2231237D01*
X2269134Y2223465D01*
X2283206Y2216861D01*
X2286304Y2214626D01*
X2288387Y2211425D01*
X2289098Y2207666D01*
X2289098Y1792325D01*
X2288387Y1788566D01*
X2286304Y1785366D01*
X2283206Y1783130D01*
X2269134Y1776526D01*
X2256891Y1768754D01*
X2245664Y1759457D01*
X2235708Y1748840D01*
X2227173Y1737106D01*
X2220163Y1724355D01*
X2214778Y1710791D01*
X2211171Y1696720D01*
X2209342Y1682292D01*
X2209342Y1667713D01*
X2211171Y1653286D01*
X2214778Y1639163D01*
X2220163Y1625650D01*
X2227173Y1612900D01*
X2235708Y1601114D01*
X2245664Y1590497D01*
X2256891Y1581251D01*
X2269185Y1573428D01*
X2282342Y1567230D01*
X2296160Y1562760D01*
X2310688Y1559966D01*
X2314397Y1558493D01*
X2317242Y1555648D01*
X2318766Y1551990D01*
X2318766Y1548028D01*
X2317242Y1544320D01*
X2314397Y1541526D01*
X2310688Y1540002D01*
X2296160Y1537258D01*
X2282342Y1532737D01*
X2269185Y1526540D01*
X2256891Y1518767D01*
X2245664Y1509471D01*
X2235708Y1498854D01*
X2227173Y1487119D01*
X2220163Y1474317D01*
X2214778Y1460804D01*
X2211171Y1446733D01*
X2209342Y1432255D01*
X2209342Y1417726D01*
X2211171Y1403299D01*
X2214778Y1389176D01*
X2220163Y1375664D01*
X2227173Y1362913D01*
X2235708Y1351127D01*
X2245664Y1340510D01*
X2256891Y1331264D01*
X2269134Y1323441D01*
X2283206Y1316888D01*
X2286304Y1314653D01*
X2288387Y1311402D01*
X2289098Y1307693D01*
X2289098Y892302D01*
X2288387Y888593D01*
X2286304Y885342D01*
X2283206Y883107D01*
X2269134Y876553D01*
X2256891Y868730D01*
X2245664Y859485D01*
X2235708Y848868D01*
X2227173Y837082D01*
X2220163Y824331D01*
X2214778Y810818D01*
X2211171Y796696D01*
X2209342Y782269D01*
X2209342Y767740D01*
X2211171Y753262D01*
X2214778Y739190D01*
X2220163Y725678D01*
X2227173Y712876D01*
X2235708Y701141D01*
X2245664Y690524D01*
X2256891Y681228D01*
X2269185Y673455D01*
X2282342Y667258D01*
X2296160Y662736D01*
X2310485Y660044D01*
X2325014Y659130D01*
X2339543Y660044D01*
X2353818Y662736D01*
X2367635Y667258D01*
X2380843Y673455D01*
X2393137Y681228D01*
X2404313Y690524D01*
X2414270Y701141D01*
X2422855Y712876D01*
X2429865Y725678D01*
X2435199Y739190D01*
X2438806Y753262D01*
X2440635Y767740D01*
X2440635Y782269D01*
X2438806Y796696D01*
X2435199Y810818D01*
X2429865Y824331D01*
X2422855Y837082D01*
X2414270Y848868D01*
X2404313Y859485D01*
X2393137Y868730D01*
X2380843Y876553D01*
X2366772Y883107D01*
X2363673Y885342D01*
X2361590Y888593D01*
X2360879Y892302D01*
X2360879Y1307693D01*
X2361590Y1311402D01*
X2363673Y1314653D01*
X2366772Y1316888D01*
X2380843Y1323441D01*
X2393137Y1331264D01*
X2404313Y1340510D01*
X2414270Y1351127D01*
X2422855Y1362913D01*
X2429865Y1375664D01*
X2435199Y1389176D01*
X2438806Y1403299D01*
X2440635Y1417726D01*
X2440635Y1432255D01*
X2438806Y1446733D01*
X2435199Y1460804D01*
X2430983Y1471472D01*
X2430272Y1475333D01*
X2431084Y1479143D01*
X2433218Y1482394D01*
X2524912Y1574190D01*
X2529941Y1580438D01*
X2533345Y1587144D01*
X2535326Y1594510D01*
X2535783Y1600352D01*
X2535783Y1980641D01*
X2536545Y1984552D01*
X2538730Y1987854D01*
X3361893Y2811018D01*
X3365195Y2813202D01*
X3369106Y2813964D01*
X3776573Y2813964D01*
X3780942Y2812999D01*
X3784498Y2810205D01*
X3786479Y2806141D01*
X3786530Y2801670D01*
X3784600Y2797606D01*
X3781145Y2794711D01*
X3767023Y2787650D01*
X3753865Y2778963D01*
X3741724Y2768803D01*
X3730904Y2757322D01*
X3721455Y2744622D01*
X3713581Y2730957D01*
X3707282Y2716428D01*
X3702761Y2701290D01*
X3700018Y2685745D01*
X3699103Y2669946D01*
X3700018Y2654198D01*
X3702761Y2638653D01*
X3707282Y2623515D01*
X3713581Y2608986D01*
X3721455Y2595321D01*
X3730904Y2582621D01*
X3741724Y2571140D01*
X3753865Y2560980D01*
X3763416Y2554681D01*
X3766413Y2551582D01*
X3767886Y2547569D01*
X3767582Y2543251D01*
X3765499Y2539492D01*
X3762044Y2536952D01*
X3757828Y2536037D01*
X3230626Y2536037D01*
X3222650Y2535174D01*
X3215538Y2532888D01*
X3208934Y2529078D01*
X3204464Y2525217D01*
X3099968Y2420721D01*
X3094888Y2414473D01*
X3091484Y2407818D01*
X3089503Y2400452D01*
X3089046Y2394559D01*
X3089046Y2042312D01*
X3088335Y2038553D01*
X3086303Y2035352D01*
X3083204Y2033117D01*
X3069132Y2026564D01*
X3056890Y2018741D01*
X3045663Y2009495D01*
X3035706Y1998878D01*
X3027172Y1987092D01*
X3020161Y1974342D01*
X3014776Y1960829D01*
X3011170Y1946706D01*
X3009341Y1932279D01*
X3009341Y1917700D01*
X3011170Y1903272D01*
X3014776Y1889201D01*
X3020161Y1875637D01*
X3027172Y1862886D01*
X3035706Y1851152D01*
X3045663Y1840534D01*
X3056890Y1831238D01*
X3069132Y1823466D01*
X3083204Y1816862D01*
X3086303Y1814626D01*
X3088386Y1811426D01*
X3089097Y1807667D01*
X3089097Y1392326D01*
X3088386Y1388567D01*
X3086303Y1385366D01*
X3083204Y1383131D01*
X3069132Y1376527D01*
X3056890Y1368755D01*
X3045663Y1359458D01*
X3035706Y1348841D01*
X3027172Y1337106D01*
X3020161Y1324356D01*
X3014776Y1310792D01*
X3011170Y1296720D01*
X3009341Y1282293D01*
X3009341Y1267714D01*
X3011170Y1253286D01*
X3014776Y1239164D01*
X3020161Y1225651D01*
X3027172Y1212900D01*
X3035706Y1201115D01*
X3045663Y1190498D01*
X3056890Y1181252D01*
X3069183Y1173429D01*
X3082340Y1167231D01*
X3096158Y1162761D01*
X3110484Y1160018D01*
X3125012Y1159103D01*
X3139541Y1160018D01*
X3153816Y1162761D01*
X3167634Y1167231D01*
X3180842Y1173429D01*
X3193135Y1181252D01*
X3204311Y1190498D01*
X3214268Y1201115D01*
X3222853Y1212900D01*
X3229864Y1225651D01*
X3235198Y1239164D01*
X3238804Y1253286D01*
X3240633Y1267714D01*
X3240633Y1282293D01*
X3238804Y1296720D01*
X3235198Y1310792D01*
X3229864Y1324356D01*
X3222853Y1337106D01*
X3214268Y1348841D01*
X3204311Y1359458D01*
X3193135Y1368755D01*
X3180842Y1376527D01*
X3166770Y1383131D01*
X3163671Y1385366D01*
X3161588Y1388567D01*
X3160877Y1392326D01*
X3160877Y1807667D01*
X3161588Y1811426D01*
X3163671Y1814626D01*
X3166770Y1816862D01*
X3180842Y1823466D01*
X3193135Y1831238D01*
X3204311Y1840534D01*
X3214268Y1851152D01*
X3222853Y1862886D01*
X3229864Y1875637D01*
X3235198Y1889201D01*
X3238804Y1903272D01*
X3240633Y1917700D01*
X3240633Y1932279D01*
X3238804Y1946706D01*
X3235198Y1960829D01*
X3229864Y1974342D01*
X3222853Y1987092D01*
X3214268Y1998878D01*
X3204311Y2009495D01*
X3193135Y2018741D01*
X3180842Y2026564D01*
X3166719Y2033117D01*
X3163620Y2035352D01*
X3161588Y2038604D01*
X3160877Y2042312D01*
X3160877Y2375865D01*
X3161639Y2379776D01*
X3163824Y2383078D01*
X3242005Y2461260D01*
X3245307Y2463444D01*
X3249218Y2464206D01*
X5399532Y2464206D01*
X5407507Y2465070D01*
X5414619Y2467356D01*
X5421223Y2471166D01*
X5425694Y2475026D01*
X6024981Y3074314D01*
X6030061Y3080562D01*
X6033465Y3087217D01*
X6035446Y3094583D01*
X6035903Y3100476D01*
X6035903Y3429508D01*
X6035040Y3437483D01*
X6032754Y3444595D01*
X6028944Y3451199D01*
X6025083Y3455670D01*
X5993231Y3487521D01*
X5986932Y3492652D01*
X5981242Y3495700D01*
X5978398Y3497986D01*
X5976518Y3501085D01*
X5975908Y3504692D01*
X5975908Y3521913D01*
X5975197Y3528263D01*
X5973267Y3533698D01*
X5970168Y3538575D01*
X5966104Y3542690D01*
X5961176Y3545789D01*
X5955741Y3547668D01*
X5949391Y3548379D01*
X5750560Y3548379D01*
X5744210Y3547668D01*
X5739384Y3545992D01*
X5735574Y3545433D01*
X5731865Y3546348D01*
X5728716Y3548583D01*
X5726633Y3551783D01*
X5725871Y3555593D01*
X5725871Y3623411D01*
X5726633Y3627170D01*
X5728716Y3630422D01*
X5731865Y3632657D01*
X5735574Y3633520D01*
X5739384Y3632962D01*
X5744210Y3631285D01*
X5750560Y3630574D01*
X5949391Y3630574D01*
X5955741Y3631285D01*
X5961176Y3633215D01*
X5966104Y3636264D01*
X5970168Y3640378D01*
X5973267Y3645255D01*
X5975197Y3650742D01*
X5975908Y3657041D01*
X5975908Y3670452D01*
X5976670Y3674364D01*
X5978855Y3677665D01*
X5982157Y3679850D01*
X5986068Y3680612D01*
X6006084Y3680612D01*
X6014059Y3681476D01*
X6021171Y3683762D01*
X6027775Y3687572D01*
X6032246Y3691432D01*
X6104991Y3764178D01*
X6110071Y3770426D01*
X6113475Y3777081D01*
X6115456Y3784447D01*
X6115913Y3790340D01*
X6115913Y3970985D01*
X6116675Y3974896D01*
X6118860Y3978198D01*
X6161735Y4021074D01*
X6165037Y4023258D01*
X6168948Y4024020D01*
X6185865Y4024020D01*
X6189675Y4023258D01*
X6192977Y4021124D01*
X6195161Y4017924D01*
X6196025Y4014063D01*
X6195314Y4010202D01*
X6193231Y4006900D01*
X6185712Y3998874D01*
X6177127Y3987088D01*
X6170117Y3974337D01*
X6164783Y3960825D01*
X6161176Y3946702D01*
X6159347Y3932275D01*
X6159347Y3917696D01*
X6161176Y3903268D01*
X6164783Y3889197D01*
X6170117Y3875633D01*
X6177127Y3862882D01*
X6185712Y3851148D01*
X6195669Y3840530D01*
X6206845Y3831234D01*
X6219139Y3823462D01*
X6233210Y3816858D01*
X6236309Y3814622D01*
X6238392Y3811422D01*
X6239103Y3807663D01*
X6239103Y3392322D01*
X6238392Y3388563D01*
X6236309Y3385362D01*
X6233210Y3383127D01*
X6219139Y3376523D01*
X6206845Y3368751D01*
X6195669Y3359454D01*
X6185712Y3348837D01*
X6177127Y3337102D01*
X6170117Y3324351D01*
X6164783Y3310788D01*
X6161176Y3296716D01*
X6159347Y3282289D01*
X6159347Y3267710D01*
X6161176Y3253282D01*
X6164783Y3239160D01*
X6170117Y3225647D01*
X6177127Y3212896D01*
X6185712Y3201111D01*
X6195669Y3190494D01*
X6206845Y3181248D01*
X6219139Y3173425D01*
X6232347Y3167227D01*
X6246164Y3162757D01*
X6260439Y3160014D01*
X6274968Y3159099D01*
X6289497Y3160014D01*
X6303822Y3162757D01*
X6317640Y3167227D01*
X6330797Y3173425D01*
X6343091Y3181248D01*
X6354318Y3190494D01*
X6364274Y3201111D01*
X6372809Y3212896D01*
X6379819Y3225647D01*
X6385204Y3239160D01*
X6388811Y3253282D01*
X6390640Y3267710D01*
X6390640Y3282289D01*
X6388811Y3296716D01*
X6385204Y3310788D01*
X6379819Y3324351D01*
X6372809Y3337102D01*
X6364274Y3348837D01*
X6354318Y3359454D01*
X6343091Y3368751D01*
X6330848Y3376523D01*
X6316776Y3383127D01*
X6313678Y3385362D01*
X6311595Y3388563D01*
X6310884Y3392322D01*
X6310884Y3807663D01*
X6311595Y3811422D01*
X6313678Y3814622D01*
X6316776Y3816858D01*
X6330848Y3823462D01*
X6343091Y3831234D01*
X6354318Y3840530D01*
X6364274Y3851148D01*
X6372809Y3862882D01*
X6379819Y3875633D01*
X6385204Y3889197D01*
X6388811Y3903268D01*
X6390640Y3917696D01*
X6390640Y3932275D01*
X6388811Y3946702D01*
X6385204Y3960825D01*
X6379819Y3974337D01*
X6372809Y3987088D01*
X6364274Y3998874D01*
X6354318Y4009491D01*
X6343091Y4018737D01*
X6330797Y4026560D01*
X6317284Y4032859D01*
X6314033Y4034637D01*
X6311646Y4037431D01*
X6307277Y4050741D01*
X6306718Y4054551D01*
X6307683Y4058259D01*
X6309918Y4061358D01*
X6313119Y4063441D01*
X6316878Y4064152D01*
X6800799Y4064152D01*
X6804710Y4063390D01*
X6808012Y4061206D01*
X6811009Y4058208D01*
X6813194Y4054906D01*
X6813956Y4050995D01*
X6813956Y4023106D01*
X6813245Y4019346D01*
X6811213Y4016146D01*
X6808114Y4013911D01*
X6804456Y4012946D01*
X6800646Y4013403D01*
X6797344Y4015232D01*
X6793128Y4018737D01*
X6780834Y4026560D01*
X6776313Y4028643D01*
X6776313Y3976319D01*
X6803796Y3976319D01*
X6807708Y3975557D01*
X6811009Y3973372D01*
X6813194Y3970070D01*
X6813956Y3966159D01*
X6813956Y3883812D01*
X6813194Y3879900D01*
X6811009Y3876598D01*
X6807708Y3874414D01*
X6803796Y3873652D01*
X6776313Y3873652D01*
X6776313Y3821328D01*
X6780834Y3823462D01*
X6793128Y3831234D01*
X6797344Y3834739D01*
X6800646Y3836568D01*
X6804456Y3837025D01*
X6808114Y3836111D01*
X6811213Y3833876D01*
X6813245Y3830624D01*
X6813956Y3826916D01*
X6813956Y3373069D01*
X6813245Y3369360D01*
X6811213Y3366109D01*
X6808114Y3363874D01*
X6804456Y3362960D01*
X6800646Y3363417D01*
X6797344Y3365246D01*
X6793128Y3368751D01*
X6780834Y3376523D01*
X6776313Y3378657D01*
X6776313Y3326333D01*
X6818579Y3326333D01*
X6822440Y3325571D01*
X6825691Y3323386D01*
X6836105Y3313125D01*
X6838340Y3309823D01*
X6839102Y3305911D01*
X6839102Y3233826D01*
X6838340Y3229914D01*
X6836156Y3226612D01*
X6832853Y3224428D01*
X6828942Y3223666D01*
X6776313Y3223666D01*
X6776313Y3171342D01*
X6780834Y3173425D01*
X6793128Y3181248D01*
X6804304Y3190494D01*
X6814261Y3201111D01*
X6820712Y3210001D01*
X6823862Y3212846D01*
X6827875Y3214116D01*
X6832092Y3213709D01*
X6835749Y3211576D01*
X6838238Y3208172D01*
X6839102Y3204006D01*
X6839102Y2042312D01*
X6838391Y2038604D01*
X6836359Y2035352D01*
X6833260Y2033117D01*
X6819138Y2026564D01*
X6806844Y2018741D01*
X6795668Y2009495D01*
X6785711Y1998878D01*
X6777126Y1987092D01*
X6770116Y1974342D01*
X6764781Y1960829D01*
X6761175Y1946706D01*
X6759346Y1932279D01*
X6759346Y1917700D01*
X6761175Y1903272D01*
X6764781Y1889201D01*
X6770116Y1875637D01*
X6777126Y1862886D01*
X6785711Y1851152D01*
X6795668Y1840534D01*
X6806844Y1831238D01*
X6819138Y1823466D01*
X6833209Y1816862D01*
X6836308Y1814626D01*
X6838391Y1811426D01*
X6839102Y1807667D01*
X6839102Y1392326D01*
X6838391Y1388567D01*
X6836308Y1385366D01*
X6833209Y1383131D01*
X6819138Y1376527D01*
X6806844Y1368755D01*
X6795668Y1359458D01*
X6785711Y1348841D01*
X6777126Y1337106D01*
X6770116Y1324356D01*
X6764781Y1310792D01*
X6761175Y1296720D01*
X6759346Y1282293D01*
X6759346Y1267714D01*
X6761175Y1253286D01*
X6764781Y1239164D01*
X6770116Y1225651D01*
X6777126Y1212900D01*
X6785711Y1201115D01*
X6795668Y1190498D01*
X6806844Y1181252D01*
X6819138Y1173429D01*
X6832346Y1167231D01*
X6846163Y1162761D01*
X6860438Y1160018D01*
X6874967Y1159103D01*
X6889496Y1160018D01*
X6903821Y1162761D01*
X6917639Y1167231D01*
X6930796Y1173429D01*
X6943090Y1181252D01*
X6954316Y1190498D01*
X6964273Y1201115D01*
X6972808Y1212900D01*
X6979818Y1225651D01*
X6985203Y1239164D01*
X6988809Y1253286D01*
X6990638Y1267714D01*
X6990638Y1282293D01*
X6988809Y1296720D01*
X6985203Y1310792D01*
X6979818Y1324356D01*
X6972808Y1337106D01*
X6964273Y1348841D01*
X6954316Y1359458D01*
X6943090Y1368755D01*
X6930847Y1376527D01*
X6916775Y1383131D01*
X6913676Y1385366D01*
X6911594Y1388567D01*
X6910882Y1392326D01*
X6910882Y1807667D01*
X6911594Y1811426D01*
X6913676Y1814626D01*
X6916775Y1816862D01*
X6930847Y1823466D01*
X6943090Y1831238D01*
X6954316Y1840534D01*
X6964273Y1851152D01*
X6972808Y1862886D01*
X6979818Y1875637D01*
X6985203Y1889201D01*
X6988809Y1903272D01*
X6990638Y1917700D01*
X6990638Y1932279D01*
X6988809Y1946706D01*
X6985203Y1960829D01*
X6979818Y1974342D01*
X6972808Y1987092D01*
X6964273Y1998878D01*
X6954316Y2009495D01*
X6943090Y2018741D01*
X6930847Y2026564D01*
X6916775Y2033117D01*
X6913676Y2035352D01*
X6911644Y2038553D01*
X6910933Y2042312D01*
X6910933Y3283762D01*
X6911695Y3287623D01*
X6913880Y3290925D01*
X6917181Y3293110D01*
X6921093Y3293922D01*
X6924954Y3293110D01*
X6928256Y3290925D01*
X7460996Y2758236D01*
X7463180Y2754934D01*
X7463942Y2751023D01*
X7463942Y1600454D01*
X7464806Y1592478D01*
X7467092Y1585366D01*
X7470902Y1578762D01*
X7474762Y1574241D01*
X7566710Y1482445D01*
X7568895Y1479194D01*
X7569708Y1475333D01*
X7568996Y1471472D01*
X7564780Y1460804D01*
X7561173Y1446733D01*
X7559344Y1432255D01*
X7559344Y1417726D01*
X7561173Y1403299D01*
X7564780Y1389176D01*
X7570114Y1375664D01*
X7577124Y1362913D01*
X7585709Y1351127D01*
X7595666Y1340510D01*
X7606842Y1331264D01*
X7619136Y1323441D01*
X7633208Y1316888D01*
X7636306Y1314653D01*
X7638389Y1311402D01*
X7639100Y1307693D01*
X7639100Y892302D01*
X7638389Y888593D01*
X7636306Y885342D01*
X7633208Y883107D01*
X7619136Y876553D01*
X7606842Y868730D01*
X7595666Y859485D01*
X7585709Y848868D01*
X7577124Y837082D01*
X7570114Y824331D01*
X7564780Y810818D01*
X7561173Y796696D01*
X7559344Y782269D01*
X7559344Y767740D01*
X7561173Y753262D01*
X7564780Y739190D01*
X7570114Y725678D01*
X7577124Y712876D01*
X7585709Y701141D01*
X7595666Y690524D01*
X7606842Y681228D01*
X7619136Y673455D01*
X7632344Y667258D01*
X7646162Y662736D01*
X7660436Y660044D01*
X7674965Y659130D01*
X7689494Y660044D01*
X7703820Y662736D01*
X7717637Y667258D01*
X7730794Y673455D01*
X7743088Y681228D01*
X7754315Y690524D01*
X7764272Y701141D01*
X7772806Y712876D01*
X7779816Y725678D01*
X7785201Y739190D01*
X7788808Y753262D01*
X7790637Y767740D01*
X7790637Y782269D01*
X7788808Y796696D01*
X7785201Y810818D01*
X7779816Y824331D01*
X7772806Y837082D01*
X7764272Y848868D01*
X7754315Y859485D01*
X7743088Y868730D01*
X7730845Y876553D01*
X7716774Y883107D01*
X7713675Y885342D01*
X7711592Y888593D01*
X7710881Y892302D01*
X7710881Y1307693D01*
X7711592Y1311402D01*
X7713675Y1314653D01*
X7716774Y1316888D01*
X7730845Y1323441D01*
X7743088Y1331264D01*
X7754315Y1340510D01*
X7764272Y1351127D01*
X7772806Y1362913D01*
X7779816Y1375664D01*
X7785201Y1389176D01*
X7788808Y1403299D01*
X7790637Y1417726D01*
X7790637Y1432255D01*
X7788808Y1446733D01*
X7785201Y1460804D01*
X7779816Y1474317D01*
X7772806Y1487119D01*
X7764272Y1498854D01*
X7754315Y1509471D01*
X7743088Y1518767D01*
X7730794Y1526540D01*
X7717637Y1532737D01*
X7703820Y1537258D01*
X7689291Y1540002D01*
X7685582Y1541526D01*
X7682738Y1544320D01*
X7681214Y1548028D01*
X7681214Y1551990D01*
X7682738Y1555648D01*
X7685582Y1558493D01*
X7689291Y1559966D01*
X7703820Y1562760D01*
X7717637Y1567230D01*
X7730794Y1573428D01*
X7743088Y1581251D01*
X7754315Y1590497D01*
X7764272Y1601114D01*
X7772806Y1612900D01*
X7779816Y1625650D01*
X7785201Y1639163D01*
X7788808Y1653286D01*
X7790637Y1667713D01*
X7790637Y1682292D01*
X7788808Y1696720D01*
X7785201Y1710791D01*
X7779816Y1724355D01*
X7772806Y1737106D01*
X7764272Y1748840D01*
X7754315Y1759457D01*
X7743088Y1768754D01*
X7730845Y1776526D01*
X7716774Y1783130D01*
X7713675Y1785366D01*
X7711592Y1788566D01*
X7710881Y1792325D01*
X7710881Y2207666D01*
X7711592Y2211425D01*
X7713675Y2214626D01*
X7716774Y2216861D01*
X7730845Y2223465D01*
X7743088Y2231237D01*
X7754315Y2240534D01*
X7764272Y2251151D01*
X7772806Y2262886D01*
X7779816Y2275636D01*
X7785201Y2289200D01*
X7788808Y2303272D01*
X7790637Y2317699D01*
X7790637Y2332278D01*
X7788808Y2346706D01*
X7785201Y2360828D01*
X7779816Y2374341D01*
X7772806Y2387092D01*
X7764272Y2398877D01*
X7754315Y2409494D01*
X7743088Y2418740D01*
X7730794Y2426563D01*
X7716875Y2433066D01*
X7713776Y2435301D01*
X7711744Y2438552D01*
X7711033Y2442260D01*
X7711033Y2623616D01*
X7711795Y2627477D01*
X7713980Y2630779D01*
X7717281Y2632964D01*
X7721193Y2633776D01*
X7725054Y2632964D01*
X7728356Y2630779D01*
X7734198Y2624988D01*
X7740446Y2619908D01*
X7747101Y2616504D01*
X7754467Y2614523D01*
X7760360Y2614066D01*
X8261045Y2614066D01*
X8264956Y2613304D01*
X8268258Y2611120D01*
X8436102Y2443276D01*
X8438286Y2439974D01*
X8439048Y2436063D01*
X8439048Y2042312D01*
X8438337Y2038553D01*
X8436305Y2035352D01*
X8433206Y2033117D01*
X8419134Y2026564D01*
X8406841Y2018741D01*
X8395665Y2009495D01*
X8385708Y1998878D01*
X8377123Y1987092D01*
X8370112Y1974342D01*
X8364778Y1960829D01*
X8361172Y1946706D01*
X8359343Y1932279D01*
X8359343Y1917700D01*
X8361172Y1903272D01*
X8364778Y1889201D01*
X8370112Y1875637D01*
X8377123Y1862886D01*
X8385708Y1851152D01*
X8395665Y1840534D01*
X8406841Y1831238D01*
X8419134Y1823466D01*
X8433206Y1816862D01*
X8436305Y1814626D01*
X8438388Y1811426D01*
X8439099Y1807667D01*
X8439099Y1392326D01*
X8438388Y1388567D01*
X8436305Y1385366D01*
X8433206Y1383131D01*
X8419134Y1376527D01*
X8406841Y1368755D01*
X8395665Y1359458D01*
X8385708Y1348841D01*
X8377123Y1337106D01*
X8370112Y1324356D01*
X8364778Y1310792D01*
X8361172Y1296720D01*
X8359343Y1282293D01*
X8359343Y1267714D01*
X8361172Y1253286D01*
X8364778Y1239164D01*
X8370112Y1225651D01*
X8377123Y1212900D01*
X8385708Y1201115D01*
X8395665Y1190498D01*
X8406841Y1181252D01*
X8419134Y1173429D01*
X8432342Y1167231D01*
X8446160Y1162761D01*
X8460435Y1160018D01*
X8474964Y1159103D01*
X8489492Y1160018D01*
X8503818Y1162761D01*
X8517636Y1167231D01*
X8530793Y1173429D01*
X8543086Y1181252D01*
X8554313Y1190498D01*
X8564270Y1201115D01*
X8572804Y1212900D01*
X8579815Y1225651D01*
X8585200Y1239164D01*
X8588806Y1253286D01*
X8590635Y1267714D01*
X8590635Y1282293D01*
X8588806Y1296720D01*
X8585200Y1310792D01*
X8579815Y1324356D01*
X8572804Y1337106D01*
X8564270Y1348841D01*
X8554313Y1359458D01*
X8543086Y1368755D01*
X8530844Y1376527D01*
X8516772Y1383131D01*
X8513673Y1385366D01*
X8511590Y1388567D01*
X8510879Y1392326D01*
X8510879Y1807667D01*
X8511590Y1811426D01*
X8513673Y1814626D01*
X8516772Y1816862D01*
X8530844Y1823466D01*
X8543086Y1831238D01*
X8554313Y1840534D01*
X8564270Y1851152D01*
X8572804Y1862886D01*
X8579815Y1875637D01*
X8585200Y1889201D01*
X8588806Y1903272D01*
X8590635Y1917700D01*
X8590635Y1932279D01*
X8588806Y1946706D01*
X8585200Y1960829D01*
X8579815Y1974342D01*
X8572804Y1987092D01*
X8564270Y1998878D01*
X8554313Y2009495D01*
X8543086Y2018741D01*
X8530844Y2026564D01*
X8516721Y2033117D01*
X8513622Y2035352D01*
X8511590Y2038604D01*
X8510879Y2042312D01*
X8510879Y2423972D01*
X8511641Y2427833D01*
X8513826Y2431135D01*
X8517128Y2433320D01*
X8521039Y2434132D01*
X8524900Y2433320D01*
X8528202Y2431135D01*
X8634374Y2325014D01*
X8640622Y2319934D01*
X8647277Y2316530D01*
X8654643Y2314549D01*
X8660536Y2314092D01*
X8849614Y2314092D01*
X8857589Y2314956D01*
X8864701Y2317242D01*
X8871305Y2321052D01*
X8875776Y2324912D01*
X8917635Y2366721D01*
X8921089Y2369007D01*
X8925153Y2369718D01*
X8929116Y2368753D01*
X8932316Y2367229D01*
X8946184Y2362758D01*
X8960459Y2360015D01*
X8974988Y2359101D01*
X8989517Y2360015D01*
X9003792Y2362758D01*
X9017660Y2367229D01*
X9030817Y2373426D01*
X9043111Y2381250D01*
X9054287Y2390495D01*
X9064294Y2401112D01*
X9072829Y2412898D01*
X9079839Y2425649D01*
X9085173Y2439162D01*
X9088831Y2453284D01*
X9090660Y2467711D01*
X9090660Y2482291D01*
X9088831Y2496718D01*
X9085173Y2510790D01*
X9079839Y2524353D01*
X9072829Y2537104D01*
X9064294Y2548839D01*
X9054287Y2559456D01*
X9043111Y2568752D01*
X9030817Y2576525D01*
X9016746Y2583129D01*
X9013647Y2585364D01*
X9011615Y2588564D01*
X9010904Y2592324D01*
X9010904Y3007664D01*
X9011615Y3011424D01*
X9013647Y3014624D01*
X9016746Y3016859D01*
X9030817Y3023463D01*
X9043111Y3031236D01*
X9054287Y3040532D01*
X9064294Y3051149D01*
X9072829Y3062884D01*
X9079839Y3075635D01*
X9085173Y3089198D01*
X9088831Y3103270D01*
X9090660Y3117697D01*
X9090660Y3132277D01*
X9088831Y3146704D01*
X9085173Y3160826D01*
X9079839Y3174339D01*
X9072829Y3187090D01*
X9064294Y3198876D01*
X9054287Y3209493D01*
X9043111Y3218738D01*
X9030817Y3226562D01*
X9017660Y3232759D01*
X9003792Y3237230D01*
X8989517Y3239973D01*
X8974988Y3240887D01*
X8960459Y3239973D01*
X8946184Y3237230D01*
X8932316Y3232759D01*
X8919159Y3226562D01*
X8906865Y3218738D01*
X8895638Y3209493D01*
X8885682Y3198876D01*
X8877147Y3187090D01*
X8870137Y3174339D01*
X8864752Y3160826D01*
X8861145Y3146704D01*
X8859316Y3132277D01*
X8859316Y3117697D01*
X8861145Y3103270D01*
X8864752Y3089198D01*
X8870137Y3075635D01*
X8877147Y3062884D01*
X8885682Y3051149D01*
X8895638Y3040532D01*
X8906865Y3031236D01*
X8919159Y3023463D01*
X8933230Y3016859D01*
X8936329Y3014624D01*
X8938361Y3011424D01*
X8939072Y3007664D01*
X8939072Y2592324D01*
X8938361Y2588564D01*
X8936329Y2585364D01*
X8933230Y2583129D01*
X8919159Y2576525D01*
X8906865Y2568752D01*
X8895638Y2559456D01*
X8885682Y2548839D01*
X8877147Y2537104D01*
X8870137Y2524353D01*
X8864752Y2510790D01*
X8861145Y2496718D01*
X8859316Y2482291D01*
X8859316Y2467711D01*
X8861145Y2453284D01*
X8864752Y2439162D01*
X8869019Y2428392D01*
X8869781Y2424531D01*
X8868968Y2420721D01*
X8866784Y2417470D01*
X8838234Y2388870D01*
X8834932Y2386685D01*
X8831021Y2385923D01*
X8679230Y2385923D01*
X8675319Y2386685D01*
X8672017Y2388870D01*
X8414156Y2646781D01*
X8411972Y2650083D01*
X8411159Y2653944D01*
X8411972Y2657856D01*
X8414156Y2661158D01*
X8417458Y2663342D01*
X8421319Y2664104D01*
X8699500Y2664104D01*
X8707475Y2664968D01*
X8714587Y2667254D01*
X8721191Y2671064D01*
X8725662Y2674924D01*
X8825077Y2774340D01*
X8830157Y2780588D01*
X8833561Y2787243D01*
X8835542Y2794609D01*
X8835999Y2800502D01*
X8835999Y3181045D01*
X8836761Y3184956D01*
X8838946Y3188258D01*
X8911793Y3261106D01*
X8915095Y3263290D01*
X8919006Y3264052D01*
X9530791Y3264052D01*
X9534702Y3263290D01*
X9538004Y3261106D01*
X9611106Y3188004D01*
X9613290Y3184702D01*
X9614052Y3180791D01*
X9614052Y1569008D01*
X9613290Y1565097D01*
X9611106Y1561795D01*
X8588044Y538988D01*
X8584742Y536803D01*
X8580831Y536041D01*
G37*

%LPC*%
G36*
X1926336Y671322D02*
G01*
X1930806Y673455D01*
X1943100Y681228D01*
X1954326Y690524D01*
X1964283Y701141D01*
X1972818Y712876D01*
X1978761Y723646D01*
X1926336Y723646D01*
G37*
G36*
X1823669Y671322D02*
G01*
X1823669Y723646D01*
X1771243Y723646D01*
X1777136Y712876D01*
X1785721Y701141D01*
X1795678Y690524D01*
X1806854Y681228D01*
X1819148Y673455D01*
G37*
G36*
X8176310Y671322D02*
G01*
X8180831Y673455D01*
X8193125Y681228D01*
X8204301Y690524D01*
X8214258Y701141D01*
X8222843Y712876D01*
X8228736Y723646D01*
X8176310Y723646D01*
G37*
G36*
X8073644Y671322D02*
G01*
X8073644Y723646D01*
X8021218Y723646D01*
X8027162Y712876D01*
X8035696Y701141D01*
X8045653Y690524D01*
X8056880Y681228D01*
X8069173Y673455D01*
G37*
G36*
X1926336Y826363D02*
G01*
X1978761Y826363D01*
X1972818Y837082D01*
X1964283Y848868D01*
X1954326Y859485D01*
X1943100Y868730D01*
X1930806Y876553D01*
X1926336Y878636D01*
G37*
G36*
X1771243Y826363D02*
G01*
X1823669Y826363D01*
X1823669Y878636D01*
X1819148Y876553D01*
X1806854Y868730D01*
X1795678Y859485D01*
X1785721Y848868D01*
X1777136Y837082D01*
G37*
G36*
X8176310Y826363D02*
G01*
X8228736Y826363D01*
X8222843Y837082D01*
X8214258Y848868D01*
X8204301Y859485D01*
X8193125Y868730D01*
X8180831Y876553D01*
X8176310Y878636D01*
G37*
G36*
X8021218Y826363D02*
G01*
X8073644Y826363D01*
X8073644Y878636D01*
X8069173Y876553D01*
X8056880Y868730D01*
X8045653Y859485D01*
X8035696Y848868D01*
X8027162Y837082D01*
G37*
G36*
X1126337Y1171346D02*
G01*
X1130808Y1173429D01*
X1143101Y1181252D01*
X1154328Y1190498D01*
X1164285Y1201115D01*
X1172819Y1212900D01*
X1178763Y1223670D01*
X1126337Y1223670D01*
G37*
G36*
X1023670Y1171346D02*
G01*
X1023670Y1223670D01*
X971245Y1223670D01*
X977137Y1212900D01*
X985723Y1201115D01*
X995680Y1190498D01*
X1006856Y1181252D01*
X1019149Y1173429D01*
G37*
G36*
X8976309Y1171346D02*
G01*
X8980830Y1173429D01*
X8993124Y1181252D01*
X9004300Y1190498D01*
X9014256Y1201115D01*
X9022842Y1212900D01*
X9028734Y1223670D01*
X8976309Y1223670D01*
G37*
G36*
X7376312Y1171346D02*
G01*
X7380833Y1173429D01*
X7393127Y1181252D01*
X7404303Y1190498D01*
X7414259Y1201115D01*
X7422845Y1212900D01*
X7428738Y1223670D01*
X7376312Y1223670D01*
G37*
G36*
X7273645Y1171346D02*
G01*
X7273645Y1223670D01*
X7221220Y1223670D01*
X7227163Y1212900D01*
X7235698Y1201115D01*
X7245654Y1190498D01*
X7256881Y1181252D01*
X7269175Y1173429D01*
G37*
G36*
X8873642Y1171346D02*
G01*
X8873642Y1223670D01*
X8821216Y1223670D01*
X8827160Y1212900D01*
X8835694Y1201115D01*
X8845651Y1190498D01*
X8856878Y1181252D01*
X8869172Y1173429D01*
G37*
G36*
X2726334Y1171346D02*
G01*
X2730804Y1173429D01*
X2743098Y1181252D01*
X2754325Y1190498D01*
X2764282Y1201115D01*
X2772816Y1212900D01*
X2778760Y1223670D01*
X2726334Y1223670D01*
G37*
G36*
X2623667Y1171346D02*
G01*
X2623667Y1223670D01*
X2571242Y1223670D01*
X2577134Y1212900D01*
X2585720Y1201115D01*
X2595676Y1190498D01*
X2606852Y1181252D01*
X2619146Y1173429D01*
G37*
G36*
X1926336Y1321358D02*
G01*
X1930806Y1323441D01*
X1943100Y1331264D01*
X1954326Y1340510D01*
X1964283Y1351127D01*
X1972818Y1362913D01*
X1978761Y1373632D01*
X1926336Y1373632D01*
G37*
G36*
X1823669Y1321358D02*
G01*
X1823669Y1373632D01*
X1771243Y1373632D01*
X1777136Y1362913D01*
X1785721Y1351127D01*
X1795678Y1340510D01*
X1806854Y1331264D01*
X1819148Y1323441D01*
G37*
G36*
X8073644Y1321358D02*
G01*
X8073644Y1373632D01*
X8021218Y1373632D01*
X8027162Y1362913D01*
X8035696Y1351127D01*
X8045653Y1340510D01*
X8056880Y1331264D01*
X8069173Y1323441D01*
G37*
G36*
X8176310Y1321358D02*
G01*
X8180831Y1323441D01*
X8193125Y1331264D01*
X8204301Y1340510D01*
X8214258Y1351127D01*
X8222843Y1362913D01*
X8228736Y1373632D01*
X8176310Y1373632D01*
G37*
G36*
X1126337Y1326337D02*
G01*
X1178763Y1326337D01*
X1172819Y1337106D01*
X1164285Y1348841D01*
X1154328Y1359458D01*
X1143101Y1368755D01*
X1130808Y1376527D01*
X1126337Y1378661D01*
G37*
G36*
X971245Y1326337D02*
G01*
X1023670Y1326337D01*
X1023670Y1378661D01*
X1019149Y1376527D01*
X1006856Y1368755D01*
X995680Y1359458D01*
X985723Y1348841D01*
X977137Y1337106D01*
G37*
G36*
X8976309Y1326337D02*
G01*
X9028734Y1326337D01*
X9022842Y1337106D01*
X9014256Y1348841D01*
X9004300Y1359458D01*
X8993124Y1368755D01*
X8980830Y1376527D01*
X8976309Y1378661D01*
G37*
G36*
X7376312Y1326337D02*
G01*
X7428738Y1326337D01*
X7422845Y1337106D01*
X7414259Y1348841D01*
X7404303Y1359458D01*
X7393127Y1368755D01*
X7380833Y1376527D01*
X7376312Y1378661D01*
G37*
G36*
X8821216Y1326337D02*
G01*
X8873642Y1326337D01*
X8873642Y1378661D01*
X8869172Y1376527D01*
X8856878Y1368755D01*
X8845651Y1359458D01*
X8835694Y1348841D01*
X8827160Y1337106D01*
G37*
G36*
X7221220Y1326337D02*
G01*
X7273645Y1326337D01*
X7273645Y1378661D01*
X7269175Y1376527D01*
X7256881Y1368755D01*
X7245654Y1359458D01*
X7235698Y1348841D01*
X7227163Y1337106D01*
G37*
G36*
X2571242Y1326337D02*
G01*
X2623667Y1326337D01*
X2623667Y1378661D01*
X2619146Y1376527D01*
X2606852Y1368755D01*
X2595676Y1359458D01*
X2585720Y1348841D01*
X2577134Y1337106D01*
G37*
G36*
X2726334Y1326337D02*
G01*
X2778760Y1326337D01*
X2772816Y1337106D01*
X2764282Y1348841D01*
X2754325Y1359458D01*
X2743098Y1368755D01*
X2730804Y1376527D01*
X2726334Y1378661D01*
G37*
G36*
X1926336Y1476349D02*
G01*
X1978761Y1476349D01*
X1972818Y1487119D01*
X1964283Y1498854D01*
X1954326Y1509471D01*
X1943100Y1518767D01*
X1930806Y1526540D01*
X1926336Y1528673D01*
G37*
G36*
X1771243Y1476349D02*
G01*
X1823669Y1476349D01*
X1823669Y1528673D01*
X1819148Y1526540D01*
X1806854Y1518767D01*
X1795678Y1509471D01*
X1785721Y1498854D01*
X1777136Y1487119D01*
G37*
G36*
X8021218Y1476349D02*
G01*
X8073644Y1476349D01*
X8073644Y1528673D01*
X8069173Y1526540D01*
X8056880Y1518767D01*
X8045653Y1509471D01*
X8035696Y1498854D01*
X8027162Y1487119D01*
G37*
G36*
X8176310Y1476349D02*
G01*
X8228736Y1476349D01*
X8222843Y1487119D01*
X8214258Y1498854D01*
X8204301Y1509471D01*
X8193125Y1518767D01*
X8180831Y1526540D01*
X8176310Y1528673D01*
G37*
G36*
X1926336Y1571345D02*
G01*
X1930806Y1573428D01*
X1943100Y1581251D01*
X1954326Y1590497D01*
X1964283Y1601114D01*
X1972818Y1612900D01*
X1978761Y1623669D01*
X1926336Y1623669D01*
G37*
G36*
X1823669Y1571345D02*
G01*
X1823669Y1623669D01*
X1771243Y1623669D01*
X1777136Y1612900D01*
X1785721Y1601114D01*
X1795678Y1590497D01*
X1806854Y1581251D01*
X1819148Y1573428D01*
G37*
G36*
X8176310Y1571345D02*
G01*
X8180831Y1573428D01*
X8193125Y1581251D01*
X8204301Y1590497D01*
X8214258Y1601114D01*
X8222843Y1612900D01*
X8228736Y1623669D01*
X8176310Y1623669D01*
G37*
G36*
X8073644Y1571345D02*
G01*
X8073644Y1623669D01*
X8021218Y1623669D01*
X8027162Y1612900D01*
X8035696Y1601114D01*
X8045653Y1590497D01*
X8056880Y1581251D01*
X8069173Y1573428D01*
G37*
G36*
X1926336Y1726336D02*
G01*
X1978761Y1726336D01*
X1972818Y1737106D01*
X1964283Y1748840D01*
X1954326Y1759457D01*
X1943100Y1768754D01*
X1930806Y1776526D01*
X1926336Y1778660D01*
G37*
G36*
X1771243Y1726336D02*
G01*
X1823669Y1726336D01*
X1823669Y1778660D01*
X1819148Y1776526D01*
X1806854Y1768754D01*
X1795678Y1759457D01*
X1785721Y1748840D01*
X1777136Y1737106D01*
G37*
G36*
X8021218Y1726336D02*
G01*
X8073644Y1726336D01*
X8073644Y1778660D01*
X8069173Y1776526D01*
X8056880Y1768754D01*
X8045653Y1759457D01*
X8035696Y1748840D01*
X8027162Y1737106D01*
G37*
G36*
X8176310Y1726336D02*
G01*
X8228736Y1726336D01*
X8222843Y1737106D01*
X8214258Y1748840D01*
X8204301Y1759457D01*
X8193125Y1768754D01*
X8180831Y1776526D01*
X8176310Y1778660D01*
G37*
G36*
X1023670Y1821332D02*
G01*
X1023670Y1873656D01*
X971245Y1873656D01*
X977137Y1862886D01*
X985723Y1851152D01*
X995680Y1840534D01*
X1006856Y1831238D01*
X1019149Y1823466D01*
G37*
G36*
X1126337Y1821332D02*
G01*
X1130808Y1823466D01*
X1143101Y1831238D01*
X1154328Y1840534D01*
X1164285Y1851152D01*
X1172819Y1862886D01*
X1178763Y1873656D01*
X1126337Y1873656D01*
G37*
G36*
X2726334Y1821332D02*
G01*
X2730804Y1823466D01*
X2743098Y1831238D01*
X2754325Y1840534D01*
X2764282Y1851152D01*
X2772816Y1862886D01*
X2778760Y1873656D01*
X2726334Y1873656D01*
G37*
G36*
X2623667Y1821332D02*
G01*
X2623667Y1873656D01*
X2571242Y1873656D01*
X2577134Y1862886D01*
X2585720Y1851152D01*
X2595676Y1840534D01*
X2606852Y1831238D01*
X2619146Y1823466D01*
G37*
G36*
X8976309Y1821332D02*
G01*
X8980830Y1823466D01*
X8993124Y1831238D01*
X9004300Y1840534D01*
X9014256Y1851152D01*
X9022842Y1862886D01*
X9028734Y1873656D01*
X8976309Y1873656D01*
G37*
G36*
X8873642Y1821332D02*
G01*
X8873642Y1873656D01*
X8821216Y1873656D01*
X8827160Y1862886D01*
X8835694Y1851152D01*
X8845651Y1840534D01*
X8856878Y1831238D01*
X8869172Y1823466D01*
G37*
G36*
X7273645Y1821332D02*
G01*
X7273645Y1873656D01*
X7221220Y1873656D01*
X7227163Y1862886D01*
X7235698Y1851152D01*
X7245654Y1840534D01*
X7256881Y1831238D01*
X7269175Y1823466D01*
G37*
G36*
X7376312Y1821332D02*
G01*
X7380833Y1823466D01*
X7393127Y1831238D01*
X7404303Y1840534D01*
X7414259Y1851152D01*
X7422845Y1862886D01*
X7428738Y1873656D01*
X7376312Y1873656D01*
G37*
G36*
X1126337Y1976323D02*
G01*
X1178763Y1976323D01*
X1172819Y1987092D01*
X1164285Y1998878D01*
X1154328Y2009495D01*
X1143101Y2018741D01*
X1130808Y2026564D01*
X1126337Y2028647D01*
G37*
G36*
X971245Y1976323D02*
G01*
X1023670Y1976323D01*
X1023670Y2028647D01*
X1019149Y2026564D01*
X1006856Y2018741D01*
X995680Y2009495D01*
X985723Y1998878D01*
X977137Y1987092D01*
G37*
G36*
X8976309Y1976323D02*
G01*
X9028734Y1976323D01*
X9022842Y1987092D01*
X9014256Y1998878D01*
X9004300Y2009495D01*
X8993124Y2018741D01*
X8980830Y2026564D01*
X8976309Y2028647D01*
G37*
G36*
X7376312Y1976323D02*
G01*
X7428738Y1976323D01*
X7422845Y1987092D01*
X7414259Y1998878D01*
X7404303Y2009495D01*
X7393127Y2018741D01*
X7380833Y2026564D01*
X7376312Y2028647D01*
G37*
G36*
X8821216Y1976323D02*
G01*
X8873642Y1976323D01*
X8873642Y2028647D01*
X8869172Y2026564D01*
X8856878Y2018741D01*
X8845651Y2009495D01*
X8835694Y1998878D01*
X8827160Y1987092D01*
G37*
G36*
X7221220Y1976323D02*
G01*
X7273645Y1976323D01*
X7273645Y2028647D01*
X7269175Y2026564D01*
X7256881Y2018741D01*
X7245654Y2009495D01*
X7235698Y1998878D01*
X7227163Y1987092D01*
G37*
G36*
X2571242Y1976323D02*
G01*
X2623667Y1976323D01*
X2623667Y2028647D01*
X2619146Y2026564D01*
X2606852Y2018741D01*
X2595676Y2009495D01*
X2585720Y1998878D01*
X2577134Y1987092D01*
G37*
G36*
X2726334Y1976323D02*
G01*
X2778760Y1976323D01*
X2772816Y1987092D01*
X2764282Y1998878D01*
X2754325Y2009495D01*
X2743098Y2018741D01*
X2730804Y2026564D01*
X2726334Y2028647D01*
G37*
G36*
X1926336Y2221331D02*
G01*
X1930806Y2223465D01*
X1943100Y2231237D01*
X1954326Y2240534D01*
X1964283Y2251151D01*
X1972818Y2262886D01*
X1978761Y2273655D01*
X1926336Y2273655D01*
G37*
G36*
X1823669Y2221331D02*
G01*
X1823669Y2273655D01*
X1771243Y2273655D01*
X1777136Y2262886D01*
X1785721Y2251151D01*
X1795678Y2240534D01*
X1806854Y2231237D01*
X1819148Y2223465D01*
G37*
G36*
X8176310Y2221331D02*
G01*
X8180831Y2223465D01*
X8193125Y2231237D01*
X8204301Y2240534D01*
X8214258Y2251151D01*
X8222843Y2262886D01*
X8228736Y2273655D01*
X8176310Y2273655D01*
G37*
G36*
X8073644Y2221331D02*
G01*
X8073644Y2273655D01*
X8021218Y2273655D01*
X8027162Y2262886D01*
X8035696Y2251151D01*
X8045653Y2240534D01*
X8056880Y2231237D01*
X8069173Y2223465D01*
G37*
G36*
X626364Y2371344D02*
G01*
X630834Y2373426D01*
X643128Y2381250D01*
X654304Y2390495D01*
X664311Y2401112D01*
X672846Y2412898D01*
X678738Y2423668D01*
X626364Y2423668D01*
G37*
G36*
X523646Y2371344D02*
G01*
X523646Y2423668D01*
X471220Y2423668D01*
X477164Y2412898D01*
X485698Y2401112D01*
X495655Y2390495D01*
X506882Y2381250D01*
X519176Y2373426D01*
G37*
G36*
X9476333Y2371344D02*
G01*
X9480804Y2373426D01*
X9493097Y2381250D01*
X9504324Y2390495D01*
X9514281Y2401112D01*
X9522815Y2412898D01*
X9528759Y2423668D01*
X9476333Y2423668D01*
G37*
G36*
X9373616Y2371344D02*
G01*
X9373616Y2423668D01*
X9321241Y2423668D01*
X9327134Y2412898D01*
X9335668Y2401112D01*
X9345676Y2390495D01*
X9356852Y2381250D01*
X9369145Y2373426D01*
G37*
G36*
X1926336Y2376322D02*
G01*
X1978761Y2376322D01*
X1972818Y2387092D01*
X1964283Y2398877D01*
X1954326Y2409494D01*
X1943100Y2418740D01*
X1930806Y2426563D01*
X1926336Y2428646D01*
G37*
G36*
X8176310Y2376322D02*
G01*
X8228736Y2376322D01*
X8222843Y2387092D01*
X8214258Y2398877D01*
X8204301Y2409494D01*
X8193125Y2418740D01*
X8180831Y2426563D01*
X8176310Y2428646D01*
G37*
G36*
X8021218Y2376322D02*
G01*
X8073644Y2376322D01*
X8073644Y2428646D01*
X8069173Y2426563D01*
X8056880Y2418740D01*
X8045653Y2409494D01*
X8035696Y2398877D01*
X8027162Y2387092D01*
G37*
G36*
X471220Y2526334D02*
G01*
X523646Y2526334D01*
X523646Y2578658D01*
X519176Y2576525D01*
X506882Y2568752D01*
X495655Y2559456D01*
X485698Y2548839D01*
X477164Y2537104D01*
G37*
G36*
X626364Y2526334D02*
G01*
X678738Y2526334D01*
X672846Y2537104D01*
X664311Y2548839D01*
X654304Y2559456D01*
X643128Y2568752D01*
X630834Y2576525D01*
X626364Y2578658D01*
G37*
G36*
X9321241Y2526334D02*
G01*
X9373616Y2526334D01*
X9373616Y2578658D01*
X9369145Y2576525D01*
X9356852Y2568752D01*
X9345676Y2559456D01*
X9335668Y2548839D01*
X9327134Y2537104D01*
G37*
G36*
X9476333Y2526334D02*
G01*
X9528759Y2526334D01*
X9522815Y2537104D01*
X9514281Y2548839D01*
X9504324Y2559456D01*
X9493097Y2568752D01*
X9480804Y2576525D01*
X9476333Y2578658D01*
G37*
G36*
X6157061Y2534310D02*
G01*
X6172911Y2534310D01*
X6188608Y2536139D01*
X6203950Y2539796D01*
X6218834Y2545181D01*
X6232956Y2552293D01*
X6246114Y2560980D01*
X6258255Y2571140D01*
X6269075Y2582621D01*
X6278524Y2595321D01*
X6286398Y2608986D01*
X6292697Y2623515D01*
X6297218Y2638653D01*
X6299962Y2654198D01*
X6300876Y2669946D01*
X6299962Y2685745D01*
X6297218Y2701290D01*
X6292697Y2716428D01*
X6286398Y2730957D01*
X6278524Y2744622D01*
X6269075Y2757322D01*
X6258255Y2768803D01*
X6246114Y2778963D01*
X6232956Y2787650D01*
X6218834Y2794762D01*
X6203950Y2800146D01*
X6188608Y2803804D01*
X6172911Y2805633D01*
X6157061Y2805633D01*
X6141364Y2803804D01*
X6126022Y2800146D01*
X6111138Y2794762D01*
X6097016Y2787650D01*
X6083858Y2778963D01*
X6071717Y2768803D01*
X6060897Y2757322D01*
X6051448Y2744622D01*
X6043574Y2730957D01*
X6037275Y2716428D01*
X6032754Y2701290D01*
X6030010Y2685745D01*
X6029096Y2669946D01*
X6030010Y2654198D01*
X6032754Y2638653D01*
X6037275Y2623515D01*
X6043574Y2608986D01*
X6051448Y2595321D01*
X6060897Y2582621D01*
X6071717Y2571140D01*
X6083858Y2560980D01*
X6097016Y2552293D01*
X6111138Y2545181D01*
X6126022Y2539796D01*
X6141364Y2536139D01*
G37*
G36*
X626364Y3021330D02*
G01*
X630834Y3023463D01*
X643128Y3031236D01*
X654304Y3040532D01*
X664311Y3051149D01*
X672846Y3062884D01*
X678738Y3073654D01*
X626364Y3073654D01*
G37*
G36*
X523646Y3021330D02*
G01*
X523646Y3073654D01*
X471220Y3073654D01*
X477164Y3062884D01*
X485698Y3051149D01*
X495655Y3040532D01*
X506882Y3031236D01*
X519176Y3023463D01*
G37*
G36*
X9476333Y3021330D02*
G01*
X9480804Y3023463D01*
X9493097Y3031236D01*
X9504324Y3040532D01*
X9514281Y3051149D01*
X9522815Y3062884D01*
X9528759Y3073654D01*
X9476333Y3073654D01*
G37*
G36*
X9373616Y3021330D02*
G01*
X9373616Y3073654D01*
X9321241Y3073654D01*
X9327134Y3062884D01*
X9335668Y3051149D01*
X9345676Y3040532D01*
X9356852Y3031236D01*
X9369145Y3023463D01*
G37*
G36*
X6673646Y3171342D02*
G01*
X6673646Y3223666D01*
X6621221Y3223666D01*
X6627164Y3212896D01*
X6635699Y3201111D01*
X6645656Y3190494D01*
X6656882Y3181248D01*
X6669176Y3173425D01*
G37*
G36*
X626364Y3176320D02*
G01*
X678738Y3176320D01*
X672846Y3187090D01*
X664311Y3198876D01*
X654304Y3209493D01*
X643128Y3218738D01*
X630834Y3226562D01*
X626364Y3228644D01*
G37*
G36*
X471220Y3176320D02*
G01*
X523646Y3176320D01*
X523646Y3228644D01*
X519176Y3226562D01*
X506882Y3218738D01*
X495655Y3209493D01*
X485698Y3198876D01*
X477164Y3187090D01*
G37*
G36*
X9321241Y3176320D02*
G01*
X9373616Y3176320D01*
X9373616Y3228644D01*
X9369145Y3226562D01*
X9356852Y3218738D01*
X9345676Y3209493D01*
X9335668Y3198876D01*
X9327134Y3187090D01*
G37*
G36*
X9476333Y3176320D02*
G01*
X9528759Y3176320D01*
X9522815Y3187090D01*
X9514281Y3198876D01*
X9504324Y3209493D01*
X9493097Y3218738D01*
X9480804Y3226562D01*
X9476333Y3228644D01*
G37*
G36*
X6621221Y3326333D02*
G01*
X6673646Y3326333D01*
X6673646Y3378657D01*
X6669176Y3376523D01*
X6656882Y3368751D01*
X6645656Y3359454D01*
X6635699Y3348837D01*
X6627164Y3337102D01*
G37*
G36*
X1146352Y3505047D02*
G01*
X1152956Y3508298D01*
X1164437Y3515969D01*
X1174851Y3525113D01*
X1183995Y3535527D01*
X1191666Y3547059D01*
X1194917Y3553663D01*
X1146352Y3553663D01*
G37*
G36*
X1053642Y3505047D02*
G01*
X1053642Y3553663D01*
X1005027Y3553663D01*
X1008278Y3547059D01*
X1016000Y3535527D01*
X1025093Y3525113D01*
X1035507Y3515969D01*
X1047038Y3508298D01*
G37*
G36*
X1005027Y3646322D02*
G01*
X1053642Y3646322D01*
X1053642Y3694937D01*
X1047038Y3691686D01*
X1035507Y3684015D01*
X1025093Y3674872D01*
X1016000Y3664458D01*
X1008278Y3652926D01*
G37*
G36*
X1146352Y3646322D02*
G01*
X1194917Y3646322D01*
X1191666Y3652926D01*
X1183995Y3664458D01*
X1174851Y3674872D01*
X1164437Y3684015D01*
X1152956Y3691686D01*
X1146352Y3694937D01*
G37*
G36*
X6673646Y3821328D02*
G01*
X6673646Y3873652D01*
X6621221Y3873652D01*
X6627164Y3862882D01*
X6635699Y3851148D01*
X6645656Y3840530D01*
X6656882Y3831234D01*
X6669176Y3823462D01*
G37*
G36*
X1053642Y3855059D02*
G01*
X1053642Y3903624D01*
X1005027Y3903624D01*
X1008278Y3897071D01*
X1016000Y3885539D01*
X1025093Y3875125D01*
X1035507Y3865981D01*
X1047038Y3858310D01*
G37*
G36*
X1146352Y3855059D02*
G01*
X1152956Y3858310D01*
X1164437Y3865981D01*
X1174851Y3875125D01*
X1183995Y3885539D01*
X1191666Y3897071D01*
X1194917Y3903624D01*
X1146352Y3903624D01*
G37*
G36*
X6621221Y3976319D02*
G01*
X6673646Y3976319D01*
X6673646Y4028643D01*
X6669176Y4026560D01*
X6656882Y4018737D01*
X6645656Y4009491D01*
X6635699Y3998874D01*
X6627164Y3987088D01*
G37*
G36*
X1005027Y3996334D02*
G01*
X1053642Y3996334D01*
X1053642Y4044950D01*
X1047038Y4041698D01*
X1035507Y4033977D01*
X1025093Y4024884D01*
X1016000Y4014470D01*
X1008278Y4002938D01*
G37*
G36*
X1146352Y3996334D02*
G01*
X1194917Y3996334D01*
X1191666Y4002938D01*
X1183995Y4014470D01*
X1174851Y4024884D01*
X1164437Y4033977D01*
X1152956Y4041698D01*
X1146352Y4044950D01*
G37*
G36*
X1005078Y4091584D02*
G01*
X1153972Y4091584D01*
X1160272Y4092295D01*
X1165758Y4094226D01*
X1170635Y4097274D01*
X1174750Y4101388D01*
X1177798Y4106265D01*
X1179728Y4111751D01*
X1180439Y4118051D01*
X1180439Y4366920D01*
X1179728Y4373270D01*
X1177798Y4378706D01*
X1174750Y4383633D01*
X1170635Y4387697D01*
X1165758Y4390796D01*
X1160272Y4392676D01*
X1153972Y4393387D01*
X1005078Y4393387D01*
X998778Y4392676D01*
X993292Y4390796D01*
X988415Y4387697D01*
X984300Y4383633D01*
X981252Y4378706D01*
X979322Y4373270D01*
X978611Y4366920D01*
X978611Y4118051D01*
X979322Y4111751D01*
X981252Y4106265D01*
X984300Y4101388D01*
X988415Y4097274D01*
X993292Y4094226D01*
X998778Y4092295D01*
G37*

%LPD*%
G36*
X601624Y25908D02*
G01*
X597255Y26873D01*
X593750Y29616D01*
X591769Y33629D01*
X591667Y38049D01*
X593445Y42113D01*
X596849Y45059D01*
X603046Y48310D01*
X627075Y63347D01*
X649986Y80010D01*
X671728Y98247D01*
X692099Y117906D01*
X711047Y138988D01*
X728522Y161340D01*
X744372Y184810D01*
X758545Y209346D01*
X770940Y234848D01*
X781558Y261112D01*
X790346Y288086D01*
X797204Y315569D01*
X802132Y343509D01*
X805078Y371652D01*
X806094Y399999D01*
X805078Y428345D01*
X802132Y456488D01*
X797204Y484428D01*
X790346Y511911D01*
X781558Y538886D01*
X770940Y565150D01*
X758545Y590651D01*
X744372Y615188D01*
X728522Y638657D01*
X711047Y661009D01*
X692099Y682091D01*
X671728Y701751D01*
X649986Y719988D01*
X627075Y736650D01*
X603046Y751687D01*
X578002Y764997D01*
X552094Y776478D01*
X525475Y786180D01*
X498246Y794004D01*
X470509Y799896D01*
X442468Y803859D01*
X414172Y805840D01*
X385826Y805840D01*
X357530Y803859D01*
X329488Y799896D01*
X301752Y794004D01*
X274523Y786180D01*
X247904Y776478D01*
X221996Y764997D01*
X196951Y751687D01*
X172923Y736650D01*
X150012Y719988D01*
X128270Y701751D01*
X107899Y682091D01*
X88950Y661009D01*
X71475Y638657D01*
X55626Y615188D01*
X44856Y596544D01*
X41910Y593293D01*
X37846Y591616D01*
X33426Y591820D01*
X29514Y593852D01*
X26873Y597306D01*
X25908Y601624D01*
X25908Y4798364D01*
X26873Y4802682D01*
X29514Y4806137D01*
X33426Y4808169D01*
X37846Y4808372D01*
X41910Y4806696D01*
X44856Y4803444D01*
X55626Y4784801D01*
X71475Y4761331D01*
X88950Y4738979D01*
X107899Y4717897D01*
X128270Y4698238D01*
X150012Y4680000D01*
X172923Y4663338D01*
X196951Y4648301D01*
X221996Y4634992D01*
X247904Y4623511D01*
X274523Y4613808D01*
X301752Y4605985D01*
X329488Y4600092D01*
X357530Y4596130D01*
X385826Y4594148D01*
X414172Y4594148D01*
X442468Y4596130D01*
X470509Y4600092D01*
X498246Y4605985D01*
X525475Y4613808D01*
X552094Y4623511D01*
X578002Y4634992D01*
X603046Y4648301D01*
X627075Y4663338D01*
X649986Y4680000D01*
X671728Y4698238D01*
X692099Y4717897D01*
X711047Y4738979D01*
X728522Y4761331D01*
X744372Y4784801D01*
X758545Y4809337D01*
X770940Y4834839D01*
X781558Y4861102D01*
X790346Y4888077D01*
X797204Y4915560D01*
X802132Y4943500D01*
X805078Y4971643D01*
X806094Y4999990D01*
X805078Y5028336D01*
X802132Y5056479D01*
X797204Y5084419D01*
X790346Y5111902D01*
X781558Y5138877D01*
X770940Y5165140D01*
X758545Y5190642D01*
X744372Y5215178D01*
X728522Y5238648D01*
X711047Y5261000D01*
X692099Y5282082D01*
X671728Y5301742D01*
X649986Y5319979D01*
X627075Y5336641D01*
X603046Y5351678D01*
X596849Y5354929D01*
X593445Y5357876D01*
X591667Y5361940D01*
X591769Y5366359D01*
X593750Y5370372D01*
X597255Y5373116D01*
X601624Y5374081D01*
X4423918Y5374081D01*
X4427829Y5373319D01*
X4431131Y5371084D01*
X4433316Y5367832D01*
X4434078Y5363921D01*
X4434078Y4768037D01*
X4433316Y4764176D01*
X4431131Y4760874D01*
X4427829Y4758690D01*
X4423918Y4757877D01*
X4351070Y4757877D01*
X4344720Y4757166D01*
X4339285Y4755286D01*
X4334357Y4752187D01*
X4330293Y4748123D01*
X4327194Y4743196D01*
X4325315Y4737760D01*
X4324604Y4731410D01*
X4324604Y4671568D01*
X4325315Y4665218D01*
X4327194Y4659782D01*
X4330293Y4654854D01*
X4334357Y4650790D01*
X4343196Y4645456D01*
X4345584Y4642053D01*
X4346448Y4637989D01*
X4345584Y4633925D01*
X4343196Y4630521D01*
X4334357Y4625187D01*
X4330293Y4621123D01*
X4327194Y4616196D01*
X4325315Y4610760D01*
X4324604Y4604410D01*
X4324604Y4544568D01*
X4325315Y4538218D01*
X4327194Y4532782D01*
X4330293Y4527854D01*
X4334357Y4523790D01*
X4343196Y4518456D01*
X4345584Y4515053D01*
X4346448Y4510989D01*
X4345584Y4506925D01*
X4343196Y4503521D01*
X4334357Y4498187D01*
X4330293Y4494123D01*
X4327194Y4489196D01*
X4325315Y4483760D01*
X4324604Y4477410D01*
X4324604Y4417568D01*
X4325315Y4411218D01*
X4327194Y4405782D01*
X4330293Y4400854D01*
X4334357Y4396790D01*
X4343196Y4391456D01*
X4345584Y4388053D01*
X4346448Y4383989D01*
X4345584Y4379925D01*
X4343196Y4376521D01*
X4334357Y4371187D01*
X4330293Y4367123D01*
X4327194Y4362196D01*
X4325315Y4356760D01*
X4324604Y4350410D01*
X4324604Y4290568D01*
X4325315Y4284218D01*
X4327194Y4278782D01*
X4330293Y4273854D01*
X4334357Y4269790D01*
X4343196Y4264456D01*
X4345584Y4261053D01*
X4346448Y4256989D01*
X4345584Y4252925D01*
X4343196Y4249521D01*
X4334357Y4244187D01*
X4330293Y4240123D01*
X4327194Y4235196D01*
X4325315Y4229760D01*
X4324604Y4223410D01*
X4324604Y4163568D01*
X4325315Y4157218D01*
X4327194Y4151782D01*
X4330293Y4146854D01*
X4334357Y4142790D01*
X4343196Y4137456D01*
X4345584Y4134053D01*
X4346448Y4129989D01*
X4345584Y4125925D01*
X4343196Y4122521D01*
X4334357Y4117187D01*
X4330293Y4113123D01*
X4327194Y4108196D01*
X4325315Y4102760D01*
X4324604Y4096410D01*
X4324604Y4036568D01*
X4325315Y4030218D01*
X4327194Y4024782D01*
X4330293Y4019854D01*
X4334357Y4015790D01*
X4343196Y4010456D01*
X4345584Y4007053D01*
X4346448Y4002989D01*
X4345584Y3998925D01*
X4343196Y3995521D01*
X4334357Y3990187D01*
X4330293Y3986123D01*
X4327194Y3981196D01*
X4325315Y3975760D01*
X4324604Y3969410D01*
X4324604Y3909568D01*
X4325315Y3903218D01*
X4327194Y3897782D01*
X4330293Y3892854D01*
X4334357Y3888790D01*
X4343196Y3883456D01*
X4345584Y3880053D01*
X4346448Y3875989D01*
X4345584Y3871925D01*
X4343196Y3868521D01*
X4334357Y3863187D01*
X4330293Y3859123D01*
X4327194Y3854196D01*
X4325315Y3848760D01*
X4324604Y3842410D01*
X4324604Y3782568D01*
X4325315Y3776218D01*
X4327194Y3770782D01*
X4330293Y3765854D01*
X4334357Y3761790D01*
X4343196Y3756456D01*
X4345584Y3753053D01*
X4346448Y3748989D01*
X4345584Y3744925D01*
X4343196Y3741521D01*
X4334357Y3736187D01*
X4330293Y3732123D01*
X4327194Y3727196D01*
X4325315Y3721760D01*
X4324604Y3715410D01*
X4324604Y3655568D01*
X4325315Y3649218D01*
X4327194Y3643782D01*
X4330293Y3638854D01*
X4334357Y3634790D01*
X4343196Y3629456D01*
X4345584Y3626053D01*
X4346448Y3621989D01*
X4345584Y3617925D01*
X4343196Y3614521D01*
X4334357Y3609187D01*
X4330293Y3605123D01*
X4327194Y3600196D01*
X4325315Y3594760D01*
X4324604Y3588410D01*
X4324604Y3528568D01*
X4325315Y3522218D01*
X4327194Y3516782D01*
X4330293Y3511854D01*
X4334357Y3507790D01*
X4339285Y3504692D01*
X4344720Y3502812D01*
X4351070Y3502101D01*
X4423918Y3502101D01*
X4427829Y3501288D01*
X4431131Y3499104D01*
X4433316Y3495801D01*
X4434078Y3491941D01*
X4434078Y3234639D01*
X4433214Y3230575D01*
X4430826Y3227171D01*
X4427270Y3225038D01*
X4420768Y3222752D01*
X4415891Y3219704D01*
X4411776Y3215589D01*
X4408678Y3210712D01*
X4406798Y3205226D01*
X4406087Y3198926D01*
X4406087Y3000044D01*
X4406392Y2997149D01*
X4405985Y2992932D01*
X4403902Y2989275D01*
X4400448Y2986735D01*
X4396282Y2985871D01*
X4218990Y2985871D01*
X4215079Y2986633D01*
X4211777Y2988818D01*
X4175607Y3024987D01*
X4169359Y3030067D01*
X4162704Y3033471D01*
X4155338Y3035452D01*
X4149445Y3035909D01*
X3260598Y3035909D01*
X3252622Y3035046D01*
X3245510Y3032760D01*
X3238906Y3028950D01*
X3234436Y3025089D01*
X3153308Y2944012D01*
X3150006Y2941828D01*
X3146145Y2941015D01*
X3142234Y2941828D01*
X3138932Y2944012D01*
X3136747Y2947314D01*
X3135985Y2951175D01*
X3135985Y3980891D01*
X3136747Y3984802D01*
X3138932Y3988104D01*
X3212033Y4061206D01*
X3215335Y4063390D01*
X3219246Y4064152D01*
X3780993Y4064152D01*
X3784904Y4063390D01*
X3788156Y4061155D01*
X3911092Y3938066D01*
X3913276Y3934764D01*
X3914038Y3930904D01*
X3914038Y3770376D01*
X3914901Y3762400D01*
X3917187Y3755288D01*
X3920998Y3748684D01*
X3924909Y3744112D01*
X3977843Y3691432D01*
X3984091Y3686403D01*
X3990797Y3683050D01*
X3998163Y3681069D01*
X4003954Y3680612D01*
X4013911Y3680612D01*
X4017822Y3679850D01*
X4021074Y3677665D01*
X4023309Y3674364D01*
X4024071Y3670452D01*
X4024071Y3657041D01*
X4024782Y3650742D01*
X4026712Y3645255D01*
X4029760Y3640378D01*
X4033875Y3636264D01*
X4038752Y3633215D01*
X4044238Y3631285D01*
X4050537Y3630574D01*
X4249420Y3630574D01*
X4255719Y3631285D01*
X4261205Y3633215D01*
X4266082Y3636264D01*
X4270197Y3640378D01*
X4273245Y3645255D01*
X4275175Y3650742D01*
X4275886Y3657041D01*
X4275886Y3775913D01*
X4275175Y3782263D01*
X4273245Y3787698D01*
X4270197Y3792626D01*
X4266082Y3796690D01*
X4261205Y3799789D01*
X4255719Y3801668D01*
X4249420Y3802379D01*
X4050537Y3802379D01*
X4044238Y3801668D01*
X4038752Y3799789D01*
X4033875Y3796690D01*
X4029760Y3792626D01*
X4026712Y3787698D01*
X4024782Y3782263D01*
X4024071Y3775913D01*
X4024071Y3771188D01*
X4023309Y3767328D01*
X4021124Y3764026D01*
X4017822Y3761841D01*
X4013911Y3761028D01*
X4010050Y3761790D01*
X4006748Y3764026D01*
X3988866Y3781806D01*
X3986631Y3785108D01*
X3985869Y3789019D01*
X3985869Y3924757D01*
X3986733Y3928821D01*
X3989120Y3932174D01*
X3992676Y3934307D01*
X3996842Y3934866D01*
X3999890Y3934612D01*
X4013911Y3934612D01*
X4017822Y3933850D01*
X4021074Y3931665D01*
X4023309Y3928364D01*
X4024071Y3924452D01*
X4024071Y3911041D01*
X4024782Y3904742D01*
X4026712Y3899255D01*
X4029760Y3894378D01*
X4033875Y3890264D01*
X4038752Y3887215D01*
X4044238Y3885285D01*
X4050537Y3884574D01*
X4249420Y3884574D01*
X4255719Y3885285D01*
X4261205Y3887215D01*
X4266082Y3890264D01*
X4270197Y3894378D01*
X4273245Y3899255D01*
X4275175Y3904742D01*
X4275886Y3911041D01*
X4275886Y4029913D01*
X4275175Y4036263D01*
X4273245Y4041698D01*
X4270197Y4046626D01*
X4266082Y4050690D01*
X4261205Y4053789D01*
X4255719Y4055668D01*
X4249420Y4056379D01*
X4050537Y4056379D01*
X4044238Y4055668D01*
X4038752Y4053789D01*
X4033875Y4050690D01*
X4029760Y4046626D01*
X4026712Y4041698D01*
X4024782Y4036263D01*
X4024071Y4029913D01*
X4024071Y4021226D01*
X4023309Y4017365D01*
X4021074Y4014063D01*
X4017822Y4011879D01*
X4013911Y4011066D01*
X4010050Y4011879D01*
X4006748Y4014063D01*
X3845661Y4175099D01*
X3839413Y4180179D01*
X3832758Y4183583D01*
X3825392Y4185564D01*
X3819499Y4186021D01*
X3180588Y4186021D01*
X3172612Y4185158D01*
X3165500Y4182872D01*
X3158896Y4179062D01*
X3154426Y4175201D01*
X3025038Y4045813D01*
X3019958Y4039565D01*
X3016554Y4032910D01*
X3014573Y4025544D01*
X3014116Y4019651D01*
X3014116Y2959150D01*
X3013354Y2955239D01*
X3011170Y2951937D01*
X2947974Y2888742D01*
X2944672Y2886557D01*
X2940761Y2885795D01*
X2706471Y2885795D01*
X2702763Y2886456D01*
X2699613Y2888437D01*
X2697378Y2891434D01*
X2691688Y2902966D01*
X2683967Y2914497D01*
X2681528Y2917240D01*
X2679598Y2920593D01*
X2679039Y2924403D01*
X2679954Y2928162D01*
X2682138Y2931312D01*
X2685389Y2933395D01*
X2689199Y2934106D01*
X2699461Y2934106D01*
X2705760Y2934817D01*
X2711196Y2936748D01*
X2716123Y2939796D01*
X2720187Y2943910D01*
X2723286Y2948787D01*
X2725216Y2954274D01*
X2725928Y2960573D01*
X2725928Y3039465D01*
X2725216Y3045764D01*
X2724302Y3050032D01*
X2725216Y3054248D01*
X2725928Y3060598D01*
X2725928Y3139440D01*
X2725216Y3145739D01*
X2723286Y3151225D01*
X2720187Y3156102D01*
X2716123Y3160217D01*
X2711196Y3163316D01*
X2705760Y3165195D01*
X2699461Y3165906D01*
X2689199Y3165906D01*
X2685389Y3166668D01*
X2682138Y3168751D01*
X2679954Y3171901D01*
X2679039Y3175609D01*
X2679598Y3179419D01*
X2681528Y3182772D01*
X2683967Y3185566D01*
X2691688Y3197047D01*
X2697784Y3209493D01*
X2702255Y3222599D01*
X2704947Y3236214D01*
X2705862Y3250031D01*
X2704947Y3263849D01*
X2702255Y3277412D01*
X2697784Y3290519D01*
X2691688Y3302965D01*
X2683967Y3314496D01*
X2674874Y3324910D01*
X2664460Y3334004D01*
X2652928Y3341725D01*
X2641549Y3347313D01*
X2638552Y3349599D01*
X2636570Y3352749D01*
X2635859Y3356457D01*
X2635808Y3493515D01*
X2636520Y3497224D01*
X2638501Y3500374D01*
X2641498Y3502660D01*
X2652928Y3508298D01*
X2664460Y3515969D01*
X2674874Y3525113D01*
X2683967Y3535527D01*
X2691688Y3547059D01*
X2697835Y3559454D01*
X2702255Y3572611D01*
X2704947Y3586175D01*
X2705862Y3599992D01*
X2704947Y3613810D01*
X2702255Y3627374D01*
X2697835Y3640531D01*
X2691688Y3652926D01*
X2683967Y3664458D01*
X2674874Y3674872D01*
X2664460Y3684015D01*
X2652928Y3691686D01*
X2641549Y3697325D01*
X2638552Y3699560D01*
X2636570Y3702710D01*
X2635859Y3706418D01*
X2635859Y3843578D01*
X2636570Y3847236D01*
X2638552Y3850436D01*
X2641549Y3852672D01*
X2652928Y3858310D01*
X2664460Y3865981D01*
X2674874Y3875125D01*
X2683967Y3885539D01*
X2691688Y3897071D01*
X2697835Y3909466D01*
X2702255Y3922572D01*
X2704947Y3936187D01*
X2705862Y3950004D01*
X2704947Y3963822D01*
X2702255Y3977386D01*
X2697835Y3990492D01*
X2691688Y4002938D01*
X2683967Y4014470D01*
X2674874Y4024884D01*
X2664460Y4033977D01*
X2652928Y4041698D01*
X2641549Y4047286D01*
X2638552Y4049522D01*
X2636570Y4052722D01*
X2635910Y4056430D01*
X2635910Y4110888D01*
X2636672Y4114800D01*
X2638856Y4118101D01*
X2645460Y4124706D01*
X2650540Y4130954D01*
X2653944Y4137609D01*
X2655925Y4144975D01*
X2656382Y4150868D01*
X2656382Y4216450D01*
X2657144Y4220311D01*
X2659329Y4223613D01*
X2662631Y4225848D01*
X2666542Y4226610D01*
X2694889Y4226610D01*
X2701239Y4227322D01*
X2706674Y4229252D01*
X2711602Y4232300D01*
X2715666Y4236415D01*
X2718765Y4241292D01*
X2720644Y4246778D01*
X2721356Y4253077D01*
X2721356Y4493920D01*
X2722168Y4497832D01*
X2724353Y4501134D01*
X2727655Y4503318D01*
X2731516Y4504080D01*
X2780995Y4504080D01*
X2784906Y4503318D01*
X2788208Y4501134D01*
X3064408Y4224934D01*
X3070656Y4219854D01*
X3077311Y4216450D01*
X3084677Y4214469D01*
X3090570Y4214012D01*
X3950157Y4214012D01*
X3954068Y4213250D01*
X3957370Y4211066D01*
X3968902Y4199534D01*
X3975150Y4194454D01*
X3981805Y4191050D01*
X3989171Y4189069D01*
X3995064Y4188612D01*
X4013911Y4188612D01*
X4017822Y4187850D01*
X4021074Y4185665D01*
X4023309Y4182364D01*
X4024071Y4178452D01*
X4024071Y4165041D01*
X4024782Y4158742D01*
X4026712Y4153255D01*
X4029760Y4148378D01*
X4033875Y4144264D01*
X4038752Y4141215D01*
X4044238Y4139285D01*
X4050537Y4138574D01*
X4249420Y4138574D01*
X4255719Y4139285D01*
X4261205Y4141215D01*
X4266082Y4144264D01*
X4270197Y4148378D01*
X4273245Y4153255D01*
X4275175Y4158742D01*
X4275886Y4165041D01*
X4275886Y4283913D01*
X4275175Y4290263D01*
X4273245Y4295698D01*
X4270197Y4300626D01*
X4266082Y4304690D01*
X4261205Y4307789D01*
X4255719Y4309668D01*
X4249420Y4310380D01*
X4050537Y4310380D01*
X4044238Y4309668D01*
X4038752Y4307789D01*
X4033875Y4304690D01*
X4029760Y4300626D01*
X4026712Y4295698D01*
X4024782Y4290263D01*
X4024071Y4283913D01*
X4024071Y4270603D01*
X4023309Y4266692D01*
X4021074Y4263390D01*
X4017822Y4261205D01*
X4013758Y4260443D01*
X4009847Y4261205D01*
X4006545Y4263390D01*
X3995013Y4274921D01*
X3988765Y4280001D01*
X3982110Y4283405D01*
X3974744Y4285386D01*
X3968851Y4285843D01*
X3881069Y4285843D01*
X3877208Y4286605D01*
X3873906Y4288790D01*
X3871722Y4292092D01*
X3870909Y4296003D01*
X3871722Y4299864D01*
X3873906Y4303166D01*
X4006748Y4436008D01*
X4010050Y4438192D01*
X4013911Y4439005D01*
X4017822Y4438192D01*
X4021074Y4436008D01*
X4023309Y4432706D01*
X4024071Y4428845D01*
X4024071Y4419041D01*
X4024782Y4412742D01*
X4026712Y4407255D01*
X4029760Y4402378D01*
X4033875Y4398264D01*
X4038752Y4395216D01*
X4044238Y4393285D01*
X4050537Y4392574D01*
X4249420Y4392574D01*
X4255719Y4393285D01*
X4261205Y4395216D01*
X4266082Y4398264D01*
X4270197Y4402378D01*
X4273245Y4407255D01*
X4275175Y4412742D01*
X4275886Y4419041D01*
X4275886Y4537913D01*
X4275175Y4544263D01*
X4273245Y4549698D01*
X4270197Y4554626D01*
X4266082Y4558690D01*
X4261205Y4561789D01*
X4255719Y4563668D01*
X4249420Y4564380D01*
X4050537Y4564380D01*
X4044238Y4563668D01*
X4038752Y4561789D01*
X4033875Y4558690D01*
X4029760Y4554626D01*
X4026712Y4549698D01*
X4024782Y4544263D01*
X4024071Y4537913D01*
X4024071Y4524603D01*
X4023309Y4520692D01*
X4021074Y4517390D01*
X4017822Y4515205D01*
X4013911Y4514443D01*
X3998976Y4514443D01*
X3991000Y4513580D01*
X3983888Y4511294D01*
X3977284Y4507484D01*
X3972814Y4503623D01*
X3808018Y4338828D01*
X3804716Y4336643D01*
X3800805Y4335881D01*
X3129076Y4335881D01*
X3125165Y4336643D01*
X3121863Y4338828D01*
X2845663Y4615027D01*
X2839415Y4620107D01*
X2832760Y4623511D01*
X2825394Y4625492D01*
X2819501Y4625949D01*
X2727502Y4625949D01*
X2723337Y4626813D01*
X2719882Y4629353D01*
X2717800Y4633010D01*
X2717393Y4637278D01*
X2720644Y4646777D01*
X2721356Y4653076D01*
X2721356Y4708652D01*
X2664307Y4708652D01*
X2664307Y4636109D01*
X2663545Y4632198D01*
X2661361Y4628896D01*
X2658059Y4626711D01*
X2654147Y4625949D01*
X2586786Y4625949D01*
X2582875Y4626711D01*
X2579573Y4628896D01*
X2577388Y4632198D01*
X2576626Y4636109D01*
X2576626Y4708652D01*
X2519578Y4708652D01*
X2519578Y4695088D01*
X2518867Y4691329D01*
X2516835Y4688128D01*
X2513787Y4685893D01*
X2510129Y4684928D01*
X2506319Y4685385D01*
X2503017Y4687163D01*
X2499563Y4689957D01*
X2492908Y4693361D01*
X2485542Y4695342D01*
X2479649Y4695799D01*
X2340610Y4695799D01*
X2332634Y4694936D01*
X2325522Y4692650D01*
X2318918Y4688840D01*
X2314498Y4685030D01*
X2258161Y4628896D01*
X2254859Y4626711D01*
X2250948Y4625949D01*
X1627479Y4625949D01*
X1623314Y4626813D01*
X1619910Y4629353D01*
X1617776Y4633010D01*
X1617370Y4637278D01*
X1620672Y4646777D01*
X1621383Y4653076D01*
X1621383Y4708652D01*
X1564335Y4708652D01*
X1564335Y4636109D01*
X1563522Y4632198D01*
X1561338Y4628896D01*
X1558036Y4626711D01*
X1554175Y4625949D01*
X1486763Y4625949D01*
X1482902Y4626711D01*
X1479600Y4628896D01*
X1477416Y4632198D01*
X1476603Y4636109D01*
X1476603Y4708652D01*
X1419555Y4708652D01*
X1419555Y4695037D01*
X1418844Y4691278D01*
X1416812Y4688078D01*
X1413764Y4685842D01*
X1410106Y4684877D01*
X1406347Y4685334D01*
X1402994Y4687112D01*
X1399489Y4689957D01*
X1392834Y4693361D01*
X1385468Y4695342D01*
X1379575Y4695799D01*
X1240536Y4695799D01*
X1232560Y4694936D01*
X1225448Y4692650D01*
X1218844Y4688840D01*
X1214424Y4685030D01*
X1158087Y4628896D01*
X1154785Y4626711D01*
X1150874Y4625949D01*
X890524Y4625949D01*
X882548Y4625086D01*
X875436Y4622800D01*
X868832Y4618990D01*
X864362Y4615129D01*
X75082Y3825849D01*
X70002Y3819601D01*
X66598Y3812946D01*
X64617Y3805580D01*
X64160Y3799687D01*
X64160Y1510538D01*
X65024Y1502562D01*
X67310Y1495450D01*
X71120Y1488846D01*
X74980Y1484376D01*
X1134262Y425094D01*
X1140510Y420014D01*
X1147165Y416610D01*
X1154531Y414629D01*
X1160424Y414172D01*
X3744010Y414172D01*
X3748074Y413359D01*
X3751427Y410972D01*
X3753561Y407517D01*
X3754170Y403453D01*
X3753104Y399440D01*
X3750564Y396240D01*
X3741724Y388823D01*
X3730904Y377342D01*
X3721455Y364642D01*
X3713581Y350977D01*
X3707282Y336448D01*
X3702761Y321310D01*
X3700018Y305765D01*
X3699103Y289966D01*
X3700018Y274218D01*
X3702761Y258673D01*
X3707282Y243535D01*
X3713581Y229006D01*
X3721455Y215341D01*
X3730904Y202641D01*
X3741724Y191160D01*
X3753865Y181000D01*
X3767023Y172313D01*
X3781145Y165201D01*
X3796029Y159816D01*
X3811371Y156159D01*
X3827068Y154330D01*
X3842918Y154330D01*
X3858615Y156159D01*
X3873957Y159816D01*
X3888841Y165201D01*
X3902964Y172313D01*
X3916121Y181000D01*
X3928262Y191160D01*
X3939082Y202641D01*
X3948531Y215341D01*
X3956405Y229006D01*
X3962704Y243535D01*
X3967226Y258673D01*
X3969969Y274218D01*
X3970883Y289966D01*
X3969969Y305765D01*
X3967226Y321310D01*
X3962704Y336448D01*
X3956405Y350977D01*
X3948531Y364642D01*
X3939082Y377342D01*
X3928262Y388823D01*
X3919423Y396240D01*
X3916883Y399440D01*
X3915816Y403453D01*
X3916426Y407517D01*
X3918559Y410972D01*
X3921912Y413359D01*
X3925976Y414172D01*
X6074003Y414172D01*
X6078067Y413359D01*
X6081420Y410972D01*
X6083554Y407517D01*
X6084163Y403453D01*
X6083096Y399440D01*
X6080556Y396240D01*
X6071717Y388823D01*
X6060897Y377342D01*
X6051448Y364642D01*
X6043574Y350977D01*
X6037275Y336448D01*
X6032754Y321310D01*
X6030010Y305765D01*
X6029096Y289966D01*
X6030010Y274218D01*
X6032754Y258673D01*
X6037275Y243535D01*
X6043574Y229006D01*
X6051448Y215341D01*
X6060897Y202641D01*
X6071717Y191160D01*
X6083858Y181000D01*
X6097016Y172313D01*
X6111138Y165201D01*
X6126022Y159816D01*
X6141364Y156159D01*
X6157061Y154330D01*
X6172911Y154330D01*
X6188608Y156159D01*
X6203950Y159816D01*
X6218834Y165201D01*
X6232956Y172313D01*
X6246114Y181000D01*
X6258255Y191160D01*
X6269075Y202641D01*
X6278524Y215341D01*
X6286398Y229006D01*
X6292697Y243535D01*
X6297218Y258673D01*
X6299962Y274218D01*
X6300876Y289966D01*
X6299962Y305765D01*
X6297218Y321310D01*
X6292697Y336448D01*
X6286398Y350977D01*
X6278524Y364642D01*
X6269075Y377342D01*
X6258255Y388823D01*
X6249416Y396240D01*
X6246876Y399440D01*
X6245809Y403453D01*
X6246418Y407517D01*
X6248552Y410972D01*
X6251905Y413359D01*
X6255969Y414172D01*
X8619490Y414172D01*
X8627465Y415035D01*
X8634577Y417322D01*
X8641181Y421132D01*
X8645652Y424992D01*
X9724999Y1504340D01*
X9730079Y1510588D01*
X9733483Y1517243D01*
X9735464Y1524609D01*
X9735921Y1530502D01*
X9735921Y3219450D01*
X9735058Y3227425D01*
X9732772Y3234537D01*
X9728962Y3241141D01*
X9725101Y3245612D01*
X9595713Y3374999D01*
X9589465Y3380079D01*
X9582810Y3383483D01*
X9575444Y3385464D01*
X9569551Y3385921D01*
X8880602Y3385921D01*
X8872626Y3385058D01*
X8865514Y3382772D01*
X8858910Y3378962D01*
X8854440Y3375101D01*
X8725052Y3245713D01*
X8719972Y3239465D01*
X8716568Y3232810D01*
X8714587Y3225444D01*
X8714130Y3219551D01*
X8714130Y2839059D01*
X8713368Y2835148D01*
X8711133Y2831846D01*
X8668105Y2788920D01*
X8664803Y2786735D01*
X8660892Y2785973D01*
X8619032Y2785973D01*
X8615121Y2786735D01*
X8611819Y2788920D01*
X8600592Y2800146D01*
X8598509Y2803245D01*
X8597646Y2806903D01*
X8598154Y2810611D01*
X8602218Y2822600D01*
X8604961Y2836214D01*
X8605824Y2850032D01*
X8604961Y2863850D01*
X8602218Y2877413D01*
X8597798Y2890520D01*
X8591651Y2902966D01*
X8583980Y2914497D01*
X8581542Y2917240D01*
X8579561Y2920593D01*
X8579002Y2924403D01*
X8579916Y2928162D01*
X8582152Y2931312D01*
X8585403Y2933395D01*
X8589162Y2934106D01*
X8599424Y2934106D01*
X8605723Y2934817D01*
X8611209Y2936748D01*
X8616086Y2939846D01*
X8620201Y2943910D01*
X8623249Y2948838D01*
X8625179Y2954274D01*
X8625890Y2960624D01*
X8625890Y3039465D01*
X8625179Y3045764D01*
X8624316Y3050032D01*
X8625179Y3054248D01*
X8625890Y3060598D01*
X8625890Y3139440D01*
X8625179Y3145790D01*
X8623249Y3151225D01*
X8620201Y3156102D01*
X8616086Y3160217D01*
X8611209Y3163316D01*
X8605723Y3165195D01*
X8599424Y3165906D01*
X8589162Y3165906D01*
X8585403Y3166668D01*
X8582152Y3168751D01*
X8579916Y3171901D01*
X8579002Y3175660D01*
X8579561Y3179470D01*
X8581542Y3182772D01*
X8583980Y3185566D01*
X8591651Y3197098D01*
X8597798Y3209493D01*
X8602218Y3222599D01*
X8604961Y3236214D01*
X8605824Y3250031D01*
X8604961Y3263849D01*
X8602218Y3277412D01*
X8597798Y3290519D01*
X8591651Y3302965D01*
X8583980Y3314496D01*
X8574836Y3324910D01*
X8564422Y3334004D01*
X8552891Y3341725D01*
X8545271Y3345484D01*
X8542172Y3347821D01*
X8540191Y3351072D01*
X8539581Y3354882D01*
X8540394Y3358591D01*
X8542528Y3361791D01*
X8591804Y3411169D01*
X8595106Y3413404D01*
X8598966Y3414166D01*
X8849614Y3414166D01*
X8857589Y3415029D01*
X8864701Y3417315D01*
X8871305Y3421126D01*
X8875776Y3424986D01*
X8925153Y3474364D01*
X8930233Y3480612D01*
X8933688Y3487369D01*
X8936685Y3498087D01*
X8938564Y3500678D01*
X8941206Y3502507D01*
X8952890Y3508298D01*
X8964422Y3516020D01*
X8974836Y3525113D01*
X8983980Y3535527D01*
X8991650Y3547059D01*
X8997797Y3559454D01*
X9002268Y3572611D01*
X9004960Y3586175D01*
X9005874Y3599992D01*
X9004960Y3613810D01*
X9002268Y3627424D01*
X8997797Y3640531D01*
X8991650Y3652926D01*
X8983980Y3664458D01*
X8974836Y3674872D01*
X8964422Y3684015D01*
X8952890Y3691686D01*
X8941511Y3697325D01*
X8938514Y3699560D01*
X8936583Y3702761D01*
X8935872Y3706418D01*
X8935872Y3843578D01*
X8936583Y3847236D01*
X8938514Y3850436D01*
X8941511Y3852672D01*
X8952890Y3858310D01*
X8964422Y3865981D01*
X8974836Y3875125D01*
X8983980Y3885539D01*
X8991650Y3897071D01*
X8997797Y3909466D01*
X9002268Y3922572D01*
X9004960Y3936187D01*
X9005874Y3950004D01*
X9004960Y3963822D01*
X9002268Y3977386D01*
X8997797Y3990543D01*
X8991650Y4002938D01*
X8983980Y4014470D01*
X8974836Y4024884D01*
X8964422Y4034028D01*
X8952890Y4041698D01*
X8941562Y4047286D01*
X8938564Y4049572D01*
X8936583Y4052722D01*
X8935872Y4056430D01*
X8935872Y4110939D01*
X8936634Y4114800D01*
X8938869Y4118101D01*
X8945473Y4124706D01*
X8950502Y4130954D01*
X8953906Y4137660D01*
X8955887Y4145026D01*
X8956344Y4150868D01*
X8956344Y4216450D01*
X8957157Y4220362D01*
X8959342Y4223613D01*
X8962644Y4225848D01*
X8966504Y4226610D01*
X8994851Y4226610D01*
X9001201Y4227322D01*
X9006636Y4229252D01*
X9011564Y4232300D01*
X9015628Y4236415D01*
X9018727Y4241292D01*
X9020657Y4246778D01*
X9021368Y4253077D01*
X9021368Y4501946D01*
X9020657Y4508296D01*
X9018727Y4513732D01*
X9015628Y4518660D01*
X9011564Y4522724D01*
X9006636Y4525822D01*
X9001201Y4527702D01*
X8994851Y4528413D01*
X8846007Y4528413D01*
X8839708Y4527702D01*
X8834221Y4525822D01*
X8829344Y4522724D01*
X8825230Y4518660D01*
X8822182Y4513732D01*
X8820251Y4508296D01*
X8819540Y4501946D01*
X8819540Y4253077D01*
X8820251Y4246778D01*
X8822182Y4241292D01*
X8825230Y4236415D01*
X8829344Y4232300D01*
X8834221Y4229252D01*
X8839708Y4227322D01*
X8846007Y4226610D01*
X8874404Y4226610D01*
X8878265Y4225848D01*
X8881567Y4223613D01*
X8883751Y4220362D01*
X8884564Y4216450D01*
X8884564Y4169562D01*
X8883751Y4165650D01*
X8881567Y4162399D01*
X8874963Y4155744D01*
X8869883Y4149547D01*
X8866479Y4142841D01*
X8864549Y4135475D01*
X8864092Y4129582D01*
X8864092Y4056430D01*
X8863380Y4052722D01*
X8861399Y4049572D01*
X8858402Y4047286D01*
X8847023Y4041698D01*
X8835491Y4034028D01*
X8825077Y4024884D01*
X8815984Y4014470D01*
X8808262Y4002938D01*
X8802116Y3990543D01*
X8797696Y3977386D01*
X8795004Y3963822D01*
X8794089Y3950004D01*
X8795004Y3936187D01*
X8797696Y3922572D01*
X8802116Y3909466D01*
X8808262Y3897071D01*
X8815984Y3885539D01*
X8825077Y3875125D01*
X8835491Y3865981D01*
X8847023Y3858310D01*
X8858402Y3852672D01*
X8861399Y3850436D01*
X8863380Y3847287D01*
X8864041Y3843578D01*
X8864041Y3706418D01*
X8863380Y3702710D01*
X8861399Y3699560D01*
X8858402Y3697325D01*
X8847023Y3691686D01*
X8835491Y3684015D01*
X8825077Y3674872D01*
X8815984Y3664458D01*
X8808262Y3652926D01*
X8802116Y3640531D01*
X8797696Y3627424D01*
X8795004Y3613810D01*
X8794089Y3599992D01*
X8795004Y3586175D01*
X8797696Y3572611D01*
X8802116Y3559454D01*
X8808262Y3547059D01*
X8815984Y3535527D01*
X8825077Y3525113D01*
X8835491Y3516020D01*
X8843060Y3510940D01*
X8846108Y3507740D01*
X8847531Y3503523D01*
X8846972Y3499104D01*
X8844584Y3495344D01*
X8838234Y3488944D01*
X8834932Y3486759D01*
X8831021Y3485997D01*
X8580374Y3485997D01*
X8572398Y3485134D01*
X8565286Y3482848D01*
X8558682Y3479037D01*
X8554161Y3475126D01*
X8475065Y3395776D01*
X8470036Y3389528D01*
X8466632Y3382873D01*
X8464651Y3375507D01*
X8464194Y3369665D01*
X8464194Y3356508D01*
X8463534Y3352850D01*
X8461552Y3349650D01*
X8458555Y3347415D01*
X8447024Y3341725D01*
X8435492Y3334004D01*
X8425078Y3324910D01*
X8415934Y3314496D01*
X8408263Y3302965D01*
X8402116Y3290519D01*
X8397697Y3277412D01*
X8395004Y3263849D01*
X8394090Y3250031D01*
X8395004Y3236214D01*
X8397697Y3222599D01*
X8402116Y3209493D01*
X8408263Y3197098D01*
X8415934Y3185566D01*
X8418372Y3182772D01*
X8420354Y3179470D01*
X8420912Y3175660D01*
X8419998Y3171901D01*
X8417763Y3168751D01*
X8414562Y3166668D01*
X8410752Y3165906D01*
X8400542Y3165906D01*
X8394242Y3165195D01*
X8388756Y3163316D01*
X8383879Y3160217D01*
X8379764Y3156102D01*
X8376716Y3151225D01*
X8374786Y3145790D01*
X8374075Y3139440D01*
X8374075Y3060598D01*
X8374786Y3054248D01*
X8375650Y3050032D01*
X8374786Y3045764D01*
X8374075Y3039465D01*
X8374075Y2960624D01*
X8374786Y2954274D01*
X8376716Y2948838D01*
X8379764Y2943910D01*
X8383879Y2939846D01*
X8388756Y2936748D01*
X8394242Y2934817D01*
X8400542Y2934106D01*
X8410752Y2934106D01*
X8414562Y2933395D01*
X8417763Y2931312D01*
X8419998Y2928162D01*
X8420912Y2924403D01*
X8420354Y2920593D01*
X8418372Y2917240D01*
X8415934Y2914497D01*
X8408263Y2902966D01*
X8402116Y2890520D01*
X8397697Y2877413D01*
X8395004Y2863850D01*
X8394090Y2850032D01*
X8395004Y2836214D01*
X8397697Y2822600D01*
X8402116Y2809494D01*
X8408263Y2797098D01*
X8415934Y2785567D01*
X8425078Y2775153D01*
X8435492Y2766009D01*
X8447024Y2758338D01*
X8453374Y2755188D01*
X8456828Y2752344D01*
X8458758Y2748280D01*
X8458758Y2743758D01*
X8456777Y2739745D01*
X8453272Y2736951D01*
X8448852Y2735935D01*
X8399068Y2735935D01*
X8395157Y2736697D01*
X8391855Y2738882D01*
X8355685Y2775051D01*
X8349437Y2780131D01*
X8342782Y2783535D01*
X8335416Y2785516D01*
X8329523Y2785973D01*
X7919008Y2785973D01*
X7915097Y2786735D01*
X7911795Y2788920D01*
X7900619Y2800146D01*
X7898485Y2803245D01*
X7897622Y2806903D01*
X7898180Y2810611D01*
X7902244Y2822600D01*
X7904937Y2836214D01*
X7905851Y2850032D01*
X7904937Y2863850D01*
X7902244Y2877413D01*
X7897774Y2890570D01*
X7891678Y2902966D01*
X7883956Y2914497D01*
X7881518Y2917291D01*
X7879588Y2920593D01*
X7879029Y2924403D01*
X7879943Y2928162D01*
X7882128Y2931312D01*
X7885379Y2933395D01*
X7889189Y2934106D01*
X7899450Y2934106D01*
X7905750Y2934817D01*
X7911185Y2936748D01*
X7916113Y2939846D01*
X7920177Y2943910D01*
X7923275Y2948838D01*
X7925206Y2954274D01*
X7925917Y2960624D01*
X7925917Y3039465D01*
X7925206Y3045764D01*
X7924292Y3050032D01*
X7925206Y3054248D01*
X7925917Y3060598D01*
X7925917Y3139440D01*
X7925206Y3145790D01*
X7923275Y3151225D01*
X7920177Y3156153D01*
X7916113Y3160217D01*
X7911185Y3163316D01*
X7905750Y3165195D01*
X7899450Y3165906D01*
X7889189Y3165906D01*
X7885379Y3166668D01*
X7882128Y3168751D01*
X7879943Y3171901D01*
X7879029Y3175660D01*
X7879588Y3179470D01*
X7881518Y3182772D01*
X7883956Y3185566D01*
X7891678Y3197098D01*
X7897774Y3209493D01*
X7902244Y3222599D01*
X7904937Y3236214D01*
X7905851Y3250031D01*
X7904937Y3263849D01*
X7902244Y3277412D01*
X7897774Y3290570D01*
X7891678Y3302965D01*
X7883956Y3314496D01*
X7874863Y3324910D01*
X7864449Y3334054D01*
X7852918Y3341725D01*
X7841538Y3347364D01*
X7838541Y3349599D01*
X7836560Y3352749D01*
X7835849Y3356457D01*
X7835798Y3493566D01*
X7836509Y3497224D01*
X7838490Y3500424D01*
X7841488Y3502660D01*
X7852918Y3508298D01*
X7864449Y3516020D01*
X7874863Y3525113D01*
X7883956Y3535527D01*
X7891678Y3547059D01*
X7897825Y3559505D01*
X7902244Y3572611D01*
X7904937Y3586175D01*
X7905851Y3599992D01*
X7904937Y3613810D01*
X7902244Y3627424D01*
X7897825Y3640531D01*
X7891678Y3652926D01*
X7883956Y3664458D01*
X7874863Y3674872D01*
X7864449Y3684015D01*
X7852918Y3691686D01*
X7841538Y3697325D01*
X7838541Y3699560D01*
X7836560Y3702761D01*
X7835900Y3706418D01*
X7835900Y3843578D01*
X7836560Y3847287D01*
X7838541Y3850436D01*
X7841538Y3852672D01*
X7852918Y3858310D01*
X7864449Y3865981D01*
X7874863Y3875125D01*
X7883956Y3885539D01*
X7891678Y3897071D01*
X7897825Y3909466D01*
X7902244Y3922623D01*
X7904937Y3936187D01*
X7905851Y3950004D01*
X7904937Y3963822D01*
X7902244Y3977386D01*
X7897825Y3990543D01*
X7891678Y4002938D01*
X7883956Y4014470D01*
X7874863Y4024884D01*
X7864449Y4034028D01*
X7852918Y4041698D01*
X7841437Y4047388D01*
X7838440Y4049623D01*
X7836458Y4052824D01*
X7835747Y4056481D01*
X7835747Y4110786D01*
X7836560Y4114698D01*
X7838795Y4118051D01*
X7845298Y4124451D01*
X7850378Y4130649D01*
X7853832Y4137304D01*
X7855864Y4144670D01*
X7856321Y4150766D01*
X7856321Y4216450D01*
X7857134Y4220362D01*
X7859318Y4223664D01*
X7862620Y4225848D01*
X7866481Y4226610D01*
X7894878Y4226610D01*
X7901228Y4227322D01*
X7906664Y4229252D01*
X7911592Y4232300D01*
X7915656Y4236415D01*
X7918754Y4241292D01*
X7920634Y4246778D01*
X7921345Y4253077D01*
X7921345Y4501946D01*
X7920634Y4508296D01*
X7918754Y4513732D01*
X7915656Y4518660D01*
X7911592Y4522724D01*
X7906664Y4525822D01*
X7901228Y4527702D01*
X7894878Y4528413D01*
X7746034Y4528413D01*
X7739684Y4527702D01*
X7734249Y4525822D01*
X7729321Y4522724D01*
X7725257Y4518660D01*
X7722158Y4513732D01*
X7720279Y4508296D01*
X7719568Y4501946D01*
X7719568Y4253077D01*
X7720279Y4246778D01*
X7722158Y4241292D01*
X7725257Y4236415D01*
X7729321Y4232300D01*
X7734249Y4229252D01*
X7739684Y4227322D01*
X7746034Y4226610D01*
X7774381Y4226610D01*
X7778242Y4225848D01*
X7781544Y4223664D01*
X7783728Y4220362D01*
X7784541Y4216450D01*
X7784541Y4169613D01*
X7783728Y4165701D01*
X7781493Y4162399D01*
X7774990Y4155998D01*
X7769910Y4149750D01*
X7766456Y4143095D01*
X7764475Y4135780D01*
X7763967Y4129633D01*
X7763967Y4056379D01*
X7763256Y4052671D01*
X7761274Y4049522D01*
X7758277Y4047236D01*
X7747050Y4041698D01*
X7735519Y4034028D01*
X7725105Y4024884D01*
X7715961Y4014470D01*
X7708290Y4002938D01*
X7702143Y3990543D01*
X7697724Y3977386D01*
X7694980Y3963822D01*
X7694066Y3950004D01*
X7694980Y3936187D01*
X7697724Y3922623D01*
X7702143Y3909466D01*
X7708290Y3897071D01*
X7715961Y3885539D01*
X7725105Y3875125D01*
X7735519Y3865981D01*
X7747050Y3858310D01*
X7758379Y3852722D01*
X7761376Y3850436D01*
X7763357Y3847287D01*
X7764068Y3843578D01*
X7764068Y3706418D01*
X7763357Y3702761D01*
X7761376Y3699560D01*
X7758379Y3697325D01*
X7747050Y3691686D01*
X7735519Y3684015D01*
X7725105Y3674872D01*
X7715961Y3664458D01*
X7708290Y3652926D01*
X7702143Y3640531D01*
X7697724Y3627424D01*
X7694980Y3613810D01*
X7694066Y3599992D01*
X7694980Y3586175D01*
X7697724Y3572611D01*
X7702143Y3559505D01*
X7708290Y3547059D01*
X7715961Y3535527D01*
X7725105Y3525113D01*
X7735519Y3516020D01*
X7747050Y3508298D01*
X7758328Y3502761D01*
X7761325Y3500475D01*
X7763306Y3497326D01*
X7763967Y3493617D01*
X7764018Y3356457D01*
X7763357Y3352749D01*
X7761376Y3349548D01*
X7758379Y3347313D01*
X7747050Y3341725D01*
X7735519Y3334054D01*
X7725105Y3324910D01*
X7715961Y3314496D01*
X7708290Y3302965D01*
X7702143Y3290570D01*
X7697673Y3277412D01*
X7694980Y3263849D01*
X7694066Y3250031D01*
X7694980Y3236214D01*
X7697673Y3222599D01*
X7702143Y3209493D01*
X7708290Y3197098D01*
X7715961Y3185566D01*
X7718399Y3182772D01*
X7720330Y3179470D01*
X7720939Y3175660D01*
X7720025Y3171901D01*
X7717790Y3168751D01*
X7714538Y3166668D01*
X7710779Y3165906D01*
X7700568Y3165906D01*
X7694269Y3165195D01*
X7688783Y3163316D01*
X7683906Y3160217D01*
X7679791Y3156153D01*
X7676692Y3151225D01*
X7674813Y3145790D01*
X7674102Y3139440D01*
X7674102Y3060598D01*
X7674813Y3054248D01*
X7675676Y3050032D01*
X7674813Y3045764D01*
X7674102Y3039465D01*
X7674102Y2960624D01*
X7674813Y2954274D01*
X7676692Y2948838D01*
X7679791Y2943910D01*
X7683906Y2939846D01*
X7688783Y2936748D01*
X7694269Y2934817D01*
X7700568Y2934106D01*
X7710779Y2934106D01*
X7714538Y2933395D01*
X7717790Y2931312D01*
X7720025Y2928162D01*
X7720939Y2924403D01*
X7720330Y2920593D01*
X7718399Y2917291D01*
X7715961Y2914497D01*
X7708290Y2902966D01*
X7702143Y2890570D01*
X7697673Y2877413D01*
X7694980Y2863850D01*
X7694726Y2859938D01*
X7693761Y2856179D01*
X7691475Y2853080D01*
X7688173Y2851099D01*
X7684363Y2850438D01*
X7680604Y2851251D01*
X7677403Y2853385D01*
X7088886Y3441903D01*
X7086701Y3445205D01*
X7085939Y3449116D01*
X7085939Y4149598D01*
X7085075Y4157573D01*
X7082790Y4164685D01*
X7078980Y4171289D01*
X7075119Y4175810D01*
X6925665Y4325010D01*
X6919417Y4330039D01*
X6912711Y4333443D01*
X6905345Y4335424D01*
X6899503Y4335881D01*
X6219037Y4335881D01*
X6215126Y4336643D01*
X6211824Y4338878D01*
X6188964Y4361840D01*
X6186779Y4365142D01*
X6186017Y4369003D01*
X6186017Y4385767D01*
X6186779Y4389729D01*
X6189065Y4393031D01*
X6192418Y4395216D01*
X6196380Y4395927D01*
X6200292Y4395063D01*
X6203594Y4392726D01*
X6205677Y4390491D01*
X6216853Y4381246D01*
X6229146Y4373422D01*
X6242304Y4367225D01*
X6256172Y4362754D01*
X6270447Y4360011D01*
X6284976Y4359097D01*
X6299504Y4360011D01*
X6313830Y4362754D01*
X6327648Y4367225D01*
X6340805Y4373422D01*
X6353098Y4381246D01*
X6364325Y4390491D01*
X6374282Y4401108D01*
X6382816Y4412894D01*
X6389827Y4425645D01*
X6395212Y4439158D01*
X6398818Y4453280D01*
X6400647Y4467707D01*
X6400647Y4482287D01*
X6398818Y4496714D01*
X6395212Y4510786D01*
X6389827Y4524349D01*
X6382816Y4537100D01*
X6374282Y4548835D01*
X6364325Y4559452D01*
X6353098Y4568748D01*
X6340805Y4576521D01*
X6326784Y4583125D01*
X6323685Y4585360D01*
X6321602Y4588560D01*
X6320891Y4592320D01*
X6320891Y5007660D01*
X6321602Y5011420D01*
X6323685Y5014620D01*
X6326784Y5016855D01*
X6340805Y5023459D01*
X6353098Y5031232D01*
X6364325Y5040528D01*
X6374282Y5051145D01*
X6382816Y5062880D01*
X6389827Y5075631D01*
X6395212Y5089194D01*
X6398818Y5103266D01*
X6400647Y5117693D01*
X6400647Y5132273D01*
X6398818Y5146700D01*
X6395212Y5160822D01*
X6389827Y5174335D01*
X6382816Y5187086D01*
X6374282Y5198872D01*
X6364325Y5209489D01*
X6353098Y5218734D01*
X6340805Y5226558D01*
X6327648Y5232755D01*
X6313830Y5237226D01*
X6299504Y5239969D01*
X6284976Y5240883D01*
X6270447Y5239969D01*
X6256172Y5237226D01*
X6242304Y5232755D01*
X6239052Y5231180D01*
X6235039Y5230266D01*
X6230975Y5230926D01*
X6227572Y5233212D01*
X6195263Y5265470D01*
X6189014Y5270550D01*
X6182360Y5273954D01*
X6174994Y5275935D01*
X6169101Y5276392D01*
X5986068Y5276392D01*
X5982157Y5277154D01*
X5978855Y5279339D01*
X5976670Y5282641D01*
X5975908Y5286552D01*
X5975908Y5299913D01*
X5975197Y5306212D01*
X5973267Y5311698D01*
X5970168Y5316575D01*
X5966104Y5320690D01*
X5961176Y5323789D01*
X5955741Y5325668D01*
X5949391Y5326380D01*
X5750560Y5326380D01*
X5744210Y5325668D01*
X5739384Y5323992D01*
X5735574Y5323433D01*
X5731865Y5324348D01*
X5728716Y5326583D01*
X5726633Y5329783D01*
X5725871Y5333593D01*
X5725871Y5363921D01*
X5726684Y5367832D01*
X5728868Y5371084D01*
X5732170Y5373319D01*
X5736031Y5374081D01*
X9398355Y5374081D01*
X9402724Y5373116D01*
X9406229Y5370372D01*
X9408210Y5366359D01*
X9408312Y5361940D01*
X9406534Y5357876D01*
X9403130Y5354929D01*
X9396933Y5351678D01*
X9372904Y5336641D01*
X9349994Y5319979D01*
X9328251Y5301742D01*
X9307880Y5282082D01*
X9288932Y5261000D01*
X9271457Y5238648D01*
X9255607Y5215178D01*
X9241434Y5190642D01*
X9229039Y5165140D01*
X9218422Y5138877D01*
X9209633Y5111902D01*
X9202775Y5084419D01*
X9197848Y5056479D01*
X9194901Y5028336D01*
X9193885Y4999990D01*
X9194901Y4971643D01*
X9197848Y4943500D01*
X9202775Y4915560D01*
X9209633Y4888077D01*
X9218422Y4861102D01*
X9229039Y4834839D01*
X9241434Y4809337D01*
X9255607Y4784801D01*
X9271457Y4761331D01*
X9288932Y4738979D01*
X9307880Y4717897D01*
X9328251Y4698238D01*
X9349994Y4680000D01*
X9372904Y4663338D01*
X9396933Y4648301D01*
X9421977Y4634992D01*
X9447885Y4623511D01*
X9474504Y4613808D01*
X9501733Y4605985D01*
X9529470Y4600092D01*
X9557512Y4596130D01*
X9585807Y4594148D01*
X9614154Y4594148D01*
X9642449Y4596130D01*
X9670491Y4600092D01*
X9698228Y4605985D01*
X9725456Y4613808D01*
X9752076Y4623511D01*
X9777984Y4634992D01*
X9803028Y4648301D01*
X9827056Y4663338D01*
X9849967Y4680000D01*
X9871710Y4698238D01*
X9892080Y4717897D01*
X9911029Y4738979D01*
X9928504Y4761331D01*
X9944354Y4784801D01*
X9955123Y4803444D01*
X9958070Y4806696D01*
X9962134Y4808372D01*
X9966553Y4808169D01*
X9970465Y4806137D01*
X9973106Y4802682D01*
X9974072Y4798364D01*
X9974072Y601624D01*
X9973106Y597306D01*
X9970465Y593852D01*
X9966553Y591820D01*
X9962134Y591616D01*
X9958070Y593293D01*
X9955123Y596544D01*
X9944354Y615188D01*
X9928504Y638657D01*
X9911029Y661009D01*
X9892080Y682091D01*
X9871710Y701751D01*
X9849967Y719988D01*
X9827056Y736650D01*
X9803028Y751687D01*
X9777984Y764997D01*
X9752076Y776478D01*
X9725456Y786180D01*
X9698228Y794004D01*
X9670491Y799896D01*
X9642449Y803859D01*
X9614154Y805840D01*
X9585807Y805840D01*
X9557512Y803859D01*
X9529470Y799896D01*
X9501733Y794004D01*
X9474504Y786180D01*
X9447885Y776478D01*
X9421977Y764997D01*
X9396933Y751687D01*
X9372904Y736650D01*
X9349994Y719988D01*
X9328251Y701751D01*
X9307880Y682091D01*
X9288932Y661009D01*
X9271457Y638657D01*
X9255607Y615188D01*
X9241434Y590651D01*
X9229039Y565150D01*
X9218422Y538886D01*
X9209633Y511911D01*
X9202775Y484428D01*
X9197848Y456488D01*
X9194901Y428345D01*
X9193885Y399999D01*
X9194901Y371652D01*
X9197848Y343509D01*
X9202775Y315569D01*
X9209633Y288086D01*
X9218422Y261112D01*
X9229039Y234848D01*
X9241434Y209346D01*
X9255607Y184810D01*
X9271457Y161340D01*
X9288932Y138988D01*
X9307880Y117906D01*
X9328251Y98247D01*
X9349994Y80010D01*
X9372904Y63347D01*
X9396933Y48310D01*
X9403130Y45059D01*
X9406534Y42113D01*
X9408312Y38049D01*
X9408210Y33629D01*
X9406229Y29616D01*
X9402724Y26873D01*
X9398355Y25908D01*
G37*

%LPC*%
G36*
X3790340Y3064154D02*
G01*
X3889501Y3064154D01*
X3897477Y3065018D01*
X3904589Y3067304D01*
X3911193Y3071114D01*
X3915664Y3074974D01*
X4006748Y3166008D01*
X4010050Y3168192D01*
X4013911Y3169005D01*
X4017822Y3168192D01*
X4021074Y3166008D01*
X4023309Y3162706D01*
X4024071Y3158845D01*
X4024071Y3149041D01*
X4024782Y3142742D01*
X4026712Y3137255D01*
X4029760Y3132378D01*
X4033875Y3128264D01*
X4038752Y3125216D01*
X4044238Y3123285D01*
X4050537Y3122574D01*
X4249420Y3122574D01*
X4255719Y3123285D01*
X4261205Y3125216D01*
X4266082Y3128264D01*
X4270197Y3132378D01*
X4273245Y3137255D01*
X4275175Y3142742D01*
X4275886Y3149041D01*
X4275886Y3267913D01*
X4275175Y3274263D01*
X4273245Y3279698D01*
X4270197Y3284626D01*
X4266082Y3288690D01*
X4261205Y3291789D01*
X4255719Y3293668D01*
X4249420Y3294379D01*
X4050537Y3294379D01*
X4044238Y3293668D01*
X4038752Y3291789D01*
X4033875Y3288690D01*
X4029760Y3284626D01*
X4026712Y3279698D01*
X4024782Y3274263D01*
X4024071Y3267913D01*
X4024071Y3254603D01*
X4023309Y3250692D01*
X4021074Y3247390D01*
X4017822Y3245205D01*
X4013911Y3244443D01*
X3998976Y3244443D01*
X3991000Y3243580D01*
X3983888Y3241294D01*
X3977284Y3237484D01*
X3972814Y3233623D01*
X3878122Y3138932D01*
X3874820Y3136747D01*
X3870909Y3135985D01*
X3809034Y3135985D01*
X3805123Y3136747D01*
X3801821Y3138932D01*
X3781551Y3159252D01*
X3779164Y3163062D01*
X3778656Y3167532D01*
X3780129Y3171799D01*
X3783279Y3175000D01*
X3793134Y3181248D01*
X3804310Y3190494D01*
X3814267Y3201111D01*
X3822852Y3212896D01*
X3829862Y3225647D01*
X3835196Y3239160D01*
X3838803Y3253282D01*
X3840632Y3267710D01*
X3840632Y3282289D01*
X3838803Y3296716D01*
X3835196Y3310788D01*
X3829862Y3324351D01*
X3822852Y3337102D01*
X3814267Y3348837D01*
X3804310Y3359454D01*
X3793134Y3368751D01*
X3780840Y3376523D01*
X3766769Y3383127D01*
X3763670Y3385362D01*
X3761587Y3388563D01*
X3760876Y3392322D01*
X3760876Y3807663D01*
X3761587Y3811422D01*
X3763670Y3814622D01*
X3766769Y3816858D01*
X3780840Y3823462D01*
X3793134Y3831234D01*
X3804310Y3840530D01*
X3814267Y3851148D01*
X3822852Y3862882D01*
X3829862Y3875633D01*
X3835196Y3889197D01*
X3838803Y3903268D01*
X3840632Y3917696D01*
X3840632Y3932275D01*
X3838803Y3946702D01*
X3835196Y3960825D01*
X3829862Y3974337D01*
X3822852Y3987088D01*
X3814267Y3998874D01*
X3804310Y4009491D01*
X3793134Y4018737D01*
X3780840Y4026560D01*
X3767632Y4032758D01*
X3753815Y4037228D01*
X3739540Y4039971D01*
X3725011Y4040886D01*
X3710482Y4039971D01*
X3696157Y4037228D01*
X3682339Y4032758D01*
X3669182Y4026560D01*
X3656888Y4018737D01*
X3645662Y4009491D01*
X3635705Y3998874D01*
X3627170Y3987088D01*
X3620160Y3974337D01*
X3614775Y3960825D01*
X3611168Y3946702D01*
X3609340Y3932275D01*
X3609340Y3917696D01*
X3611168Y3903268D01*
X3614775Y3889197D01*
X3620160Y3875633D01*
X3627170Y3862882D01*
X3635705Y3851148D01*
X3645662Y3840530D01*
X3656888Y3831234D01*
X3669131Y3823462D01*
X3683203Y3816858D01*
X3686301Y3814622D01*
X3688384Y3811422D01*
X3689096Y3807663D01*
X3689096Y3392322D01*
X3688384Y3388563D01*
X3686301Y3385362D01*
X3683203Y3383127D01*
X3669131Y3376523D01*
X3656888Y3368751D01*
X3645662Y3359454D01*
X3635705Y3348837D01*
X3627170Y3337102D01*
X3620160Y3324351D01*
X3614775Y3310788D01*
X3611168Y3296716D01*
X3609340Y3282289D01*
X3609340Y3267710D01*
X3611168Y3253282D01*
X3614775Y3239160D01*
X3620160Y3225647D01*
X3627170Y3212896D01*
X3635705Y3201111D01*
X3645662Y3190494D01*
X3656888Y3181248D01*
X3669182Y3173425D01*
X3682644Y3167126D01*
X3685895Y3165398D01*
X3688283Y3162604D01*
X3692144Y3150514D01*
X3695954Y3143910D01*
X3699814Y3139440D01*
X3764178Y3075076D01*
X3770426Y3069996D01*
X3777081Y3066592D01*
X3784447Y3064611D01*
G37*
G36*
X3326333Y3171342D02*
G01*
X3330803Y3173425D01*
X3343097Y3181248D01*
X3354324Y3190494D01*
X3364280Y3201111D01*
X3372815Y3212896D01*
X3378758Y3223666D01*
X3326333Y3223666D01*
G37*
G36*
X3223666Y3171342D02*
G01*
X3223666Y3223666D01*
X3171240Y3223666D01*
X3177133Y3212896D01*
X3185718Y3201111D01*
X3195675Y3190494D01*
X3206851Y3181248D01*
X3219145Y3173425D01*
G37*
G36*
X3326333Y3326333D02*
G01*
X3378758Y3326333D01*
X3372815Y3337102D01*
X3364280Y3348837D01*
X3354324Y3359454D01*
X3343097Y3368751D01*
X3330803Y3376523D01*
X3326333Y3378657D01*
G37*
G36*
X3171240Y3326333D02*
G01*
X3223666Y3326333D01*
X3223666Y3378657D01*
X3219145Y3376523D01*
X3206851Y3368751D01*
X3195675Y3359454D01*
X3185718Y3348837D01*
X3177133Y3337102D01*
G37*
G36*
X4050537Y3376574D02*
G01*
X4249420Y3376574D01*
X4255719Y3377285D01*
X4261205Y3379215D01*
X4266082Y3382264D01*
X4270197Y3386378D01*
X4273245Y3391255D01*
X4275175Y3396742D01*
X4275886Y3403041D01*
X4275886Y3521913D01*
X4275175Y3528263D01*
X4273245Y3533698D01*
X4270197Y3538626D01*
X4266082Y3542690D01*
X4261205Y3545789D01*
X4255719Y3547668D01*
X4249420Y3548379D01*
X4050537Y3548379D01*
X4044238Y3547668D01*
X4038752Y3545789D01*
X4033875Y3542690D01*
X4029760Y3538626D01*
X4026712Y3533698D01*
X4024782Y3528263D01*
X4024071Y3521913D01*
X4024071Y3511194D01*
X4023309Y3507333D01*
X4021074Y3504031D01*
X4017822Y3501847D01*
X4013911Y3501034D01*
X4010050Y3501847D01*
X4006748Y3504031D01*
X3959707Y3551021D01*
X3957370Y3554729D01*
X3956050Y3569614D01*
X3953611Y3578910D01*
X3949649Y3587699D01*
X3944264Y3595725D01*
X3937558Y3602685D01*
X3929786Y3608425D01*
X3921201Y3612743D01*
X3911955Y3615588D01*
X3902405Y3616807D01*
X3892753Y3616401D01*
X3883355Y3614369D01*
X3874363Y3610762D01*
X3866184Y3605733D01*
X3858920Y3599332D01*
X3852875Y3591814D01*
X3848150Y3583432D01*
X3844950Y3574338D01*
X3843324Y3564788D01*
X3843324Y3555187D01*
X3844950Y3545636D01*
X3848150Y3536543D01*
X3852875Y3528161D01*
X3858920Y3520643D01*
X3866184Y3514242D01*
X3874363Y3509213D01*
X3883355Y3505606D01*
X3892753Y3503574D01*
X3902252Y3503168D01*
X3905910Y3502304D01*
X3909009Y3500221D01*
X3971747Y3437483D01*
X3977995Y3432403D01*
X3984650Y3429000D01*
X3992016Y3427018D01*
X3997909Y3426561D01*
X4013911Y3426561D01*
X4017822Y3425799D01*
X4021074Y3423615D01*
X4023309Y3420313D01*
X4024071Y3416401D01*
X4024071Y3403041D01*
X4024782Y3396742D01*
X4026712Y3391255D01*
X4029760Y3386378D01*
X4033875Y3382264D01*
X4038752Y3379215D01*
X4044238Y3377285D01*
G37*
G36*
X8453628Y3505047D02*
G01*
X8453628Y3553663D01*
X8405012Y3553663D01*
X8408263Y3547059D01*
X8415985Y3535527D01*
X8425078Y3525113D01*
X8435492Y3516020D01*
X8447024Y3508298D01*
G37*
G36*
X7353604Y3505047D02*
G01*
X7353604Y3553663D01*
X7305040Y3553663D01*
X7308291Y3547059D01*
X7315962Y3535527D01*
X7325106Y3525113D01*
X7335520Y3516020D01*
X7347051Y3508298D01*
G37*
G36*
X7446314Y3505047D02*
G01*
X7452918Y3508298D01*
X7464450Y3516020D01*
X7474864Y3525113D01*
X7483957Y3535527D01*
X7491679Y3547059D01*
X7494930Y3553663D01*
X7446314Y3553663D01*
G37*
G36*
X8546338Y3505047D02*
G01*
X8552891Y3508298D01*
X8564422Y3516020D01*
X8574836Y3525113D01*
X8583980Y3535527D01*
X8591651Y3547059D01*
X8594902Y3553663D01*
X8546338Y3553663D01*
G37*
G36*
X8546338Y3646373D02*
G01*
X8594902Y3646373D01*
X8591651Y3652926D01*
X8583980Y3664458D01*
X8574836Y3674872D01*
X8564422Y3684015D01*
X8552891Y3691686D01*
X8546338Y3694937D01*
G37*
G36*
X8405012Y3646373D02*
G01*
X8453628Y3646373D01*
X8453628Y3694937D01*
X8447024Y3691686D01*
X8435492Y3684015D01*
X8425078Y3674872D01*
X8415985Y3664458D01*
X8408263Y3652926D01*
G37*
G36*
X7446314Y3646373D02*
G01*
X7494930Y3646373D01*
X7491679Y3652926D01*
X7483957Y3664458D01*
X7474864Y3674872D01*
X7464450Y3684015D01*
X7452918Y3691686D01*
X7446314Y3694937D01*
G37*
G36*
X7305040Y3646373D02*
G01*
X7353604Y3646373D01*
X7353604Y3694937D01*
X7347051Y3691686D01*
X7335520Y3684015D01*
X7325106Y3674872D01*
X7315962Y3664458D01*
X7308291Y3652926D01*
G37*
G36*
X3326333Y3821328D02*
G01*
X3330803Y3823462D01*
X3343097Y3831234D01*
X3354324Y3840530D01*
X3364280Y3851148D01*
X3372815Y3862882D01*
X3378758Y3873652D01*
X3326333Y3873652D01*
G37*
G36*
X3223666Y3821328D02*
G01*
X3223666Y3873652D01*
X3171240Y3873652D01*
X3177133Y3862882D01*
X3185718Y3851148D01*
X3195675Y3840530D01*
X3206851Y3831234D01*
X3219145Y3823462D01*
G37*
G36*
X8453628Y3855059D02*
G01*
X8453628Y3903624D01*
X8405012Y3903624D01*
X8408263Y3897071D01*
X8415985Y3885539D01*
X8425078Y3875125D01*
X8435492Y3865981D01*
X8447024Y3858310D01*
G37*
G36*
X7446314Y3855059D02*
G01*
X7452918Y3858310D01*
X7464450Y3865981D01*
X7474864Y3875125D01*
X7483957Y3885539D01*
X7491679Y3897071D01*
X7494930Y3903675D01*
X7446314Y3903675D01*
G37*
G36*
X8546338Y3855059D02*
G01*
X8552891Y3858310D01*
X8564422Y3865981D01*
X8574836Y3875125D01*
X8583980Y3885539D01*
X8591651Y3897071D01*
X8594902Y3903624D01*
X8546338Y3903624D01*
G37*
G36*
X7353604Y3855059D02*
G01*
X7353604Y3903675D01*
X7305040Y3903675D01*
X7308291Y3897071D01*
X7315962Y3885539D01*
X7325106Y3875125D01*
X7335520Y3865981D01*
X7347051Y3858310D01*
G37*
G36*
X3326333Y3976319D02*
G01*
X3378758Y3976319D01*
X3372815Y3987088D01*
X3364280Y3998874D01*
X3354324Y4009491D01*
X3343097Y4018737D01*
X3330803Y4026560D01*
X3326333Y4028643D01*
G37*
G36*
X3171240Y3976319D02*
G01*
X3223666Y3976319D01*
X3223666Y4028643D01*
X3219145Y4026560D01*
X3206851Y4018737D01*
X3195675Y4009491D01*
X3185718Y3998874D01*
X3177133Y3987088D01*
G37*
G36*
X8546338Y3996334D02*
G01*
X8594902Y3996334D01*
X8591651Y4002938D01*
X8583980Y4014470D01*
X8574836Y4024884D01*
X8564422Y4034028D01*
X8552891Y4041698D01*
X8546338Y4044950D01*
G37*
G36*
X8405012Y3996334D02*
G01*
X8453628Y3996334D01*
X8453628Y4044950D01*
X8447024Y4041698D01*
X8435492Y4034028D01*
X8425078Y4024884D01*
X8415985Y4014470D01*
X8408263Y4002938D01*
G37*
G36*
X7305040Y3996334D02*
G01*
X7353604Y3996334D01*
X7353604Y4044950D01*
X7347051Y4041698D01*
X7335520Y4034028D01*
X7325106Y4024884D01*
X7315962Y4014470D01*
X7308291Y4002938D01*
G37*
G36*
X7446314Y3996334D02*
G01*
X7494930Y3996334D01*
X7491679Y4002938D01*
X7483957Y4014470D01*
X7474864Y4024884D01*
X7464450Y4034028D01*
X7452918Y4041698D01*
X7446314Y4044950D01*
G37*
G36*
X8405063Y4091584D02*
G01*
X8553907Y4091584D01*
X8560257Y4092295D01*
X8565692Y4094226D01*
X8570620Y4097324D01*
X8574684Y4101388D01*
X8577783Y4106316D01*
X8579713Y4111751D01*
X8580424Y4118101D01*
X8580424Y4366920D01*
X8579713Y4373270D01*
X8577783Y4378706D01*
X8574684Y4383633D01*
X8570620Y4387697D01*
X8565692Y4390796D01*
X8560257Y4392726D01*
X8553907Y4393438D01*
X8405063Y4393438D01*
X8398764Y4392726D01*
X8393277Y4390796D01*
X8388400Y4387697D01*
X8384286Y4383633D01*
X8381238Y4378706D01*
X8379307Y4373270D01*
X8378596Y4366920D01*
X8378596Y4118101D01*
X8379307Y4111751D01*
X8381238Y4106316D01*
X8384286Y4101388D01*
X8388400Y4097324D01*
X8393277Y4094226D01*
X8398764Y4092295D01*
G37*
G36*
X7305090Y4091584D02*
G01*
X7453934Y4091584D01*
X7460284Y4092295D01*
X7465720Y4094226D01*
X7470648Y4097324D01*
X7474712Y4101388D01*
X7477810Y4106316D01*
X7479690Y4111751D01*
X7480401Y4118101D01*
X7480401Y4366920D01*
X7479690Y4373270D01*
X7477810Y4378706D01*
X7474712Y4383633D01*
X7470648Y4387697D01*
X7465720Y4390796D01*
X7460284Y4392726D01*
X7453934Y4393438D01*
X7305090Y4393438D01*
X7298740Y4392726D01*
X7293305Y4390796D01*
X7288377Y4387697D01*
X7284313Y4383633D01*
X7281214Y4378706D01*
X7279335Y4373270D01*
X7278624Y4366920D01*
X7278624Y4118101D01*
X7279335Y4111751D01*
X7281214Y4106316D01*
X7284313Y4101388D01*
X7288377Y4097324D01*
X7293305Y4094226D01*
X7298740Y4092295D01*
G37*
G36*
X3725011Y4359097D02*
G01*
X3739540Y4360011D01*
X3753815Y4362754D01*
X3767632Y4367225D01*
X3780840Y4373422D01*
X3793134Y4381246D01*
X3804310Y4390491D01*
X3814267Y4401108D01*
X3822852Y4412894D01*
X3829862Y4425645D01*
X3835196Y4439158D01*
X3838803Y4453280D01*
X3840632Y4467707D01*
X3840632Y4482287D01*
X3838803Y4496714D01*
X3835196Y4510786D01*
X3829862Y4524349D01*
X3822852Y4537100D01*
X3814267Y4548835D01*
X3804310Y4559452D01*
X3793134Y4568748D01*
X3780840Y4576521D01*
X3766769Y4583125D01*
X3763670Y4585360D01*
X3761587Y4588560D01*
X3760876Y4592320D01*
X3760876Y5007660D01*
X3761587Y5011420D01*
X3763670Y5014620D01*
X3766769Y5016855D01*
X3780840Y5023459D01*
X3793134Y5031232D01*
X3804310Y5040528D01*
X3814267Y5051145D01*
X3822852Y5062880D01*
X3829862Y5075631D01*
X3835196Y5089194D01*
X3838803Y5103266D01*
X3840632Y5117693D01*
X3840632Y5132273D01*
X3838803Y5146700D01*
X3835196Y5160822D01*
X3829862Y5174335D01*
X3822852Y5187086D01*
X3814267Y5198872D01*
X3804310Y5209489D01*
X3793134Y5218734D01*
X3780840Y5226558D01*
X3767632Y5232755D01*
X3753815Y5237226D01*
X3739540Y5239969D01*
X3725011Y5240883D01*
X3710482Y5239969D01*
X3696157Y5237226D01*
X3682339Y5232755D01*
X3669182Y5226558D01*
X3656888Y5218734D01*
X3645662Y5209489D01*
X3635705Y5198872D01*
X3627170Y5187086D01*
X3620160Y5174335D01*
X3614775Y5160822D01*
X3611168Y5146700D01*
X3609340Y5132273D01*
X3609340Y5117693D01*
X3611168Y5103266D01*
X3614775Y5089194D01*
X3620160Y5075631D01*
X3627170Y5062880D01*
X3635705Y5051145D01*
X3645662Y5040528D01*
X3656888Y5031232D01*
X3669131Y5023459D01*
X3683203Y5016855D01*
X3686301Y5014620D01*
X3688384Y5011420D01*
X3689096Y5007660D01*
X3689096Y4592320D01*
X3688384Y4588560D01*
X3686301Y4585360D01*
X3683203Y4583125D01*
X3669131Y4576521D01*
X3656888Y4568748D01*
X3645662Y4559452D01*
X3635705Y4548835D01*
X3627170Y4537100D01*
X3620160Y4524349D01*
X3614775Y4510786D01*
X3611168Y4496714D01*
X3609340Y4482287D01*
X3609340Y4467707D01*
X3611168Y4453280D01*
X3614775Y4439158D01*
X3620160Y4425645D01*
X3627170Y4412894D01*
X3635705Y4401108D01*
X3645662Y4390491D01*
X3656888Y4381246D01*
X3669182Y4373422D01*
X3682339Y4367225D01*
X3696157Y4362754D01*
X3710482Y4360011D01*
G37*
G36*
X3223666Y4371340D02*
G01*
X3223666Y4423664D01*
X3171240Y4423664D01*
X3177133Y4412894D01*
X3185718Y4401108D01*
X3195675Y4390491D01*
X3206851Y4381246D01*
X3219145Y4373422D01*
G37*
G36*
X6683654Y4371340D02*
G01*
X6683654Y4423664D01*
X6631228Y4423664D01*
X6637121Y4412894D01*
X6645706Y4401108D01*
X6655663Y4390491D01*
X6666890Y4381246D01*
X6679133Y4373422D01*
G37*
G36*
X6786321Y4371340D02*
G01*
X6790842Y4373422D01*
X6803085Y4381246D01*
X6814312Y4390491D01*
X6824268Y4401108D01*
X6832853Y4412894D01*
X6838746Y4423664D01*
X6786321Y4423664D01*
G37*
G36*
X3326333Y4371340D02*
G01*
X3330803Y4373422D01*
X3343097Y4381246D01*
X3354324Y4390491D01*
X3364280Y4401108D01*
X3372815Y4412894D01*
X3378758Y4423664D01*
X3326333Y4423664D01*
G37*
G36*
X7610500Y4446676D02*
G01*
X7622031Y4447997D01*
X7633258Y4451096D01*
X7643875Y4455820D01*
X7653578Y4462170D01*
X7662265Y4469892D01*
X7669682Y4478832D01*
X7675625Y4488840D01*
X7679944Y4499610D01*
X7682585Y4510887D01*
X7683500Y4522470D01*
X7682585Y4534103D01*
X7679944Y4545380D01*
X7675625Y4556150D01*
X7669682Y4566158D01*
X7662265Y4575098D01*
X7653578Y4582820D01*
X7643875Y4589170D01*
X7633258Y4593894D01*
X7622031Y4596993D01*
X7610500Y4598314D01*
X7598918Y4597857D01*
X7587488Y4595672D01*
X7576566Y4591710D01*
X7566355Y4586173D01*
X7557109Y4579162D01*
X7549083Y4570780D01*
X7542377Y4561281D01*
X7537246Y4550867D01*
X7533741Y4539792D01*
X7531963Y4528312D01*
X7531963Y4516678D01*
X7533741Y4505198D01*
X7537246Y4494123D01*
X7542377Y4483709D01*
X7549083Y4474210D01*
X7557109Y4465828D01*
X7566355Y4458817D01*
X7576566Y4453280D01*
X7587488Y4449318D01*
X7598918Y4447133D01*
G37*
G36*
X8710523Y4446676D02*
G01*
X8722055Y4447997D01*
X8733231Y4451096D01*
X8743848Y4455820D01*
X8753602Y4462170D01*
X8762288Y4469892D01*
X8769654Y4478832D01*
X8775598Y4488840D01*
X8779967Y4499610D01*
X8782608Y4510887D01*
X8783472Y4522470D01*
X8782608Y4534103D01*
X8779967Y4545380D01*
X8775598Y4556150D01*
X8769654Y4566158D01*
X8762288Y4575098D01*
X8753602Y4582820D01*
X8743848Y4589170D01*
X8733231Y4593894D01*
X8722055Y4596993D01*
X8710523Y4598314D01*
X8698890Y4597857D01*
X8687511Y4595672D01*
X8676538Y4591710D01*
X8666378Y4586173D01*
X8657132Y4579162D01*
X8649055Y4570780D01*
X8642400Y4561281D01*
X8637219Y4550867D01*
X8633714Y4539792D01*
X8631936Y4528312D01*
X8631936Y4516678D01*
X8633714Y4505198D01*
X8637219Y4494123D01*
X8642400Y4483709D01*
X8649055Y4474210D01*
X8657132Y4465828D01*
X8666378Y4458817D01*
X8676538Y4453280D01*
X8687511Y4449318D01*
X8698890Y4447133D01*
G37*
G36*
X6631228Y4526330D02*
G01*
X6683654Y4526330D01*
X6683654Y4578654D01*
X6679133Y4576521D01*
X6666890Y4568748D01*
X6655663Y4559452D01*
X6645706Y4548835D01*
X6637121Y4537100D01*
G37*
G36*
X3326333Y4526330D02*
G01*
X3378758Y4526330D01*
X3372815Y4537100D01*
X3364280Y4548835D01*
X3354324Y4559452D01*
X3343097Y4568748D01*
X3330803Y4576521D01*
X3326333Y4578654D01*
G37*
G36*
X3171240Y4526330D02*
G01*
X3223666Y4526330D01*
X3223666Y4578654D01*
X3219145Y4576521D01*
X3206851Y4568748D01*
X3195675Y4559452D01*
X3185718Y4548835D01*
X3177133Y4537100D01*
G37*
G36*
X6786321Y4526330D02*
G01*
X6838746Y4526330D01*
X6832853Y4537100D01*
X6824268Y4548835D01*
X6814312Y4559452D01*
X6803085Y4568748D01*
X6790842Y4576521D01*
X6786321Y4578654D01*
G37*
G36*
X8846007Y4626610D02*
G01*
X8876588Y4626610D01*
X8876588Y4708652D01*
X8819540Y4708652D01*
X8819540Y4653076D01*
X8820251Y4646777D01*
X8822182Y4641291D01*
X8825230Y4636414D01*
X8829344Y4632299D01*
X8834221Y4629251D01*
X8839708Y4627321D01*
G37*
G36*
X7864297Y4626610D02*
G01*
X7894878Y4626610D01*
X7901228Y4627321D01*
X7906664Y4629251D01*
X7911592Y4632299D01*
X7915656Y4636414D01*
X7918754Y4641291D01*
X7920634Y4646777D01*
X7921345Y4653076D01*
X7921345Y4708652D01*
X7864297Y4708652D01*
G37*
G36*
X8964320Y4626610D02*
G01*
X8994851Y4626610D01*
X9001201Y4627321D01*
X9006636Y4629251D01*
X9011564Y4632299D01*
X9015628Y4636414D01*
X9018727Y4641291D01*
X9020657Y4646777D01*
X9021368Y4653076D01*
X9021368Y4708652D01*
X8964320Y4708652D01*
G37*
G36*
X7746034Y4626610D02*
G01*
X7776616Y4626610D01*
X7776616Y4708652D01*
X7719568Y4708652D01*
X7719568Y4653076D01*
X7720279Y4646777D01*
X7722158Y4641291D01*
X7725257Y4636414D01*
X7729321Y4632299D01*
X7734249Y4629251D01*
X7739684Y4627321D01*
G37*
G36*
X4050537Y4646574D02*
G01*
X4249420Y4646574D01*
X4255719Y4647285D01*
X4261205Y4649216D01*
X4266082Y4652264D01*
X4270197Y4656378D01*
X4273245Y4661255D01*
X4275175Y4666742D01*
X4275886Y4673041D01*
X4275886Y4791913D01*
X4275175Y4798263D01*
X4273245Y4803698D01*
X4270197Y4808575D01*
X4266082Y4812690D01*
X4261205Y4815789D01*
X4255719Y4817668D01*
X4249420Y4818380D01*
X4050537Y4818380D01*
X4044238Y4817668D01*
X4038752Y4815789D01*
X4033875Y4812690D01*
X4029760Y4808575D01*
X4026712Y4803698D01*
X4024782Y4798263D01*
X4024071Y4791913D01*
X4024071Y4673041D01*
X4024782Y4666742D01*
X4026712Y4661255D01*
X4029760Y4656378D01*
X4033875Y4652264D01*
X4038752Y4649216D01*
X4044238Y4647285D01*
G37*
G36*
X1564335Y4846370D02*
G01*
X1621383Y4846370D01*
X1621383Y4901946D01*
X1620672Y4908245D01*
X1618742Y4913731D01*
X1615694Y4918608D01*
X1613966Y4920335D01*
X1611782Y4923637D01*
X1611020Y4927498D01*
X1611782Y4931410D01*
X1613966Y4934712D01*
X1615694Y4936388D01*
X1618742Y4941265D01*
X1620672Y4946751D01*
X1621383Y4953050D01*
X1621383Y5008626D01*
X1564335Y5008626D01*
G37*
G36*
X1419555Y4846370D02*
G01*
X1476603Y4846370D01*
X1476603Y5008626D01*
X1419555Y5008626D01*
X1419555Y4953050D01*
X1420266Y4946751D01*
X1422196Y4941265D01*
X1425244Y4936388D01*
X1426972Y4934712D01*
X1429156Y4931410D01*
X1429918Y4927498D01*
X1429156Y4923637D01*
X1426972Y4920335D01*
X1425244Y4918608D01*
X1422196Y4913731D01*
X1420266Y4908245D01*
X1419555Y4901946D01*
G37*
G36*
X8819540Y4846370D02*
G01*
X8876588Y4846370D01*
X8876588Y5008676D01*
X8819540Y5008676D01*
X8819540Y4953101D01*
X8820251Y4946751D01*
X8822182Y4941316D01*
X8825230Y4936388D01*
X8826957Y4934712D01*
X8829141Y4931410D01*
X8829903Y4927498D01*
X8829141Y4923637D01*
X8826957Y4920335D01*
X8825230Y4918659D01*
X8822182Y4913731D01*
X8820251Y4908296D01*
X8819540Y4901946D01*
G37*
G36*
X8964320Y4846370D02*
G01*
X9021368Y4846370D01*
X9021368Y4901946D01*
X9020657Y4908296D01*
X9018727Y4913731D01*
X9015628Y4918659D01*
X9013952Y4920335D01*
X9011767Y4923637D01*
X9011005Y4927498D01*
X9011767Y4931410D01*
X9013952Y4934712D01*
X9015628Y4936388D01*
X9018727Y4941316D01*
X9020657Y4946751D01*
X9021368Y4953101D01*
X9021368Y5008676D01*
X8964320Y5008676D01*
G37*
G36*
X7864297Y4846370D02*
G01*
X7921345Y4846370D01*
X7921345Y4901946D01*
X7920634Y4908296D01*
X7918754Y4913731D01*
X7915656Y4918659D01*
X7913979Y4920335D01*
X7911744Y4923637D01*
X7910982Y4927498D01*
X7911744Y4931410D01*
X7913979Y4934712D01*
X7915656Y4936388D01*
X7918754Y4941316D01*
X7920634Y4946751D01*
X7921345Y4953101D01*
X7921345Y5008676D01*
X7864297Y5008676D01*
G37*
G36*
X2664307Y4846370D02*
G01*
X2721356Y4846370D01*
X2721356Y4901946D01*
X2720644Y4908245D01*
X2718765Y4913731D01*
X2715666Y4918608D01*
X2713990Y4920335D01*
X2711754Y4923637D01*
X2710992Y4927498D01*
X2711754Y4931410D01*
X2713990Y4934712D01*
X2715666Y4936388D01*
X2718765Y4941265D01*
X2720644Y4946751D01*
X2721356Y4953050D01*
X2721356Y5008626D01*
X2664307Y5008626D01*
G37*
G36*
X2519578Y4846370D02*
G01*
X2576626Y4846370D01*
X2576626Y5008626D01*
X2519578Y5008626D01*
X2519578Y4953050D01*
X2520289Y4946751D01*
X2522169Y4941265D01*
X2525268Y4936388D01*
X2526944Y4934712D01*
X2529179Y4931410D01*
X2529941Y4927498D01*
X2529179Y4923637D01*
X2526944Y4920335D01*
X2525268Y4918608D01*
X2522169Y4913731D01*
X2520289Y4908245D01*
X2519578Y4901946D01*
G37*
G36*
X7719568Y4846370D02*
G01*
X7776616Y4846370D01*
X7776616Y5008676D01*
X7719568Y5008676D01*
X7719568Y4953101D01*
X7720279Y4946751D01*
X7722158Y4941316D01*
X7725257Y4936388D01*
X7726934Y4934712D01*
X7729169Y4931410D01*
X7729931Y4927498D01*
X7729169Y4923637D01*
X7726934Y4920335D01*
X7725257Y4918659D01*
X7722158Y4913731D01*
X7720279Y4908296D01*
X7719568Y4901946D01*
G37*
G36*
X4206341Y4900574D02*
G01*
X4249420Y4900574D01*
X4255719Y4901285D01*
X4261205Y4903216D01*
X4266082Y4906264D01*
X4270197Y4910378D01*
X4273245Y4915255D01*
X4275175Y4920742D01*
X4275886Y4927041D01*
X4275886Y4950155D01*
X4206341Y4950155D01*
G37*
G36*
X4050537Y4900574D02*
G01*
X4093616Y4900574D01*
X4093616Y4950155D01*
X4024071Y4950155D01*
X4024071Y4927041D01*
X4024782Y4920742D01*
X4026712Y4915255D01*
X4029760Y4910378D01*
X4033875Y4906264D01*
X4038752Y4903216D01*
X4044238Y4901285D01*
G37*
G36*
X6786321Y5021326D02*
G01*
X6790842Y5023459D01*
X6803085Y5031232D01*
X6814312Y5040528D01*
X6824268Y5051145D01*
X6832853Y5062880D01*
X6838746Y5073650D01*
X6786321Y5073650D01*
G37*
G36*
X6683654Y5021326D02*
G01*
X6683654Y5073650D01*
X6631228Y5073650D01*
X6637121Y5062880D01*
X6645706Y5051145D01*
X6655663Y5040528D01*
X6666890Y5031232D01*
X6679133Y5023459D01*
G37*
G36*
X3223666Y5021326D02*
G01*
X3223666Y5073650D01*
X3171240Y5073650D01*
X3177133Y5062880D01*
X3185718Y5051145D01*
X3195675Y5040528D01*
X3206851Y5031232D01*
X3219145Y5023459D01*
G37*
G36*
X3326333Y5021326D02*
G01*
X3330803Y5023459D01*
X3343097Y5031232D01*
X3354324Y5040528D01*
X3364280Y5051145D01*
X3372815Y5062880D01*
X3378758Y5073650D01*
X3326333Y5073650D01*
G37*
G36*
X4024071Y5022850D02*
G01*
X4093616Y5022850D01*
X4093616Y5072380D01*
X4050537Y5072380D01*
X4044238Y5071668D01*
X4038752Y5069789D01*
X4033875Y5066690D01*
X4029760Y5062575D01*
X4026712Y5057698D01*
X4024782Y5052263D01*
X4024071Y5045913D01*
G37*
G36*
X4206341Y5022850D02*
G01*
X4275886Y5022850D01*
X4275886Y5045913D01*
X4275175Y5052263D01*
X4273245Y5057698D01*
X4270197Y5062575D01*
X4266082Y5066690D01*
X4261205Y5069789D01*
X4255719Y5071668D01*
X4249420Y5072380D01*
X4206341Y5072380D01*
G37*
G36*
X4352442Y5043170D02*
G01*
X4361992Y5044389D01*
X4371187Y5047234D01*
X4379823Y5051552D01*
X4387596Y5057292D01*
X4394250Y5064252D01*
X4399635Y5072278D01*
X4403648Y5081066D01*
X4406036Y5090363D01*
X4406900Y5099964D01*
X4406036Y5109616D01*
X4403648Y5118912D01*
X4401820Y5122926D01*
X4400905Y5127142D01*
X4400905Y5199684D01*
X4400702Y5204155D01*
X4400143Y5208727D01*
X4399229Y5212892D01*
X4397806Y5217312D01*
X4396232Y5221224D01*
X4394098Y5225338D01*
X4391812Y5228945D01*
X4388967Y5232603D01*
X4385970Y5235905D01*
X4345889Y5276240D01*
X4342333Y5279542D01*
X4338980Y5282133D01*
X4335068Y5284622D01*
X4331309Y5286603D01*
X4326991Y5288381D01*
X4322978Y5289651D01*
X4318457Y5290667D01*
X4314240Y5291226D01*
X4309364Y5291429D01*
X4285945Y5291429D01*
X4282287Y5292090D01*
X4279138Y5294020D01*
X4276902Y5296916D01*
X4275836Y5300472D01*
X4275175Y5306263D01*
X4273245Y5311698D01*
X4270197Y5316575D01*
X4266082Y5320690D01*
X4261205Y5323789D01*
X4255719Y5325668D01*
X4249420Y5326380D01*
X4050537Y5326380D01*
X4044238Y5325668D01*
X4038752Y5323789D01*
X4033875Y5320690D01*
X4029760Y5316575D01*
X4026712Y5311698D01*
X4024782Y5306263D01*
X4024071Y5299913D01*
X4024071Y5181041D01*
X4024782Y5174742D01*
X4026712Y5169255D01*
X4029760Y5164378D01*
X4033875Y5160264D01*
X4038752Y5157216D01*
X4044238Y5155285D01*
X4050537Y5154574D01*
X4249420Y5154574D01*
X4255719Y5155285D01*
X4261205Y5157216D01*
X4266082Y5160264D01*
X4270197Y5164378D01*
X4273245Y5169255D01*
X4275175Y5174742D01*
X4275683Y5179060D01*
X4276801Y5182666D01*
X4279138Y5185613D01*
X4282440Y5187492D01*
X4286148Y5188051D01*
X4289856Y5187188D01*
X4292955Y5185054D01*
X4296156Y5181854D01*
X4298340Y5178602D01*
X4299102Y5174691D01*
X4299102Y5127701D01*
X4298492Y5124297D01*
X4294987Y5114290D01*
X4293362Y5104790D01*
X4293362Y5095189D01*
X4294987Y5085638D01*
X4298188Y5076545D01*
X4302861Y5068163D01*
X4308957Y5060645D01*
X4316171Y5054244D01*
X4324400Y5049215D01*
X4333341Y5045608D01*
X4342790Y5043576D01*
G37*
G36*
X1564335Y5146344D02*
G01*
X1621383Y5146344D01*
X1621383Y5201920D01*
X1620672Y5208270D01*
X1618742Y5213705D01*
X1615694Y5218633D01*
X1611579Y5222697D01*
X1606702Y5225796D01*
X1601216Y5227675D01*
X1594916Y5228386D01*
X1564335Y5228386D01*
G37*
G36*
X1419555Y5146344D02*
G01*
X1476603Y5146344D01*
X1476603Y5228386D01*
X1446022Y5228386D01*
X1439722Y5227675D01*
X1434236Y5225796D01*
X1429359Y5222697D01*
X1425244Y5218633D01*
X1422196Y5213705D01*
X1420266Y5208270D01*
X1419555Y5201920D01*
G37*
G36*
X2664307Y5146344D02*
G01*
X2721356Y5146344D01*
X2721356Y5201920D01*
X2720644Y5208270D01*
X2718765Y5213705D01*
X2715666Y5218633D01*
X2711602Y5222697D01*
X2706674Y5225796D01*
X2701239Y5227675D01*
X2694889Y5228386D01*
X2664307Y5228386D01*
G37*
G36*
X2519578Y5146344D02*
G01*
X2576626Y5146344D01*
X2576626Y5228386D01*
X2546045Y5228386D01*
X2539695Y5227675D01*
X2534259Y5225796D01*
X2529332Y5222697D01*
X2525268Y5218633D01*
X2522169Y5213705D01*
X2520289Y5208270D01*
X2519578Y5201920D01*
G37*
G36*
X8964320Y5146344D02*
G01*
X9021368Y5146344D01*
X9021368Y5201920D01*
X9020657Y5208270D01*
X9018727Y5213705D01*
X9015628Y5218633D01*
X9011564Y5222697D01*
X9006636Y5225796D01*
X9001201Y5227726D01*
X8994851Y5228437D01*
X8964320Y5228437D01*
G37*
G36*
X7719568Y5146344D02*
G01*
X7776616Y5146344D01*
X7776616Y5228437D01*
X7746034Y5228437D01*
X7739684Y5227726D01*
X7734249Y5225796D01*
X7729321Y5222697D01*
X7725257Y5218633D01*
X7722158Y5213705D01*
X7720279Y5208270D01*
X7719568Y5201920D01*
G37*
G36*
X7864297Y5146344D02*
G01*
X7921345Y5146344D01*
X7921345Y5201920D01*
X7920634Y5208270D01*
X7918754Y5213705D01*
X7915656Y5218633D01*
X7911592Y5222697D01*
X7906664Y5225796D01*
X7901228Y5227726D01*
X7894878Y5228437D01*
X7864297Y5228437D01*
G37*
G36*
X8819540Y5146344D02*
G01*
X8876588Y5146344D01*
X8876588Y5228437D01*
X8846007Y5228437D01*
X8839708Y5227726D01*
X8834221Y5225796D01*
X8829344Y5222697D01*
X8825230Y5218633D01*
X8822182Y5213705D01*
X8820251Y5208270D01*
X8819540Y5201920D01*
G37*
G36*
X2404414Y5146649D02*
G01*
X2415946Y5148021D01*
X2427173Y5151069D01*
X2437790Y5155844D01*
X2447493Y5162143D01*
X2456180Y5169865D01*
X2463596Y5178856D01*
X2469540Y5188813D01*
X2473858Y5199583D01*
X2476500Y5210911D01*
X2477414Y5222494D01*
X2476500Y5234076D01*
X2473858Y5245404D01*
X2469540Y5256174D01*
X2463596Y5266131D01*
X2456180Y5275122D01*
X2447493Y5282844D01*
X2437790Y5289143D01*
X2427173Y5293918D01*
X2415946Y5296966D01*
X2404414Y5298338D01*
X2392832Y5297881D01*
X2381402Y5295646D01*
X2370480Y5291734D01*
X2360269Y5286197D01*
X2351024Y5279136D01*
X2342997Y5270754D01*
X2336292Y5261254D01*
X2331161Y5250840D01*
X2327656Y5239766D01*
X2325878Y5228285D01*
X2325878Y5216702D01*
X2327656Y5205222D01*
X2331161Y5194147D01*
X2336292Y5183733D01*
X2342997Y5174234D01*
X2351024Y5165852D01*
X2360269Y5158790D01*
X2370480Y5153253D01*
X2381402Y5149342D01*
X2392832Y5147106D01*
G37*
G36*
X8704427Y5146649D02*
G01*
X8715959Y5148021D01*
X8727135Y5151069D01*
X8737752Y5155844D01*
X8747506Y5162143D01*
X8756192Y5169865D01*
X8763558Y5178856D01*
X8769502Y5188813D01*
X8773871Y5199583D01*
X8776512Y5210911D01*
X8777376Y5222494D01*
X8776512Y5234076D01*
X8773871Y5245404D01*
X8769502Y5256174D01*
X8763558Y5266131D01*
X8756192Y5275122D01*
X8747506Y5282844D01*
X8737752Y5289143D01*
X8727135Y5293918D01*
X8715959Y5296966D01*
X8704427Y5298338D01*
X8692794Y5297881D01*
X8681415Y5295646D01*
X8670442Y5291734D01*
X8660282Y5286197D01*
X8651036Y5279136D01*
X8642959Y5270754D01*
X8636304Y5261254D01*
X8631123Y5250840D01*
X8627618Y5239766D01*
X8625840Y5228285D01*
X8625840Y5216702D01*
X8627618Y5205222D01*
X8631123Y5194147D01*
X8636304Y5183733D01*
X8642959Y5174234D01*
X8651036Y5165852D01*
X8660282Y5158790D01*
X8670442Y5153253D01*
X8681415Y5149342D01*
X8692794Y5147106D01*
G37*
G36*
X7604404Y5146649D02*
G01*
X7615936Y5148021D01*
X7627162Y5151069D01*
X7637780Y5155844D01*
X7647482Y5162143D01*
X7656169Y5169865D01*
X7663586Y5178856D01*
X7669530Y5188813D01*
X7673848Y5199583D01*
X7676489Y5210911D01*
X7677403Y5222494D01*
X7676489Y5234076D01*
X7673848Y5245404D01*
X7669530Y5256174D01*
X7663586Y5266131D01*
X7656169Y5275122D01*
X7647482Y5282844D01*
X7637780Y5289143D01*
X7627162Y5293918D01*
X7615936Y5296966D01*
X7604404Y5298338D01*
X7592822Y5297881D01*
X7581392Y5295646D01*
X7570470Y5291734D01*
X7560259Y5286197D01*
X7551013Y5279136D01*
X7542987Y5270754D01*
X7536281Y5261254D01*
X7531150Y5250840D01*
X7527645Y5239766D01*
X7525867Y5228285D01*
X7525867Y5216702D01*
X7527645Y5205222D01*
X7531150Y5194147D01*
X7536281Y5183733D01*
X7542987Y5174234D01*
X7551013Y5165852D01*
X7560259Y5158790D01*
X7570470Y5153253D01*
X7581392Y5149342D01*
X7592822Y5147106D01*
G37*
G36*
X1304442Y5146649D02*
G01*
X1315974Y5148021D01*
X1327150Y5151069D01*
X1337767Y5155844D01*
X1347520Y5162143D01*
X1356207Y5169865D01*
X1363573Y5178856D01*
X1369517Y5188813D01*
X1373886Y5199583D01*
X1376527Y5210911D01*
X1377391Y5222494D01*
X1376527Y5234076D01*
X1373886Y5245404D01*
X1369517Y5256174D01*
X1363573Y5266131D01*
X1356207Y5275122D01*
X1347520Y5282844D01*
X1337767Y5289143D01*
X1327150Y5293918D01*
X1315974Y5296966D01*
X1304442Y5298338D01*
X1292809Y5297881D01*
X1281430Y5295646D01*
X1270457Y5291734D01*
X1260297Y5286197D01*
X1251051Y5279136D01*
X1242974Y5270754D01*
X1236319Y5261254D01*
X1231138Y5250840D01*
X1227632Y5239766D01*
X1225854Y5228285D01*
X1225854Y5216702D01*
X1227632Y5205222D01*
X1231138Y5194147D01*
X1236319Y5183733D01*
X1242974Y5174234D01*
X1251051Y5165852D01*
X1260297Y5158790D01*
X1270457Y5153253D01*
X1281430Y5149342D01*
X1292809Y5147106D01*
G37*
G36*
X3171240Y5176316D02*
G01*
X3223666Y5176316D01*
X3223666Y5228640D01*
X3219145Y5226558D01*
X3206851Y5218734D01*
X3195675Y5209489D01*
X3185718Y5198872D01*
X3177133Y5187086D01*
G37*
G36*
X6786321Y5176316D02*
G01*
X6838746Y5176316D01*
X6832853Y5187086D01*
X6824268Y5198872D01*
X6814312Y5209489D01*
X6803085Y5218734D01*
X6790842Y5226558D01*
X6786321Y5228640D01*
G37*
G36*
X6631228Y5176316D02*
G01*
X6683654Y5176316D01*
X6683654Y5228640D01*
X6679133Y5226558D01*
X6666890Y5218734D01*
X6655663Y5209489D01*
X6645706Y5198872D01*
X6637121Y5187086D01*
G37*
G36*
X3326333Y5176316D02*
G01*
X3378758Y5176316D01*
X3372815Y5187086D01*
X3364280Y5198872D01*
X3354324Y5209489D01*
X3343097Y5218734D01*
X3330803Y5226558D01*
X3326333Y5228640D01*
G37*

%LPD*%
D10*
X8975090Y2474976D02*
G01*
X8850122Y2350007D01*
X8660129Y2350007D01*
X8310118Y2700020D01*
X7780020Y2700020D01*
X7050024Y3430015D01*
X7050024Y4150105D01*
X6899909Y4299965D01*
X6199886Y4299965D01*
X6150102Y4350004D01*
X6150102Y4839970D01*
X6003543Y4986528D01*
X5849874Y4986528D01*
X1024889Y2474976D02*
G01*
X1199895Y2299970D01*
X1580134Y2299970D01*
X1880107Y2599944D01*
X2860040Y2599944D01*
X3260090Y2999994D01*
X4149852Y2999994D01*
X4199890Y2949955D01*
X4459986Y2949955D01*
X4491990Y2981960D01*
X4491990Y3099562D01*
X5849874Y3716528D02*
G01*
X6006591Y3716528D01*
X6079997Y3789934D01*
X6079997Y3990086D01*
X6149847Y4059936D01*
X6249924Y4059936D01*
X6275070Y4034789D01*
X6275070Y3925062D01*
X2599943Y2849879D02*
G01*
X2959861Y2849879D01*
X3050031Y2940050D01*
X3050031Y4020057D01*
X3180079Y4150105D01*
X3819906Y4150105D01*
X3999484Y3970528D01*
X4149852Y3970528D01*
X1499870Y2849879D02*
G01*
X1700021Y2849879D01*
X1899920Y2649981D01*
X2830068Y2649981D01*
X3100070Y2919984D01*
X3100070Y3999992D01*
X3200145Y4100068D01*
X3800093Y4100068D01*
X3949954Y3949954D01*
X3949954Y3769868D01*
X4003547Y3716528D01*
X4149852Y3716528D01*
X2599987Y3000011D02*
G01*
X2599987Y2850012D01*
X2620464Y4377509D02*
G01*
X2620464Y4150471D01*
X2599987Y4129989D01*
X2599987Y3949994D01*
X2599974Y3949994D02*
G01*
X2599974Y3600000D01*
X2199987Y3949994D02*
G01*
X1949993Y3949994D01*
X2199987Y3600000D02*
G01*
X1949993Y3600000D01*
X2599987Y3250006D02*
G01*
X2599987Y3100006D01*
X2599987Y3250006D02*
G01*
X2599875Y3600030D01*
X1520444Y4377436D02*
G01*
X1520444Y4150360D01*
X1499870Y4130039D01*
X1499870Y3949954D01*
X3724986Y4474997D02*
G01*
X3724986Y5124983D01*
X3274999Y5124983D02*
G01*
X3274999Y5299989D01*
D11*
X4149852Y5240528D02*
G01*
X4309618Y5240528D01*
X4350004Y5199887D01*
X4350004Y5100065D01*
D10*
X6734987Y5124983D02*
G01*
X6734987Y5299989D01*
X6874992Y1275003D02*
G01*
X6874992Y1924989D01*
X7674990Y1424990D02*
G01*
X7674990Y775004D01*
X7674990Y2324988D02*
G01*
X7674990Y1675003D01*
X8474989Y1924989D02*
G01*
X8474989Y1275003D01*
X6274993Y3274999D02*
G01*
X6274993Y3924985D01*
X6285001Y5124983D02*
G01*
X6285001Y4474997D01*
X5849975Y5240477D02*
G01*
X6169507Y5240477D01*
X6285001Y5124983D01*
X3124961Y1925065D02*
G01*
X3124961Y2394965D01*
X3230118Y2500121D01*
X5400040Y2500121D01*
X5999988Y3100070D01*
X5999988Y3430015D01*
X5967475Y3462528D01*
X5849874Y3462528D01*
X3124987Y1275003D02*
G01*
X3124987Y1924989D01*
X5389879Y2720086D02*
G01*
X5499861Y2720086D01*
X5849874Y3070097D01*
X5849874Y3208528D01*
X5135879Y2720086D02*
G01*
X5265927Y2849879D01*
X5370068Y2849879D01*
X5507990Y2988055D01*
X5507990Y3099562D01*
X2324988Y1424990D02*
G01*
X2324988Y775004D01*
X2324988Y1675003D02*
G01*
X2324988Y2324988D01*
X1524990Y1924989D02*
G01*
X1524990Y1275003D01*
X4149973Y3462479D02*
G01*
X3997500Y3462479D01*
X3899992Y3559987D01*
X4149852Y3208528D02*
G01*
X3998468Y3208528D01*
X3890009Y3100070D01*
X3789934Y3100070D01*
X3724909Y3165094D01*
X3724909Y3275076D01*
X3274999Y5124983D02*
G01*
X3274999Y4474997D01*
X3274999Y3924985D02*
G01*
X3274999Y3274999D01*
X3274999Y3274999D02*
G01*
X3274999Y3099993D01*
X1875002Y1675000D02*
G01*
X1875002Y2324988D01*
X1075004Y1924989D02*
G01*
X1075004Y1275003D01*
X1075004Y1275003D02*
G01*
X1075004Y1099997D01*
X1875002Y1424990D02*
G01*
X1875002Y775004D01*
X1875002Y775004D02*
G01*
X1875002Y599998D01*
X2675000Y1924989D02*
G01*
X2675000Y1275003D01*
X2675000Y1275003D02*
G01*
X2675000Y1099997D01*
X8124977Y1675000D02*
G01*
X8124977Y2324988D01*
X8124977Y2324988D02*
G01*
X8124977Y2499995D01*
X7324979Y1924989D02*
G01*
X7324979Y1275003D01*
X7324979Y1275003D02*
G01*
X7324979Y1099997D01*
X8124977Y1424990D02*
G01*
X8124977Y775004D01*
X8124977Y775004D02*
G01*
X8124977Y599998D01*
X8924975Y1924989D02*
G01*
X8924975Y1275003D01*
X8924975Y1275003D02*
G01*
X8924975Y1099997D01*
X6724980Y3924985D02*
G01*
X6724980Y3274999D01*
X6724980Y3274999D02*
G01*
X6724980Y3099993D01*
X6734987Y5124983D02*
G01*
X6734987Y4474997D01*
X3724986Y3924985D02*
G01*
X3724986Y3274999D01*
X1499984Y3949992D02*
G01*
X1499984Y3600005D01*
X1099995Y3949999D02*
G01*
X850000Y3949999D01*
X1099995Y3599997D02*
G01*
X850000Y3599997D01*
D12*
X4149991Y4986487D02*
G01*
X3899992Y4986487D01*
D10*
X1499996Y3250006D02*
G01*
X1499996Y3100006D01*
X1499996Y3000006D02*
G01*
X1499996Y2850006D01*
X1499996Y3250006D02*
G01*
X1499870Y3600030D01*
X8920452Y4377519D02*
G01*
X8920452Y4150481D01*
X8899974Y4129999D01*
X8899974Y3950004D01*
X8899961Y3950004D02*
G01*
X8899961Y3600010D01*
X8499975Y3950004D02*
G01*
X8249980Y3950004D01*
X8499975Y3600010D02*
G01*
X8249980Y3600010D01*
X8499972Y3250016D02*
G01*
X8499972Y3100016D01*
X8499972Y3000021D02*
G01*
X8499972Y2850022D01*
X8500109Y3249929D02*
G01*
X8500109Y3370071D01*
X8579865Y3450081D01*
X8850122Y3450081D01*
X8900159Y3500120D01*
X8899906Y3599942D01*
X7820433Y4377451D02*
G01*
X7820433Y4150370D01*
X7799857Y4130055D01*
X7799857Y3949966D01*
X7799969Y3950004D02*
G01*
X7799969Y3600015D01*
X7399982Y3950009D02*
G01*
X7149988Y3950009D01*
X7399982Y3600010D02*
G01*
X7149988Y3600010D01*
X7799981Y3250016D02*
G01*
X7799981Y3100021D01*
X7799981Y3000021D02*
G01*
X7799981Y2850022D01*
X7799981Y3250016D02*
G01*
X7799857Y3600041D01*
X6875018Y1925065D02*
G01*
X6875018Y3325113D01*
X6849872Y3350005D01*
X6849872Y4070095D01*
X6819900Y4100068D01*
X6130036Y4100068D01*
X6000495Y3970528D01*
X5849874Y3970528D01*
X5849874Y4224528D02*
G01*
X6005575Y4224528D01*
X6079997Y4150105D01*
X6839965Y4150105D01*
X6899909Y4089907D01*
X6899909Y3370071D01*
X7499858Y2770123D01*
X7499858Y1599945D01*
X7675118Y1424939D01*
X5849874Y4478528D02*
G01*
X6001511Y4478528D01*
X6050025Y4430013D01*
X6050025Y4309871D01*
X6160008Y4199889D01*
X6860031Y4199889D01*
X6949947Y4109973D01*
X6949947Y3390137D01*
X7675118Y2664968D01*
X7675118Y2324862D01*
X5849874Y4732528D02*
G01*
X5997447Y4732528D01*
X6100063Y4629912D01*
X6100063Y4329937D01*
X6180074Y4249928D01*
X6880097Y4249928D01*
X6999986Y4130039D01*
X6999986Y3409950D01*
X7759954Y2649981D01*
X8280145Y2649981D01*
X8474963Y2455163D01*
X8474963Y1925065D01*
X7800086Y2849879D02*
G01*
X7899908Y2750057D01*
X8329929Y2750057D01*
X8379968Y2700020D01*
X8700008Y2700020D01*
X8800084Y2800095D01*
X8800084Y3200145D01*
X8899906Y3299968D01*
X9549891Y3299968D01*
X9649968Y3199892D01*
X9649968Y1549907D01*
X8599931Y500126D01*
X1179829Y500126D01*
X150113Y1529842D01*
X150113Y3780028D01*
X910081Y4539995D01*
X1189989Y4539995D01*
X1260094Y4610100D01*
X1359915Y4610100D01*
X1430020Y4539995D01*
X2290063Y4539995D01*
X2359913Y4610100D01*
X2459990Y4610100D01*
X2530093Y4539995D01*
X2800095Y4539995D01*
X3090163Y4249928D01*
X3969258Y4249928D01*
X3994658Y4224528D01*
X4149852Y4224528D01*
X8500109Y2849879D02*
G01*
X8599931Y2750057D01*
X8679941Y2750057D01*
X8750045Y2819907D01*
X8750045Y3219957D01*
X8880093Y3350005D01*
X9569958Y3350005D01*
X9700006Y3219957D01*
X9700006Y1530095D01*
X8619997Y450087D01*
X1160018Y450087D01*
X100076Y1510029D01*
X100076Y3800094D01*
X890015Y4590034D01*
X1169923Y4590034D01*
X1240028Y4659884D01*
X1379981Y4659884D01*
X1449831Y4590034D01*
X2269997Y4590034D01*
X2340102Y4659884D01*
X2480056Y4659884D01*
X2549906Y4590034D01*
X2819908Y4590034D01*
X3109975Y4299965D01*
X3819906Y4299965D01*
X3998468Y4478528D01*
X4149852Y4478528D01*
X1024991Y2475001D02*
G01*
X1024991Y3124987D01*
X8974988Y2475001D02*
G01*
X8974988Y3124987D01*
X4745990Y3099562D02*
G01*
X4745990Y2986023D01*
X4709922Y2949955D01*
X4530090Y2949955D01*
X4480052Y2899918D01*
X4180077Y2899918D01*
X4130040Y2949955D01*
X3290061Y2949955D01*
X2890011Y2549905D01*
X1899920Y2549905D01*
X1525015Y2175002D01*
X1525015Y1925065D01*
X2325115Y2324862D02*
G01*
X2500375Y2500121D01*
X2919984Y2500121D01*
X3319779Y2899918D01*
X4100068Y2899918D01*
X4150106Y2849879D01*
X4500118Y2849879D01*
X4549902Y2899918D01*
X4919979Y2899918D01*
X4999990Y2979928D01*
X4999990Y3099562D01*
X5253990Y3099562D02*
G01*
X5253990Y2983992D01*
X5109972Y2839973D01*
X4569968Y2839973D01*
X4530090Y2800095D01*
X4119879Y2800095D01*
X4070095Y2849879D01*
X3350006Y2849879D01*
X2499868Y1999742D01*
X2499868Y1599945D01*
X2325115Y1424939D01*
D13*
G01*
X1499996Y2999994D03*
G01*
X1499996Y3099993D03*
G01*
X2599994Y2999994D03*
G01*
X2599994Y3099993D03*
G01*
X8499983Y3000019D03*
G01*
X8499983Y3100019D03*
G01*
X7799984Y3100019D03*
G01*
X7799984Y3000019D03*
D14*
G01*
X5849975Y5240477D03*
G01*
X5849975Y4986477D03*
G01*
X5849975Y4732477D03*
G01*
X5849975Y4478477D03*
G01*
X5849975Y4224477D03*
G01*
X5849975Y3970477D03*
G01*
X5849975Y3716477D03*
G01*
X5849975Y3462477D03*
G01*
X5849975Y3208477D03*
D15*
G01*
X5507990Y3099485D03*
G01*
X5253990Y3099485D03*
G01*
X4999990Y3099485D03*
G01*
X4745990Y3099485D03*
G01*
X4491990Y3099485D03*
D14*
G01*
X4149979Y3208502D03*
G01*
X4149979Y3462477D03*
G01*
X4149979Y3716477D03*
G01*
X4149979Y3970477D03*
G01*
X4149979Y4224477D03*
G01*
X4149979Y4478477D03*
G01*
X4149979Y4732477D03*
G01*
X4149979Y4986477D03*
G01*
X4149979Y5240477D03*
D16*
G01*
X4400981Y3558489D03*
G01*
X4400981Y3685489D03*
G01*
X4400981Y3812489D03*
G01*
X4400981Y3939489D03*
G01*
X4400981Y4066489D03*
G01*
X4400981Y4193489D03*
G01*
X4400981Y4320489D03*
G01*
X4400981Y4447489D03*
G01*
X4400981Y4574489D03*
G01*
X4400981Y4701489D03*
D17*
G75*
G01
X690169Y4999990D02*
G03X690169Y4999990I-290170J0D01*
G75*
G01
X9890150Y4999990D02*
G03X9890150Y4999990I-290170J0D01*
G75*
G01
X9890150Y399999D02*
G03X9890150Y399999I-290170J0D01*
G75*
G01
X690169Y399999D02*
G03X690169Y399999I-290170J0D01*
D19*
G01*
X8920454Y4377512D03*
G01*
X8479510Y4242511D03*
G01*
X8920454Y4777511D03*
G01*
X8920454Y5077510D03*
G01*
X7820456Y4377537D03*
G01*
X7379512Y4242511D03*
G01*
X7820456Y4777536D03*
G01*
X7820456Y5077510D03*
G01*
X2620467Y4377512D03*
G01*
X2179523Y4242511D03*
G01*
X2620467Y4777511D03*
G01*
X2620467Y5077510D03*
G01*
X1520469Y4377512D03*
G01*
X1079525Y4242511D03*
G01*
X1520469Y4777511D03*
G01*
X1520469Y5077510D03*
D17*
G01*
X3274999Y4474997D03*
G01*
X3274999Y5124983D03*
G01*
X3724986Y4474997D03*
G01*
X3724986Y5124983D03*
G01*
X6285001Y4474997D03*
G01*
X6285001Y5124983D03*
G01*
X6734987Y4474997D03*
G01*
X6734987Y5124983D03*
G01*
X2675000Y1275003D03*
G01*
X2675000Y1924989D03*
G01*
X3124987Y1275003D03*
G01*
X3124987Y1924989D03*
G01*
X6874992Y1275003D03*
G01*
X6874992Y1924989D03*
G01*
X7324979Y1275003D03*
G01*
X7324979Y1924989D03*
G01*
X3274999Y3274999D03*
G01*
X3274999Y3924985D03*
G01*
X3724986Y3274999D03*
G01*
X3724986Y3924985D03*
G01*
X6274993Y3274999D03*
G01*
X6274993Y3924985D03*
G01*
X6724980Y3274999D03*
G01*
X6724980Y3924985D03*
G01*
X1875002Y1675003D03*
G01*
X1875002Y2324988D03*
G01*
X2324988Y1675003D03*
G01*
X2324988Y2324988D03*
G01*
X1875002Y775004D03*
G01*
X1875002Y1424990D03*
G01*
X2324988Y775004D03*
G01*
X2324988Y1424990D03*
G01*
X1075004Y1275003D03*
G01*
X1075004Y1924989D03*
G01*
X1524990Y1275003D03*
G01*
X1524990Y1924989D03*
G01*
X7674990Y775004D03*
G01*
X7674990Y1424990D03*
G01*
X8124977Y775004D03*
G01*
X8124977Y1424990D03*
G01*
X7674990Y1675003D03*
G01*
X7674990Y2324988D03*
G01*
X8124977Y1675003D03*
G01*
X8124977Y2324988D03*
G01*
X8474989Y1275003D03*
G01*
X8474989Y1924989D03*
G01*
X8924975Y1275003D03*
G01*
X8924975Y1924989D03*
G01*
X575005Y2475001D03*
G01*
X575005Y3124987D03*
G01*
X1024991Y2475001D03*
G01*
X1024991Y3124987D03*
G01*
X8974988Y2475001D03*
G01*
X8974988Y3124987D03*
G01*
X9424974Y2475001D03*
G01*
X9424974Y3124987D03*
D20*
G01*
X4881981Y2719984D03*
G01*
X4627981Y2719984D03*
G01*
X5135981Y2719984D03*
G01*
X5389981Y2719984D03*
D21*
G01*
X399999Y4999989D03*
G01*
X9599980Y4999989D03*
G01*
X9599980Y399999D03*
G01*
X399999Y399999D03*
D20*
G01*
X1499996Y3599992D03*
G01*
X1099997Y3599992D03*
G01*
X1099997Y3949979D03*
G01*
X1499996Y3949979D03*
G01*
X1499996Y3249980D03*
G01*
X1499996Y2849981D03*
G01*
X2599994Y3599992D03*
G01*
X2199995Y3599992D03*
G01*
X2199995Y3949979D03*
G01*
X2599994Y3949979D03*
G01*
X2599994Y3249980D03*
G01*
X2599994Y2849981D03*
G01*
X8899982Y3599992D03*
G01*
X8499983Y3599992D03*
G01*
X8499983Y3949979D03*
G01*
X8899982Y3949979D03*
G01*
X8499983Y3249980D03*
G01*
X8499983Y2849981D03*
G01*
X7799984Y2849981D03*
G01*
X7799984Y3249980D03*
G01*
X7799984Y3949979D03*
G01*
X7399985Y3949979D03*
G01*
X7399985Y3599992D03*
G01*
X7799984Y3599992D03*
D22*
G01*
X3899992Y4986477D03*
G01*
X850011Y3949979D03*
G01*
X850011Y3599992D03*
G01*
X6724980Y3099993D03*
G01*
X8924975Y1099997D03*
G01*
X8124977Y599998D03*
G01*
X7324979Y1099997D03*
G01*
X8124977Y2499995D03*
G01*
X2675000Y1099997D03*
G01*
X1875002Y599998D03*
G01*
X1075004Y1099997D03*
G01*
X3274999Y3099993D03*
G01*
X3899992Y3559987D03*
G01*
X6734987Y5299989D03*
G01*
X4350004Y5099989D03*
G01*
X3274999Y5299989D03*
G01*
X1950008Y3949979D03*
G01*
X1950008Y3599992D03*
G01*
X8249996Y3949979D03*
G01*
X8249996Y3599992D03*
G01*
X7149998Y3599992D03*
G01*
X7149998Y3949979D03*
M02*
