G04 Layer: TopSolderMaskLayer*
G04 EasyEDA v6.5.54, 2026-03-27 08:28:27*
G04 aa70f002849a4553b1fb356c613fbdd1,527f212168e84142b7e3dec4b37e9156,10*
G04 Gerber Generator version 0.2*
G04 Scale: 100 percent, Rotated: No, Reflected: No *
G04 Dimensions in millimeters *
G04 leading zeros omitted , absolute positions ,4 integer and 5 decimal *
%FSLAX45Y45*%
%MOMM*%

%AMMACRO1*4,1,8,-1.0211,-0.4508,-1.0508,-0.421,-1.0508,0.4211,-1.0211,0.4508,1.021,0.4508,1.0508,0.4211,1.0508,-0.421,1.021,-0.4508,-1.0211,-0.4508,0*%
%AMMACRO2*4,1,8,-0.7711,-1.3009,-0.8009,-1.2711,-0.8009,1.2711,-0.7711,1.3009,0.7711,1.3009,0.8009,1.2711,0.8009,-1.2711,0.7711,-1.3009,-0.7711,-1.3009,0*%
%AMMACRO3*4,1,8,-0.7711,-1.3007,-0.8009,-1.271,-0.8009,1.271,-0.7711,1.3007,0.7711,1.3007,0.8009,1.271,0.8009,-1.271,0.7711,-1.3007,-0.7711,-1.3007,0*%
%AMMACRO4*4,1,8,-1.0211,-0.6508,-1.0508,-0.621,-1.0508,0.6211,-1.0211,0.6508,1.021,0.6508,1.0508,0.6211,1.0508,-0.621,1.021,-0.6508,-1.0211,-0.6508,0*%
%AMMACRO5*4,1,8,-0.6211,-1.0508,-0.6508,-1.021,-0.6508,1.0211,-0.6211,1.0508,0.621,1.0508,0.6508,1.0211,0.6508,-1.021,0.621,-1.0508,-0.6211,-1.0508,0*%
%AMMACRO6*4,1,8,-0.5261,-0.3558,-0.5558,-0.326,-0.5558,0.3261,-0.5261,0.3558,0.526,0.3558,0.5558,0.3261,0.5558,-0.326,0.526,-0.3558,-0.5261,-0.3558,0*%
%ADD10MACRO1*%
%ADD11MACRO2*%
%ADD12MACRO3*%
%ADD13MACRO4*%
%ADD14MACRO5*%
%ADD15MACRO6*%
%ADD16C,1.9016*%
%ADD17C,0.0148*%
%ADD18C,1.7000*%
%ADD19C,3.9016*%

%LPD*%
D10*
G01*
X1499997Y3000006D03*
G01*
X1499997Y3100006D03*
G01*
X2599994Y3000006D03*
G01*
X2599994Y3100006D03*
G01*
X8499975Y3000014D03*
G01*
X8499975Y3100014D03*
G01*
X7799984Y3100019D03*
G01*
X7799984Y3000019D03*
D11*
G01*
X8920446Y4377522D03*
D12*
G01*
X8479502Y4242508D03*
D11*
G01*
X8920446Y4777521D03*
D12*
G01*
X8920446Y5077508D03*
D11*
G01*
X7820456Y4377527D03*
D12*
G01*
X7379512Y4242513D03*
D11*
G01*
X7820456Y4777526D03*
D12*
G01*
X7820456Y5077513D03*
D11*
G01*
X2620467Y4377514D03*
D12*
G01*
X2179523Y4242501D03*
D11*
G01*
X2620467Y4777513D03*
D12*
G01*
X2620467Y5077500D03*
D11*
G01*
X1520469Y4377514D03*
D12*
G01*
X1079525Y4242501D03*
D11*
G01*
X1520469Y4777513D03*
D12*
G01*
X1520469Y5077500D03*
D13*
G01*
X5849978Y5240484D03*
G01*
X5849978Y4986484D03*
G01*
X5849978Y4732484D03*
G01*
X5849978Y4478487D03*
G01*
X5849978Y4224487D03*
G01*
X5849978Y3970487D03*
G01*
X5849978Y3716487D03*
G01*
X5849978Y3462487D03*
G01*
X5849978Y3208489D03*
D14*
G01*
X5507977Y3099488D03*
G01*
X5253977Y3099488D03*
G01*
X4999979Y3099488D03*
G01*
X4745979Y3099488D03*
G01*
X4491979Y3099488D03*
D13*
G01*
X4149984Y3208492D03*
G01*
X4149984Y3462489D03*
G01*
X4149984Y3716489D03*
G01*
X4149984Y3970489D03*
G01*
X4149984Y4224489D03*
G01*
X4149984Y4478489D03*
G01*
X4149984Y4732487D03*
G01*
X4149984Y4986487D03*
G01*
X4149984Y5240487D03*
D15*
G01*
X4400991Y3558491D03*
G01*
X4400991Y3685491D03*
G01*
X4400991Y3812491D03*
G01*
X4400991Y3939491D03*
G01*
X4400991Y4066491D03*
G01*
X4400991Y4193489D03*
G01*
X4400991Y4320489D03*
G01*
X4400991Y4447489D03*
G01*
X4400991Y4574489D03*
G01*
X4400991Y4701489D03*
D16*
G01*
X3274999Y4474997D03*
G01*
X3274999Y5124983D03*
G01*
X3724986Y4474997D03*
G01*
X3724986Y5124983D03*
G01*
X6285001Y4474997D03*
G01*
X6285001Y5124983D03*
G01*
X6734987Y4474997D03*
G01*
X6734987Y5124983D03*
G01*
X2675000Y1275003D03*
G01*
X2675000Y1924989D03*
G01*
X3124987Y1275003D03*
G01*
X3124987Y1924989D03*
G01*
X6874992Y1275003D03*
G01*
X6874992Y1924989D03*
G01*
X7324979Y1275003D03*
G01*
X7324979Y1924989D03*
G01*
X3274999Y3274999D03*
G01*
X3274999Y3924985D03*
G01*
X3724986Y3274999D03*
G01*
X3724986Y3924985D03*
G01*
X6274993Y3274999D03*
G01*
X6274993Y3924985D03*
G01*
X6724980Y3274999D03*
G01*
X6724980Y3924985D03*
G01*
X1875002Y1675003D03*
G01*
X1875002Y2324988D03*
G01*
X2324988Y1675003D03*
G01*
X2324988Y2324988D03*
G01*
X1875002Y775004D03*
G01*
X1875002Y1424990D03*
G01*
X2324988Y775004D03*
G01*
X2324988Y1424990D03*
G01*
X1075004Y1275003D03*
G01*
X1075004Y1924989D03*
G01*
X1524990Y1275003D03*
G01*
X1524990Y1924989D03*
G01*
X7674990Y775004D03*
G01*
X7674990Y1424990D03*
G01*
X8124977Y775004D03*
G01*
X8124977Y1424990D03*
G01*
X7674990Y1675003D03*
G01*
X7674990Y2324988D03*
G01*
X8124977Y1675003D03*
G01*
X8124977Y2324988D03*
G01*
X8474989Y1275003D03*
G01*
X8474989Y1924989D03*
G01*
X8924975Y1275003D03*
G01*
X8924975Y1924989D03*
G01*
X575005Y2475001D03*
G01*
X575005Y3124987D03*
G01*
X1024991Y2475001D03*
G01*
X1024991Y3124987D03*
G01*
X8974988Y2475001D03*
G01*
X8974988Y3124987D03*
G01*
X9424974Y2475001D03*
G01*
X9424974Y3124987D03*
D18*
G01*
X4881981Y2719984D03*
G01*
X4627981Y2719984D03*
G01*
X5135981Y2719984D03*
G01*
X5389981Y2719984D03*
D19*
G01*
X399999Y4999989D03*
G01*
X9599980Y4999989D03*
G01*
X9599980Y399999D03*
G01*
X399999Y399999D03*
D18*
G01*
X1499996Y3599992D03*
G01*
X1099997Y3599992D03*
G01*
X1099997Y3949979D03*
G01*
X1499996Y3949979D03*
G01*
X1499996Y3249980D03*
G01*
X1499996Y2849981D03*
G01*
X2599994Y3599992D03*
G01*
X2199995Y3599992D03*
G01*
X2199995Y3949979D03*
G01*
X2599994Y3949979D03*
G01*
X2599994Y3249980D03*
G01*
X2599994Y2849981D03*
G01*
X8899982Y3599992D03*
G01*
X8499983Y3599992D03*
G01*
X8499983Y3949979D03*
G01*
X8899982Y3949979D03*
G01*
X8499983Y3249980D03*
G01*
X8499983Y2849981D03*
G01*
X7799984Y2849981D03*
G01*
X7799984Y3249980D03*
G01*
X7799984Y3949979D03*
G01*
X7399985Y3949979D03*
G01*
X7399985Y3599992D03*
G01*
X7799984Y3599992D03*
M02*
