G04 Layer: BottomSilkscreenLayer*
G04 EasyEDA v6.5.54, 2026-03-27 08:28:27*
G04 aa70f002849a4553b1fb356c613fbdd1,527f212168e84142b7e3dec4b37e9156,10*
G04 Gerber Generator version 0.2*
G04 Scale: 100 percent, Rotated: No, Reflected: No *
G04 Dimensions in millimeters *
G04 leading zeros omitted , absolute positions ,4 integer and 5 decimal *
%FSLAX45Y45*%
%MOMM*%

%ADD10C,0.0900*%
%ADD11C,0.1000*%
%ADD12C,0.4999*%
%ADD13C,0.0175*%

%LPD*%
G36*
X3708958Y1496060D02*
G01*
X3708349Y1495653D01*
X3708704Y1493469D01*
X3714343Y1478229D01*
X3717848Y1466850D01*
X3720592Y1452727D01*
X3712972Y1460042D01*
X3706774Y1465275D01*
X3703015Y1466951D01*
X3701592Y1465072D01*
X3702558Y1459636D01*
X3703726Y1455369D01*
X3703777Y1453845D01*
X3702354Y1455013D01*
X3697173Y1461058D01*
X3695903Y1462227D01*
X3695446Y1462176D01*
X3696715Y1458620D01*
X3695903Y1457502D01*
X3693312Y1457401D01*
X3672535Y1461262D01*
X3660546Y1462938D01*
X3648201Y1464259D01*
X3635908Y1465224D01*
X3624122Y1465834D01*
X3613353Y1465986D01*
X3604107Y1465681D01*
X3588258Y1463903D01*
X3583127Y1462786D01*
X3583838Y1461566D01*
X3594912Y1458163D01*
X3598113Y1456842D01*
X3599383Y1455775D01*
X3598926Y1455115D01*
X3596741Y1454861D01*
X3593084Y1455064D01*
X3588004Y1455826D01*
X3574796Y1458468D01*
X3569563Y1459230D01*
X3566058Y1459382D01*
X3564483Y1458976D01*
X3564788Y1458112D01*
X3567074Y1456842D01*
X3571443Y1455267D01*
X3584498Y1451457D01*
X3588816Y1449628D01*
X3590899Y1447952D01*
X3590747Y1446428D01*
X3588461Y1445158D01*
X3584041Y1444193D01*
X3577488Y1443532D01*
X3568954Y1443278D01*
X3548176Y1443126D01*
X3550501Y1442161D01*
X3617569Y1442161D01*
X3618280Y1442770D01*
X3619906Y1443126D01*
X3622243Y1443177D01*
X3624579Y1442923D01*
X3625697Y1442466D01*
X3625596Y1441856D01*
X3624275Y1441094D01*
X3622395Y1440586D01*
X3620566Y1440434D01*
X3618941Y1440738D01*
X3617823Y1441399D01*
X3617569Y1442161D01*
X3550501Y1442161D01*
X3569004Y1434642D01*
X3578199Y1432001D01*
X3588410Y1430070D01*
X3598875Y1428902D01*
X3612591Y1428292D01*
X3619398Y1427632D01*
X3623767Y1426819D01*
X3624986Y1425905D01*
X3624935Y1424889D01*
X3625697Y1423720D01*
X3627170Y1422552D01*
X3629253Y1421536D01*
X3631641Y1421028D01*
X3633978Y1421282D01*
X3636060Y1422196D01*
X3637584Y1423720D01*
X3638905Y1425702D01*
X3639769Y1426362D01*
X3640175Y1425702D01*
X3640235Y1424940D01*
X3645204Y1424940D01*
X3645814Y1426108D01*
X3650081Y1424889D01*
X3657142Y1421282D01*
X3660140Y1419301D01*
X3661765Y1417777D01*
X3661918Y1416761D01*
X3660495Y1416405D01*
X3658057Y1416761D01*
X3655060Y1417878D01*
X3651910Y1419453D01*
X3648964Y1421384D01*
X3645204Y1424940D01*
X3640235Y1424940D01*
X3640328Y1423771D01*
X3642868Y1419758D01*
X3649472Y1415999D01*
X3659124Y1412951D01*
X3681171Y1409395D01*
X3690924Y1406499D01*
X3698028Y1403045D01*
X3755948Y1403045D01*
X3756456Y1405077D01*
X3760419Y1405432D01*
X3768648Y1404569D01*
X3775100Y1403604D01*
X3781704Y1402283D01*
X3787749Y1400810D01*
X3792372Y1399336D01*
X3800449Y1398117D01*
X3809034Y1399387D01*
X3815232Y1402283D01*
X3816350Y1406042D01*
X3816248Y1407160D01*
X3817213Y1408328D01*
X3818991Y1409446D01*
X3821480Y1410360D01*
X3824071Y1410766D01*
X3826154Y1410665D01*
X3827627Y1410106D01*
X3828135Y1409039D01*
X3827779Y1407820D01*
X3826916Y1406804D01*
X3825595Y1406144D01*
X3823004Y1405534D01*
X3823462Y1404569D01*
X3825189Y1403197D01*
X3832351Y1398778D01*
X3834892Y1395323D01*
X3836162Y1390396D01*
X3836974Y1377543D01*
X3838244Y1372158D01*
X3840226Y1367078D01*
X3842867Y1362405D01*
X3846068Y1358138D01*
X3849674Y1354378D01*
X3853687Y1351280D01*
X3857955Y1348841D01*
X3862425Y1347165D01*
X3866997Y1346403D01*
X3871569Y1346555D01*
X3876040Y1347673D01*
X3880459Y1349857D01*
X3883253Y1352600D01*
X3884726Y1356360D01*
X3885641Y1368247D01*
X3887470Y1371244D01*
X3891178Y1370685D01*
X3900271Y1365097D01*
X3903065Y1364030D01*
X3905453Y1363726D01*
X3907028Y1364284D01*
X3907891Y1364894D01*
X3908247Y1364792D01*
X3906875Y1360881D01*
X3907180Y1359001D01*
X3908247Y1357223D01*
X3912975Y1353515D01*
X3922014Y1353515D01*
X3922522Y1354734D01*
X3923944Y1354328D01*
X3926179Y1352346D01*
X3931462Y1345742D01*
X3932072Y1344574D01*
X3930904Y1345184D01*
X3925620Y1349451D01*
X3922471Y1352651D01*
X3922014Y1353515D01*
X3912975Y1353515D01*
X3924757Y1342999D01*
X3934307Y1334058D01*
X3944670Y1323949D01*
X3953459Y1314704D01*
X3957116Y1310436D01*
X3960368Y1306220D01*
X3966006Y1297482D01*
X3971036Y1287424D01*
X3976217Y1274978D01*
X3979011Y1267612D01*
X3979976Y1263396D01*
X3980179Y1258062D01*
X3979824Y1252067D01*
X3978910Y1245870D01*
X3977589Y1239926D01*
X3975912Y1234694D01*
X3973982Y1230680D01*
X3971848Y1228344D01*
X3968140Y1226769D01*
X3963568Y1226007D01*
X3958234Y1226159D01*
X3952240Y1227023D01*
X3945737Y1228699D01*
X3938879Y1231138D01*
X3931767Y1234236D01*
X3916781Y1242364D01*
X3909872Y1245870D01*
X3904589Y1248206D01*
X3898950Y1249883D01*
X3894582Y1252067D01*
X3888994Y1255318D01*
X3877056Y1263294D01*
X3868420Y1268730D01*
X3865118Y1270355D01*
X3856177Y1275994D01*
X3827424Y1295552D01*
X3814064Y1304899D01*
X3805834Y1310995D01*
X3804665Y1312164D01*
X3805529Y1312367D01*
X3807815Y1312113D01*
X3823208Y1308354D01*
X3826662Y1308404D01*
X3825544Y1310233D01*
X3816502Y1315872D01*
X3813810Y1318006D01*
X3812032Y1319936D01*
X3811371Y1321460D01*
X3811625Y1322476D01*
X3812336Y1322984D01*
X3813403Y1322984D01*
X3817467Y1321460D01*
X3817874Y1323187D01*
X3816045Y1326946D01*
X3812235Y1332026D01*
X3809085Y1335786D01*
X3808374Y1337564D01*
X3810457Y1337665D01*
X3836619Y1331772D01*
X3839006Y1331671D01*
X3839362Y1332331D01*
X3837889Y1333855D01*
X3830167Y1339545D01*
X3827068Y1341577D01*
X3818839Y1345996D01*
X3808882Y1350518D01*
X3798468Y1354531D01*
X3779926Y1360627D01*
X3775608Y1362506D01*
X3772408Y1364437D01*
X3770122Y1366672D01*
X3768445Y1369466D01*
X3767074Y1373022D01*
X3763873Y1383538D01*
X3759657Y1394917D01*
X3755948Y1403045D01*
X3698028Y1403045D01*
X3700729Y1399844D01*
X3701287Y1398168D01*
X3702761Y1395628D01*
X3704945Y1392631D01*
X3711092Y1385417D01*
X3712464Y1382877D01*
X3711701Y1381201D01*
X3708958Y1379829D01*
X3705047Y1379321D01*
X3698443Y1379524D01*
X3690112Y1380337D01*
X3674719Y1382776D01*
X3661511Y1384249D01*
X3648049Y1384960D01*
X3635248Y1384960D01*
X3623970Y1384249D01*
X3619144Y1383588D01*
X3615131Y1382776D01*
X3611879Y1381760D01*
X3609340Y1380439D01*
X3609492Y1379575D01*
X3612540Y1378966D01*
X3624326Y1378204D01*
X3630015Y1377442D01*
X3635044Y1376426D01*
X3638702Y1375257D01*
X3641445Y1373784D01*
X3641344Y1372819D01*
X3638296Y1372209D01*
X3618585Y1371295D01*
X3647897Y1359509D01*
X3650030Y1358493D01*
X3651504Y1357172D01*
X3652215Y1355852D01*
X3651961Y1354531D01*
X3650945Y1353566D01*
X3649421Y1353058D01*
X3647592Y1353007D01*
X3643731Y1353921D01*
X3641851Y1353820D01*
X3640277Y1353159D01*
X3639159Y1352092D01*
X3639565Y1351229D01*
X3641496Y1350010D01*
X3644798Y1348435D01*
X3654907Y1344625D01*
X3668674Y1340205D01*
X3687876Y1334770D01*
X3705707Y1329436D01*
X3718051Y1325067D01*
X3722624Y1322984D01*
X3726383Y1320901D01*
X3729431Y1318717D01*
X3731920Y1316329D01*
X3734104Y1313637D01*
X3737243Y1308709D01*
X3792270Y1308709D01*
X3792372Y1311402D01*
X3792880Y1313180D01*
X3793794Y1313891D01*
X3796436Y1312976D01*
X3800195Y1310538D01*
X3804665Y1307084D01*
X3809288Y1302969D01*
X3813606Y1298752D01*
X3817112Y1294892D01*
X3819296Y1291742D01*
X3819702Y1289862D01*
X3819753Y1288288D01*
X3821379Y1286205D01*
X3824224Y1283868D01*
X3831996Y1279347D01*
X3835196Y1277264D01*
X3837381Y1275537D01*
X3838194Y1274470D01*
X3835806Y1274267D01*
X3829964Y1277112D01*
X3822649Y1281887D01*
X3815791Y1287424D01*
X3808425Y1294180D01*
X3810304Y1286865D01*
X3811625Y1283665D01*
X3813708Y1280261D01*
X3816299Y1277112D01*
X3821633Y1272540D01*
X3823360Y1270508D01*
X3824122Y1268679D01*
X3823817Y1267409D01*
X3824020Y1265224D01*
X3826256Y1260957D01*
X3830116Y1255217D01*
X3840226Y1242466D01*
X3843629Y1237894D01*
X3845407Y1234846D01*
X3845509Y1233220D01*
X3843883Y1232966D01*
X3840479Y1234084D01*
X3835247Y1236370D01*
X3823563Y1242263D01*
X3819855Y1244498D01*
X3816858Y1246835D01*
X3814419Y1249476D01*
X3812336Y1252677D01*
X3810406Y1256639D01*
X3800805Y1283563D01*
X3798468Y1289354D01*
X3795725Y1294993D01*
X3794506Y1298143D01*
X3792626Y1305407D01*
X3792270Y1308709D01*
X3737243Y1308709D01*
X3740505Y1302969D01*
X3742232Y1300480D01*
X3743045Y1299819D01*
X3742385Y1303578D01*
X3742486Y1305102D01*
X3743147Y1305712D01*
X3744366Y1305306D01*
X3745636Y1303985D01*
X3746703Y1301953D01*
X3747414Y1299464D01*
X3747922Y1294180D01*
X3748633Y1291691D01*
X3749700Y1289608D01*
X3752342Y1287018D01*
X3753358Y1285138D01*
X3754069Y1282852D01*
X3754323Y1280414D01*
X3754170Y1277620D01*
X3753713Y1276604D01*
X3752697Y1277315D01*
X3749751Y1281480D01*
X3748735Y1282293D01*
X3748024Y1282192D01*
X3747719Y1281176D01*
X3746550Y1279956D01*
X3743147Y1279956D01*
X3737660Y1281125D01*
X3722319Y1286052D01*
X3706114Y1290980D01*
X3689908Y1295450D01*
X3674821Y1299159D01*
X3661867Y1301800D01*
X3652265Y1303172D01*
X3648964Y1303274D01*
X3638702Y1302969D01*
X3655720Y1298702D01*
X3659784Y1297330D01*
X3661867Y1296162D01*
X3662070Y1295196D01*
X3660343Y1294434D01*
X3656736Y1293876D01*
X3651199Y1293520D01*
X3635705Y1293215D01*
X3629456Y1292707D01*
X3625596Y1291945D01*
X3624834Y1291031D01*
X3625748Y1289151D01*
X3624834Y1287322D01*
X3622395Y1285748D01*
X3618687Y1284376D01*
X3613962Y1283411D01*
X3608527Y1282801D01*
X3602685Y1282750D01*
X3590290Y1283868D01*
X3585413Y1283970D01*
X3582111Y1283614D01*
X3580434Y1282954D01*
X3580485Y1281988D01*
X3582365Y1280820D01*
X3586124Y1279550D01*
X3596335Y1277213D01*
X3599738Y1275892D01*
X3601770Y1274572D01*
X3602329Y1272489D01*
X3604107Y1271930D01*
X3607206Y1271778D01*
X3615486Y1272489D01*
X3618026Y1272286D01*
X3618839Y1271625D01*
X3617772Y1270457D01*
X3617315Y1268882D01*
X3619957Y1267155D01*
X3625697Y1265224D01*
X3643680Y1261008D01*
X3662883Y1255877D01*
X3677412Y1251407D01*
X3685286Y1249832D01*
X3693007Y1248867D01*
X3706622Y1248562D01*
X3711244Y1247698D01*
X3714089Y1245819D01*
X3714683Y1244650D01*
X3724656Y1244650D01*
X3725011Y1245463D01*
X3727043Y1244650D01*
X3730904Y1242263D01*
X3732682Y1240891D01*
X3733444Y1239875D01*
X3733241Y1239164D01*
X3731920Y1238910D01*
X3730244Y1239164D01*
X3728516Y1239875D01*
X3726992Y1240942D01*
X3725875Y1242263D01*
X3724656Y1244650D01*
X3714683Y1244650D01*
X3715664Y1242720D01*
X3718407Y1239215D01*
X3724554Y1235202D01*
X3734257Y1230630D01*
X3754475Y1222857D01*
X3765651Y1218234D01*
X3770274Y1215948D01*
X3774389Y1213561D01*
X3778097Y1211072D01*
X3781450Y1208379D01*
X3784650Y1205382D01*
X3787698Y1202029D01*
X3790746Y1198219D01*
X3799382Y1186027D01*
X3800398Y1185722D01*
X3800500Y1188466D01*
X3798011Y1206449D01*
X3807612Y1186738D01*
X3809339Y1184097D01*
X3809847Y1184706D01*
X3808526Y1193342D01*
X3808628Y1196340D01*
X3809492Y1197660D01*
X3811015Y1197305D01*
X3813048Y1195324D01*
X3815587Y1191869D01*
X3818432Y1186891D01*
X3824782Y1174038D01*
X3827322Y1169619D01*
X3829253Y1167282D01*
X3830370Y1166876D01*
X3830777Y1168450D01*
X3830320Y1171956D01*
X3828999Y1177340D01*
X3823512Y1195324D01*
X3822750Y1198880D01*
X3822801Y1200454D01*
X3824376Y1201115D01*
X3832758Y1203248D01*
X3843883Y1205636D01*
X3847439Y1206652D01*
X3848912Y1207414D01*
X3845509Y1208328D01*
X3842461Y1209548D01*
X3839260Y1211275D01*
X3836314Y1213307D01*
X3832961Y1216050D01*
X3832199Y1217168D01*
X3834231Y1216761D01*
X3846220Y1212596D01*
X3849928Y1211783D01*
X3851046Y1212494D01*
X3849115Y1217117D01*
X3849522Y1218692D01*
X3851148Y1219555D01*
X3853738Y1219708D01*
X3857142Y1219200D01*
X3861155Y1218133D01*
X3865626Y1216558D01*
X3870248Y1214577D01*
X3874922Y1212138D01*
X3879392Y1209446D01*
X3883558Y1206449D01*
X3887114Y1203248D01*
X3889451Y1201470D01*
X3893362Y1199235D01*
X3904894Y1193749D01*
X3919321Y1187704D01*
X3934409Y1182014D01*
X3947820Y1177594D01*
X3953154Y1176121D01*
X3957218Y1175359D01*
X3965549Y1174445D01*
X3973372Y1173937D01*
X3980637Y1173835D01*
X3987393Y1174140D01*
X3993642Y1174902D01*
X3999433Y1176070D01*
X4004716Y1177747D01*
X4009593Y1179830D01*
X4014012Y1182370D01*
X4018076Y1185418D01*
X4021734Y1188923D01*
X4024985Y1192936D01*
X4027881Y1197406D01*
X4030472Y1202436D01*
X4032707Y1207973D01*
X4034688Y1214018D01*
X4036110Y1220063D01*
X4037126Y1226718D01*
X4037736Y1233881D01*
X4037939Y1241348D01*
X4037787Y1248968D01*
X4037279Y1256690D01*
X4036415Y1264361D01*
X4035196Y1271778D01*
X4033672Y1278890D01*
X4031792Y1285494D01*
X4029608Y1291539D01*
X4025188Y1300784D01*
X4021175Y1309878D01*
X4018330Y1316888D01*
X4016349Y1320698D01*
X4010558Y1329944D01*
X4002836Y1340967D01*
X3993896Y1352804D01*
X3984294Y1364742D01*
X3974693Y1376019D01*
X3965651Y1385773D01*
X3961587Y1389837D01*
X3957878Y1393190D01*
X3947261Y1401673D01*
X3941724Y1405636D01*
X3930192Y1412900D01*
X3924350Y1416202D01*
X3912514Y1422044D01*
X3900728Y1426768D01*
X3894988Y1428699D01*
X3889298Y1430274D01*
X3883761Y1431544D01*
X3878427Y1432509D01*
X3873296Y1433068D01*
X3861765Y1433830D01*
X3856888Y1436166D01*
X3852316Y1441399D01*
X3846576Y1450695D01*
X3842613Y1456690D01*
X3837482Y1463344D01*
X3831691Y1470050D01*
X3825748Y1476298D01*
X3820261Y1481632D01*
X3815689Y1485392D01*
X3812540Y1487119D01*
X3811371Y1486306D01*
X3812184Y1484426D01*
X3817518Y1475841D01*
X3825290Y1464411D01*
X3828287Y1459280D01*
X3830370Y1454861D01*
X3831488Y1451457D01*
X3831640Y1449171D01*
X3830777Y1448155D01*
X3828846Y1448612D01*
X3822903Y1452981D01*
X3821531Y1453438D01*
X3821531Y1452016D01*
X3822649Y1448562D01*
X3823004Y1446479D01*
X3821684Y1446631D01*
X3818839Y1449070D01*
X3808222Y1460398D01*
X3807206Y1461109D01*
X3809339Y1457248D01*
X3810101Y1454556D01*
X3810254Y1452118D01*
X3809187Y1448257D01*
X3809542Y1445818D01*
X3810660Y1443177D01*
X3814622Y1437741D01*
X3816705Y1434033D01*
X3818483Y1430020D01*
X3819702Y1426159D01*
X3821836Y1417472D01*
X3768039Y1435100D01*
X3750868Y1441297D01*
X3745128Y1443888D01*
X3740861Y1446225D01*
X3737813Y1448511D01*
X3735730Y1450898D01*
X3724351Y1472387D01*
X3715969Y1486662D01*
X3712768Y1491538D01*
X3710432Y1494688D01*
G37*
G36*
X3830269Y1398930D02*
G01*
X3829761Y1396949D01*
X3830574Y1392174D01*
X3831386Y1389583D01*
X3832301Y1387754D01*
X3833215Y1386789D01*
X3834028Y1386890D01*
X3834485Y1387957D01*
X3834587Y1389634D01*
X3834333Y1391666D01*
X3833672Y1393850D01*
X3831691Y1397965D01*
G37*
G36*
X4283811Y1388160D02*
G01*
X4278426Y1387652D01*
X4272940Y1386636D01*
X4267098Y1385163D01*
X4260545Y1383080D01*
X4254042Y1380693D01*
X4248048Y1377899D01*
X4242562Y1374698D01*
X4237583Y1371142D01*
X4233164Y1367180D01*
X4229201Y1362862D01*
X4225747Y1358188D01*
X4222800Y1353159D01*
X4220413Y1347774D01*
X4218533Y1342034D01*
X4217162Y1335989D01*
X4216736Y1332636D01*
X4264964Y1332636D01*
X4265371Y1336802D01*
X4266641Y1339037D01*
X4268825Y1339900D01*
X4272584Y1340967D01*
X4282744Y1342948D01*
X4292193Y1343152D01*
X4300626Y1341018D01*
X4306824Y1337106D01*
X4309973Y1330960D01*
X4313885Y1325981D01*
X4320844Y1318158D01*
X4341520Y1296416D01*
X4352645Y1283665D01*
X4357471Y1277518D01*
X4361789Y1271524D01*
X4365599Y1265682D01*
X4368952Y1260043D01*
X4371797Y1254506D01*
X4374134Y1249172D01*
X4375874Y1244193D01*
X4422597Y1244193D01*
X4422698Y1245260D01*
X4422952Y1245666D01*
X4424832Y1244803D01*
X4426508Y1242517D01*
X4427778Y1239418D01*
X4428236Y1236014D01*
X4427575Y1233119D01*
X4425950Y1233373D01*
X4424121Y1236065D01*
X4422851Y1240637D01*
X4422597Y1244193D01*
X4375874Y1244193D01*
X4377334Y1238859D01*
X4378147Y1233982D01*
X4378502Y1229207D01*
X4378401Y1224584D01*
X4377740Y1220165D01*
X4376623Y1215847D01*
X4374845Y1212494D01*
X4371949Y1210106D01*
X4368190Y1208684D01*
X4363669Y1208125D01*
X4358538Y1208532D01*
X4352950Y1209903D01*
X4347159Y1212189D01*
X4341164Y1215390D01*
X4335526Y1218793D01*
X4332732Y1220063D01*
X4332478Y1219301D01*
X4334459Y1216558D01*
X4337202Y1213866D01*
X4340910Y1211021D01*
X4345178Y1208278D01*
X4354322Y1203807D01*
X4356303Y1202436D01*
X4355592Y1201724D01*
X4349343Y1201115D01*
X4346752Y1200200D01*
X4344771Y1198829D01*
X4343654Y1197254D01*
X4342892Y1195476D01*
X4342079Y1194866D01*
X4341114Y1195476D01*
X4339844Y1197254D01*
X4339132Y1198880D01*
X4339234Y1200200D01*
X4340047Y1201013D01*
X4341571Y1201369D01*
X4341825Y1202334D01*
X4339437Y1204976D01*
X4334814Y1208938D01*
X4321556Y1218793D01*
X4315917Y1223416D01*
X4312056Y1226972D01*
X4310481Y1229106D01*
X4309668Y1235456D01*
X4308500Y1237691D01*
X4305655Y1241196D01*
X4301591Y1245565D01*
X4291787Y1254963D01*
X4287774Y1259433D01*
X4285081Y1263091D01*
X4284065Y1265478D01*
X4283456Y1268425D01*
X4281779Y1273556D01*
X4273042Y1295450D01*
X4270298Y1303782D01*
X4268063Y1312011D01*
X4266387Y1319834D01*
X4265320Y1326845D01*
X4264964Y1332636D01*
X4216736Y1332636D01*
X4216349Y1329588D01*
X4216044Y1322832D01*
X4216247Y1315770D01*
X4217060Y1308404D01*
X4220057Y1291336D01*
X4220768Y1284986D01*
X4220413Y1281633D01*
X4219041Y1281125D01*
X4207306Y1286306D01*
X4195826Y1290980D01*
X4184497Y1295196D01*
X4173220Y1299006D01*
X4161790Y1302359D01*
X4150156Y1305356D01*
X4138218Y1308049D01*
X4125874Y1310386D01*
X4112920Y1312418D01*
X4099306Y1314196D01*
X4084929Y1315770D01*
X4053332Y1318260D01*
X4030472Y1319428D01*
X4026712Y1319225D01*
X4028236Y1318260D01*
X4033316Y1316685D01*
X4049928Y1312570D01*
X4068470Y1308709D01*
X4075937Y1307490D01*
X4080814Y1306982D01*
X4087571Y1305966D01*
X4093260Y1303680D01*
X4095750Y1301343D01*
X4093006Y1300175D01*
X4090822Y1299921D01*
X4090212Y1299311D01*
X4091228Y1298244D01*
X4093921Y1296517D01*
X4096765Y1295298D01*
X4100271Y1294638D01*
X4103928Y1294536D01*
X4107332Y1295095D01*
X4110939Y1296009D01*
X4112361Y1296111D01*
X4111701Y1295298D01*
X4109110Y1293520D01*
X4104995Y1292148D01*
X4098188Y1291336D01*
X4089298Y1291082D01*
X4068826Y1291945D01*
X4062120Y1291844D01*
X4059021Y1291132D01*
X4059529Y1289862D01*
X4061917Y1288643D01*
X4064660Y1287627D01*
X4067454Y1286916D01*
X4069994Y1286662D01*
X4072229Y1286103D01*
X4074363Y1284579D01*
X4076090Y1282446D01*
X4078681Y1276502D01*
X4081322Y1274318D01*
X4085539Y1273098D01*
X4097528Y1272235D01*
X4103420Y1271473D01*
X4108856Y1270457D01*
X4113123Y1269238D01*
X4116273Y1267917D01*
X4116324Y1267307D01*
X4113123Y1267358D01*
X4100880Y1268577D01*
X4096664Y1268628D01*
X4094175Y1268272D01*
X4093870Y1267510D01*
X4096258Y1266190D01*
X4100829Y1264767D01*
X4106926Y1263192D01*
X4122013Y1260348D01*
X4129887Y1259179D01*
X4137355Y1258366D01*
X4148429Y1257554D01*
X4151884Y1256792D01*
X4153915Y1255725D01*
X4154170Y1254455D01*
X4153865Y1253439D01*
X4154576Y1252931D01*
X4156100Y1253032D01*
X4158386Y1253744D01*
X4162044Y1254252D01*
X4167428Y1253744D01*
X4173778Y1252423D01*
X4189577Y1247343D01*
X4197045Y1246276D01*
X4205274Y1247089D01*
X4216908Y1249680D01*
X4237532Y1254810D01*
X4244086Y1241806D01*
X4245914Y1238554D01*
X4248353Y1234897D01*
X4254906Y1226464D01*
X4263136Y1217015D01*
X4272584Y1207109D01*
X4282744Y1197203D01*
X4293108Y1187805D01*
X4303217Y1179423D01*
X4312513Y1172565D01*
X4318457Y1168857D01*
X4324705Y1165504D01*
X4331208Y1162558D01*
X4337913Y1159967D01*
X4344771Y1157732D01*
X4351680Y1155903D01*
X4358589Y1154531D01*
X4365498Y1153515D01*
X4372203Y1152906D01*
X4378807Y1152753D01*
X4385106Y1153007D01*
X4391152Y1153668D01*
X4396790Y1154836D01*
X4402023Y1156411D01*
X4406747Y1158443D01*
X4410913Y1160983D01*
X4415078Y1164386D01*
X4419193Y1168501D01*
X4423156Y1173124D01*
X4426712Y1177848D01*
X4429658Y1182522D01*
X4431741Y1186738D01*
X4432909Y1190244D01*
X4432808Y1192834D01*
X4432401Y1194714D01*
X4432554Y1196543D01*
X4433214Y1198118D01*
X4434281Y1199235D01*
X4435449Y1201115D01*
X4436059Y1204671D01*
X4436160Y1209598D01*
X4435754Y1215593D01*
X4434890Y1222248D01*
X4433620Y1229258D01*
X4431995Y1236370D01*
X4428540Y1248105D01*
X4427829Y1252169D01*
X4427829Y1254912D01*
X4428642Y1255928D01*
X4429810Y1255674D01*
X4430725Y1255064D01*
X4431385Y1254201D01*
X4431588Y1253134D01*
X4433062Y1251559D01*
X4437024Y1249426D01*
X4442866Y1246936D01*
X4457649Y1241602D01*
X4463491Y1238758D01*
X4467199Y1236014D01*
X4468469Y1233576D01*
X4469028Y1230630D01*
X4470450Y1226312D01*
X4472584Y1221232D01*
X4475175Y1215898D01*
X4479950Y1207871D01*
X4481372Y1206195D01*
X4481931Y1206500D01*
X4482236Y1207414D01*
X4482947Y1207363D01*
X4483963Y1206500D01*
X4485233Y1204772D01*
X4487519Y1200150D01*
X4488230Y1197965D01*
X4488484Y1196238D01*
X4488230Y1195324D01*
X4487519Y1195324D01*
X4486503Y1196238D01*
X4483760Y1199997D01*
X4482744Y1200810D01*
X4482134Y1200353D01*
X4481931Y1198676D01*
X4482338Y1196848D01*
X4483455Y1195019D01*
X4485081Y1193393D01*
X4489043Y1191056D01*
X4490313Y1189329D01*
X4490770Y1187246D01*
X4490364Y1185011D01*
X4490313Y1182878D01*
X4490974Y1178864D01*
X4494123Y1166012D01*
X4499305Y1148283D01*
X4505960Y1127607D01*
X4516983Y1095857D01*
X4520946Y1085443D01*
X4523689Y1078992D01*
X4525060Y1076706D01*
X4525264Y1077214D01*
X4524502Y1081633D01*
X4518355Y1104950D01*
X4517136Y1111605D01*
X4516729Y1116482D01*
X4517237Y1118920D01*
X4518304Y1119479D01*
X4519422Y1119276D01*
X4520438Y1118412D01*
X4522520Y1113993D01*
X4523689Y1112875D01*
X4524654Y1113383D01*
X4525416Y1115314D01*
X4525924Y1118514D01*
X4526076Y1122781D01*
X4525924Y1127963D01*
X4524502Y1140968D01*
X4523841Y1151280D01*
X4524095Y1153160D01*
X4524959Y1152702D01*
X4526584Y1150467D01*
X4528667Y1146810D01*
X4533798Y1136650D01*
X4536135Y1133551D01*
X4538116Y1132687D01*
X4539792Y1134008D01*
X4540961Y1135278D01*
X4541570Y1134973D01*
X4541570Y1133094D01*
X4540961Y1129690D01*
X4540504Y1122375D01*
X4541824Y1116634D01*
X4544314Y1114094D01*
X4547260Y1116126D01*
X4548022Y1117904D01*
X4548174Y1119682D01*
X4547819Y1121257D01*
X4545634Y1124508D01*
X4544466Y1128420D01*
X4543450Y1133652D01*
X4542129Y1146149D01*
X4541062Y1152753D01*
X4539843Y1158697D01*
X4536541Y1170127D01*
X4537049Y1172921D01*
X4539538Y1171244D01*
X4545939Y1160780D01*
X4547565Y1158544D01*
X4548378Y1158392D01*
X4548428Y1160322D01*
X4547666Y1164336D01*
X4543755Y1178864D01*
X4532223Y1217980D01*
X4533138Y1218336D01*
X4535678Y1218336D01*
X4548428Y1216812D01*
X4551832Y1216812D01*
X4553813Y1217320D01*
X4554067Y1218285D01*
X4553915Y1219250D01*
X4554880Y1219758D01*
X4556709Y1219809D01*
X4559300Y1219301D01*
X4561992Y1218336D01*
X4563465Y1217320D01*
X4563618Y1216202D01*
X4562398Y1215034D01*
X4562094Y1212596D01*
X4566615Y1209497D01*
X4575200Y1206042D01*
X4590846Y1201572D01*
X4593031Y1200353D01*
X4593539Y1199134D01*
X4592370Y1197864D01*
X4592066Y1197000D01*
X4594301Y1196543D01*
X4598619Y1196543D01*
X4611116Y1197813D01*
X4620514Y1199388D01*
X4622241Y1199946D01*
X4623866Y1198829D01*
X4627270Y1194968D01*
X4632045Y1188974D01*
X4641697Y1176070D01*
X4650384Y1165555D01*
X4659782Y1155547D01*
X4669637Y1146200D01*
X4679848Y1137615D01*
X4690262Y1129842D01*
X4700727Y1123086D01*
X4711039Y1117396D01*
X4721098Y1112926D01*
X4725974Y1111148D01*
X4730750Y1109776D01*
X4735372Y1108710D01*
X4742738Y1107490D01*
X4749647Y1106678D01*
X4756200Y1106271D01*
X4762347Y1106322D01*
X4768138Y1106830D01*
X4773625Y1107744D01*
X4778857Y1109167D01*
X4783836Y1110996D01*
X4788611Y1113332D01*
X4793183Y1116126D01*
X4797602Y1119428D01*
X4807762Y1128369D01*
X4812842Y1132179D01*
X4817465Y1134668D01*
X4821732Y1135837D01*
X4826000Y1135735D01*
X4830419Y1134364D01*
X4835194Y1131824D01*
X4845405Y1124712D01*
X4849977Y1122019D01*
X4853889Y1120190D01*
X4858207Y1119225D01*
X4859172Y1118362D01*
X4859324Y1117142D01*
X4858004Y1113891D01*
X4858359Y1113078D01*
X4859782Y1113078D01*
X4862372Y1113891D01*
X4865420Y1114501D01*
X4868570Y1113891D01*
X4871770Y1112062D01*
X4878374Y1106119D01*
X4881778Y1104188D01*
X4885232Y1103426D01*
X4891887Y1104087D01*
X4895342Y1103528D01*
X4898644Y1102258D01*
X4904435Y1098194D01*
X4908092Y1096365D01*
X4912055Y1095044D01*
X4919167Y1094028D01*
X4921910Y1093317D01*
X4923739Y1092403D01*
X4924450Y1091387D01*
X4924806Y1090371D01*
X4925822Y1089558D01*
X4927295Y1089050D01*
X4929124Y1088847D01*
X4932476Y1088034D01*
X4938217Y1085900D01*
X4945430Y1082751D01*
X4961432Y1075029D01*
X4968240Y1071981D01*
X4973980Y1069746D01*
X4978552Y1068324D01*
X4981956Y1067714D01*
X4984292Y1067968D01*
X4985512Y1069035D01*
X4985918Y1072642D01*
X4987290Y1073962D01*
X4989728Y1074877D01*
X5000599Y1075791D01*
X5006492Y1077518D01*
X5010302Y1080211D01*
X5012080Y1085494D01*
X5013401Y1086510D01*
X5015534Y1086815D01*
X5021630Y1085748D01*
X5023307Y1086205D01*
X5023612Y1087831D01*
X5022697Y1090930D01*
X5021478Y1093724D01*
X5016906Y1101598D01*
X5010353Y1111656D01*
X5002631Y1122730D01*
X4994554Y1133551D01*
X4986934Y1142949D01*
X4973269Y1159002D01*
X4953152Y1184351D01*
X4933543Y1209802D01*
X4920691Y1225600D01*
X4916779Y1229868D01*
X4912512Y1235303D01*
X4901590Y1250696D01*
X4894834Y1261008D01*
X4891328Y1267663D01*
X4890770Y1271625D01*
X4892649Y1273860D01*
X4895088Y1274724D01*
X4897882Y1274826D01*
X4900777Y1274216D01*
X4903470Y1272946D01*
X4906162Y1271117D01*
X4906721Y1270254D01*
X4905044Y1270304D01*
X4897526Y1271828D01*
X4896866Y1271371D01*
X4899101Y1269695D01*
X4931410Y1251661D01*
X4952238Y1239723D01*
X4958232Y1235964D01*
X4962601Y1232865D01*
X4965316Y1230630D01*
X5033975Y1230630D01*
X5034788Y1232611D01*
X5037175Y1234236D01*
X5041138Y1235608D01*
X5046726Y1236675D01*
X5060594Y1238148D01*
X5071059Y1239570D01*
X5073650Y1240129D01*
X5078780Y1240485D01*
X5083048Y1237284D01*
X5083830Y1235811D01*
X5145684Y1235811D01*
X5147157Y1237081D01*
X5151323Y1237792D01*
X5157927Y1237894D01*
X5177536Y1236472D01*
X5182311Y1236421D01*
X5181549Y1237335D01*
X5171643Y1240942D01*
X5168849Y1242466D01*
X5167630Y1243787D01*
X5168341Y1244701D01*
X5169865Y1245565D01*
X5170779Y1246733D01*
X5171033Y1248105D01*
X5170627Y1249476D01*
X5171744Y1250696D01*
X5176723Y1251305D01*
X5185105Y1251356D01*
X5212130Y1249984D01*
X5216245Y1250086D01*
X5218023Y1250594D01*
X5217515Y1251661D01*
X5214721Y1253337D01*
X5194300Y1262278D01*
X5208320Y1261719D01*
X5213400Y1261160D01*
X5218226Y1260246D01*
X5222900Y1258874D01*
X5227675Y1257046D01*
X5232654Y1254709D01*
X5238140Y1251762D01*
X5249824Y1244549D01*
X5261406Y1236878D01*
X5272684Y1228953D01*
X5282996Y1221333D01*
X5291531Y1214526D01*
X5297576Y1209040D01*
X5301538Y1205026D01*
X5303723Y1203706D01*
X5305806Y1203198D01*
X5307533Y1203604D01*
X5308752Y1204214D01*
X5309514Y1204264D01*
X5309717Y1203756D01*
X5309311Y1202740D01*
X5311089Y1197914D01*
X5316931Y1190701D01*
X5323535Y1184605D01*
X5327751Y1183030D01*
X5328615Y1183182D01*
X5329885Y1182573D01*
X5331510Y1181354D01*
X5334355Y1177798D01*
X5334711Y1176528D01*
X5334152Y1175766D01*
X5332780Y1175410D01*
X5330545Y1175613D01*
X5323332Y1177391D01*
X5312562Y1181150D01*
X5298084Y1186891D01*
X5283657Y1192936D01*
X5271719Y1197559D01*
X5259578Y1201928D01*
X5247233Y1206042D01*
X5234838Y1209751D01*
X5222443Y1213154D01*
X5210149Y1216202D01*
X5198059Y1218793D01*
X5186222Y1221028D01*
X5169154Y1223518D01*
X5160467Y1224280D01*
X5157724Y1223975D01*
X5160975Y1222603D01*
X5170170Y1220317D01*
X5173929Y1219149D01*
X5176418Y1217726D01*
X5177485Y1216101D01*
X5177129Y1214323D01*
X5176469Y1212748D01*
X5176774Y1211935D01*
X5178094Y1211884D01*
X5182514Y1213205D01*
X5184292Y1213307D01*
X5185511Y1212900D01*
X5186527Y1210614D01*
X5188153Y1208836D01*
X5190540Y1206957D01*
X5197500Y1202994D01*
X5198618Y1202029D01*
X5196738Y1202131D01*
X5182412Y1204925D01*
X5189321Y1197914D01*
X5191861Y1194917D01*
X5193690Y1192072D01*
X5194604Y1189583D01*
X5194401Y1187856D01*
X5194909Y1186230D01*
X5197551Y1184046D01*
X5201920Y1181557D01*
X5213350Y1176528D01*
X5217718Y1174038D01*
X5220411Y1171854D01*
X5220868Y1170228D01*
X5220563Y1169060D01*
X5221071Y1168146D01*
X5222240Y1167485D01*
X5226050Y1166926D01*
X5227929Y1166012D01*
X5229453Y1164640D01*
X5230418Y1162964D01*
X5229453Y1158392D01*
X5225338Y1153058D01*
X5219649Y1148638D01*
X5215839Y1147368D01*
X5276443Y1147368D01*
X5277561Y1147978D01*
X5280507Y1147724D01*
X5284876Y1146657D01*
X5298338Y1142441D01*
X5304942Y1141933D01*
X5312562Y1143762D01*
X5323789Y1148130D01*
X5343601Y1156258D01*
X5350256Y1146759D01*
X5352846Y1142746D01*
X5354980Y1138986D01*
X5356402Y1135837D01*
X5357215Y1131570D01*
X5359095Y1124610D01*
X5361838Y1116736D01*
X5363514Y1110945D01*
X5363616Y1108964D01*
X5364988Y1107186D01*
X5366156Y1106271D01*
X5367121Y1104595D01*
X5367172Y1101648D01*
X5366359Y1097737D01*
X5364784Y1093063D01*
X5362346Y1088186D01*
X5359501Y1084783D01*
X5356199Y1082852D01*
X5352237Y1082446D01*
X5347462Y1083614D01*
X5341772Y1086256D01*
X5335016Y1090523D01*
X5327040Y1096314D01*
X5322062Y1100226D01*
X5311140Y1109726D01*
X5299964Y1120241D01*
X5289753Y1130554D01*
X5281676Y1139444D01*
X5278882Y1142949D01*
X5277104Y1145641D01*
X5276443Y1147368D01*
X5215839Y1147368D01*
X5212384Y1146098D01*
X5210810Y1144320D01*
X5209540Y1141628D01*
X5208778Y1138326D01*
X5207711Y1129842D01*
X5173522Y1146556D01*
X5151831Y1214018D01*
X5148072Y1226515D01*
X5145684Y1235811D01*
X5083830Y1235811D01*
X5086908Y1230020D01*
X5093157Y1210310D01*
X5095595Y1203858D01*
X5097780Y1199540D01*
X5099405Y1197914D01*
X5100472Y1197711D01*
X5101031Y1197000D01*
X5101132Y1196035D01*
X5100624Y1194816D01*
X5099354Y1194460D01*
X5096611Y1194917D01*
X5087772Y1197965D01*
X5075986Y1203096D01*
X5062982Y1209446D01*
X5050637Y1216253D01*
X5045252Y1219504D01*
X5040680Y1222603D01*
X5036921Y1225651D01*
X5034686Y1228344D01*
X5033975Y1230630D01*
X4965316Y1230630D01*
X4968087Y1228090D01*
X4971999Y1223822D01*
X4975707Y1219200D01*
X4981397Y1210868D01*
X4983988Y1208024D01*
X4986274Y1206398D01*
X4987950Y1206347D01*
X4989322Y1206804D01*
X4990846Y1206550D01*
X4992268Y1205687D01*
X4993436Y1204264D01*
X4994198Y1202791D01*
X4994198Y1201978D01*
X4993487Y1201978D01*
X4990490Y1203452D01*
X4989271Y1203553D01*
X4988458Y1203096D01*
X4988153Y1202080D01*
X4988864Y1200556D01*
X4990744Y1198727D01*
X4993589Y1196746D01*
X4997094Y1194866D01*
X5001869Y1192784D01*
X5003952Y1192276D01*
X5003647Y1193495D01*
X4998872Y1199642D01*
X4998364Y1200810D01*
X4999990Y1200200D01*
X5003850Y1197813D01*
X5006543Y1195781D01*
X5008524Y1193749D01*
X5009591Y1191869D01*
X5009286Y1188770D01*
X5009896Y1186281D01*
X5011166Y1183284D01*
X5013096Y1180134D01*
X5015128Y1177442D01*
X5016754Y1175715D01*
X5017871Y1175054D01*
X5018633Y1176578D01*
X5019497Y1176731D01*
X5020767Y1176070D01*
X5026304Y1171651D01*
X5029403Y1170838D01*
X5030978Y1172210D01*
X5030520Y1175766D01*
X5029352Y1179576D01*
X5029962Y1180541D01*
X5032502Y1178509D01*
X5037074Y1173480D01*
X5039207Y1170787D01*
X5040325Y1169009D01*
X5040376Y1168196D01*
X5037632Y1169263D01*
X5036312Y1169263D01*
X5035397Y1168654D01*
X5035092Y1167434D01*
X5036108Y1165301D01*
X5039156Y1163777D01*
X5044135Y1163015D01*
X5052466Y1162812D01*
X5053482Y1162304D01*
X5053888Y1161592D01*
X5053634Y1160678D01*
X5053584Y1159256D01*
X5054549Y1157274D01*
X5056276Y1154938D01*
X5058714Y1152550D01*
X5061254Y1150518D01*
X5063337Y1149248D01*
X5064810Y1148842D01*
X5065776Y1149858D01*
X5066842Y1149248D01*
X5072380Y1142949D01*
X5074361Y1141272D01*
X5076037Y1140460D01*
X5077155Y1140714D01*
X5077155Y1142187D01*
X5075732Y1144778D01*
X5073192Y1148130D01*
X5069636Y1151839D01*
X5060238Y1160932D01*
X5082794Y1151788D01*
X5088077Y1149959D01*
X5088128Y1149350D01*
X5087315Y1147216D01*
X5087264Y1145336D01*
X5088534Y1142390D01*
X5091027Y1138529D01*
X5096052Y1138529D01*
X5096052Y1139291D01*
X5096713Y1139393D01*
X5099456Y1138224D01*
X5100878Y1138377D01*
X5102098Y1139190D01*
X5103622Y1141984D01*
X5104485Y1142136D01*
X5105400Y1141120D01*
X5106416Y1138936D01*
X5106517Y1134973D01*
X5103977Y1133144D01*
X5100269Y1133754D01*
X5096764Y1137107D01*
X5096052Y1138529D01*
X5091027Y1138529D01*
X5093970Y1134922D01*
X5098288Y1130757D01*
X5102352Y1128166D01*
X5106365Y1126998D01*
X5110530Y1127150D01*
X5113578Y1127607D01*
X5116068Y1127658D01*
X5117642Y1127353D01*
X5118100Y1126693D01*
X5118303Y1124915D01*
X5120792Y1117498D01*
X5125212Y1106474D01*
X5133177Y1083360D01*
X5154015Y1083360D01*
X5154066Y1084884D01*
X5154523Y1085392D01*
X5156352Y1083767D01*
X5157978Y1080008D01*
X5158790Y1075893D01*
X5158282Y1073200D01*
X5157520Y1073099D01*
X5156606Y1074064D01*
X5155641Y1075893D01*
X5154828Y1078433D01*
X5154015Y1083360D01*
X5133177Y1083360D01*
X5136794Y1072489D01*
X5138036Y1069746D01*
X5169662Y1069746D01*
X5169662Y1071626D01*
X5170525Y1072438D01*
X5171897Y1071981D01*
X5173573Y1070406D01*
X5175453Y1067765D01*
X5179720Y1059332D01*
X5182717Y1050645D01*
X5183886Y1044346D01*
X5182362Y1042924D01*
X5181142Y1044143D01*
X5180177Y1045921D01*
X5179466Y1048105D01*
X5178806Y1052982D01*
X5177637Y1056030D01*
X5175961Y1059129D01*
X5171846Y1064564D01*
X5170424Y1067257D01*
X5169662Y1069746D01*
X5138036Y1069746D01*
X5139232Y1067104D01*
X5141264Y1064818D01*
X5142890Y1065631D01*
X5144312Y1067308D01*
X5145532Y1067358D01*
X5146649Y1065784D01*
X5148783Y1059434D01*
X5150104Y1056995D01*
X5151475Y1055319D01*
X5152745Y1054709D01*
X5154523Y1053439D01*
X5157216Y1049985D01*
X5160518Y1044803D01*
X5168188Y1030427D01*
X5174386Y1019556D01*
X5176418Y1016660D01*
X5177790Y1015492D01*
X5178552Y1015898D01*
X5178704Y1017930D01*
X5177485Y1028598D01*
X5178399Y1030020D01*
X5181193Y1025652D01*
X5188966Y1009243D01*
X5191556Y1004620D01*
X5193588Y1001826D01*
X5194808Y1001268D01*
X5195214Y1002487D01*
X5194960Y1004519D01*
X5194198Y1007059D01*
X5191506Y1013206D01*
X5190337Y1017066D01*
X5189575Y1021080D01*
X5189321Y1024686D01*
X5189880Y1027125D01*
X5191760Y1025906D01*
X5195062Y1020978D01*
X5204307Y1003604D01*
X5212486Y989076D01*
X5215229Y984808D01*
X5217769Y981405D01*
X5218938Y980897D01*
X5218785Y983589D01*
X5213959Y1010615D01*
X5208828Y1029258D01*
X5200345Y1057452D01*
X5191861Y1084224D01*
X5186578Y1099718D01*
X5186832Y1101445D01*
X5188407Y1102106D01*
X5191353Y1101852D01*
X5193995Y1101191D01*
X5196433Y1100226D01*
X5198465Y1099058D01*
X5199735Y1097838D01*
X5201462Y1096721D01*
X5204561Y1095806D01*
X5208625Y1095146D01*
X5213146Y1094892D01*
X5224475Y1094841D01*
X5229747Y1084021D01*
X5270398Y1084021D01*
X5270550Y1085037D01*
X5273548Y1083360D01*
X5279440Y1078992D01*
X5283657Y1074420D01*
X5284216Y1070965D01*
X5281625Y1069797D01*
X5276291Y1071930D01*
X5274614Y1073150D01*
X5273700Y1074166D01*
X5273598Y1074877D01*
X5275173Y1075537D01*
X5275173Y1076655D01*
X5274513Y1078331D01*
X5270398Y1084021D01*
X5229747Y1084021D01*
X5261965Y1017930D01*
X5270550Y1000861D01*
X5278272Y986078D01*
X5284774Y974191D01*
X5291531Y963066D01*
X5292801Y961542D01*
X5293563Y961136D01*
X5294731Y962761D01*
X5295696Y965708D01*
X5296408Y969568D01*
X5296865Y979830D01*
X5297474Y982268D01*
X5298948Y981659D01*
X5301691Y978204D01*
X5305145Y974852D01*
X5306517Y975969D01*
X5305755Y980490D01*
X5301183Y991412D01*
X5299710Y996645D01*
X5298541Y1002537D01*
X5297068Y1013764D01*
X5295900Y1018590D01*
X5294477Y1022248D01*
X5292953Y1024178D01*
X5291531Y1025347D01*
X5290312Y1026718D01*
X5289499Y1028192D01*
X5288686Y1031290D01*
X5285994Y1036878D01*
X5281980Y1043990D01*
X5281117Y1047445D01*
X5281523Y1050899D01*
X5283200Y1054811D01*
X5287111Y1062177D01*
X5293766Y1054912D01*
X5297170Y1051763D01*
X5300624Y1049883D01*
X5304078Y1049223D01*
X5307736Y1049680D01*
X5310784Y1050442D01*
X5312206Y1050544D01*
X5312105Y1049883D01*
X5310479Y1048562D01*
X5308244Y1045616D01*
X5309311Y1043228D01*
X5312765Y1042162D01*
X5319826Y1043482D01*
X5321909Y1043330D01*
X5323687Y1042619D01*
X5324906Y1041349D01*
X5325465Y1040028D01*
X5325110Y1039266D01*
X5323890Y1039215D01*
X5319877Y1040384D01*
X5318201Y1040536D01*
X5317083Y1040282D01*
X5316677Y1039571D01*
X5317896Y1038148D01*
X5321198Y1035913D01*
X5326075Y1033271D01*
X5332069Y1030376D01*
X5340350Y1027125D01*
X5347766Y1025347D01*
X5355386Y1024991D01*
X5364429Y1025855D01*
X5371439Y1026972D01*
X5377942Y1028344D01*
X5383936Y1029969D01*
X5389422Y1031798D01*
X5394452Y1033932D01*
X5398922Y1036319D01*
X5402986Y1038961D01*
X5406593Y1041857D01*
X5409742Y1045057D01*
X5412435Y1048562D01*
X5414721Y1052322D01*
X5416651Y1056436D01*
X5419598Y1065326D01*
X5420715Y1069898D01*
X5422239Y1079347D01*
X5422646Y1084224D01*
X5422798Y1089202D01*
X5422392Y1099312D01*
X5421122Y1109726D01*
X5418886Y1120394D01*
X5415737Y1131214D01*
X5411724Y1142288D01*
X5406847Y1153464D01*
X5401106Y1164742D01*
X5394502Y1176070D01*
X5387086Y1187450D01*
X5378805Y1198778D01*
X5369763Y1210157D01*
X5359908Y1221384D01*
X5348478Y1233373D01*
X5337251Y1244346D01*
X5332069Y1249070D01*
X5321960Y1257300D01*
X5311546Y1264513D01*
X5300065Y1271270D01*
X5286705Y1278229D01*
X5274818Y1283766D01*
X5261406Y1289456D01*
X5247589Y1294942D01*
X5234482Y1299819D01*
X5223154Y1303680D01*
X5214721Y1306169D01*
X5211927Y1306728D01*
X5210251Y1306830D01*
X5209895Y1306372D01*
X5210911Y1305306D01*
X5213705Y1303324D01*
X5216550Y1301699D01*
X5219039Y1300632D01*
X5223103Y1299667D01*
X5226405Y1298143D01*
X5230368Y1295908D01*
X5234533Y1293215D01*
X5239207Y1289812D01*
X5241239Y1287729D01*
X5240782Y1286814D01*
X5230977Y1287119D01*
X5227726Y1286510D01*
X5227929Y1284681D01*
X5234686Y1278788D01*
X5235295Y1277569D01*
X5232857Y1277518D01*
X5221325Y1279398D01*
X5218023Y1279042D01*
X5216499Y1277162D01*
X5215839Y1269746D01*
X5214620Y1268069D01*
X5211826Y1268171D01*
X5204206Y1270762D01*
X5194858Y1273302D01*
X5165699Y1280007D01*
X5143906Y1284681D01*
X5133035Y1287424D01*
X5124602Y1290015D01*
X5118252Y1292707D01*
X5113782Y1295603D01*
X5110835Y1298803D01*
X5109210Y1302512D01*
X5108346Y1308912D01*
X5107736Y1309370D01*
X5106771Y1308201D01*
X5102504Y1298549D01*
X5098897Y1309928D01*
X5094325Y1320698D01*
X5089601Y1330147D01*
X5087874Y1333093D01*
X5086908Y1334058D01*
X5086908Y1332636D01*
X5089194Y1321562D01*
X5090515Y1313535D01*
X5090871Y1309268D01*
X5090109Y1309624D01*
X5089093Y1311148D01*
X5087823Y1312113D01*
X5086400Y1312418D01*
X5083860Y1311452D01*
X5082895Y1311503D01*
X5082235Y1312062D01*
X5081117Y1316126D01*
X5078780Y1321460D01*
X5071516Y1335684D01*
X5063998Y1348790D01*
X5061305Y1352804D01*
X5059934Y1353921D01*
X5060086Y1351026D01*
X5061407Y1344066D01*
X5066690Y1322171D01*
X5072227Y1300480D01*
X5073751Y1293774D01*
X5074158Y1291132D01*
X5066334Y1290269D01*
X5040985Y1288338D01*
X5034584Y1287526D01*
X5028793Y1286510D01*
X5023358Y1285138D01*
X5017973Y1283360D01*
X5012436Y1281074D01*
X5006441Y1278229D01*
X4988915Y1269136D01*
X4981498Y1266037D01*
X4977079Y1265275D01*
X4975148Y1266748D01*
X4973828Y1269390D01*
X4971389Y1272692D01*
X4967986Y1276553D01*
X4958892Y1285392D01*
X4947818Y1294790D01*
X4935982Y1303731D01*
X4930140Y1307693D01*
X4924552Y1311148D01*
X4919421Y1313992D01*
X4912969Y1317040D01*
X4906619Y1319631D01*
X4900422Y1321765D01*
X4894376Y1323492D01*
X4888484Y1324762D01*
X4882743Y1325575D01*
X4877155Y1325981D01*
X4871821Y1325930D01*
X4866640Y1325473D01*
X4861712Y1324610D01*
X4856988Y1323340D01*
X4852568Y1321612D01*
X4848402Y1319479D01*
X4844491Y1316939D01*
X4840884Y1313992D01*
X4837531Y1310640D01*
X4834585Y1306880D01*
X4831892Y1302766D01*
X4829606Y1298194D01*
X4827676Y1293266D01*
X4826660Y1289558D01*
X4826101Y1285595D01*
X4826000Y1281430D01*
X4826406Y1276959D01*
X4827219Y1272286D01*
X4828489Y1267307D01*
X4830216Y1262075D01*
X4832400Y1256588D01*
X4835042Y1250848D01*
X4838141Y1244803D01*
X4841697Y1238504D01*
X4850231Y1224534D01*
X4856215Y1213713D01*
X4867452Y1213713D01*
X4867960Y1214932D01*
X4869383Y1214526D01*
X4871618Y1212545D01*
X4876901Y1205941D01*
X4877511Y1204772D01*
X4876342Y1205382D01*
X4871008Y1209649D01*
X4867910Y1212850D01*
X4867452Y1213713D01*
X4856215Y1213713D01*
X4857648Y1209700D01*
X4858359Y1209243D01*
X4859426Y1209294D01*
X4862068Y1210411D01*
X4863236Y1210310D01*
X4864100Y1209598D01*
X4864506Y1208379D01*
X4865116Y1204010D01*
X4865827Y1200861D01*
X4866894Y1198219D01*
X4868570Y1195324D01*
X4869840Y1193800D01*
X4871313Y1192784D01*
X4872837Y1192479D01*
X4874158Y1192834D01*
X4877866Y1191869D01*
X4880069Y1189431D01*
X4888788Y1189431D01*
X4889144Y1190955D01*
X4890566Y1190345D01*
X4892751Y1187500D01*
X4893462Y1185926D01*
X4893818Y1184452D01*
X4893767Y1183132D01*
X4893360Y1182217D01*
X4892548Y1182014D01*
X4891633Y1182624D01*
X4890668Y1183944D01*
X4889754Y1185875D01*
X4888788Y1189431D01*
X4880069Y1189431D01*
X4882134Y1187145D01*
X4885131Y1181100D01*
X4885232Y1176375D01*
X4884724Y1175258D01*
X4884826Y1174699D01*
X4885588Y1174699D01*
X4886807Y1175308D01*
X4888941Y1175258D01*
X4892040Y1173429D01*
X4895646Y1170127D01*
X4903165Y1161135D01*
X4906568Y1157681D01*
X4909413Y1155700D01*
X4911191Y1155395D01*
X4912360Y1155852D01*
X4913579Y1155801D01*
X4914696Y1155344D01*
X4915560Y1154379D01*
X4915611Y1153261D01*
X4914392Y1152245D01*
X4912156Y1151432D01*
X4909108Y1150975D01*
X4905959Y1150874D01*
X4903368Y1151229D01*
X4901590Y1151890D01*
X4900218Y1153820D01*
X4898237Y1154684D01*
X4895240Y1155293D01*
X4889093Y1155852D01*
X4880864Y1157173D01*
X4856480Y1162253D01*
X4833315Y1168044D01*
X4827625Y1169822D01*
X4823358Y1171448D01*
X4820412Y1172972D01*
X4818481Y1174546D01*
X4817465Y1176223D01*
X4816602Y1183132D01*
X4815128Y1189583D01*
X4812842Y1196898D01*
X4810048Y1204569D01*
X4806899Y1212037D01*
X4803597Y1218844D01*
X4800396Y1224381D01*
X4797450Y1228242D01*
X4794656Y1231493D01*
X4792370Y1235100D01*
X4790795Y1238504D01*
X4790186Y1241399D01*
X4789068Y1244955D01*
X4786071Y1250137D01*
X4781702Y1256284D01*
X4776368Y1262735D01*
X4771288Y1268272D01*
X4767427Y1272082D01*
X4765243Y1273708D01*
X4765040Y1272946D01*
X4765395Y1271625D01*
X4764532Y1271828D01*
X4762703Y1273454D01*
X4756505Y1280160D01*
X4752289Y1284173D01*
X4747869Y1287983D01*
X4743856Y1291031D01*
X4735017Y1297178D01*
X4758944Y1293672D01*
X4766056Y1292199D01*
X4772355Y1290624D01*
X4776927Y1289151D01*
X4786934Y1285494D01*
X4795469Y1282801D01*
X4801463Y1281480D01*
X4803749Y1281785D01*
X4802479Y1283208D01*
X4799076Y1285951D01*
X4781346Y1298295D01*
X4777943Y1301191D01*
X4777587Y1302461D01*
X4781702Y1301953D01*
X4781702Y1302410D01*
X4780483Y1303426D01*
X4774641Y1306880D01*
X4765141Y1311910D01*
X4752898Y1317955D01*
X4738979Y1324508D01*
X4727803Y1329436D01*
X4718202Y1332636D01*
X4707178Y1335633D01*
X4696104Y1338021D01*
X4690973Y1338884D01*
X4683556Y1339799D01*
X4676394Y1340307D01*
X4669536Y1340459D01*
X4662932Y1340256D01*
X4656632Y1339646D01*
X4650638Y1338681D01*
X4644948Y1337360D01*
X4639513Y1335684D01*
X4634433Y1333601D01*
X4629658Y1331214D01*
X4625238Y1328420D01*
X4621123Y1325321D01*
X4617364Y1321866D01*
X4613910Y1318056D01*
X4610862Y1313942D01*
X4608118Y1309471D01*
X4605782Y1304645D01*
X4603800Y1299514D01*
X4602226Y1294079D01*
X4600956Y1288288D01*
X4598636Y1274775D01*
X4648200Y1274775D01*
X4649114Y1283766D01*
X4652264Y1291285D01*
X4657242Y1295501D01*
X4666589Y1297940D01*
X4674108Y1298397D01*
X4680559Y1296873D01*
X4686604Y1293215D01*
X4689805Y1290574D01*
X4692446Y1288034D01*
X4694275Y1285798D01*
X4695037Y1284224D01*
X4696815Y1281430D01*
X4701590Y1275740D01*
X4708550Y1268120D01*
X4722926Y1253083D01*
X4728413Y1246987D01*
X4738166Y1234998D01*
X4742434Y1229156D01*
X4746294Y1223365D01*
X4749698Y1217676D01*
X4752746Y1212088D01*
X4755337Y1206601D01*
X4757521Y1201166D01*
X4759299Y1195832D01*
X4760604Y1190853D01*
X4807508Y1190853D01*
X4807762Y1192428D01*
X4808423Y1193596D01*
X4809185Y1193901D01*
X4809794Y1193139D01*
X4810150Y1191514D01*
X4810201Y1189126D01*
X4809947Y1186738D01*
X4809490Y1185570D01*
X4808880Y1185672D01*
X4808169Y1187043D01*
X4807610Y1188974D01*
X4807508Y1190853D01*
X4760604Y1190853D01*
X4761636Y1184198D01*
X4761687Y1178560D01*
X4760925Y1173632D01*
X4759299Y1169466D01*
X4756962Y1166114D01*
X4753914Y1163624D01*
X4750257Y1162050D01*
X4746040Y1161338D01*
X4741367Y1161643D01*
X4736185Y1162964D01*
X4730699Y1165301D01*
X4720894Y1171194D01*
X4718710Y1172108D01*
X4718050Y1171448D01*
X4718608Y1169212D01*
X4720285Y1166926D01*
X4723536Y1164183D01*
X4727854Y1161440D01*
X4732782Y1158900D01*
X4745075Y1153515D01*
X4727092Y1156766D01*
X4724196Y1156665D01*
X4724247Y1155090D01*
X4727555Y1150670D01*
X4816805Y1150670D01*
X4817872Y1152753D01*
X4820869Y1155801D01*
X4823815Y1156716D01*
X4827422Y1155496D01*
X4832451Y1152144D01*
X4835702Y1149451D01*
X4836109Y1148080D01*
X4833213Y1147622D01*
X4826660Y1147876D01*
X4820970Y1148384D01*
X4817770Y1149248D01*
X4816805Y1150670D01*
X4727555Y1150670D01*
X4729175Y1148588D01*
X4729988Y1147013D01*
X4729124Y1146657D01*
X4726635Y1147368D01*
X4724704Y1148435D01*
X4723079Y1150010D01*
X4722012Y1151890D01*
X4721606Y1153871D01*
X4720488Y1156665D01*
X4717440Y1160678D01*
X4712868Y1165402D01*
X4699508Y1177036D01*
X4694783Y1182268D01*
X4692700Y1186840D01*
X4692599Y1191666D01*
X4691786Y1193292D01*
X4689398Y1196035D01*
X4685792Y1199540D01*
X4676749Y1207262D01*
X4673041Y1210970D01*
X4670552Y1214018D01*
X4669637Y1216050D01*
X4669282Y1217879D01*
X4666386Y1226159D01*
X4661204Y1239520D01*
X4650028Y1266139D01*
X4648200Y1274775D01*
X4598619Y1274673D01*
X4589272Y1297381D01*
X4581855Y1312570D01*
X4569612Y1335074D01*
X4564024Y1344676D01*
X4558080Y1353820D01*
X4557064Y1354886D01*
X4556709Y1354683D01*
X4557064Y1353108D01*
X4556912Y1351534D01*
X4554778Y1352600D01*
X4550918Y1356055D01*
X4538675Y1369060D01*
X4533138Y1373581D01*
X4528261Y1375664D01*
X4523282Y1375765D01*
X4518050Y1374851D01*
X4514088Y1373479D01*
X4511192Y1371650D01*
X4509465Y1369161D01*
X4508754Y1366012D01*
X4509109Y1361998D01*
X4510379Y1357122D01*
X4519920Y1332890D01*
X4563618Y1332890D01*
X4565294Y1333195D01*
X4568901Y1327810D01*
X4570222Y1325016D01*
X4570984Y1322781D01*
X4571187Y1321257D01*
X4570272Y1320139D01*
X4570425Y1318666D01*
X4573676Y1311198D01*
X4574387Y1309065D01*
X4574540Y1307592D01*
X4574032Y1307033D01*
X4572863Y1307998D01*
X4571187Y1310640D01*
X4569155Y1314551D01*
X4567021Y1319377D01*
X4564126Y1327962D01*
X4563618Y1332890D01*
X4519920Y1332890D01*
X4522571Y1326032D01*
X4540656Y1285392D01*
X4547108Y1269796D01*
X4547768Y1267206D01*
X4545228Y1267256D01*
X4539742Y1268628D01*
X4532376Y1270965D01*
X4515967Y1277061D01*
X4508855Y1280109D01*
X4503877Y1282649D01*
X4501997Y1284274D01*
X4501032Y1286814D01*
X4498441Y1291437D01*
X4489805Y1304290D01*
X4483100Y1313129D01*
X4478172Y1317904D01*
X4473854Y1319530D01*
X4468876Y1318869D01*
X4459732Y1316736D01*
X4442561Y1313383D01*
X4440021Y1312621D01*
X4438751Y1312011D01*
X4438243Y1308049D01*
X4439767Y1301902D01*
X4442307Y1296517D01*
X4444746Y1294942D01*
X4446066Y1295247D01*
X4447387Y1294688D01*
X4448657Y1293418D01*
X4449673Y1291488D01*
X4450181Y1289558D01*
X4450130Y1288338D01*
X4449521Y1287881D01*
X4446625Y1288846D01*
X4444288Y1288745D01*
X4441698Y1288084D01*
X4439158Y1286865D01*
X4437024Y1285443D01*
X4436059Y1284325D01*
X4436262Y1283563D01*
X4439208Y1282954D01*
X4440174Y1282192D01*
X4440428Y1281125D01*
X4439970Y1279753D01*
X4434890Y1277213D01*
X4426356Y1276451D01*
X4418380Y1277366D01*
X4414824Y1279956D01*
X4414570Y1281226D01*
X4413859Y1281887D01*
X4412792Y1281988D01*
X4410151Y1280922D01*
X4408982Y1281074D01*
X4408119Y1281734D01*
X4407712Y1283004D01*
X4406900Y1289507D01*
X4405630Y1292453D01*
X4402886Y1296720D01*
X4399076Y1301750D01*
X4394708Y1306931D01*
X4390237Y1311808D01*
X4386173Y1315821D01*
X4382973Y1318310D01*
X4381144Y1318869D01*
X4379671Y1318818D01*
X4377740Y1319834D01*
X4375556Y1321816D01*
X4370628Y1327912D01*
X4367022Y1331671D01*
X4362907Y1335328D01*
X4358894Y1338478D01*
X4349445Y1345031D01*
X4371340Y1341729D01*
X4384497Y1338884D01*
X4395978Y1335481D01*
X4400651Y1333703D01*
X4404360Y1331976D01*
X4408728Y1329232D01*
X4410354Y1328928D01*
X4411776Y1329334D01*
X4412894Y1330452D01*
X4412742Y1332331D01*
X4410862Y1334973D01*
X4407509Y1338021D01*
X4394809Y1346809D01*
X4392320Y1348943D01*
X4391355Y1350162D01*
X4391710Y1350568D01*
X4392625Y1350568D01*
X4397146Y1348435D01*
X4397603Y1348689D01*
X4396943Y1350010D01*
X4395165Y1352448D01*
X4392930Y1354683D01*
X4390237Y1356512D01*
X4387494Y1357731D01*
X4382516Y1358442D01*
X4380026Y1359052D01*
X4377791Y1359966D01*
X4373930Y1362608D01*
X4370374Y1364538D01*
X4360113Y1369110D01*
X4347159Y1374190D01*
X4333443Y1379067D01*
X4320692Y1383080D01*
X4310888Y1385468D01*
X4295597Y1387703D01*
X4289399Y1388160D01*
G37*
G36*
X3585362Y1276096D02*
G01*
X3583025Y1276045D01*
X3581400Y1275689D01*
X3580688Y1275080D01*
X3580942Y1274318D01*
X3582060Y1273657D01*
X3583686Y1273352D01*
X3585514Y1273505D01*
X3587394Y1274013D01*
X3588715Y1274775D01*
X3588816Y1275435D01*
X3587699Y1275842D01*
G37*
G36*
X4315510Y1235456D02*
G01*
X4315053Y1235049D01*
X4314342Y1232306D01*
X4314291Y1230325D01*
X4314698Y1228344D01*
X4315866Y1226718D01*
X4317593Y1225600D01*
X4319727Y1225194D01*
X4322267Y1225448D01*
X4323283Y1226210D01*
X4322826Y1227785D01*
X4319270Y1232306D01*
X4316374Y1235049D01*
G37*
G36*
X4698898Y1184148D02*
G01*
X4697425Y1183335D01*
X4698136Y1180896D01*
X4699406Y1179576D01*
X4701286Y1178509D01*
X4703521Y1177798D01*
X4705858Y1177544D01*
X4708652Y1177696D01*
X4709668Y1178153D01*
X4708956Y1179169D01*
X4706518Y1180896D01*
X4702048Y1183335D01*
G37*
G36*
X4822444Y1132890D02*
G01*
X4820107Y1132840D01*
X4818532Y1132484D01*
X4817770Y1131874D01*
X4818075Y1131112D01*
X4819192Y1130452D01*
X4820767Y1130147D01*
X4822596Y1130300D01*
X4824476Y1130808D01*
X4825847Y1131570D01*
X4825949Y1132179D01*
X4824780Y1132636D01*
G37*
G36*
X5285435Y1051052D02*
G01*
X5284774Y1050645D01*
X5283962Y1047445D01*
X5285181Y1043279D01*
X5287568Y1040079D01*
X5290210Y1039621D01*
X5291378Y1040587D01*
X5292344Y1041958D01*
X5293004Y1043432D01*
X5293207Y1044905D01*
X5292953Y1046073D01*
X5292242Y1046683D01*
X5291175Y1046734D01*
X5288584Y1045718D01*
X5287518Y1045921D01*
X5286806Y1046835D01*
X5286400Y1049731D01*
X5285994Y1050696D01*
G37*
D10*
X5289877Y1560695D02*
G01*
X5257365Y1474843D01*
X5224599Y1560695D02*
G01*
X5257365Y1474843D01*
X5197421Y1507609D02*
G01*
X5148399Y1507609D01*
X5148399Y1515737D01*
X5152463Y1524119D01*
X5156527Y1528183D01*
X5164909Y1532247D01*
X5177101Y1532247D01*
X5185229Y1528183D01*
X5193357Y1519801D01*
X5197421Y1507609D01*
X5197421Y1499481D01*
X5193357Y1487289D01*
X5185229Y1478907D01*
X5177101Y1474843D01*
X5164909Y1474843D01*
X5156527Y1478907D01*
X5148399Y1487289D01*
X5121475Y1532247D02*
G01*
X5121475Y1474843D01*
X5121475Y1507609D02*
G01*
X5117411Y1519801D01*
X5109283Y1528183D01*
X5100901Y1532247D01*
X5088709Y1532247D01*
X5016827Y1519801D02*
G01*
X5020891Y1528183D01*
X5033083Y1532247D01*
X5045275Y1532247D01*
X5057721Y1528183D01*
X5061785Y1519801D01*
X5057721Y1511673D01*
X5049339Y1507609D01*
X5029019Y1503545D01*
X5020891Y1499481D01*
X5016827Y1491353D01*
X5016827Y1487289D01*
X5020891Y1478907D01*
X5033083Y1474843D01*
X5045275Y1474843D01*
X5057721Y1478907D01*
X5061785Y1487289D01*
X4989649Y1560695D02*
G01*
X4985585Y1556631D01*
X4981521Y1560695D01*
X4985585Y1565013D01*
X4989649Y1560695D01*
X4985585Y1532247D02*
G01*
X4985585Y1474843D01*
X4934023Y1532247D02*
G01*
X4942151Y1528183D01*
X4950533Y1519801D01*
X4954597Y1507609D01*
X4954597Y1499481D01*
X4950533Y1487289D01*
X4942151Y1478907D01*
X4934023Y1474843D01*
X4921831Y1474843D01*
X4913703Y1478907D01*
X4905321Y1487289D01*
X4901257Y1499481D01*
X4901257Y1507609D01*
X4905321Y1519801D01*
X4913703Y1528183D01*
X4921831Y1532247D01*
X4934023Y1532247D01*
X4874333Y1532247D02*
G01*
X4874333Y1474843D01*
X4874333Y1515737D02*
G01*
X4862141Y1528183D01*
X4854013Y1532247D01*
X4841567Y1532247D01*
X4833439Y1528183D01*
X4829375Y1515737D01*
X4829375Y1474843D01*
X4739459Y1544439D02*
G01*
X4731077Y1548503D01*
X4718885Y1560695D01*
X4718885Y1474843D01*
X4687897Y1495417D02*
G01*
X4691961Y1491353D01*
X4687897Y1487289D01*
X4683833Y1491353D01*
X4687897Y1495417D01*
X4632271Y1560695D02*
G01*
X4644463Y1556631D01*
X4652591Y1544439D01*
X4656655Y1524119D01*
X4656655Y1511673D01*
X4652591Y1491353D01*
X4644463Y1478907D01*
X4632271Y1474843D01*
X4623889Y1474843D01*
X4611697Y1478907D01*
X4603569Y1491353D01*
X4599505Y1511673D01*
X4599505Y1524119D01*
X4603569Y1544439D01*
X4611697Y1556631D01*
X4623889Y1560695D01*
X4632271Y1560695D01*
D11*
X5289877Y1700903D02*
G01*
X5289877Y1605399D01*
X5289877Y1700903D02*
G01*
X5248983Y1700903D01*
X5235521Y1696331D01*
X5230949Y1691759D01*
X5226377Y1682615D01*
X5226377Y1673725D01*
X5230949Y1664581D01*
X5235521Y1660009D01*
X5248983Y1655437D01*
X5289877Y1655437D02*
G01*
X5248983Y1655437D01*
X5235521Y1650865D01*
X5230949Y1646293D01*
X5226377Y1637149D01*
X5226377Y1623687D01*
X5230949Y1614543D01*
X5235521Y1609971D01*
X5248983Y1605399D01*
X5289877Y1605399D01*
X5191833Y1669153D02*
G01*
X5164655Y1605399D01*
X5137223Y1669153D02*
G01*
X5164655Y1605399D01*
X5173545Y1587365D01*
X5182689Y1578221D01*
X5191833Y1573649D01*
X5196405Y1573649D01*
X5102679Y1660009D02*
G01*
X5107251Y1655437D01*
X5102679Y1650865D01*
X5098107Y1655437D01*
X5102679Y1660009D01*
X5102679Y1628259D02*
G01*
X5107251Y1623687D01*
X5102679Y1619115D01*
X5098107Y1623687D01*
X5102679Y1628259D01*
X4998285Y1700903D02*
G01*
X4998285Y1605399D01*
X4934531Y1700903D02*
G01*
X4998285Y1637149D01*
X4975425Y1660009D02*
G01*
X4934531Y1605399D01*
X4904559Y1700903D02*
G01*
X4899987Y1696331D01*
X4895415Y1700903D01*
X4899987Y1705475D01*
X4904559Y1700903D01*
X4899987Y1669153D02*
G01*
X4899987Y1605399D01*
X4865443Y1700903D02*
G01*
X4865443Y1605399D01*
X4835471Y1700903D02*
G01*
X4835471Y1605399D01*
X4805499Y1641721D02*
G01*
X4750889Y1641721D01*
X4750889Y1650865D01*
X4755461Y1660009D01*
X4760033Y1664581D01*
X4769177Y1669153D01*
X4782639Y1669153D01*
X4791783Y1664581D01*
X4800927Y1655437D01*
X4805499Y1641721D01*
X4805499Y1632831D01*
X4800927Y1619115D01*
X4791783Y1609971D01*
X4782639Y1605399D01*
X4769177Y1605399D01*
X4760033Y1609971D01*
X4750889Y1619115D01*
X4720917Y1669153D02*
G01*
X4720917Y1605399D01*
X4720917Y1641721D02*
G01*
X4716345Y1655437D01*
X4707201Y1664581D01*
X4698057Y1669153D01*
X4684595Y1669153D01*
X4627191Y1700903D02*
G01*
X4636335Y1696331D01*
X4645479Y1687187D01*
X4650051Y1678297D01*
X4654623Y1664581D01*
X4654623Y1641721D01*
X4650051Y1628259D01*
X4645479Y1619115D01*
X4636335Y1609971D01*
X4627191Y1605399D01*
X4609157Y1605399D01*
X4600013Y1609971D01*
X4590869Y1619115D01*
X4586297Y1628259D01*
X4581725Y1641721D01*
X4581725Y1664581D01*
X4586297Y1678297D01*
X4590869Y1687187D01*
X4600013Y1696331D01*
X4609157Y1700903D01*
X4627191Y1700903D01*
X4613729Y1623687D02*
G01*
X4586297Y1596255D01*
X5262699Y1830951D02*
G01*
X5271843Y1826379D01*
X5280987Y1817235D01*
X5285559Y1808091D01*
X5289877Y1794629D01*
X5289877Y1771769D01*
X5285559Y1758053D01*
X5280987Y1749163D01*
X5271843Y1740019D01*
X5262699Y1735447D01*
X5244411Y1735447D01*
X5235521Y1740019D01*
X5226377Y1749163D01*
X5221805Y1758053D01*
X5217233Y1771769D01*
X5217233Y1794629D01*
X5221805Y1808091D01*
X5226377Y1817235D01*
X5235521Y1826379D01*
X5244411Y1830951D01*
X5262699Y1830951D01*
X5187261Y1799201D02*
G01*
X5187261Y1753735D01*
X5182689Y1740019D01*
X5173545Y1735447D01*
X5160083Y1735447D01*
X5150939Y1740019D01*
X5137223Y1753735D01*
X5137223Y1799201D02*
G01*
X5137223Y1735447D01*
X5052641Y1785485D02*
G01*
X5061785Y1794629D01*
X5070929Y1799201D01*
X5084645Y1799201D01*
X5093535Y1794629D01*
X5102679Y1785485D01*
X5107251Y1771769D01*
X5107251Y1762625D01*
X5102679Y1749163D01*
X5093535Y1740019D01*
X5084645Y1735447D01*
X5070929Y1735447D01*
X5061785Y1740019D01*
X5052641Y1749163D01*
X5022669Y1830951D02*
G01*
X5022669Y1735447D01*
X5022669Y1780913D02*
G01*
X5009207Y1794629D01*
X5000063Y1799201D01*
X4986347Y1799201D01*
X4977203Y1794629D01*
X4972631Y1780913D01*
X4972631Y1735447D01*
X4942659Y1830951D02*
G01*
X4938087Y1826379D01*
X4933515Y1830951D01*
X4938087Y1835523D01*
X4942659Y1830951D01*
X4938087Y1799201D02*
G01*
X4938087Y1735447D01*
X4871793Y1830951D02*
G01*
X4871793Y1735447D01*
X4903543Y1830951D02*
G01*
X4840043Y1830951D01*
X4755461Y1799201D02*
G01*
X4755461Y1735447D01*
X4755461Y1785485D02*
G01*
X4764605Y1794629D01*
X4773749Y1799201D01*
X4787211Y1799201D01*
X4796355Y1794629D01*
X4805499Y1785485D01*
X4810071Y1771769D01*
X4810071Y1762625D01*
X4805499Y1749163D01*
X4796355Y1740019D01*
X4787211Y1735447D01*
X4773749Y1735447D01*
X4764605Y1740019D01*
X4755461Y1749163D01*
X4725489Y1830951D02*
G01*
X4720917Y1826379D01*
X4716345Y1830951D01*
X4720917Y1835523D01*
X4725489Y1830951D01*
X4720917Y1799201D02*
G01*
X4720917Y1735447D01*
X4686373Y1830951D02*
G01*
X4686373Y1735447D01*
X4640907Y1799201D02*
G01*
X4686373Y1753735D01*
X4668085Y1771769D02*
G01*
X4636335Y1735447D01*
X4583503Y1799201D02*
G01*
X4592647Y1794629D01*
X4601791Y1785485D01*
X4606363Y1771769D01*
X4606363Y1762625D01*
X4601791Y1749163D01*
X4592647Y1740019D01*
X4583503Y1735447D01*
X4570041Y1735447D01*
X4560897Y1740019D01*
X4551753Y1749163D01*
X4547181Y1762625D01*
X4547181Y1771769D01*
X4551753Y1785485D01*
X4560897Y1794629D01*
X4570041Y1799201D01*
X4583503Y1799201D01*
X4447359Y1830951D02*
G01*
X4447359Y1735447D01*
X4447359Y1830951D02*
G01*
X4406465Y1830951D01*
X4392749Y1826379D01*
X4388177Y1821807D01*
X4383605Y1812663D01*
X4383605Y1799201D01*
X4388177Y1790057D01*
X4392749Y1785485D01*
X4406465Y1780913D01*
X4447359Y1780913D01*
X4353633Y1799201D02*
G01*
X4353633Y1735447D01*
X4353633Y1771769D02*
G01*
X4349061Y1785485D01*
X4339917Y1794629D01*
X4330773Y1799201D01*
X4317311Y1799201D01*
X4264479Y1799201D02*
G01*
X4273623Y1794629D01*
X4282767Y1785485D01*
X4287339Y1771769D01*
X4287339Y1762625D01*
X4282767Y1749163D01*
X4273623Y1740019D01*
X4264479Y1735447D01*
X4251017Y1735447D01*
X4241873Y1740019D01*
X4232729Y1749163D01*
X4228157Y1762625D01*
X4228157Y1771769D01*
X4232729Y1785485D01*
X4241873Y1794629D01*
X4251017Y1799201D01*
X4264479Y1799201D01*
X4179897Y1830951D02*
G01*
X4175325Y1826379D01*
X4171007Y1830951D01*
X4175325Y1835523D01*
X4179897Y1830951D01*
X4175325Y1799201D02*
G01*
X4175325Y1721731D01*
X4179897Y1708269D01*
X4189041Y1703697D01*
X4198185Y1703697D01*
X4140781Y1771769D02*
G01*
X4086425Y1771769D01*
X4086425Y1780913D01*
X4090997Y1790057D01*
X4095569Y1794629D01*
X4104459Y1799201D01*
X4118175Y1799201D01*
X4127319Y1794629D01*
X4136463Y1785485D01*
X4140781Y1771769D01*
X4140781Y1762625D01*
X4136463Y1749163D01*
X4127319Y1740019D01*
X4118175Y1735447D01*
X4104459Y1735447D01*
X4095569Y1740019D01*
X4086425Y1749163D01*
X4001843Y1785485D02*
G01*
X4010987Y1794629D01*
X4019877Y1799201D01*
X4033593Y1799201D01*
X4042737Y1794629D01*
X4051881Y1785485D01*
X4056453Y1771769D01*
X4056453Y1762625D01*
X4051881Y1749163D01*
X4042737Y1740019D01*
X4033593Y1735447D01*
X4019877Y1735447D01*
X4010987Y1740019D01*
X4001843Y1749163D01*
X3958155Y1830951D02*
G01*
X3958155Y1753735D01*
X3953583Y1740019D01*
X3944439Y1735447D01*
X3935549Y1735447D01*
X3971871Y1799201D02*
G01*
X3939867Y1799201D01*
D12*
X6087275Y1153233D02*
G01*
X6015106Y1330002D01*
X6133660Y1166479D02*
G01*
X6094481Y1150238D01*
X6225077Y1107617D02*
G01*
X6138854Y1165946D01*
X6305717Y1181943D02*
G01*
X6232060Y1108275D01*
X6248046Y1275128D02*
G01*
X6306375Y1188915D01*
X6282984Y1365928D02*
G01*
X6247513Y1280312D01*
X6389235Y1388950D02*
G01*
X6287013Y1369220D01*
X6393688Y1498533D02*
G01*
X6393688Y1394345D01*
X6287013Y1523667D02*
G01*
X6389235Y1503928D01*
X6247513Y1612567D02*
G01*
X6282984Y1526951D01*
X6306375Y1703964D02*
G01*
X6248046Y1617756D01*
X6232060Y1784604D02*
G01*
X6305717Y1710941D01*
X6138854Y1726933D02*
G01*
X6225077Y1785269D01*
X6048044Y1761878D02*
G01*
X6133660Y1726407D01*
X6025052Y1868116D02*
G01*
X6044747Y1765922D01*
X5915451Y1872594D02*
G01*
X6019645Y1872594D01*
X5890326Y1765922D02*
G01*
X5910044Y1868116D01*
X5801426Y1726407D02*
G01*
X5887051Y1761878D01*
X5710019Y1785269D02*
G01*
X5796241Y1726933D01*
X5629379Y1710941D02*
G01*
X5703036Y1784604D01*
X5687039Y1617756D02*
G01*
X5628711Y1703964D01*
X5652101Y1526951D02*
G01*
X5687573Y1612567D01*
X5545851Y1503928D02*
G01*
X5648070Y1523667D01*
X5541398Y1394345D02*
G01*
X5541398Y1498533D01*
X5648070Y1369220D02*
G01*
X5545851Y1388950D01*
X5687573Y1280312D02*
G01*
X5652101Y1365928D01*
X5628711Y1188915D02*
G01*
X5687039Y1275128D01*
X5703036Y1108275D02*
G01*
X5629379Y1181943D01*
X5796241Y1165946D02*
G01*
X5710019Y1107617D01*
X5840628Y1150238D02*
G01*
X5801426Y1166479D01*
X5919990Y1330002D02*
G01*
X5847821Y1153233D01*
G75*
G01*
X6090244Y1150234D02*
G02*
X6087270Y1153234I2121J5077D01*
G75*
G01*
X6015093Y1330002D02*
G02*
X6017885Y1337079I5094J2080D01*
G75*
G01*
X6094468Y1150229D02*
G02*
X6090244Y1150234I-2106J5082D01*
G75*
G01*
X6138860Y1165941D02*
G03*
X6133671Y1166470I-3085J-4555D01*
G75*
G01*
X6232050Y1108278D02*
G02*
X6225078Y1107610I-3891J3890D01*
G75*
G01*
X6306383Y1188913D02*
G02*
X6305713Y1181943I-4556J-3079D01*
G75*
G01*
X6247524Y1280320D02*
G03*
X6248052Y1275133I5084J-2102D01*
G75*
G01*
X6287028Y1369230D02*
G03*
X6282987Y1365936I1041J-5402D01*
G75*
G01*
X6393698Y1394353D02*
G02*
X6389238Y1388951I-5501J0D01*
G75*
G01*
X6389238Y1503931D02*
G02*
X6393698Y1498529I-1041J-5402D01*
G75*
G01*
X6282987Y1526946D02*
G03*
X6287028Y1523652I5082J2108D01*
G75*
G01*
X6248052Y1617749D02*
G03*
X6247524Y1612562I4556J-3084D01*
G75*
G01*
X6305713Y1710941D02*
G02*
X6306383Y1703967I-3888J-3893D01*
G75*
G01*
X6225078Y1785272D02*
G02*
X6232050Y1784604I3081J-4558D01*
G75*
G01*
X6133671Y1726415D02*
G03*
X6138860Y1726941I2106J5083D01*
G75*
G01*
X6044758Y1765917D02*
G03*
X6048058Y1761876I5402J1043D01*
G75*
G01*
X6019640Y1872587D02*
G02*
X6025040Y1868129I-2J-5502D01*
G75*
G01*
X5910059Y1868129D02*
G02*
X5915462Y1872587I5402J-1044D01*
G75*
G01*
X5887044Y1761876D02*
G03*
X5890339Y1765917I-2105J5080D01*
G75*
G01*
X5796242Y1726941D02*
G03*
X5801431Y1726415I3083J4557D01*
G75*
G01*
X5703052Y1784604D02*
G02*
X5710024Y1785272I3891J-3890D01*
G75*
G01*
X5628719Y1703967D02*
G02*
X5629387Y1710941I4556J3083D01*
G75*
G01*
X5687576Y1612562D02*
G03*
X5687050Y1617749I-5084J2105D01*
G75*
G01*
X5648074Y1523652D02*
G03*
X5652115Y1526946I-1041J5402D01*
G75*
G01*
X5541401Y1498529D02*
G02*
X5545861Y1503931I5502J0D01*
G75*
G01*
X5545861Y1388951D02*
G02*
X5541401Y1394353I1042J5402D01*
G75*
G01*
X5652115Y1365936D02*
G03*
X5648074Y1369230I-5082J-2108D01*
G75*
G01*
X5687050Y1275133D02*
G03*
X5687576Y1280320I-4555J3082D01*
G75*
G01*
X5629387Y1181943D02*
G02*
X5628719Y1188913I3887J3890D01*
G75*
G01*
X5710024Y1107610D02*
G02*
X5703052Y1108278I-3081J4558D01*
G75*
G01*
X5801431Y1166470D02*
G03*
X5796242Y1165941I-2104J-5084D01*
G75*
G01*
X5844858Y1150234D02*
G02*
X5840633Y1150229I-2119J5077D01*
G75*
G01*
X5847832Y1153234D02*
G02*
X5844858Y1150234I-5095J2077D01*
G75*
G01*
X5917214Y1337079D02*
G02*
X5920006Y1330002I-2302J-4997D01*
G75*
G01*
X5849950Y1472207D02*
G03*
X5917214Y1337079I117602J-25766D01*
G75*
G01*
X5967550Y1566832D02*
G03*
X5849950Y1472207I2J-120391D01*
G75*
G01*
X6085152Y1472207D02*
G03*
X5967550Y1566832I-117602J-25766D01*
G75*
G01*
X6017885Y1337079D02*
G03*
X6085152Y1472207I-50335J109363D01*
M02*
