G04 Layer: TopSilkscreenLayer*
G04 EasyEDA v6.5.54, 2026-03-27 08:28:27*
G04 aa70f002849a4553b1fb356c613fbdd1,527f212168e84142b7e3dec4b37e9156,10*
G04 Gerber Generator version 0.2*
G04 Scale: 100 percent, Rotated: No, Reflected: No *
G04 Dimensions in millimeters *
G04 leading zeros omitted , absolute positions ,4 integer and 5 decimal *
%FSLAX45Y45*%
%MOMM*%

%ADD10C,0.0800*%
%ADD11C,0.0700*%
%ADD12C,0.3048*%
%ADD13C,0.2000*%
%ADD14C,0.1000*%
%ADD15C,0.2540*%
%ADD16C,0.0700*%
%ADD17C,0.0110*%

%LPD*%
D10*
X1732490Y3945458D02*
G01*
X1739856Y3949014D01*
X1746968Y3956380D01*
X1750778Y3963746D01*
X1750778Y3978224D01*
X1746968Y3985336D01*
X1739856Y3992702D01*
X1732490Y3996258D01*
X1721568Y4000068D01*
X1703534Y4000068D01*
X1692612Y3996258D01*
X1685246Y3992702D01*
X1677880Y3985336D01*
X1674324Y3978224D01*
X1674324Y3963746D01*
X1677880Y3956380D01*
X1685246Y3949014D01*
X1692612Y3945458D01*
X1736046Y3921582D02*
G01*
X1739856Y3914216D01*
X1750778Y3903294D01*
X1674324Y3903294D01*
X1750776Y3650040D02*
G01*
X1674322Y3650040D01*
X1750776Y3650040D02*
G01*
X1750776Y3624640D01*
X1746966Y3613718D01*
X1739854Y3606352D01*
X1732488Y3602796D01*
X1721566Y3598986D01*
X1703532Y3598986D01*
X1692610Y3602796D01*
X1685244Y3606352D01*
X1677878Y3613718D01*
X1674322Y3624640D01*
X1674322Y3650040D01*
X1736044Y3575110D02*
G01*
X1739854Y3567744D01*
X1750776Y3556822D01*
X1674322Y3556822D01*
D11*
X2049929Y2400554D02*
G01*
X2049929Y2352802D01*
X2053231Y2343404D01*
X2059581Y2337054D01*
X2068979Y2333752D01*
X2075329Y2333752D01*
X2084981Y2337054D01*
X2091331Y2343404D01*
X2094633Y2352802D01*
X2094633Y2400554D01*
X2115461Y2400554D02*
G01*
X2115461Y2333752D01*
X2115461Y2400554D02*
G01*
X2144163Y2400554D01*
X2153815Y2397505D01*
X2156863Y2394204D01*
X2160165Y2387854D01*
X2160165Y2378455D01*
X2156863Y2372105D01*
X2153815Y2368804D01*
X2144163Y2365755D01*
X2115461Y2365755D01*
X1959930Y1500631D02*
G01*
X1959930Y1433829D01*
X1959930Y1500631D02*
G01*
X1982282Y1500631D01*
X1991934Y1497329D01*
X1998284Y1490979D01*
X2001332Y1484629D01*
X2004634Y1475231D01*
X2004634Y1459229D01*
X2001332Y1449831D01*
X1998284Y1443481D01*
X1991934Y1436878D01*
X1982282Y1433829D01*
X1959930Y1433829D01*
X2044512Y1500631D02*
G01*
X2038162Y1497329D01*
X2031812Y1490979D01*
X2028764Y1484629D01*
X2025462Y1475231D01*
X2025462Y1459229D01*
X2028764Y1449831D01*
X2031812Y1443481D01*
X2038162Y1436878D01*
X2044512Y1433829D01*
X2057466Y1433829D01*
X2063816Y1436878D01*
X2070166Y1443481D01*
X2073214Y1449831D01*
X2076516Y1459229D01*
X2076516Y1475231D01*
X2073214Y1484629D01*
X2070166Y1490979D01*
X2063816Y1497329D01*
X2057466Y1500631D01*
X2044512Y1500631D01*
X2097344Y1500631D02*
G01*
X2113346Y1433829D01*
X2129348Y1500631D02*
G01*
X2113346Y1433829D01*
X2129348Y1500631D02*
G01*
X2145096Y1433829D01*
X2161098Y1500631D02*
G01*
X2145096Y1433829D01*
X2182180Y1500631D02*
G01*
X2182180Y1433829D01*
X2182180Y1500631D02*
G01*
X2226630Y1433829D01*
X2226630Y1500631D02*
G01*
X2226630Y1433829D01*
X2770030Y2000757D02*
G01*
X2770030Y1933702D01*
X2770030Y2000757D02*
G01*
X2798732Y2000757D01*
X2808130Y1997455D01*
X2811432Y1994154D01*
X2814480Y1987804D01*
X2814480Y1981454D01*
X2811432Y1975104D01*
X2808130Y1972055D01*
X2798732Y1968754D01*
X2770030Y1968754D01*
X2792382Y1968754D02*
G01*
X2814480Y1933702D01*
X2835562Y2000757D02*
G01*
X2835562Y1933702D01*
X2904142Y1984755D02*
G01*
X2901094Y1991105D01*
X2894744Y1997455D01*
X2888394Y2000757D01*
X2875694Y2000757D01*
X2869344Y1997455D01*
X2862994Y1991105D01*
X2859692Y1984755D01*
X2856644Y1975104D01*
X2856644Y1959355D01*
X2859692Y1949704D01*
X2862994Y1943354D01*
X2869344Y1937004D01*
X2875694Y1933702D01*
X2888394Y1933702D01*
X2894744Y1937004D01*
X2901094Y1943354D01*
X2904142Y1949704D01*
X2904142Y1959355D01*
X2888394Y1959355D02*
G01*
X2904142Y1959355D01*
X2925224Y2000757D02*
G01*
X2925224Y1933702D01*
X2969928Y2000757D02*
G01*
X2969928Y1933702D01*
X2925224Y1968754D02*
G01*
X2969928Y1968754D01*
X3013108Y2000757D02*
G01*
X3013108Y1933702D01*
X2990756Y2000757D02*
G01*
X3035460Y2000757D01*
X1190083Y2000757D02*
G01*
X1190083Y1933702D01*
X1190083Y1933702D02*
G01*
X1228183Y1933702D01*
X1249265Y2000757D02*
G01*
X1249265Y1933702D01*
X1249265Y2000757D02*
G01*
X1290667Y2000757D01*
X1249265Y1968754D02*
G01*
X1274665Y1968754D01*
X1249265Y1933702D02*
G01*
X1290667Y1933702D01*
X1311495Y2000757D02*
G01*
X1311495Y1933702D01*
X1311495Y2000757D02*
G01*
X1352897Y2000757D01*
X1311495Y1968754D02*
G01*
X1336895Y1968754D01*
X1396077Y2000757D02*
G01*
X1396077Y1933702D01*
X1373979Y2000757D02*
G01*
X1418429Y2000757D01*
X8705519Y2000757D02*
G01*
X8679865Y1933702D01*
X8705519Y2000757D02*
G01*
X8730919Y1933702D01*
X8689517Y1956054D02*
G01*
X8721267Y1956054D01*
X7880019Y1500631D02*
G01*
X7880019Y1433829D01*
X7880019Y1500631D02*
G01*
X7908721Y1500631D01*
X7918119Y1497329D01*
X7921421Y1494281D01*
X7924469Y1487931D01*
X7924469Y1481581D01*
X7921421Y1475231D01*
X7918119Y1471929D01*
X7908721Y1468881D01*
X7880019Y1468881D02*
G01*
X7908721Y1468881D01*
X7918119Y1465579D01*
X7921421Y1462531D01*
X7924469Y1456181D01*
X7924469Y1446529D01*
X7921421Y1440179D01*
X7918119Y1436878D01*
X7908721Y1433829D01*
X7880019Y1433829D01*
X7880019Y2400554D02*
G01*
X7924469Y2333752D01*
X7924469Y2400554D02*
G01*
X7880019Y2333752D01*
X7079919Y2000757D02*
G01*
X7105319Y1968754D01*
X7105319Y1933702D01*
X7130973Y2000757D02*
G01*
X7105319Y1968754D01*
X8279866Y3400552D02*
G01*
X8279866Y3333750D01*
X8279866Y3400552D02*
G01*
X8308568Y3400552D01*
X8318220Y3397504D01*
X8321268Y3394202D01*
X8324570Y3387852D01*
X8324570Y3381502D01*
X8321268Y3375152D01*
X8318220Y3372104D01*
X8308568Y3368802D01*
X8279866Y3368802D01*
X8302218Y3368802D02*
G01*
X8324570Y3333750D01*
X780064Y3210554D02*
G01*
X780064Y3143752D01*
X780064Y3143752D02*
G01*
X818164Y3143752D01*
X3498679Y3991102D02*
G01*
X3498679Y3933697D01*
X3469977Y3962400D02*
G01*
X3527381Y3962400D01*
X6469971Y3962400D02*
G01*
X6527375Y3962400D01*
D10*
X1750644Y3099909D02*
G01*
X1674444Y3099909D01*
X1750644Y3099909D02*
G01*
X1750644Y3067397D01*
X1747088Y3056475D01*
X1743532Y3052665D01*
X1736166Y3049109D01*
X1728800Y3049109D01*
X1721688Y3052665D01*
X1717878Y3056475D01*
X1714322Y3067397D01*
X1714322Y3099909D01*
X1714322Y3074509D02*
G01*
X1674444Y3049109D01*
X1736166Y3024979D02*
G01*
X1739722Y3017867D01*
X1750644Y3006945D01*
X1674444Y3006945D01*
X2832465Y3965508D02*
G01*
X2839831Y3969064D01*
X2847197Y3976430D01*
X2850753Y3983542D01*
X2850753Y3998274D01*
X2847197Y4005386D01*
X2839831Y4012752D01*
X2832465Y4016308D01*
X2821543Y4019864D01*
X2803509Y4019864D01*
X2792587Y4016308D01*
X2785221Y4012752D01*
X2778109Y4005386D01*
X2774299Y3998274D01*
X2774299Y3983542D01*
X2778109Y3976430D01*
X2785221Y3969064D01*
X2792587Y3965508D01*
X2832465Y3937822D02*
G01*
X2836275Y3937822D01*
X2843387Y3934266D01*
X2847197Y3930456D01*
X2850753Y3923344D01*
X2850753Y3908612D01*
X2847197Y3901500D01*
X2843387Y3897690D01*
X2836275Y3894134D01*
X2828909Y3894134D01*
X2821543Y3897690D01*
X2810621Y3905056D01*
X2774299Y3941378D01*
X2774299Y3890578D01*
X2850652Y3659865D02*
G01*
X2774452Y3659865D01*
X2850652Y3659865D02*
G01*
X2850652Y3634465D01*
X2847096Y3623543D01*
X2839730Y3616431D01*
X2832618Y3612621D01*
X2821696Y3609065D01*
X2803408Y3609065D01*
X2792486Y3612621D01*
X2785374Y3616431D01*
X2778008Y3623543D01*
X2774452Y3634465D01*
X2774452Y3659865D01*
X2832618Y3581379D02*
G01*
X2836174Y3581379D01*
X2843540Y3577823D01*
X2847096Y3574267D01*
X2850652Y3566901D01*
X2850652Y3552423D01*
X2847096Y3545057D01*
X2843540Y3541501D01*
X2836174Y3537691D01*
X2828808Y3537691D01*
X2821696Y3541501D01*
X2810774Y3548613D01*
X2774452Y3585189D01*
X2774452Y3534135D01*
X2850829Y3109866D02*
G01*
X2774375Y3109866D01*
X2850829Y3109866D02*
G01*
X2850829Y3077354D01*
X2847019Y3066432D01*
X2843463Y3062622D01*
X2836097Y3059066D01*
X2828985Y3059066D01*
X2821619Y3062622D01*
X2818063Y3066432D01*
X2814253Y3077354D01*
X2814253Y3109866D01*
X2814253Y3084466D02*
G01*
X2774375Y3059066D01*
X2832541Y3031380D02*
G01*
X2836097Y3031380D01*
X2843463Y3027824D01*
X2847019Y3024268D01*
X2850829Y3016902D01*
X2850829Y3002424D01*
X2847019Y2995058D01*
X2843463Y2991502D01*
X2836097Y2987692D01*
X2828985Y2987692D01*
X2821619Y2991502D01*
X2810697Y2998614D01*
X2774375Y3035190D01*
X2774375Y2984136D01*
X9132455Y3945547D02*
G01*
X9139821Y3949103D01*
X9147187Y3956469D01*
X9150743Y3963581D01*
X9150743Y3978313D01*
X9147187Y3985425D01*
X9139821Y3992791D01*
X9132455Y3996347D01*
X9121533Y3999903D01*
X9103499Y3999903D01*
X9092577Y3996347D01*
X9085211Y3992791D01*
X9078099Y3985425D01*
X9074289Y3978313D01*
X9074289Y3963581D01*
X9078099Y3956469D01*
X9085211Y3949103D01*
X9092577Y3945547D01*
X9150743Y3885095D02*
G01*
X9099689Y3921417D01*
X9099689Y3866807D01*
X9150743Y3885095D02*
G01*
X9074289Y3885095D01*
X9150642Y3659898D02*
G01*
X9074442Y3659898D01*
X9150642Y3659898D02*
G01*
X9150642Y3634498D01*
X9147086Y3623576D01*
X9139720Y3616464D01*
X9132608Y3612654D01*
X9121686Y3609098D01*
X9103398Y3609098D01*
X9092476Y3612654D01*
X9085364Y3616464D01*
X9077998Y3623576D01*
X9074442Y3634498D01*
X9074442Y3659898D01*
X9150642Y3548646D02*
G01*
X9099842Y3584968D01*
X9099842Y3530612D01*
X9150642Y3548646D02*
G01*
X9074442Y3548646D01*
X8750820Y3099955D02*
G01*
X8674366Y3099955D01*
X8750820Y3099955D02*
G01*
X8750820Y3067189D01*
X8747010Y3056267D01*
X8743454Y3052711D01*
X8736088Y3049155D01*
X8728976Y3049155D01*
X8721610Y3052711D01*
X8718054Y3056267D01*
X8714244Y3067189D01*
X8714244Y3099955D01*
X8714244Y3074555D02*
G01*
X8674366Y3049155D01*
X8750820Y2988703D02*
G01*
X8699766Y3025025D01*
X8699766Y2970669D01*
X8750820Y2988703D02*
G01*
X8674366Y2988703D01*
X8050822Y3099981D02*
G01*
X7974368Y3099981D01*
X8050822Y3099981D02*
G01*
X8050822Y3067215D01*
X8047012Y3056293D01*
X8043456Y3052737D01*
X8036090Y3049181D01*
X8028978Y3049181D01*
X8021612Y3052737D01*
X8018056Y3056293D01*
X8014246Y3067215D01*
X8014246Y3099981D01*
X8014246Y3074581D02*
G01*
X7974368Y3049181D01*
X8050822Y3017939D02*
G01*
X8050822Y2977807D01*
X8021612Y2999651D01*
X8021612Y2988729D01*
X8018056Y2981363D01*
X8014246Y2977807D01*
X8003324Y2974251D01*
X7996212Y2974251D01*
X7985290Y2977807D01*
X7977924Y2985173D01*
X7974368Y2996095D01*
X7974368Y3007017D01*
X7977924Y3017939D01*
X7981734Y3021495D01*
X7988846Y3025051D01*
X8050745Y3649967D02*
G01*
X7974291Y3649967D01*
X8050745Y3649967D02*
G01*
X8050745Y3624567D01*
X8047189Y3613645D01*
X8039823Y3606279D01*
X8032457Y3602723D01*
X8021535Y3599167D01*
X8003501Y3599167D01*
X7992579Y3602723D01*
X7985213Y3606279D01*
X7978101Y3613645D01*
X7974291Y3624567D01*
X7974291Y3649967D01*
X8050745Y3567925D02*
G01*
X8050745Y3527793D01*
X8021535Y3549637D01*
X8021535Y3538715D01*
X8017979Y3531349D01*
X8014423Y3527793D01*
X8003501Y3524237D01*
X7996135Y3524237D01*
X7985213Y3527793D01*
X7978101Y3535159D01*
X7974291Y3546081D01*
X7974291Y3557003D01*
X7978101Y3567925D01*
X7981657Y3571481D01*
X7988769Y3575037D01*
X8032457Y3945369D02*
G01*
X8039823Y3949179D01*
X8047189Y3956291D01*
X8050745Y3963657D01*
X8050745Y3978135D01*
X8047189Y3985501D01*
X8039823Y3992613D01*
X8032457Y3996423D01*
X8021535Y3999979D01*
X8003501Y3999979D01*
X7992579Y3996423D01*
X7985213Y3992613D01*
X7978101Y3985501D01*
X7974291Y3978135D01*
X7974291Y3963657D01*
X7978101Y3956291D01*
X7985213Y3949179D01*
X7992579Y3945369D01*
X8050745Y3914127D02*
G01*
X8050745Y3874249D01*
X8021535Y3896093D01*
X8021535Y3885171D01*
X8017979Y3877805D01*
X8014423Y3874249D01*
X8003501Y3870439D01*
X7996135Y3870439D01*
X7985213Y3874249D01*
X7978101Y3881361D01*
X7974291Y3892283D01*
X7974291Y3903205D01*
X7978101Y3914127D01*
X7981657Y3917937D01*
X7988769Y3921493D01*
X9130703Y4841024D02*
G01*
X9054249Y4869980D01*
X9130703Y4841024D02*
G01*
X9054249Y4811814D01*
X9079903Y4859058D02*
G01*
X9079903Y4822736D01*
X9130703Y4787938D02*
G01*
X9054249Y4787938D01*
X9130703Y4787938D02*
G01*
X9130703Y4762284D01*
X9127147Y4751362D01*
X9119781Y4744250D01*
X9112415Y4740440D01*
X9101747Y4736884D01*
X9083459Y4736884D01*
X9072537Y4740440D01*
X9065171Y4744250D01*
X9058059Y4751362D01*
X9054249Y4762284D01*
X9054249Y4787938D01*
X9112415Y4658398D02*
G01*
X9119781Y4661954D01*
X9127147Y4669320D01*
X9130703Y4676432D01*
X9130703Y4691164D01*
X9127147Y4698276D01*
X9119781Y4705642D01*
X9112415Y4709198D01*
X9101747Y4713008D01*
X9083459Y4713008D01*
X9072537Y4709198D01*
X9065171Y4705642D01*
X9058059Y4698276D01*
X9054249Y4691164D01*
X9054249Y4676432D01*
X9058059Y4669320D01*
X9065171Y4661954D01*
X9072537Y4658398D01*
X9130703Y4627156D02*
G01*
X9130703Y4587024D01*
X9101747Y4608868D01*
X9101747Y4597946D01*
X9097937Y4590834D01*
X9094381Y4587024D01*
X9083459Y4583468D01*
X9076093Y4583468D01*
X9065171Y4587024D01*
X9058059Y4594390D01*
X9054249Y4605312D01*
X9054249Y4616234D01*
X9058059Y4627156D01*
X9061615Y4630712D01*
X9068981Y4634268D01*
X8030705Y4840846D02*
G01*
X7954251Y4870056D01*
X8030705Y4840846D02*
G01*
X7954251Y4811890D01*
X7979905Y4859134D02*
G01*
X7979905Y4822812D01*
X8030705Y4787760D02*
G01*
X7954251Y4787760D01*
X8030705Y4787760D02*
G01*
X8030705Y4762360D01*
X8027149Y4751438D01*
X8019783Y4744072D01*
X8012417Y4740516D01*
X8001749Y4736960D01*
X7983461Y4736960D01*
X7972539Y4740516D01*
X7965173Y4744072D01*
X7958061Y4751438D01*
X7954251Y4762360D01*
X7954251Y4787760D01*
X8012417Y4658474D02*
G01*
X8019783Y4662030D01*
X8027149Y4669396D01*
X8030705Y4676508D01*
X8030705Y4690986D01*
X8027149Y4698352D01*
X8019783Y4705718D01*
X8012417Y4709274D01*
X8001749Y4712830D01*
X7983461Y4712830D01*
X7972539Y4709274D01*
X7965173Y4705718D01*
X7958061Y4698352D01*
X7954251Y4690986D01*
X7954251Y4676508D01*
X7958061Y4669396D01*
X7965173Y4662030D01*
X7972539Y4658474D01*
X8012417Y4630788D02*
G01*
X8016227Y4630788D01*
X8023339Y4626978D01*
X8027149Y4623422D01*
X8030705Y4616310D01*
X8030705Y4601578D01*
X8027149Y4594466D01*
X8023339Y4590656D01*
X8016227Y4587100D01*
X8008861Y4587100D01*
X8001749Y4590656D01*
X7990827Y4598022D01*
X7954251Y4634344D01*
X7954251Y4583544D01*
X2830728Y4840986D02*
G01*
X2754274Y4869942D01*
X2830728Y4840986D02*
G01*
X2754274Y4811776D01*
X2779928Y4859020D02*
G01*
X2779928Y4822697D01*
X2830728Y4787900D02*
G01*
X2754274Y4787900D01*
X2830728Y4787900D02*
G01*
X2830728Y4762245D01*
X2827172Y4751323D01*
X2819806Y4744212D01*
X2812440Y4740655D01*
X2801518Y4736845D01*
X2783484Y4736845D01*
X2772562Y4740655D01*
X2765196Y4744212D01*
X2758084Y4751323D01*
X2754274Y4762245D01*
X2754274Y4787900D01*
X2812440Y4658360D02*
G01*
X2819806Y4661915D01*
X2827172Y4669281D01*
X2830728Y4676647D01*
X2830728Y4691126D01*
X2827172Y4698237D01*
X2819806Y4705604D01*
X2812440Y4709160D01*
X2801518Y4712970D01*
X2783484Y4712970D01*
X2772562Y4709160D01*
X2765196Y4705604D01*
X2758084Y4698237D01*
X2754274Y4691126D01*
X2754274Y4676647D01*
X2758084Y4669281D01*
X2765196Y4661915D01*
X2772562Y4658360D01*
X2816250Y4634229D02*
G01*
X2819806Y4627118D01*
X2830728Y4616195D01*
X2754274Y4616195D01*
X1730814Y4840805D02*
G01*
X1654360Y4870015D01*
X1730814Y4840805D02*
G01*
X1654360Y4811849D01*
X1679760Y4859093D02*
G01*
X1679760Y4822771D01*
X1730814Y4787719D02*
G01*
X1654360Y4787719D01*
X1730814Y4787719D02*
G01*
X1730814Y4762319D01*
X1727004Y4751397D01*
X1719892Y4744285D01*
X1712526Y4740475D01*
X1701604Y4736919D01*
X1683570Y4736919D01*
X1672648Y4740475D01*
X1665282Y4744285D01*
X1657916Y4751397D01*
X1654360Y4762319D01*
X1654360Y4787719D01*
X1712526Y4658433D02*
G01*
X1719892Y4661989D01*
X1727004Y4669355D01*
X1730814Y4676467D01*
X1730814Y4691199D01*
X1727004Y4698311D01*
X1719892Y4705677D01*
X1712526Y4709233D01*
X1701604Y4712789D01*
X1683570Y4712789D01*
X1672648Y4709233D01*
X1665282Y4705677D01*
X1657916Y4698311D01*
X1654360Y4691199D01*
X1654360Y4676467D01*
X1657916Y4669355D01*
X1665282Y4661989D01*
X1672648Y4658433D01*
X1730814Y4612459D02*
G01*
X1727004Y4623381D01*
X1716082Y4630747D01*
X1698048Y4634303D01*
X1687126Y4634303D01*
X1668838Y4630747D01*
X1657916Y4623381D01*
X1654360Y4612459D01*
X1654360Y4605347D01*
X1657916Y4594425D01*
X1668838Y4587059D01*
X1687126Y4583503D01*
X1698048Y4583503D01*
X1716082Y4587059D01*
X1727004Y4594425D01*
X1730814Y4605347D01*
X1730814Y4612459D01*
X5619988Y3006933D02*
G01*
X5619988Y2930479D01*
X5619988Y3006933D02*
G01*
X5652754Y3006933D01*
X5663676Y3003123D01*
X5667232Y2999567D01*
X5670788Y2992201D01*
X5670788Y2985089D01*
X5667232Y2977723D01*
X5663676Y2974167D01*
X5652754Y2970357D01*
X5619988Y2970357D01*
X5645388Y2970357D02*
G01*
X5670788Y2930479D01*
X5694918Y3006933D02*
G01*
X5694918Y2930479D01*
X5694918Y3006933D02*
G01*
X5727684Y3006933D01*
X5738606Y3003123D01*
X5742162Y2999567D01*
X5745718Y2992201D01*
X5745718Y2981279D01*
X5742162Y2974167D01*
X5738606Y2970357D01*
X5727684Y2966801D01*
X5694918Y2966801D01*
X5773404Y2988645D02*
G01*
X5773404Y2992201D01*
X5776960Y2999567D01*
X5780770Y3003123D01*
X5787882Y3006933D01*
X5802614Y3006933D01*
X5809726Y3003123D01*
X5813536Y2999567D01*
X5817092Y2992201D01*
X5817092Y2985089D01*
X5813536Y2977723D01*
X5806170Y2966801D01*
X5769848Y2930479D01*
X5820648Y2930479D01*
X5866622Y3006933D02*
G01*
X5855700Y3003123D01*
X5848334Y2992201D01*
X5844778Y2974167D01*
X5844778Y2963245D01*
X5848334Y2944957D01*
X5855700Y2934035D01*
X5866622Y2930479D01*
X5873734Y2930479D01*
X5884656Y2934035D01*
X5892022Y2944957D01*
X5895578Y2963245D01*
X5895578Y2974167D01*
X5892022Y2992201D01*
X5884656Y3003123D01*
X5873734Y3006933D01*
X5866622Y3006933D01*
X5956030Y3006933D02*
G01*
X5919708Y2955879D01*
X5974064Y2955879D01*
X5956030Y3006933D02*
G01*
X5956030Y2930479D01*
X6020038Y3006933D02*
G01*
X6009116Y3003123D01*
X6001750Y2992201D01*
X5998194Y2974167D01*
X5998194Y2963245D01*
X6001750Y2944957D01*
X6009116Y2934035D01*
X6020038Y2930479D01*
X6027150Y2930479D01*
X6038072Y2934035D01*
X6045438Y2944957D01*
X6048994Y2963245D01*
X6048994Y2974167D01*
X6045438Y2992201D01*
X6038072Y3003123D01*
X6027150Y3006933D01*
X6020038Y3006933D01*
X6073124Y2905079D02*
G01*
X6138402Y2905079D01*
X6213332Y3006933D02*
G01*
X6162532Y2930479D01*
X6162532Y3006933D02*
G01*
X6213332Y3006933D01*
X6162532Y2930479D02*
G01*
X6213332Y2930479D01*
X6237462Y3006933D02*
G01*
X6237462Y2930479D01*
X6237462Y3006933D02*
G01*
X6284706Y3006933D01*
X6237462Y2970357D02*
G01*
X6266418Y2970357D01*
X6237462Y2930479D02*
G01*
X6284706Y2930479D01*
X6308582Y3006933D02*
G01*
X6308582Y2930479D01*
X6308582Y3006933D02*
G01*
X6341348Y3006933D01*
X6352270Y3003123D01*
X6356080Y2999567D01*
X6359636Y2992201D01*
X6359636Y2985089D01*
X6356080Y2977723D01*
X6352270Y2974167D01*
X6341348Y2970357D01*
X6308582Y2970357D01*
X6334236Y2970357D02*
G01*
X6359636Y2930479D01*
X6405356Y3006933D02*
G01*
X6398244Y3003123D01*
X6390878Y2996011D01*
X6387322Y2988645D01*
X6383512Y2977723D01*
X6383512Y2959689D01*
X6387322Y2948767D01*
X6390878Y2941401D01*
X6398244Y2934035D01*
X6405356Y2930479D01*
X6420088Y2930479D01*
X6427200Y2934035D01*
X6434566Y2941401D01*
X6438122Y2948767D01*
X6441678Y2959689D01*
X6441678Y2977723D01*
X6438122Y2988645D01*
X6434566Y2996011D01*
X6427200Y3003123D01*
X6420088Y3006933D01*
X6405356Y3006933D01*
X3440938Y4449826D02*
G01*
X3433572Y4457192D01*
X3422650Y4460747D01*
X3408172Y4460747D01*
X3397250Y4457192D01*
X3389884Y4449826D01*
X3389884Y4442460D01*
X3393693Y4435347D01*
X3397250Y4431537D01*
X3404615Y4427981D01*
X3426459Y4420615D01*
X3433572Y4417060D01*
X3437381Y4413504D01*
X3440938Y4406137D01*
X3440938Y4395215D01*
X3433572Y4388104D01*
X3422650Y4384294D01*
X3408172Y4384294D01*
X3397250Y4388104D01*
X3389884Y4395215D01*
X3464813Y4460747D02*
G01*
X3483102Y4384294D01*
X3501136Y4460747D02*
G01*
X3483102Y4384294D01*
X3501136Y4460747D02*
G01*
X3519424Y4384294D01*
X3537711Y4460747D02*
G01*
X3519424Y4384294D01*
X3583431Y4460747D02*
G01*
X3572509Y4457192D01*
X3565143Y4446270D01*
X3561588Y4427981D01*
X3561588Y4417060D01*
X3565143Y4399026D01*
X3572509Y4388104D01*
X3583431Y4384294D01*
X3590797Y4384294D01*
X3601720Y4388104D01*
X3608831Y4399026D01*
X3612641Y4417060D01*
X3612641Y4427981D01*
X3608831Y4446270D01*
X3601720Y4457192D01*
X3590797Y4460747D01*
X3583431Y4460747D01*
X6460845Y4449815D02*
G01*
X6453733Y4457181D01*
X6442811Y4460737D01*
X6428079Y4460737D01*
X6417157Y4457181D01*
X6410045Y4449815D01*
X6410045Y4442449D01*
X6413601Y4435337D01*
X6417157Y4431527D01*
X6424523Y4427971D01*
X6446367Y4420605D01*
X6453733Y4417049D01*
X6457289Y4413493D01*
X6460845Y4406127D01*
X6460845Y4395205D01*
X6453733Y4388093D01*
X6442811Y4384283D01*
X6428079Y4384283D01*
X6417157Y4388093D01*
X6410045Y4395205D01*
X6484975Y4460737D02*
G01*
X6503009Y4384283D01*
X6521297Y4460737D02*
G01*
X6503009Y4384283D01*
X6521297Y4460737D02*
G01*
X6539331Y4384283D01*
X6557619Y4460737D02*
G01*
X6539331Y4384283D01*
X6581749Y4446259D02*
G01*
X6588861Y4449815D01*
X6599783Y4460737D01*
X6599783Y4384283D01*
X2840990Y1249934D02*
G01*
X2833624Y1257045D01*
X2822702Y1260855D01*
X2808224Y1260855D01*
X2797302Y1257045D01*
X2789936Y1249934D01*
X2789936Y1242568D01*
X2793745Y1235202D01*
X2797302Y1231645D01*
X2804413Y1228089D01*
X2826258Y1220723D01*
X2833624Y1217168D01*
X2837179Y1213357D01*
X2840990Y1206245D01*
X2840990Y1195323D01*
X2833624Y1187957D01*
X2822702Y1184402D01*
X2808224Y1184402D01*
X2797302Y1187957D01*
X2789936Y1195323D01*
X2864865Y1260855D02*
G01*
X2883154Y1184402D01*
X2901188Y1260855D02*
G01*
X2883154Y1184402D01*
X2901188Y1260855D02*
G01*
X2919475Y1184402D01*
X2937509Y1260855D02*
G01*
X2919475Y1184402D01*
X3008884Y1235202D02*
G01*
X3005327Y1224279D01*
X2997961Y1217168D01*
X2987040Y1213357D01*
X2983484Y1213357D01*
X2972561Y1217168D01*
X2965195Y1224279D01*
X2961640Y1235202D01*
X2961640Y1239012D01*
X2965195Y1249934D01*
X2972561Y1257045D01*
X2983484Y1260855D01*
X2987040Y1260855D01*
X2997961Y1257045D01*
X3005327Y1249934D01*
X3008884Y1235202D01*
X3008884Y1217168D01*
X3005327Y1198879D01*
X2997961Y1187957D01*
X2987040Y1184402D01*
X2979927Y1184402D01*
X2969006Y1187957D01*
X2965195Y1195323D01*
X7020887Y1249923D02*
G01*
X7013521Y1257035D01*
X7002599Y1260845D01*
X6988121Y1260845D01*
X6977199Y1257035D01*
X6970087Y1249923D01*
X6970087Y1242557D01*
X6973643Y1235191D01*
X6977199Y1231635D01*
X6984565Y1228079D01*
X7006409Y1220713D01*
X7013521Y1217157D01*
X7017331Y1213347D01*
X7020887Y1206235D01*
X7020887Y1195313D01*
X7013521Y1187947D01*
X7002599Y1184391D01*
X6988121Y1184391D01*
X6977199Y1187947D01*
X6970087Y1195313D01*
X7045017Y1260845D02*
G01*
X7063051Y1184391D01*
X7081339Y1260845D02*
G01*
X7063051Y1184391D01*
X7081339Y1260845D02*
G01*
X7099373Y1184391D01*
X7117661Y1260845D02*
G01*
X7099373Y1184391D01*
X7141537Y1246113D02*
G01*
X7148903Y1249923D01*
X7159825Y1260845D01*
X7159825Y1184391D01*
X7205545Y1260845D02*
G01*
X7194623Y1257035D01*
X7187511Y1246113D01*
X7183701Y1228079D01*
X7183701Y1217157D01*
X7187511Y1198869D01*
X7194623Y1187947D01*
X7205545Y1184391D01*
X7212911Y1184391D01*
X7223833Y1187947D01*
X7231199Y1198869D01*
X7234755Y1217157D01*
X7234755Y1228079D01*
X7231199Y1246113D01*
X7223833Y1257035D01*
X7212911Y1260845D01*
X7205545Y1260845D01*
X3440938Y3249929D02*
G01*
X3433572Y3257042D01*
X3422650Y3260852D01*
X3408172Y3260852D01*
X3397250Y3257042D01*
X3389884Y3249929D01*
X3389884Y3242563D01*
X3393693Y3235197D01*
X3397250Y3231642D01*
X3404615Y3228086D01*
X3426459Y3220720D01*
X3433572Y3217163D01*
X3437381Y3213354D01*
X3440938Y3206242D01*
X3440938Y3195320D01*
X3433572Y3187954D01*
X3422650Y3184397D01*
X3408172Y3184397D01*
X3397250Y3187954D01*
X3389884Y3195320D01*
X3464813Y3260852D02*
G01*
X3483102Y3184397D01*
X3501136Y3260852D02*
G01*
X3483102Y3184397D01*
X3501136Y3260852D02*
G01*
X3519424Y3184397D01*
X3537711Y3260852D02*
G01*
X3519424Y3184397D01*
X3565143Y3242563D02*
G01*
X3565143Y3246120D01*
X3568954Y3253486D01*
X3572509Y3257042D01*
X3579875Y3260852D01*
X3594354Y3260852D01*
X3601720Y3257042D01*
X3605275Y3253486D01*
X3608831Y3246120D01*
X3608831Y3239007D01*
X3605275Y3231642D01*
X3597909Y3220720D01*
X3561588Y3184397D01*
X3612641Y3184397D01*
X6440931Y3249929D02*
G01*
X6433565Y3257042D01*
X6422643Y3260852D01*
X6408165Y3260852D01*
X6397243Y3257042D01*
X6389877Y3249929D01*
X6389877Y3242563D01*
X6393688Y3235197D01*
X6397243Y3231642D01*
X6404609Y3228086D01*
X6426454Y3220720D01*
X6433565Y3217163D01*
X6437375Y3213354D01*
X6440931Y3206242D01*
X6440931Y3195320D01*
X6433565Y3187954D01*
X6422643Y3184397D01*
X6408165Y3184397D01*
X6397243Y3187954D01*
X6389877Y3195320D01*
X6464808Y3260852D02*
G01*
X6483095Y3184397D01*
X6501129Y3260852D02*
G01*
X6483095Y3184397D01*
X6501129Y3260852D02*
G01*
X6519418Y3184397D01*
X6537706Y3260852D02*
G01*
X6519418Y3184397D01*
X6568947Y3260852D02*
G01*
X6608825Y3260852D01*
X6586981Y3231642D01*
X6597904Y3231642D01*
X6605270Y3228086D01*
X6608825Y3224276D01*
X6612636Y3213354D01*
X6612636Y3206242D01*
X6608825Y3195320D01*
X6601713Y3187954D01*
X6590791Y3184397D01*
X6579870Y3184397D01*
X6568947Y3187954D01*
X6565138Y3191763D01*
X6561581Y3198876D01*
X2040890Y1649729D02*
G01*
X2033524Y1657095D01*
X2022602Y1660652D01*
X2008124Y1660652D01*
X1997202Y1657095D01*
X1990090Y1649729D01*
X1990090Y1642618D01*
X1993645Y1635252D01*
X1997202Y1631695D01*
X2004568Y1627886D01*
X2026411Y1620773D01*
X2033524Y1617218D01*
X2037334Y1613407D01*
X2040890Y1606295D01*
X2040890Y1595373D01*
X2033524Y1588007D01*
X2022602Y1584452D01*
X2008124Y1584452D01*
X1997202Y1588007D01*
X1990090Y1595373D01*
X2065020Y1660652D02*
G01*
X2083054Y1584452D01*
X2101341Y1660652D02*
G01*
X2083054Y1584452D01*
X2101341Y1660652D02*
G01*
X2119375Y1584452D01*
X2137663Y1660652D02*
G01*
X2119375Y1584452D01*
X2212593Y1660652D02*
G01*
X2176272Y1584452D01*
X2161540Y1660652D02*
G01*
X2212593Y1660652D01*
X2040890Y749807D02*
G01*
X2033524Y757173D01*
X2022602Y760729D01*
X2008124Y760729D01*
X1997202Y757173D01*
X1990090Y749807D01*
X1990090Y742442D01*
X1993645Y735329D01*
X1997202Y731520D01*
X2004568Y727963D01*
X2026411Y720852D01*
X2033524Y717042D01*
X2037334Y713486D01*
X2040890Y706120D01*
X2040890Y695197D01*
X2033524Y688086D01*
X2022602Y684276D01*
X2008124Y684276D01*
X1997202Y688086D01*
X1990090Y695197D01*
X2065020Y760729D02*
G01*
X2083054Y684276D01*
X2101341Y760729D02*
G01*
X2083054Y684276D01*
X2101341Y760729D02*
G01*
X2119375Y684276D01*
X2137663Y760729D02*
G01*
X2119375Y684276D01*
X2179827Y760729D02*
G01*
X2168906Y757173D01*
X2165350Y749807D01*
X2165350Y742442D01*
X2168906Y735329D01*
X2176272Y731520D01*
X2190750Y727963D01*
X2201672Y724407D01*
X2208784Y717042D01*
X2212593Y709929D01*
X2212593Y699007D01*
X2208784Y691642D01*
X2205227Y688086D01*
X2194306Y684276D01*
X2179827Y684276D01*
X2168906Y688086D01*
X2165350Y691642D01*
X2161540Y699007D01*
X2161540Y709929D01*
X2165350Y717042D01*
X2172461Y724407D01*
X2183384Y727963D01*
X2197861Y731520D01*
X2205227Y735329D01*
X2208784Y742442D01*
X2208784Y749807D01*
X2205227Y757173D01*
X2194306Y760729D01*
X2179827Y760729D01*
X1240789Y1249934D02*
G01*
X1233678Y1257045D01*
X1222755Y1260855D01*
X1208278Y1260855D01*
X1197355Y1257045D01*
X1189989Y1249934D01*
X1189989Y1242568D01*
X1193545Y1235202D01*
X1197355Y1231645D01*
X1204468Y1228089D01*
X1226312Y1220723D01*
X1233678Y1217168D01*
X1237234Y1213357D01*
X1240789Y1206245D01*
X1240789Y1195323D01*
X1233678Y1187957D01*
X1222755Y1184402D01*
X1208278Y1184402D01*
X1197355Y1187957D01*
X1189989Y1195323D01*
X1264920Y1260855D02*
G01*
X1282954Y1184402D01*
X1301242Y1260855D02*
G01*
X1282954Y1184402D01*
X1301242Y1260855D02*
G01*
X1319529Y1184402D01*
X1337563Y1260855D02*
G01*
X1319529Y1184402D01*
X1405381Y1249934D02*
G01*
X1401571Y1257045D01*
X1390650Y1260855D01*
X1383537Y1260855D01*
X1372615Y1257045D01*
X1365250Y1246123D01*
X1361694Y1228089D01*
X1361694Y1209802D01*
X1365250Y1195323D01*
X1372615Y1187957D01*
X1383537Y1184402D01*
X1387094Y1184402D01*
X1398015Y1187957D01*
X1405381Y1195323D01*
X1408937Y1206245D01*
X1408937Y1209802D01*
X1405381Y1220723D01*
X1398015Y1228089D01*
X1387094Y1231645D01*
X1383537Y1231645D01*
X1372615Y1228089D01*
X1365250Y1220723D01*
X1361694Y1209802D01*
X7820987Y749797D02*
G01*
X7813621Y757163D01*
X7802699Y760719D01*
X7788221Y760719D01*
X7777299Y757163D01*
X7769933Y749797D01*
X7769933Y742431D01*
X7773743Y735319D01*
X7777299Y731509D01*
X7784411Y727953D01*
X7806255Y720841D01*
X7813621Y717031D01*
X7817177Y713475D01*
X7820987Y706109D01*
X7820987Y695187D01*
X7813621Y688075D01*
X7802699Y684265D01*
X7788221Y684265D01*
X7777299Y688075D01*
X7769933Y695187D01*
X7844863Y760719D02*
G01*
X7863151Y684265D01*
X7881185Y760719D02*
G01*
X7863151Y684265D01*
X7881185Y760719D02*
G01*
X7899473Y684265D01*
X7917507Y760719D02*
G01*
X7899473Y684265D01*
X7941637Y746241D02*
G01*
X7949003Y749797D01*
X7959925Y760719D01*
X7959925Y684265D01*
X7987357Y742431D02*
G01*
X7987357Y746241D01*
X7991167Y753353D01*
X7994723Y757163D01*
X8002089Y760719D01*
X8016567Y760719D01*
X8023679Y757163D01*
X8027489Y753353D01*
X8031045Y746241D01*
X8031045Y738875D01*
X8027489Y731509D01*
X8020123Y720841D01*
X7983801Y684265D01*
X8034601Y684265D01*
X7830987Y1649719D02*
G01*
X7823621Y1657085D01*
X7812699Y1660641D01*
X7798221Y1660641D01*
X7787299Y1657085D01*
X7779933Y1649719D01*
X7779933Y1642607D01*
X7783743Y1635241D01*
X7787299Y1631685D01*
X7794411Y1627875D01*
X7816255Y1620763D01*
X7823621Y1617207D01*
X7827177Y1613397D01*
X7830987Y1606285D01*
X7830987Y1595363D01*
X7823621Y1587997D01*
X7812699Y1584441D01*
X7798221Y1584441D01*
X7787299Y1587997D01*
X7779933Y1595363D01*
X7854863Y1660641D02*
G01*
X7873151Y1584441D01*
X7891185Y1660641D02*
G01*
X7873151Y1584441D01*
X7891185Y1660641D02*
G01*
X7909473Y1584441D01*
X7927507Y1660641D02*
G01*
X7909473Y1584441D01*
X7951637Y1646163D02*
G01*
X7959003Y1649719D01*
X7969925Y1660641D01*
X7969925Y1584441D01*
X7993801Y1646163D02*
G01*
X8001167Y1649719D01*
X8012089Y1660641D01*
X8012089Y1584441D01*
X8620833Y1249923D02*
G01*
X8613721Y1257035D01*
X8602799Y1260845D01*
X8588067Y1260845D01*
X8577145Y1257035D01*
X8570033Y1249923D01*
X8570033Y1242557D01*
X8573589Y1235191D01*
X8577145Y1231635D01*
X8584511Y1228079D01*
X8606355Y1220713D01*
X8613721Y1217157D01*
X8617277Y1213347D01*
X8620833Y1206235D01*
X8620833Y1195313D01*
X8613721Y1187947D01*
X8602799Y1184391D01*
X8588067Y1184391D01*
X8577145Y1187947D01*
X8570033Y1195313D01*
X8644963Y1260845D02*
G01*
X8662997Y1184391D01*
X8681285Y1260845D02*
G01*
X8662997Y1184391D01*
X8681285Y1260845D02*
G01*
X8699319Y1184391D01*
X8717607Y1260845D02*
G01*
X8699319Y1184391D01*
X8741737Y1246113D02*
G01*
X8748849Y1249923D01*
X8759771Y1260845D01*
X8759771Y1184391D01*
X8791013Y1260845D02*
G01*
X8831145Y1260845D01*
X8809301Y1231635D01*
X8820223Y1231635D01*
X8827335Y1228079D01*
X8831145Y1224269D01*
X8834701Y1213347D01*
X8834701Y1206235D01*
X8831145Y1195313D01*
X8823779Y1187947D01*
X8812857Y1184391D01*
X8801935Y1184391D01*
X8791013Y1187947D01*
X8787457Y1191757D01*
X8783901Y1198869D01*
X740790Y2449728D02*
G01*
X733679Y2457094D01*
X722756Y2460650D01*
X708279Y2460650D01*
X697356Y2457094D01*
X689990Y2449728D01*
X689990Y2442616D01*
X693546Y2435250D01*
X697356Y2431694D01*
X704469Y2427884D01*
X726312Y2420772D01*
X733679Y2417216D01*
X737235Y2413406D01*
X740790Y2406294D01*
X740790Y2395372D01*
X733679Y2388006D01*
X722756Y2384450D01*
X708279Y2384450D01*
X697356Y2388006D01*
X689990Y2395372D01*
X764920Y2460650D02*
G01*
X782954Y2384450D01*
X801243Y2460650D02*
G01*
X782954Y2384450D01*
X801243Y2460650D02*
G01*
X819530Y2384450D01*
X837564Y2460650D02*
G01*
X819530Y2384450D01*
X898017Y2460650D02*
G01*
X861695Y2409850D01*
X916051Y2409850D01*
X898017Y2460650D02*
G01*
X898017Y2384450D01*
X9140825Y2449728D02*
G01*
X9133713Y2457094D01*
X9122790Y2460650D01*
X9108059Y2460650D01*
X9097136Y2457094D01*
X9090025Y2449728D01*
X9090025Y2442616D01*
X9093581Y2435250D01*
X9097136Y2431694D01*
X9104502Y2427884D01*
X9126347Y2420772D01*
X9133713Y2417216D01*
X9137268Y2413406D01*
X9140825Y2406294D01*
X9140825Y2395372D01*
X9133713Y2388006D01*
X9122790Y2384450D01*
X9108059Y2384450D01*
X9097136Y2388006D01*
X9090025Y2395372D01*
X9164954Y2460650D02*
G01*
X9182988Y2384450D01*
X9201277Y2460650D02*
G01*
X9182988Y2384450D01*
X9201277Y2460650D02*
G01*
X9219311Y2384450D01*
X9237599Y2460650D02*
G01*
X9219311Y2384450D01*
X9305163Y2460650D02*
G01*
X9268840Y2460650D01*
X9265284Y2427884D01*
X9268840Y2431694D01*
X9279763Y2435250D01*
X9290684Y2435250D01*
X9301606Y2431694D01*
X9308972Y2424328D01*
X9312529Y2413406D01*
X9312529Y2406294D01*
X9308972Y2395372D01*
X9301606Y2388006D01*
X9290684Y2384450D01*
X9279763Y2384450D01*
X9268840Y2388006D01*
X9265284Y2391562D01*
X9261729Y2398928D01*
D12*
X4637531Y1810898D02*
G01*
X4614418Y1799468D01*
X4591304Y1776354D01*
X4579620Y1753240D01*
X4568190Y1718442D01*
X4568190Y1660784D01*
X4579620Y1626240D01*
X4591304Y1603126D01*
X4614418Y1580012D01*
X4637531Y1568582D01*
X4683759Y1568582D01*
X4706620Y1580012D01*
X4729734Y1603126D01*
X4741418Y1626240D01*
X4752847Y1660784D01*
X4752847Y1718442D01*
X4741418Y1753240D01*
X4729734Y1776354D01*
X4706620Y1799468D01*
X4683759Y1810898D01*
X4637531Y1810898D01*
X4829047Y1810898D02*
G01*
X4829047Y1568582D01*
X4829047Y1568582D02*
G01*
X4967731Y1568582D01*
X5043931Y1810898D02*
G01*
X5043931Y1568582D01*
X5043931Y1810898D02*
G01*
X5194045Y1810898D01*
X5043931Y1695582D02*
G01*
X5136134Y1695582D01*
X5043931Y1568582D02*
G01*
X5194045Y1568582D01*
X5270245Y1810898D02*
G01*
X5270245Y1568582D01*
X5270245Y1810898D02*
G01*
X5351018Y1810898D01*
X5385561Y1799468D01*
X5408675Y1776354D01*
X5420359Y1753240D01*
X5431790Y1718442D01*
X5431790Y1660784D01*
X5420359Y1626240D01*
X5408675Y1603126D01*
X5385561Y1580012D01*
X5351018Y1568582D01*
X5270245Y1568582D01*
D13*
X7649969Y2700022D02*
G01*
X7649969Y3400028D01*
X7949981Y3400028D01*
X7949981Y2700022D01*
X7649969Y2700022D01*
D14*
X7689987Y3160019D02*
G01*
X7689936Y3160123D01*
X7909905Y3160123D01*
X7909905Y2939907D01*
X7689936Y2939907D01*
X7689987Y3160019D01*
D13*
X7949981Y3450003D02*
G01*
X7249975Y3450003D01*
X7249975Y3750015D01*
X7949981Y3750015D01*
X7949981Y3450003D01*
X7629977Y3950009D02*
G01*
X7699969Y3950009D01*
X7569982Y3950462D02*
G01*
X7499987Y3950009D01*
X7569982Y3999997D02*
G01*
X7569982Y3899997D01*
X7629977Y3899997D02*
G01*
X7629977Y3999997D01*
X7949981Y3799997D02*
G01*
X7249975Y3799997D01*
X7249975Y4100009D01*
X7949981Y4100009D01*
X7949981Y3799997D01*
X7549982Y3600010D02*
G01*
X7499982Y3600010D01*
X7519982Y3650015D02*
G01*
X7519982Y3550015D01*
X7699982Y3600010D02*
G01*
X7599982Y3600010D01*
X7599982Y3650015D01*
X7549982Y3600010D01*
X7599982Y3550015D01*
X7599982Y3600010D01*
X8349952Y2700020D02*
G01*
X8349952Y3400028D01*
X8649967Y3400028D01*
X8649967Y2700020D01*
X8349952Y2700020D01*
D14*
X8389975Y3160019D02*
G01*
X8389927Y3160118D01*
X8609893Y3160118D01*
X8609893Y2939907D01*
X8389927Y2939907D01*
X8389975Y3160019D01*
D13*
X9049969Y3449998D02*
G01*
X8349968Y3449998D01*
X8349968Y3750010D01*
X9049969Y3750010D01*
X9049969Y3449998D01*
X8729964Y3950004D02*
G01*
X8799962Y3950004D01*
X8669972Y3950456D02*
G01*
X8599975Y3950004D01*
X8669972Y3999992D02*
G01*
X8669972Y3899992D01*
X8729964Y3899992D02*
G01*
X8729964Y3999992D01*
X9049969Y3799992D02*
G01*
X8349968Y3799992D01*
X8349968Y4100004D01*
X9049969Y4100004D01*
X9049969Y3799992D01*
X8649967Y3600010D02*
G01*
X8599975Y3600010D01*
X8619967Y3650010D02*
G01*
X8619967Y3550010D01*
X8799974Y3600010D02*
G01*
X8699974Y3600010D01*
X8699974Y3650010D01*
X8649967Y3600010D01*
X8699974Y3550010D01*
X8699974Y3600010D01*
D14*
X2489992Y3160008D02*
G01*
X2489941Y3160107D01*
X2709910Y3160107D01*
X2709910Y2939897D01*
X2489941Y2939897D01*
X2489992Y3160008D01*
D13*
X2449982Y2700012D02*
G01*
X2449982Y3400018D01*
X2749994Y3400018D01*
X2749994Y2700012D01*
X2449982Y2700012D01*
X2749994Y3449988D02*
G01*
X2049980Y3449988D01*
X2049980Y3750000D01*
X2749994Y3750000D01*
X2749994Y3449988D01*
X2429990Y3949994D02*
G01*
X2499974Y3949994D01*
X2369987Y3950446D02*
G01*
X2300000Y3949994D01*
X2369987Y3999981D02*
G01*
X2369987Y3899982D01*
X2429990Y3899982D02*
G01*
X2429990Y3999981D01*
X2749994Y3799982D02*
G01*
X2049980Y3799982D01*
X2049980Y4099994D01*
X2749994Y4099994D01*
X2749994Y3799982D01*
X2349995Y3600000D02*
G01*
X2299987Y3600000D01*
X2319992Y3650000D02*
G01*
X2319992Y3550000D01*
X2499987Y3600000D02*
G01*
X2399987Y3600000D01*
X2399987Y3650000D01*
X2349995Y3600000D01*
X2399987Y3550000D01*
X2399987Y3600000D01*
X1349984Y2700009D02*
G01*
X1349984Y3400016D01*
X1649996Y3400016D01*
X1649996Y2700009D01*
X1349984Y2700009D01*
D14*
X1389997Y3160006D02*
G01*
X1389951Y3160110D01*
X1609915Y3160110D01*
X1609915Y2939892D01*
X1389951Y2939892D01*
X1389997Y3160006D01*
D13*
X1649994Y3449993D02*
G01*
X949987Y3449993D01*
X949987Y3750005D01*
X1649994Y3750005D01*
X1649994Y3449993D01*
D11*
X3529992Y5149989D02*
G01*
X3449993Y5149989D01*
X3449993Y5209989D01*
X3529992Y5209989D01*
X3529992Y5149989D01*
X3529992Y5209989D01*
X3529992Y5209989D01*
X3489993Y5249989D01*
X3449993Y5209989D01*
X3419985Y5269989D02*
G01*
X3559985Y5269989D01*
X3559985Y5129989D01*
X3419985Y5129989D01*
X3419985Y5269989D01*
X6429987Y5269989D02*
G01*
X6569986Y5269989D01*
X6569986Y5129989D01*
X6429987Y5129989D01*
X6429987Y5269989D01*
D13*
X1329989Y3949999D02*
G01*
X1399981Y3949999D01*
X1269992Y3950451D02*
G01*
X1200000Y3949999D01*
X1269992Y3999986D02*
G01*
X1269992Y3899987D01*
X1329989Y3899987D02*
G01*
X1329989Y3999986D01*
X1649994Y3799987D02*
G01*
X949987Y3799987D01*
X949987Y4099999D01*
X1649994Y4099999D01*
X1649994Y3799987D01*
X1249994Y3599997D02*
G01*
X1199995Y3599997D01*
X1219992Y3650005D02*
G01*
X1219992Y3550005D01*
X1399994Y3599997D02*
G01*
X1299994Y3599997D01*
X1299994Y3650005D01*
X1249994Y3599997D01*
X1299994Y3550005D01*
X1299994Y3599997D01*
D15*
X9007492Y5400509D02*
G01*
X9007492Y4190504D01*
X9007492Y4188523D02*
G01*
X8397486Y4188523D01*
X8395505Y5398528D02*
G01*
X8395505Y4188523D01*
X9007492Y5400509D02*
G01*
X8397486Y5400509D01*
X8953492Y5592508D02*
G01*
X8453493Y5592508D01*
X8956489Y5592508D02*
G01*
X8956489Y5403507D01*
X8959486Y5400509D01*
X8455499Y5592508D02*
G01*
X8452502Y5592508D01*
X8452502Y5403507D01*
X8452502Y5400509D01*
X8452502Y5400509D01*
X7907502Y5400514D02*
G01*
X7907502Y4190509D01*
X7907502Y4188528D02*
G01*
X7297496Y4188528D01*
X7295515Y5398533D02*
G01*
X7295515Y4188528D01*
X7907502Y5400514D02*
G01*
X7297496Y5400514D01*
X7853502Y5592513D02*
G01*
X7353503Y5592513D01*
X7856499Y5592513D02*
G01*
X7856499Y5403512D01*
X7859496Y5400514D01*
X7355509Y5592513D02*
G01*
X7352512Y5592513D01*
X7352512Y5403512D01*
X7352512Y5400514D01*
X7352512Y5400514D01*
X2707513Y5400502D02*
G01*
X2707513Y4190497D01*
X2707513Y4188515D02*
G01*
X2097506Y4188515D01*
X2095525Y5398521D02*
G01*
X2095525Y4188515D01*
X2707513Y5400502D02*
G01*
X2097506Y5400502D01*
X2653512Y5592500D02*
G01*
X2153513Y5592500D01*
X2656509Y5592500D02*
G01*
X2656509Y5403499D01*
X2659506Y5400502D01*
X2155520Y5592500D02*
G01*
X2152522Y5592500D01*
X2152522Y5403499D01*
X2152522Y5400502D01*
X2152522Y5400502D01*
X1607515Y5400502D02*
G01*
X1607515Y4190497D01*
X1607515Y4188515D02*
G01*
X997508Y4188515D01*
X995527Y5398521D02*
G01*
X995527Y4188515D01*
X1607515Y5400502D02*
G01*
X997508Y5400502D01*
X1553514Y5592500D02*
G01*
X1053515Y5592500D01*
X1556512Y5592500D02*
G01*
X1556512Y5403499D01*
X1559509Y5400502D01*
X1055522Y5592500D02*
G01*
X1052525Y5592500D01*
X1052525Y5403499D01*
X1052525Y5400502D01*
X1052525Y5400502D01*
X5448122Y5399984D02*
G01*
X5448122Y5549983D01*
X4552015Y5549983D01*
X4552015Y5399984D02*
G01*
X4552015Y5549983D01*
X4408865Y3049988D02*
G01*
X4099984Y3049988D01*
X4662865Y3049988D02*
G01*
X4575093Y3049988D01*
X4916865Y3049988D02*
G01*
X4829093Y3049988D01*
X5170863Y3049988D02*
G01*
X5083093Y3049988D01*
X5424863Y3049988D02*
G01*
X5337091Y3049988D01*
X5899980Y3125376D02*
G01*
X5899980Y3049988D01*
X5591091Y3049988D01*
X5899980Y3379373D02*
G01*
X5899980Y3291603D01*
X5899980Y3633373D02*
G01*
X5899980Y3545601D01*
X5899980Y3887373D02*
G01*
X5899980Y3799601D01*
X5899980Y4141373D02*
G01*
X5899980Y4053601D01*
X5899980Y4395373D02*
G01*
X5899980Y4307601D01*
X5899980Y4649370D02*
G01*
X5899980Y4561601D01*
X5899980Y4903370D02*
G01*
X5899980Y4815598D01*
X5899980Y5157370D02*
G01*
X5899980Y5069598D01*
X4099984Y5323601D02*
G01*
X4099984Y5399984D01*
X5899980Y5399984D01*
X5899980Y5323598D01*
X4099984Y5069601D02*
G01*
X4099984Y5157373D01*
X4099984Y4815601D02*
G01*
X4099984Y4903373D01*
X4099984Y4561603D02*
G01*
X4099984Y4649373D01*
X4099984Y4307603D02*
G01*
X4099984Y4395376D01*
X4099984Y4053603D02*
G01*
X4099984Y4141376D01*
X4099984Y3799603D02*
G01*
X4099984Y3887376D01*
X4099984Y3545603D02*
G01*
X4099984Y3633376D01*
X4099984Y3291606D02*
G01*
X4099984Y3379376D01*
X4099984Y3049988D02*
G01*
X4099984Y3125378D01*
X3199993Y4559579D02*
G01*
X3199993Y5040401D01*
X3385301Y5099989D02*
G01*
X3614684Y5099989D01*
X3799992Y5040401D02*
G01*
X3799992Y4559579D01*
X3614684Y4499990D02*
G01*
X3385301Y4499990D01*
X6209987Y4559579D02*
G01*
X6209987Y5040401D01*
X6395295Y5099989D02*
G01*
X6624678Y5099989D01*
X6809986Y5040401D02*
G01*
X6809986Y4559579D01*
X6624678Y4499990D02*
G01*
X6395295Y4499990D01*
X2599994Y1359585D02*
G01*
X2599994Y1840407D01*
X2785303Y1899996D02*
G01*
X3014685Y1899996D01*
X3199993Y1840407D02*
G01*
X3199993Y1359585D01*
X3014685Y1299997D02*
G01*
X2785303Y1299997D01*
X6799986Y1359585D02*
G01*
X6799986Y1840407D01*
X6985294Y1899996D02*
G01*
X7214676Y1899996D01*
X7399985Y1840407D02*
G01*
X7399985Y1359585D01*
X7214676Y1299997D02*
G01*
X6985294Y1299997D01*
X3199993Y3359581D02*
G01*
X3199993Y3840403D01*
X3385301Y3899992D02*
G01*
X3614684Y3899992D01*
X3799992Y3840403D02*
G01*
X3799992Y3359581D01*
X3614684Y3299993D02*
G01*
X3385301Y3299993D01*
X6199987Y3359581D02*
G01*
X6199987Y3840403D01*
X6385295Y3899992D02*
G01*
X6614678Y3899992D01*
X6799986Y3840403D02*
G01*
X6799986Y3359581D01*
X6614678Y3299993D02*
G01*
X6385295Y3299993D01*
X1799996Y1759585D02*
G01*
X1799996Y2240406D01*
X1985304Y2299995D02*
G01*
X2214686Y2299995D01*
X2399995Y2240406D02*
G01*
X2399995Y1759585D01*
X2214686Y1699996D02*
G01*
X1985304Y1699996D01*
X1799996Y859586D02*
G01*
X1799996Y1340408D01*
X1985304Y1399997D02*
G01*
X2214686Y1399997D01*
X2399995Y1340408D02*
G01*
X2399995Y859586D01*
X2214686Y799998D02*
G01*
X1985304Y799998D01*
X999997Y1359585D02*
G01*
X999997Y1840407D01*
X1185306Y1899996D02*
G01*
X1414688Y1899996D01*
X1599996Y1840407D02*
G01*
X1599996Y1359585D01*
X1414688Y1299997D02*
G01*
X1185306Y1299997D01*
X7599984Y859586D02*
G01*
X7599984Y1340408D01*
X7785293Y1399997D02*
G01*
X8014675Y1399997D01*
X8199983Y1340408D02*
G01*
X8199983Y859586D01*
X8014675Y799998D02*
G01*
X7785293Y799998D01*
X7599984Y1759585D02*
G01*
X7599984Y2240406D01*
X7785293Y2299995D02*
G01*
X8014675Y2299995D01*
X8199983Y2240406D02*
G01*
X8199983Y1759585D01*
X8014675Y1699996D02*
G01*
X7785293Y1699996D01*
X8399983Y1359585D02*
G01*
X8399983Y1840407D01*
X8585291Y1899996D02*
G01*
X8814673Y1899996D01*
X8999981Y1840407D02*
G01*
X8999981Y1359585D01*
X8814673Y1299997D02*
G01*
X8585291Y1299997D01*
X499998Y2559583D02*
G01*
X499998Y3040405D01*
X685307Y3099993D02*
G01*
X914689Y3099993D01*
X1099997Y3040405D02*
G01*
X1099997Y2559583D01*
X914689Y2499995D02*
G01*
X685307Y2499995D01*
X8899982Y2559583D02*
G01*
X8899982Y3040405D01*
X9085290Y3099993D02*
G01*
X9314672Y3099993D01*
X9499981Y3040405D02*
G01*
X9499981Y2559583D01*
X9314672Y2499995D02*
G01*
X9085290Y2499995D01*
X4110992Y2846994D02*
G01*
X4110992Y2592994D01*
X5888987Y2592994D01*
X5888987Y2846994D01*
X4110992Y2846994D01*
X4194990Y89999D02*
G01*
X5594992Y89999D01*
X5594992Y89997D01*
X4178030Y89999D02*
G01*
X4194990Y89999D01*
X5594992Y89997D02*
G01*
X6364988Y89997D01*
X6364988Y2869994D01*
X3634993Y2869994D01*
X3634993Y89999D01*
X4194990Y89999D01*
X4194990Y89997D01*
X4194990Y89997D02*
G01*
X4194992Y378995D01*
X5594992Y378995D01*
X5594992Y89997D01*
X3664991Y2442982D02*
G01*
X6334988Y2442982D01*
X6334988Y516976D01*
X3664991Y516976D01*
X3664991Y2442982D01*
X3912997Y2233000D02*
G01*
X6086983Y2233000D01*
X6086983Y1146489D01*
X3912997Y1146489D01*
X3912997Y2233000D01*
D16*
G75*
G01
X6550000Y5199990D02*
G03X6550000Y5199990I-50013J0D01*
D15*
G75*
G01
X3680003Y4799990D02*
G03X3680003Y4799990I-180010J0D01*
G75*
G01
X3364738Y4980000D02*
G03X3364738Y4980000I-44729J0D01*
G75*
G01
X3364713Y4619981D02*
G03X3364713Y4619981I-44729J0D01*
G75*
G01
X3724732Y4619981D02*
G03X3724732Y4619981I-44729J0D01*
G75*
G01
X3724732Y4980000D02*
G03X3724732Y4980000I-44729J0D01*
G75*
G01
X6690004Y4799990D02*
G03X6690004Y4799990I-180010J0D01*
G75*
G01
X6374740Y4980000D02*
G03X6374740Y4980000I-44729J0D01*
G75*
G01
X6374714Y4619981D02*
G03X6374714Y4619981I-44729J0D01*
G75*
G01
X6734734Y4619981D02*
G03X6734734Y4619981I-44729J0D01*
G75*
G01
X6734734Y4980000D02*
G03X6734734Y4980000I-44729J0D01*
G75*
G01
X3080004Y1599997D02*
G03X3080004Y1599997I-180010J0D01*
G75*
G01
X2764739Y1780007D02*
G03X2764739Y1780007I-44729J0D01*
G75*
G01
X2764714Y1419987D02*
G03X2764714Y1419987I-44729J0D01*
G75*
G01
X3124733Y1419987D02*
G03X3124733Y1419987I-44729J0D01*
G75*
G01
X3124733Y1780007D02*
G03X3124733Y1780007I-44729J0D01*
G75*
G01
X7279996Y1599997D02*
G03X7279996Y1599997I-180010J0D01*
G75*
G01
X6964731Y1780007D02*
G03X6964731Y1780007I-44729J0D01*
G75*
G01
X6964705Y1419987D02*
G03X6964705Y1419987I-44729J0D01*
G75*
G01
X7324725Y1419987D02*
G03X7324725Y1419987I-44729J0D01*
G75*
G01
X7324725Y1780007D02*
G03X7324725Y1780007I-44729J0D01*
G75*
G01
X3680003Y3599993D02*
G03X3680003Y3599993I-180010J0D01*
G75*
G01
X3364738Y3780003D02*
G03X3364738Y3780003I-44729J0D01*
G75*
G01
X3364713Y3419983D02*
G03X3364713Y3419983I-44729J0D01*
G75*
G01
X3724732Y3419983D02*
G03X3724732Y3419983I-44729J0D01*
G75*
G01
X3724732Y3780003D02*
G03X3724732Y3780003I-44729J0D01*
G75*
G01
X6679997Y3599993D02*
G03X6679997Y3599993I-180010J0D01*
G75*
G01
X6364732Y3780003D02*
G03X6364732Y3780003I-44729J0D01*
G75*
G01
X6364707Y3419983D02*
G03X6364707Y3419983I-44729J0D01*
G75*
G01
X6724726Y3419983D02*
G03X6724726Y3419983I-44729J0D01*
G75*
G01
X6724726Y3780003D02*
G03X6724726Y3780003I-44729J0D01*
G75*
G01
X2280006Y1999996D02*
G03X2280006Y1999996I-180010J0D01*
G75*
G01
X1964741Y2180006D02*
G03X1964741Y2180006I-44729J0D01*
G75*
G01
X1964715Y1819986D02*
G03X1964715Y1819986I-44729J0D01*
G75*
G01
X2324735Y1819986D02*
G03X2324735Y1819986I-44729J0D01*
G75*
G01
X2324735Y2180006D02*
G03X2324735Y2180006I-44729J0D01*
G75*
G01
X2280006Y1099998D02*
G03X2280006Y1099998I-180010J0D01*
G75*
G01
X1964741Y1280008D02*
G03X1964741Y1280008I-44729J0D01*
G75*
G01
X1964715Y919988D02*
G03X1964715Y919988I-44729J0D01*
G75*
G01
X2324735Y919988D02*
G03X2324735Y919988I-44729J0D01*
G75*
G01
X2324735Y1280008D02*
G03X2324735Y1280008I-44729J0D01*
G75*
G01
X1480007Y1599997D02*
G03X1480007Y1599997I-180010J0D01*
G75*
G01
X1164742Y1780007D02*
G03X1164742Y1780007I-44729J0D01*
G75*
G01
X1164717Y1419987D02*
G03X1164717Y1419987I-44729J0D01*
G75*
G01
X1524737Y1419987D02*
G03X1524737Y1419987I-44729J0D01*
G75*
G01
X1524737Y1780007D02*
G03X1524737Y1780007I-44729J0D01*
G75*
G01
X8079994Y1099998D02*
G03X8079994Y1099998I-180010J0D01*
G75*
G01
X7764729Y1280008D02*
G03X7764729Y1280008I-44729J0D01*
G75*
G01
X7764704Y919988D02*
G03X7764704Y919988I-44729J0D01*
G75*
G01
X8124723Y919988D02*
G03X8124723Y919988I-44729J0D01*
G75*
G01
X8124723Y1280008D02*
G03X8124723Y1280008I-44729J0D01*
G75*
G01
X8079994Y1999996D02*
G03X8079994Y1999996I-180010J0D01*
G75*
G01
X7764729Y2180006D02*
G03X7764729Y2180006I-44729J0D01*
G75*
G01
X7764704Y1819986D02*
G03X7764704Y1819986I-44729J0D01*
G75*
G01
X8124723Y1819986D02*
G03X8124723Y1819986I-44729J0D01*
G75*
G01
X8124723Y2180006D02*
G03X8124723Y2180006I-44729J0D01*
G75*
G01
X8879992Y1599997D02*
G03X8879992Y1599997I-180010J0D01*
G75*
G01
X8564728Y1780007D02*
G03X8564728Y1780007I-44729J0D01*
G75*
G01
X8564702Y1419987D02*
G03X8564702Y1419987I-44729J0D01*
G75*
G01
X8924722Y1419987D02*
G03X8924722Y1419987I-44729J0D01*
G75*
G01
X8924722Y1780007D02*
G03X8924722Y1780007I-44729J0D01*
G75*
G01
X980008Y2799994D02*
G03X980008Y2799994I-180010J0D01*
G75*
G01
X664743Y2980004D02*
G03X664743Y2980004I-44729J0D01*
G75*
G01
X664718Y2619985D02*
G03X664718Y2619985I-44729J0D01*
G75*
G01
X1024738Y2619985D02*
G03X1024738Y2619985I-44729J0D01*
G75*
G01
X1024738Y2980004D02*
G03X1024738Y2980004I-44729J0D01*
G75*
G01
X9379991Y2799994D02*
G03X9379991Y2799994I-180010J0D01*
G75*
G01
X9064727Y2980004D02*
G03X9064727Y2980004I-44729J0D01*
G75*
G01
X9064701Y2619985D02*
G03X9064701Y2619985I-44729J0D01*
G75*
G01
X9424721Y2619985D02*
G03X9424721Y2619985I-44729J0D01*
G75*
G01
X9424721Y2980004D02*
G03X9424721Y2980004I-44729J0D01*
M02*
